<svg width="36" height="36" viewBox="0 0 36 36" fill="none" xmlns="http://www.w3.org/2000/svg">
<path d="M10.125 18H25.125M25.125 18L21 22.125M25.125 18L21 13.875" stroke="#1C1C1C" stroke-width="1.5" stroke-linecap="round" stroke-linejoin="round"/>
<path d="M3 22.5V13.5C3 11.9087 3.63214 10.3826 4.75736 9.25736C5.88258 8.13214 7.4087 7.5 9 7.5H27C28.5913 7.5 30.1174 8.13214 31.2426 9.25736C32.3679 10.3826 33 11.9087 33 13.5V22.5C33 24.0913 32.3679 25.6174 31.2426 26.7426C30.1174 27.8679 28.5913 28.5 27 28.5H9C7.4087 28.5 5.88258 27.8679 4.75736 26.7426C3.63214 25.6174 3 24.0913 3 22.5Z" stroke="#1C1C1C" stroke-width="1.5"/>
</svg>
