<svg width="119" height="122" viewBox="0 0 119 122" fill="none" xmlns="http://www.w3.org/2000/svg">
<g id="Group 109">
<path id="Vector" d="M102.09 82.4422C101.579 79.1974 99.9228 76.243 97.421 74.1144C94.9192 71.9859 91.7377 70.8241 88.4529 70.8397C81.8366 70.8397 75.9631 75.9277 74.977 82.5145C74.5662 85.167 74.8258 87.8326 74.7798 90.4883C74.7798 91.2081 74.6253 91.4053 73.8956 91.2114C69.3776 90.0479 64.7659 89.2846 60.114 88.9304C52.6398 88.284 45.1176 88.446 37.6782 89.4135C34.5499 89.789 31.4532 90.392 28.4127 91.218C27.7093 91.4185 27.4924 91.218 27.5318 90.4883C27.591 89.3445 27.5318 88.1875 27.5318 87.047H27.5088C27.5088 85.9821 27.5515 84.9139 27.5088 83.8522C27.1407 75.392 18.8184 69.1832 10.6047 71.221C7.55137 71.9486 4.83715 73.695 2.90961 76.1722C0.982067 78.6495 -0.043707 81.7097 0.00142832 84.8481C0.0517971 87.9646 1.1614 90.9711 3.14766 93.3732C5.13391 95.7752 7.87853 97.4297 10.9301 98.0644C11.6828 98.2288 11.8241 98.495 11.811 99.1688C11.7781 101.424 11.7913 103.678 11.811 105.933C11.8274 110.314 14.5817 113.493 18.9072 114.071C19.5646 114.157 19.7059 114.331 19.6895 114.939C19.6533 116.536 19.6632 118.134 19.6895 119.734C19.6895 121.253 20.4323 121.976 21.964 121.992C23.683 121.992 25.4052 121.963 27.1242 121.992C28.3009 122.022 29.0372 121.522 29.5335 120.477C30.4308 118.597 31.407 116.753 32.3075 114.89C32.3896 114.644 32.5525 114.433 32.7698 114.291C32.9871 114.15 33.2459 114.086 33.504 114.111C45.2642 114.13 57.0244 114.13 68.7846 114.111C69.5011 114.111 69.7707 114.406 70.0599 114.965C70.9835 116.878 71.9498 118.771 72.8833 120.678C73.0613 121.092 73.3637 121.442 73.7488 121.677C74.1338 121.913 74.5825 122.023 75.0329 121.992C76.834 121.973 78.6484 121.992 80.4397 121.992C81.8793 121.973 82.6155 121.23 82.6386 119.78C82.6616 118.222 82.6648 116.664 82.6386 115.11C82.6386 114.469 82.6681 114.16 83.4964 114.058C87.6739 113.539 90.4809 110.308 90.5137 106.101C90.5335 103.8 90.5466 101.499 90.5137 99.1984C90.5137 98.4523 90.7011 98.2123 91.4768 98.0348C94.9068 97.2907 97.9203 95.2581 99.8952 92.3566C101.87 89.4551 102.656 85.9061 102.09 82.4422ZM27.19 116.372C26.7463 117.844 25.8095 118.285 24.3568 118.084C23.8243 118.012 23.6073 117.966 23.581 117.348C23.4496 114.124 23.4266 114.127 26.6378 114.127H28.2812C27.8473 114.988 27.4102 115.646 27.19 116.372ZM78.6944 114.794C78.6516 115.238 78.6944 115.692 78.6944 116.142C78.6944 118.219 78.6944 118.203 76.5645 118.071C76.3856 118.088 76.2061 118.046 76.0532 117.952C75.9002 117.857 75.7821 117.716 75.7165 117.549C75.3649 116.77 74.9507 116.02 74.5662 115.248C74.4084 114.919 74.2572 114.591 74.0304 114.121C75.4799 114.121 76.7453 114.144 78.0107 114.121C78.5268 114.101 78.7371 114.242 78.6944 114.811V114.794ZM88.9032 94.4391C87.1974 94.5311 86.563 95.1786 86.5597 96.8877C86.5597 99.8459 86.5597 102.804 86.5597 105.742C86.5597 108.681 85.0051 110.186 82.0601 110.189H20.3304C17.2408 110.189 15.7289 108.681 15.7289 105.588C15.7289 102.719 15.7289 99.8492 15.7289 96.9798C15.7289 95.1622 15.1241 94.5245 13.3591 94.4325C10.7719 94.3188 8.33343 93.1919 6.57024 91.2952C4.80706 89.3986 3.86077 86.8845 3.93578 84.2959C4.0541 79.037 8.50771 74.7642 13.8554 74.7642C16.424 74.7872 18.8815 75.8153 20.7013 77.6283C22.5211 79.4414 23.5584 81.895 23.5909 84.4636C23.6304 86.9221 23.5909 89.3938 23.6139 91.8425C23.6498 92.0772 23.5955 92.3168 23.462 92.5131C23.3284 92.7094 23.1256 92.8479 22.8941 92.9008C21.7437 93.3183 20.6295 93.8343 19.4857 94.2714C18.8579 94.5147 18.6739 94.7875 19.0979 95.4152C19.6435 96.2238 19.9064 97.4728 20.6394 97.8409C21.3723 98.209 22.3781 97.2657 23.2688 96.9272C29.0536 94.7513 35.0586 93.5746 41.1852 92.9567C47.7945 92.2862 54.4546 92.2862 61.0639 92.9567C67.8479 93.6502 74.4971 94.9288 80.7848 97.7094C81.5145 98.0381 81.8793 97.9855 82.1587 97.246C82.2931 96.9478 82.4514 96.6609 82.632 96.3881C83.618 94.61 83.618 94.61 81.7084 93.7784C81.6328 93.7455 81.5539 93.7192 81.4783 93.6897C80.5744 93.3215 79.2597 93.1966 78.8686 92.5261C78.3986 91.7274 78.6714 90.462 78.701 89.4037C78.7568 87.2344 78.4873 85.0585 78.8916 82.9023C79.8448 77.8374 84.4561 74.2975 89.4488 74.7905C91.9432 75.0314 94.2523 76.2131 95.9068 78.0953C97.5613 79.9775 98.437 82.419 98.3561 84.9237C98.2695 87.4085 97.2474 89.7688 95.4946 91.532C93.7417 93.2953 91.3874 94.3312 88.9032 94.4325V94.4391Z" fill="#5C5C5C"/>
<path id="Vector_2" d="M118.034 8.45916C118.034 3.29886 114.748 0.0120517 109.597 0.00876484C99.1844 0.00876484 88.7762 0.00876484 78.3723 0.00876484C70.6253 0.00876484 62.8783 -0.0109561 55.1345 0.00876484C53.1691 -0.000597386 51.271 0.724106 49.8119 2.04095C48.3528 3.35779 47.4378 5.1719 47.2462 7.12801C46.9931 9.83963 46.9964 9.75746 49.6751 9.8725C50.9044 9.9218 51.2364 9.60956 51.1903 8.36385C51.0917 5.53062 52.7351 3.93979 55.5487 3.93979C63.5422 3.93979 71.5325 3.95952 79.526 3.91021C80.5449 3.91021 80.6895 4.2389 80.6863 5.1362C80.66 17.6261 80.6534 30.127 80.6665 42.6388C80.6665 45.2682 80.6665 45.1828 83.3387 45.2912C84.4989 45.3372 84.6271 44.933 84.6239 43.9305C84.591 31.0199 84.6238 18.1093 84.5811 5.19865C84.5811 4.22904 84.729 3.90035 85.8038 3.90692C93.7546 3.9628 101.705 3.93651 109.656 3.93979C112.562 3.93979 114.11 5.50103 114.11 8.42629C114.11 40.8562 114.11 73.2785 114.11 105.693C114.11 108.628 112.572 110.18 109.656 110.183H95.1482C92.4662 110.183 92.5023 110.183 92.453 112.921C92.453 113.818 92.5845 114.262 93.6133 114.14C94.4646 114.038 95.3356 114.166 96.1934 114.104C96.4903 114.052 96.7962 114.108 97.055 114.262C97.3139 114.417 97.5086 114.659 97.6035 114.945C98.5008 116.871 99.4868 118.755 100.42 120.661C100.595 121.079 100.895 121.433 101.28 121.672C101.665 121.911 102.114 122.024 102.567 121.996C104.328 121.973 106.093 121.996 107.855 121.996C109.449 121.979 110.156 121.263 110.176 119.655C110.195 118.048 110.176 116.457 110.176 114.86C110.176 114.42 110.176 114.176 110.784 114.084C115.52 113.361 118.051 110.383 118.051 105.604C118.051 89.4134 118.051 73.2237 118.051 57.035C118.051 40.8464 118.045 24.6544 118.034 8.45916ZM106.238 114.893C106.202 115.3 106.238 115.711 106.238 116.119C106.238 118.203 106.238 118.183 104.131 118.091C103.932 118.101 103.736 118.047 103.57 117.936C103.405 117.826 103.28 117.664 103.214 117.476C102.714 116.411 102.169 115.369 101.571 114.137C103.017 114.137 104.282 114.173 105.548 114.137C106.162 114.084 106.287 114.347 106.238 114.893Z" fill="#5C5C5C"/>
<path id="Vector_3" d="M14.4503 41.3274C19.0519 41.3274 23.6271 41.3274 28.2155 41.3274C29.2673 41.3274 30.6214 40.8771 31.292 41.5081C31.9066 42.0899 31.4662 43.4474 31.4497 44.4663C31.4497 45.1236 31.6469 45.3274 32.278 45.2683C33.2871 45.1729 34.6215 45.689 35.2164 45.0645C35.716 44.5353 35.4432 43.2041 35.384 42.2378C35.3347 41.4523 35.601 41.2945 36.3405 41.3043C39.085 41.3504 41.8295 41.3241 44.5575 41.3241H52.3013C54.5823 41.3241 55.2035 40.6108 55.0063 38.3134C54.3731 30.929 53.7453 23.5424 53.123 16.1536C52.9718 14.3656 52.367 13.7806 50.5626 13.7773C46.5494 13.7773 42.5329 13.7773 38.5164 13.7773C37.5073 13.7773 36.1728 14.2177 35.5779 13.5932C35.0783 13.0673 35.3512 11.7362 35.4103 10.7666C35.4564 9.98429 35.2 9.76079 34.4539 9.84296C33.4908 9.94814 32.209 9.44196 31.637 10.0435C31.1572 10.5496 31.407 11.8282 31.476 12.7518C31.545 13.6754 31.2361 13.8167 30.3947 13.8069C25.6419 13.7641 20.8892 13.7838 16.1365 13.7904C14.5982 13.7904 13.862 14.4116 13.7436 15.8151C13.0863 23.4033 12.4454 30.9936 11.8209 38.5862C11.6861 40.5812 12.3928 41.3241 14.4503 41.3274ZM15.9688 36.2755C16.5013 30.322 16.9954 24.3641 17.4512 18.4018C17.5136 17.6261 17.9442 17.7149 18.4372 17.7149H26.4242C33.6749 17.7149 40.9256 17.7149 48.1763 17.6919C49.1065 17.6919 49.3826 17.9055 49.4549 18.8751C49.8778 24.5942 50.3577 30.3067 50.8945 36.0126C50.9931 37.0972 50.7762 37.4358 49.6028 37.4193C44.1993 37.347 38.7892 37.3865 33.3824 37.3865C27.9756 37.3865 22.4866 37.3635 17.0403 37.4128C16.1003 37.4226 15.8834 37.2024 15.959 36.2755H15.9688Z" fill="#5C5C5C"/>
<path id="Vector_4" d="M11.9753 66.7245C12.567 67.3162 13.8422 66.81 14.8086 66.9152C15.5777 67.0039 15.765 66.7344 15.7519 65.9784C15.7026 63.109 15.7223 60.2397 15.7519 57.3735C15.7519 54.7901 17.3953 53.1368 19.959 53.1368C40.7755 53.1368 61.592 53.1368 82.4085 53.1368C84.9065 53.1368 86.5466 54.7803 86.5663 57.3012C86.5663 59.556 86.5663 61.8075 86.5663 64.0622C86.5663 66.9382 86.5663 66.9086 89.5047 66.925C90.287 66.925 90.5401 66.7508 90.5236 65.939C90.4678 63.1945 90.5039 60.4467 90.5007 57.7022C90.5007 52.4696 87.2138 49.2091 81.9845 49.2058H51.1279C40.6758 49.2058 30.2259 49.2058 19.7782 49.2058C15.2654 49.2058 11.857 52.634 11.811 57.1303C11.7869 59.3851 11.7869 61.6398 11.811 63.8946C11.8143 64.8511 11.387 66.1329 11.9753 66.7245Z" fill="#5C5C5C"/>
<path id="Vector_5" d="M43.2756 62.9348C43.2756 61.0022 43.2756 61.0022 41.3956 61.0022C39.3413 61.0022 39.3413 61.0022 39.3413 63.0039C39.3413 64.9365 39.3413 64.9365 41.2181 64.9365C43.2756 64.9365 43.2756 64.9365 43.2756 62.9348Z" fill="#5C5C5C"/>
<path id="Vector_6" d="M60.8667 61.0022C59.0129 61.0022 59.0129 61.0022 59.0129 62.8362C59.0129 64.9365 59.0129 64.9365 61.0935 64.9365C62.9472 64.9365 62.9472 64.9365 62.9472 63.1025C62.9604 61.0022 62.9604 61.0022 60.8667 61.0022Z" fill="#5C5C5C"/>
<path id="Vector_7" d="M29.5039 72.7098C29.5039 74.7739 29.5039 74.7739 31.4957 74.7739C33.4875 74.7739 33.4383 74.7739 33.4383 72.7821C33.4383 70.8396 33.4382 70.8396 31.4431 70.8396C29.5039 70.8396 29.5039 70.8396 29.5039 72.7098Z" fill="#5C5C5C"/>
<path id="Vector_8" d="M49.1755 72.9201C49.1755 74.7739 49.1755 74.7739 51.0096 74.7739C53.1098 74.7739 53.1098 74.7739 53.1098 72.6934C53.1098 70.8396 53.1098 70.8396 51.2758 70.8396C49.1755 70.8396 49.1755 70.8396 49.1755 72.9201Z" fill="#5C5C5C"/>
<path id="Vector_9" d="M68.8503 72.6671C68.8503 74.7739 68.8503 74.7739 70.921 74.7739C72.7846 74.7739 72.7847 74.7739 72.7847 72.9497C72.7847 70.8396 72.7846 70.8396 70.7139 70.8396C68.8503 70.8396 68.8503 70.8396 68.8503 72.6671Z" fill="#5C5C5C"/>
<path id="Vector_10" d="M41.3035 84.6114C43.2756 84.6114 43.2756 84.6114 43.2756 82.6393C43.2756 80.6672 43.2756 80.6672 41.3035 80.6672C39.3314 80.6672 39.3314 80.6672 39.3314 82.6393C39.3314 84.6114 39.3413 84.6114 41.3035 84.6114Z" fill="#5C5C5C"/>
<path id="Vector_11" d="M61.0836 80.6771C59.013 80.6771 59.0129 80.6771 59.0129 82.7873C59.0129 84.6114 59.013 84.6114 60.8766 84.6114C62.9473 84.6114 62.9472 84.6114 62.9472 82.5046C62.9604 80.6771 62.9604 80.6771 61.0836 80.6771Z" fill="#5C5C5C"/>
<path id="Vector_12" d="M13.7534 78.7115C12.9743 78.7154 12.2035 78.8732 11.4855 79.1757C10.7674 79.4783 10.1162 79.9197 9.56927 80.4746C9.02229 81.0295 8.59028 81.687 8.29811 82.4093C8.00594 83.1316 7.85935 83.9046 7.86672 84.6837C7.89088 86.2368 8.52483 87.7181 9.63174 88.8078C10.7386 89.8975 12.2297 90.5081 13.783 90.5079C14.5622 90.5041 15.3329 90.3463 16.0509 90.0438C16.769 89.7412 17.4202 89.2998 17.9671 88.7449C18.5141 88.19 18.9461 87.5325 19.2382 86.8102C19.5304 86.0879 19.6771 85.3149 19.6697 84.5358C19.6455 82.9827 19.0115 81.5014 17.9046 80.4117C16.7977 79.322 15.3067 78.7114 13.7534 78.7115ZM13.8356 86.5769C13.5711 86.5857 13.3076 86.5412 13.0607 86.4461C12.8138 86.3509 12.5886 86.2071 12.3984 86.023C12.2083 85.839 12.0571 85.6186 11.9539 85.375C11.8507 85.1313 11.7976 84.8694 11.7977 84.6048C11.8037 84.0892 12.0115 83.5964 12.3764 83.2321C12.7414 82.8677 13.2345 82.6608 13.7501 82.6557C14.2647 82.6556 14.759 82.8566 15.1274 83.2158C15.4959 83.5751 15.7094 84.0641 15.7222 84.5785C15.7295 85.0916 15.5366 85.5873 15.1843 85.9605C14.832 86.3336 14.3482 86.5547 13.8356 86.5769Z" fill="#5C5C5C"/>
<path id="Vector_13" d="M88.5581 78.7115C87.0082 78.7113 85.52 79.3192 84.4137 80.4047C83.3073 81.4901 82.6711 82.9664 82.6418 84.5161C82.6319 85.2949 82.7758 86.0681 83.0653 86.7912C83.3549 87.5143 83.7844 88.1731 84.3292 88.7299C84.874 89.2866 85.5234 89.7302 86.24 90.0353C86.9567 90.3405 87.7266 90.5011 88.5055 90.5079C90.0746 90.5079 91.5794 89.8846 92.6889 88.7751C93.7985 87.6656 94.4218 86.1608 94.4218 84.5917C94.4123 83.0379 93.7921 81.5502 92.6949 80.45C91.5978 79.3498 90.1118 78.7253 88.5581 78.7115ZM88.5811 86.5769C88.3155 86.584 88.0512 86.5374 87.8041 86.4398C87.557 86.3422 87.3321 86.1957 87.143 86.0091C86.9539 85.8224 86.8045 85.5995 86.7037 85.3537C86.6029 85.1079 86.5528 84.8442 86.5565 84.5785C86.5659 84.0618 86.7779 83.5694 87.1467 83.2073C87.5155 82.8453 88.0117 82.6425 88.5285 82.6426C89.0454 82.6425 89.5416 82.8453 89.9104 83.2073C90.2792 83.5694 90.4912 84.0618 90.5006 84.5785C90.5078 85.0943 90.3126 85.5924 89.9569 85.966C89.6011 86.3396 89.1131 86.5589 88.5976 86.5769H88.5811Z" fill="#5C5C5C"/>
</g>
</svg>
