<svg width="123" height="122" viewBox="0 0 123 122" fill="none" xmlns="http://www.w3.org/2000/svg">
<g id="Group 111">
<path id="Vector" d="M0.413257 43.1178C2.37082 52.3802 10.2268 59.0571 19.6942 59.2493C26.3156 59.3881 32.9454 59.3881 39.5838 59.2493C44.7524 59.1684 49.6882 57.0868 53.3538 53.4421C57.0194 49.7974 59.1292 44.8736 59.2397 39.7056C59.4191 32.9583 59.4191 26.2088 59.2397 19.4571C59.009 10.5055 52.8319 2.96681 44.1814 0.660017C43.2844 0.419726 42.32 0.464562 41.4806 0H17.5092C16.5768 0.560678 15.4747 0.503007 14.4719 0.839414C6.90115 3.40251 2.19147 8.52873 0.394093 16.3174C0.304384 16.7082 0.454982 17.2112 0.00964355 17.4996V41.9484C0.451778 42.2239 0.33316 42.7397 0.413257 43.1178ZM4.79622 20.5529C4.81223 11.582 11.5788 4.81542 20.5496 4.7994C26.6178 4.7994 32.687 4.7994 38.7573 4.7994C47.6513 4.81862 54.3569 11.4154 54.4947 20.3094C54.5428 23.4235 54.4947 26.5377 54.4947 29.6519C54.4947 32.766 54.5235 35.8001 54.4947 38.8758C54.4146 46.7477 49.3397 52.8191 41.6119 54.2801C40.6677 54.4367 39.711 54.5054 38.7541 54.4851C32.7244 54.5043 26.6958 54.5043 20.6682 54.4851C11.5116 54.4851 4.80262 47.757 4.79301 38.6291C4.78874 32.6123 4.78981 26.5868 4.79622 20.5529Z" fill="#5C5C5C"/>
<path id="Vector_2" d="M39.4589 62.677C32.9102 62.5574 26.3593 62.5574 19.8063 62.677C10.294 62.8404 2.38682 69.5077 0.413234 78.8213C0.329933 79.2122 0.448543 79.7152 0 79.9875V104.44C0.438931 104.68 0.278693 105.151 0.355586 105.503C2.47655 115.378 10.5375 121.923 20.6393 121.936C26.7908 121.936 32.9423 121.971 39.0905 121.936C50.0702 121.865 58.9545 113.324 59.2428 102.354C59.4223 95.6513 59.4223 88.9424 59.2428 82.227C59.1259 77.0384 56.9968 72.0984 53.3052 68.4504C49.6136 64.8025 44.6486 62.7322 39.4589 62.677ZM54.5011 101.271C54.453 110.511 47.773 117.14 38.5138 117.146C32.5332 117.146 26.5441 117.146 20.5464 117.146C11.5756 117.13 4.81221 110.354 4.79619 101.389C4.79619 95.3213 4.79619 89.2531 4.79619 83.185C4.81221 74.2141 11.5499 67.486 20.5528 67.454C26.621 67.4412 32.6891 67.4412 38.7573 67.454C47.7281 67.47 54.3954 74.0796 54.4979 83.0697C54.5331 86.1422 54.4979 89.2179 54.4979 92.2904C54.5043 95.2828 54.5171 98.2784 54.5011 101.271Z" fill="#5C5C5C"/>
<path id="Vector_3" d="M83.1501 59.2525C89.7715 59.3978 96.4014 59.3978 103.04 59.2525C108.288 59.1373 113.284 56.9767 116.962 53.2314C120.64 49.486 122.71 44.4521 122.731 39.2027C122.778 32.8526 122.778 26.5014 122.731 20.1492C122.706 15.6841 121.207 11.3523 118.465 7.82768C115.724 4.30303 111.895 1.78317 107.573 0.660062C106.718 0.432587 105.795 0.461422 105.01 0.0192871H81.0388C80.9491 0.339675 80.6607 0.23392 80.4493 0.272367C70.6134 2.02489 63.6706 9.98974 63.4687 19.9538C63.3438 26.541 63.3118 33.1377 63.488 39.7217C63.6065 44.887 65.7201 49.8058 69.3857 53.4469C73.0513 57.088 77.9842 59.1686 83.1501 59.2525ZM68.2393 20.633C68.2842 11.4763 74.9835 4.82188 84.153 4.81227C90.1335 4.81227 96.1226 4.81227 102.12 4.81227C111.171 4.81227 117.928 11.566 117.944 20.617C117.944 26.6851 117.944 32.7533 117.944 38.8214C117.925 47.7282 111.181 54.4756 102.245 54.5204C96.0959 54.5396 89.9466 54.5396 83.7973 54.5204C75.0572 54.482 68.3515 47.8371 68.2329 39.0937C68.1881 35.8899 68.2329 32.7052 68.2329 29.5109C68.2361 26.5281 68.2233 23.5742 68.2393 20.633Z" fill="#5C5C5C"/>
<path id="Vector_4" d="M122.699 82.0252C122.484 71.8369 113.965 63.0872 103.761 62.7443C96.5775 62.5008 89.3752 62.5105 82.1953 62.7443C72.4267 63.0647 63.9716 71.6255 63.5295 81.3877C63.3661 84.976 63.5039 88.5772 63.5039 92.1719C63.5039 95.7667 63.3693 99.3646 63.5295 102.953C63.9812 113.141 72.651 121.676 82.8361 121.891C89.671 122.036 96.506 122.036 103.341 121.891C113.696 121.676 122.513 112.859 122.728 102.504C122.849 95.6823 122.84 88.8559 122.699 82.0252ZM117.944 101.386C117.925 110.357 111.155 117.13 102.191 117.143C96.1226 117.143 90.0533 117.143 83.9831 117.143C75.0442 117.124 68.3258 110.453 68.2425 101.511C68.2136 98.4387 68.2425 95.3629 68.2425 92.2872C68.2425 89.2115 68.2264 86.2191 68.2425 83.185C68.3033 74.0796 74.9706 67.4572 84.1016 67.4476C90.1313 67.4476 96.1599 67.4476 102.188 67.4476C111.184 67.4636 117.928 74.195 117.947 83.1786C117.956 89.2489 117.955 95.3181 117.944 101.386Z" fill="#5C5C5C"/>
</g>
</svg>
