<svg width="412" height="412" viewBox="0 0 412 412" fill="none" xmlns="http://www.w3.org/2000/svg">
<path d="M390.56 270.989H346.764V328.751H390.56V270.989Z" fill="#F5F5F5"/>
<path d="M390.559 270.989H370.025V328.751H390.559V270.989Z" fill="#EBEBEB"/>
<path d="M359.882 278.809H355.943V288.375H359.882V278.809Z" fill="#EBEBEB"/>
<path d="M359.882 316.251H355.943V325.818H359.882V316.251Z" fill="#EBEBEB"/>
<path d="M370.025 292.124C370.025 292.207 364.818 292.273 358.399 292.273C351.98 292.273 346.764 292.207 346.764 292.124C346.764 292.042 351.972 291.976 358.399 291.976C364.826 291.976 370.025 292.042 370.025 292.124Z" fill="#EBEBEB"/>
<path d="M359.882 297.67H355.943V307.237H359.882V297.67Z" fill="#EBEBEB"/>
<path d="M370.025 310.994C370.025 311.076 364.818 311.142 358.399 311.142C351.98 311.142 346.764 311.076 346.764 310.994C346.764 310.912 351.972 310.838 358.399 310.838C364.826 310.838 370.025 310.912 370.025 310.994Z" fill="#EBEBEB"/>
<path d="M378.323 278.809H374.384V288.375H378.323V278.809Z" fill="#E0E0E0"/>
<path d="M386.868 278.809H382.929V288.375H386.868V278.809Z" fill="#E0E0E0"/>
<path d="M378.323 296.961H374.384V306.528H378.323V296.961Z" fill="#E0E0E0"/>
<path d="M386.868 296.961H382.929V306.528H386.868V296.961Z" fill="#E0E0E0"/>
<path d="M378.323 315.114H374.384V324.681H378.323V315.114Z" fill="#E0E0E0"/>
<path d="M386.868 315.114H382.929V324.681H386.868V315.114Z" fill="#E0E0E0"/>
<path d="M393.847 268.97H343.468V271.055H393.847V268.97Z" fill="#E0E0E0"/>
<path d="M390.864 271.253C390.864 271.335 381.075 271.401 369.004 271.401C356.932 271.401 347.143 271.335 347.143 271.253C347.143 271.17 356.932 271.104 369.004 271.104C381.075 271.104 390.864 271.17 390.864 271.253Z" fill="#F5F5F5"/>
<path d="M298.156 125.067H220.074V329.435H298.156V125.067Z" fill="#EBEBEB"/>
<path d="M298.148 125.067H259.107V329.435H298.148V125.067Z" fill="#E0E0E0"/>
<path d="M256.561 100.775H228.99V125.067H256.561V100.775Z" fill="#EBEBEB"/>
<path d="M256.552 100.775H249.985V125.067H256.552V100.775Z" fill="#E0E0E0"/>
<path d="M300.43 123.649H213.564V125.067H300.43V123.649Z" fill="#E0E0E0"/>
<path d="M242.091 135.663H235.483V149.597H242.091V135.663Z" fill="white"/>
<path d="M259.107 155.069C259.107 155.217 250.372 155.332 239.594 155.332C228.816 155.332 220.074 155.217 220.074 155.069C220.074 154.92 228.808 154.797 239.594 154.797C250.381 154.797 259.107 154.912 259.107 155.069Z" fill="#E0E0E0"/>
<path d="M281.47 135.663H274.862V149.597H281.47V135.663Z" fill="#F5F5F5"/>
<path d="M298.486 155.069C298.486 155.217 289.751 155.332 278.973 155.332C268.196 155.332 259.453 155.217 259.453 155.069C259.453 154.92 268.187 154.797 278.973 154.797C289.76 154.797 298.486 154.912 298.486 155.069Z" fill="#EBEBEB"/>
<path d="M281.47 163.325H274.862V177.259H281.47V163.325Z" fill="#F5F5F5"/>
<path d="M298.486 182.73C298.486 182.879 289.751 183.002 278.973 183.002C268.196 183.002 259.453 182.879 259.453 182.73C259.453 182.582 268.187 182.467 278.973 182.467C289.76 182.467 298.486 182.59 298.486 182.73Z" fill="#EBEBEB"/>
<path d="M281.47 191.827H274.862V205.761H281.47V191.827Z" fill="#F5F5F5"/>
<path d="M298.486 211.232C298.486 211.381 289.751 211.504 278.973 211.504C268.196 211.504 259.453 211.381 259.453 211.232C259.453 211.084 268.187 210.969 278.973 210.969C289.76 210.969 298.486 211.092 298.486 211.232Z" fill="#EBEBEB"/>
<path d="M281.47 220.338H274.862V234.271H281.47V220.338Z" fill="#F5F5F5"/>
<path d="M298.486 239.735C298.486 239.883 289.751 240.006 278.973 240.006C268.196 240.006 259.453 239.883 259.453 239.735C259.453 239.586 268.187 239.471 278.973 239.471C289.76 239.471 298.486 239.594 298.486 239.735Z" fill="#EBEBEB"/>
<path d="M281.47 248.024H274.862V261.958H281.47V248.024Z" fill="#F5F5F5"/>
<path d="M298.486 267.429C298.486 267.569 289.751 267.693 278.973 267.693C268.196 267.693 259.453 267.569 259.453 267.429C259.453 267.289 268.187 267.157 278.973 267.157C289.76 267.157 298.486 267.281 298.486 267.429Z" fill="#EBEBEB"/>
<path d="M281.47 275.818H274.862V289.751H281.47V275.818Z" fill="#F5F5F5"/>
<path d="M281.47 303.982H274.862V317.916H281.47V303.982Z" fill="#F5F5F5"/>
<path d="M298.486 295.223C298.486 295.371 289.751 295.495 278.973 295.495C268.196 295.495 259.453 295.371 259.453 295.223C259.453 295.074 268.187 294.959 278.973 294.959C289.76 294.959 298.486 295.074 298.486 295.223Z" fill="#EBEBEB"/>
<path d="M242.091 163.754H235.483V177.687H242.091V163.754Z" fill="white"/>
<path d="M259.107 183.159C259.107 183.299 250.372 183.422 239.594 183.422C228.816 183.422 220.074 183.299 220.074 183.159C220.074 183.019 228.808 182.887 239.594 182.887C250.381 182.887 259.107 183.01 259.107 183.159Z" fill="#E0E0E0"/>
<path d="M242.091 191.844H235.483V205.778H242.091V191.844Z" fill="white"/>
<path d="M259.107 211.249C259.107 211.389 250.372 211.513 239.594 211.513C228.816 211.513 220.074 211.389 220.074 211.249C220.074 211.109 228.808 210.977 239.594 210.977C250.381 210.977 259.107 211.101 259.107 211.249Z" fill="#E0E0E0"/>
<path d="M242.091 219.934H235.483V233.868H242.091V219.934Z" fill="white"/>
<path d="M259.107 239.339C259.107 239.479 250.372 239.603 239.594 239.603C228.816 239.603 220.074 239.479 220.074 239.339C220.074 239.199 228.808 239.067 239.594 239.067C250.381 239.067 259.107 239.191 259.107 239.339Z" fill="#E0E0E0"/>
<path d="M242.091 248.024H235.483V261.958H242.091V248.024Z" fill="white"/>
<path d="M259.107 267.429C259.107 267.569 250.372 267.693 239.594 267.693C228.816 267.693 220.074 267.569 220.074 267.429C220.074 267.289 228.808 267.157 239.594 267.157C250.381 267.157 259.107 267.281 259.107 267.429Z" fill="#E0E0E0"/>
<path d="M242.091 276.114H235.483V290.048H242.091V276.114Z" fill="white"/>
<path d="M259.107 295.519C259.107 295.659 250.372 295.783 239.594 295.783C228.816 295.783 220.074 295.659 220.074 295.519C220.074 295.379 228.808 295.247 239.594 295.247C250.381 295.247 259.107 295.371 259.107 295.519Z" fill="#E0E0E0"/>
<path d="M242.091 304.204H235.483V318.138H242.091V304.204Z" fill="white"/>
<path d="M189.347 250.109H129.475V329.081H189.347V250.109Z" fill="#EBEBEB"/>
<path d="M189.347 250.109H161.273V329.081H189.347V250.109Z" fill="#E0E0E0"/>
<path d="M147.405 260.796H142.025V273.873H147.405V260.796Z" fill="#F5F5F5"/>
<path d="M147.405 311.991H142.025V325.068H147.405V311.991Z" fill="#F5F5F5"/>
<path d="M161.273 279.015C161.273 279.155 154.154 279.278 145.37 279.278C136.586 279.278 129.475 279.155 129.475 279.015C129.475 278.875 136.594 278.743 145.37 278.743C154.146 278.743 161.273 278.866 161.273 279.015Z" fill="#F5F5F5"/>
<path d="M147.405 286.587H142.025V299.664H147.405V286.587Z" fill="#F5F5F5"/>
<path d="M161.273 304.798C161.273 304.946 154.154 305.07 145.37 305.07C136.586 305.07 129.475 304.946 129.475 304.798C129.475 304.649 136.594 304.534 145.37 304.534C154.146 304.534 161.273 304.658 161.273 304.798Z" fill="#F5F5F5"/>
<path d="M172.611 260.796H167.231V273.873H172.611V260.796Z" fill="#F5F5F5"/>
<path d="M184.296 260.796H178.915V273.873H184.296V260.796Z" fill="#F5F5F5"/>
<path d="M172.611 285.615H167.231V298.692H172.611V285.615Z" fill="#F5F5F5"/>
<path d="M184.296 285.615H178.915V298.692H184.296V285.615Z" fill="#F5F5F5"/>
<path d="M172.611 310.434H167.231V323.511H172.611V310.434Z" fill="#F5F5F5"/>
<path d="M184.296 310.434H178.915V323.511H184.296V310.434Z" fill="#F5F5F5"/>
<path d="M193.854 247.357H124.976V250.208H193.854V247.357Z" fill="#E0E0E0"/>
<path d="M189.767 250.496C189.767 250.644 176.385 250.768 159.881 250.768C143.376 250.768 129.986 250.644 129.986 250.496C129.986 250.348 143.368 250.232 159.881 250.232C176.394 250.232 189.767 250.331 189.767 250.496Z" fill="#EBEBEB"/>
<path d="M316.935 152.185L369.976 152.44C369.976 152.44 364.95 140.904 354.213 140.904C346.03 140.904 345.668 145.996 340.749 147.455C335.829 148.913 325.48 139.998 316.935 152.185Z" fill="#EBEBEB"/>
<path d="M87.9373 95.7076L181.214 96.0949C181.214 96.0949 172.381 75.8822 153.503 75.8739C139.116 75.8739 138.473 84.8308 129.838 87.4099C121.202 89.9891 103 74.2754 87.9373 95.7076Z" fill="#F5F5F5"/>
<path d="M275.018 65.475L345.297 65.7634C345.297 65.7634 338.664 50.5359 324.417 50.5277C313.573 50.5277 313.095 57.2762 306.586 59.2044C300.076 61.1326 286.34 49.3246 275.018 65.475Z" fill="#FAFAFA"/>
<path d="M399.104 328.776C399.104 328.9 312.486 328.99 205.662 328.99C98.8388 328.99 12.2034 328.9 12.2034 328.776C12.2034 328.652 98.7976 328.562 205.662 328.562C312.527 328.562 399.104 328.661 399.104 328.776Z" fill="#263238"/>
<path d="M359.486 209.172H313.829V328.677H359.486V209.172Z" fill="#455A64"/>
<path d="M359.478 209.172H336.653V328.677H359.478V209.172Z" fill="#263238"/>
<path d="M335.17 194.967H319.045V209.172H335.17V194.967Z" fill="#455A64"/>
<path d="M335.162 194.967H331.322V209.172H335.162V194.967Z" fill="#263238"/>
<path d="M360.821 208.34H310.022V209.172H360.821V208.34Z" fill="#455A64"/>
<path d="M326.708 215.369H322.843V223.518H326.708V215.369Z" fill="#263238"/>
<path d="M336.653 226.715C336.653 226.798 331.545 226.872 325.241 226.872C318.937 226.872 313.829 226.798 313.829 226.715C313.829 226.633 318.937 226.559 325.241 226.559C331.545 226.559 336.653 226.6 336.653 226.715Z" fill="#263238"/>
<path d="M349.73 215.369H345.866V223.518H349.73V215.369Z" fill="#455A64"/>
<path d="M359.684 226.715C359.684 226.798 354.575 226.872 348.272 226.872C341.968 226.872 336.859 226.798 336.859 226.715C336.859 226.633 341.968 226.559 348.272 226.559C354.575 226.559 359.684 226.6 359.684 226.715Z" fill="#455A64"/>
<path d="M349.73 231.544H345.866V239.693H349.73V231.544Z" fill="#455A64"/>
<path d="M359.684 242.891C359.684 242.981 354.575 243.047 348.272 243.047C341.968 243.047 336.859 242.981 336.859 242.891C336.859 242.8 341.968 242.734 348.272 242.734C354.575 242.734 359.684 242.808 359.684 242.891Z" fill="#455A64"/>
<path d="M349.73 248.214H345.866V256.363H349.73V248.214Z" fill="#455A64"/>
<path d="M359.684 259.56C359.684 259.642 354.575 259.717 348.272 259.717C341.968 259.717 336.859 259.642 336.859 259.56C336.859 259.478 341.968 259.403 348.272 259.403C354.575 259.403 359.684 259.469 359.684 259.56Z" fill="#455A64"/>
<path d="M349.73 264.875H345.866V273.024H349.73V264.875Z" fill="#455A64"/>
<path d="M359.684 276.221C359.684 276.312 354.575 276.378 348.272 276.378C341.968 276.378 336.859 276.312 336.859 276.221C336.859 276.131 341.968 276.073 348.272 276.073C354.575 276.073 359.684 276.139 359.684 276.221Z" fill="#455A64"/>
<path d="M349.73 281.066H345.866V289.216H349.73V281.066Z" fill="#455A64"/>
<path d="M359.684 292.413C359.684 292.504 354.575 292.569 348.272 292.569C341.968 292.569 336.859 292.504 336.859 292.413C336.859 292.322 341.968 292.256 348.272 292.256C354.575 292.256 359.684 292.331 359.684 292.413Z" fill="#455A64"/>
<path d="M349.73 297.324H345.866V305.473H349.73V297.324Z" fill="#455A64"/>
<path d="M349.73 313.796H345.866V321.945H349.73V313.796Z" fill="#455A64"/>
<path d="M359.684 308.67C359.684 308.761 354.575 308.827 348.272 308.827C341.968 308.827 336.859 308.761 336.859 308.67C336.859 308.58 341.968 308.514 348.272 308.514C354.575 308.514 359.684 308.588 359.684 308.67Z" fill="#455A64"/>
<path d="M326.708 231.791H322.843V239.941H326.708V231.791Z" fill="#263238"/>
<path d="M336.653 243.138C336.653 243.22 331.545 243.294 325.241 243.294C318.937 243.294 313.829 243.22 313.829 243.138C313.829 243.055 318.937 242.981 325.241 242.981C331.545 242.981 336.653 243.08 336.653 243.138Z" fill="#263238"/>
<path d="M326.708 248.214H322.843V256.363H326.708V248.214Z" fill="#263238"/>
<path d="M336.653 259.56C336.653 259.651 331.545 259.717 325.241 259.717C318.937 259.717 313.829 259.651 313.829 259.56C313.829 259.469 318.937 259.412 325.241 259.412C331.545 259.412 336.653 259.478 336.653 259.56Z" fill="#263238"/>
<path d="M326.708 264.644H322.843V272.793H326.708V264.644Z" fill="#263238"/>
<path d="M336.653 275.991C336.653 276.073 331.545 276.147 325.241 276.147C318.937 276.147 313.829 276.073 313.829 275.991C313.829 275.908 318.937 275.834 325.241 275.834C331.545 275.834 336.653 275.9 336.653 275.991Z" fill="#263238"/>
<path d="M326.708 281.066H322.843V289.216H326.708V281.066Z" fill="#263238"/>
<path d="M336.653 292.413C336.653 292.504 331.545 292.569 325.241 292.569C318.937 292.569 313.829 292.504 313.829 292.413C313.829 292.322 318.937 292.256 325.241 292.256C331.545 292.256 336.653 292.331 336.653 292.413Z" fill="#263238"/>
<path d="M326.708 297.497H322.843V305.646H326.708V297.497Z" fill="#263238"/>
<path d="M336.653 308.843C336.653 308.926 331.545 309 325.241 309C318.937 309 313.829 308.926 313.829 308.843C313.829 308.761 318.937 308.687 325.241 308.687C331.545 308.687 336.653 308.753 336.653 308.843Z" fill="#263238"/>
<path d="M326.708 313.919H322.843V322.069H326.708V313.919Z" fill="#263238"/>
<path d="M245.156 166.465H184.073V328.727H245.156V166.465Z" fill="#455A64"/>
<path d="M245.165 166.465H221.722V328.727H245.165V166.465Z" fill="#263238"/>
<path d="M235.763 179.269H231.124V189.059H235.763V179.269Z" fill="#455A64"/>
<path d="M235.763 196.442H231.124V206.231H235.763V196.442Z" fill="#455A64"/>
<path d="M235.763 215.674H231.124V225.463H235.763V215.674Z" fill="#455A64"/>
<path d="M235.763 234.049H231.124V243.838H235.763V234.049Z" fill="#455A64"/>
<path d="M235.763 252.432H231.124V262.222H235.763V252.432Z" fill="#455A64"/>
<path d="M235.763 270.808H231.124V280.597H235.763V270.808Z" fill="#455A64"/>
<path d="M235.763 289.191H231.124V298.98H235.763V289.191Z" fill="#455A64"/>
<path d="M235.763 309.396H231.124V319.185H235.763V309.396Z" fill="#455A64"/>
<path d="M248.205 165.443H178.759V167.338H248.205V165.443Z" fill="#263238"/>
<path d="M233.447 154.022H208.719V166.39H233.447V154.022Z" fill="#263238"/>
<path d="M221.722 154.022H208.719V165.443H221.722V154.022Z" fill="#455A64"/>
<path d="M197.406 178.866H192.767V188.655H197.406V178.866Z" fill="#263238"/>
<path d="M209.766 178.866H205.127V188.655H209.766V178.866Z" fill="#263238"/>
<path d="M197.406 197.513H192.767V207.302H197.406V197.513Z" fill="#263238"/>
<path d="M209.766 197.513H205.127V207.302H209.766V197.513Z" fill="#263238"/>
<path d="M197.406 216.16H192.767V225.949H197.406V216.16Z" fill="#263238"/>
<path d="M209.766 216.16H205.127V225.949H209.766V216.16Z" fill="#263238"/>
<path d="M197.406 234.807H192.767V244.596H197.406V234.807Z" fill="#263238"/>
<path d="M209.766 234.807H205.127V244.596H209.766V234.807Z" fill="#263238"/>
<path d="M197.406 253.454H192.767V263.243H197.406V253.454Z" fill="#263238"/>
<path d="M209.766 253.454H205.127V263.243H209.766V253.454Z" fill="#263238"/>
<path d="M197.406 272.101H192.767V281.89H197.406V272.101Z" fill="#263238"/>
<path d="M209.766 272.101H205.127V281.89H209.766V272.101Z" fill="#263238"/>
<path d="M197.406 290.748H192.767V300.538H197.406V290.748Z" fill="#263238"/>
<path d="M209.766 290.748H205.127V300.538H209.766V290.748Z" fill="#263238"/>
<path d="M197.406 309.396H192.767V319.185H197.406V309.396Z" fill="#263238"/>
<path d="M209.766 309.396H205.127V319.185H209.766V309.396Z" fill="#263238"/>
<path d="M221.722 192.495C221.722 192.659 213.292 192.791 202.902 192.791C192.511 192.791 184.073 192.659 184.073 192.495C184.073 192.33 192.503 192.206 202.902 192.206C213.301 192.206 221.722 192.338 221.722 192.495Z" fill="#263238"/>
<path d="M221.722 211.208C221.722 211.373 213.292 211.504 202.902 211.504C192.511 211.504 184.073 211.373 184.073 211.208C184.073 211.043 192.503 210.919 202.902 210.919C213.301 210.919 221.722 211.051 221.722 211.208Z" fill="#263238"/>
<path d="M221.722 230.151C221.722 230.308 213.292 230.44 202.902 230.44C192.511 230.44 184.073 230.308 184.073 230.151C184.073 229.995 192.503 229.855 202.902 229.855C213.301 229.855 221.722 229.987 221.722 230.151Z" fill="#263238"/>
<path d="M221.722 248.955C221.722 249.112 213.292 249.244 202.902 249.244C192.511 249.244 184.073 249.112 184.073 248.955C184.073 248.799 192.503 248.659 202.902 248.659C213.301 248.659 221.722 248.79 221.722 248.955Z" fill="#263238"/>
<path d="M221.722 267.487C221.722 267.643 213.292 267.775 202.902 267.775C192.511 267.775 184.073 267.643 184.073 267.487C184.073 267.33 192.503 267.19 202.902 267.19C213.301 267.19 221.722 267.322 221.722 267.487Z" fill="#263238"/>
<path d="M221.722 285.516C221.722 285.673 213.292 285.804 202.902 285.804C192.511 285.804 184.073 285.673 184.073 285.516C184.073 285.359 192.503 285.219 202.902 285.219C213.301 285.219 221.722 285.351 221.722 285.516Z" fill="#263238"/>
<path d="M221.722 305.498C221.722 305.655 213.292 305.786 202.902 305.786C192.511 305.786 184.073 305.655 184.073 305.498C184.073 305.341 192.503 305.201 202.902 305.201C213.301 305.201 221.722 305.333 221.722 305.498Z" fill="#263238"/>
<path d="M244.893 192.495C244.893 192.659 239.875 192.791 233.686 192.791C227.498 192.791 222.48 192.659 222.48 192.495C222.48 192.33 227.49 192.206 233.686 192.206C239.883 192.206 244.893 192.338 244.893 192.495Z" fill="#455A64"/>
<path d="M244.893 211.208C244.893 211.373 239.875 211.504 233.686 211.504C227.498 211.504 222.48 211.373 222.48 211.208C222.48 211.043 227.49 210.919 233.686 210.919C239.883 210.919 244.893 211.051 244.893 211.208Z" fill="#455A64"/>
<path d="M244.893 229.896C244.893 230.061 239.875 230.193 233.686 230.193C227.498 230.193 222.48 230.086 222.48 229.896C222.48 229.706 227.49 229.608 233.686 229.608C239.883 229.608 244.893 229.764 244.893 229.896Z" fill="#455A64"/>
<path d="M244.646 248.955C244.646 249.112 239.627 249.244 233.439 249.244C227.251 249.244 222.233 249.112 222.233 248.955C222.233 248.799 227.251 248.659 233.439 248.659C239.627 248.659 244.646 248.79 244.646 248.955Z" fill="#455A64"/>
<path d="M244.646 267.487C244.646 267.643 239.627 267.775 233.439 267.775C227.251 267.775 222.233 267.643 222.233 267.487C222.233 267.33 227.251 267.19 233.439 267.19C239.627 267.19 244.646 267.322 244.646 267.487Z" fill="#455A64"/>
<path d="M244.646 286.019C244.646 286.175 239.627 286.307 233.439 286.307C227.251 286.307 222.233 286.175 222.233 286.019C222.233 285.862 227.251 285.722 233.439 285.722C239.627 285.722 244.646 285.854 244.646 286.019Z" fill="#455A64"/>
<path d="M244.646 305.498C244.646 305.655 239.627 305.786 233.439 305.786C227.251 305.786 222.233 305.655 222.233 305.498C222.233 305.341 227.251 305.201 233.439 305.201C239.627 305.201 244.646 305.333 244.646 305.498Z" fill="#455A64"/>
<path d="M256.429 272.258H231.799V328.776H256.429V272.258Z" fill="#1C1C1C"/>
<path opacity="0.2" d="M256.429 272.258H231.799V328.776H256.429V272.258Z" fill="black"/>
<path d="M226.04 272.027H286.81L298.164 255.91L310.063 272.489L324.054 272.266L308.975 251.954L241.218 252.243L226.04 272.027Z" fill="#1C1C1C"/>
<path opacity="0.2" d="M226.04 272.027H286.81L298.164 255.91L310.063 272.489L324.054 272.266L308.975 251.954L241.218 252.243L226.04 272.027Z" fill="white"/>
<path d="M256.429 272.266V328.776H317.116V272.266H310.154L298.164 255.91L286.768 272.011L256.429 272.266Z" fill="#1C1C1C"/>
<g opacity="0.2">
<path d="M265.007 328.776V304.278H279.196V328.776" fill="black"/>
</g>
<path opacity="0.7" d="M310.071 303.586H287.708V317.438H310.071V303.586Z" fill="white"/>
<path opacity="0.7" d="M310.071 275.867H287.708V289.718H310.071V275.867Z" fill="white"/>
<path opacity="0.7" d="M277.713 275.991H263.614V289.339H277.713V275.991Z" fill="white"/>
<path d="M294.267 303.586H294.061V317.57H294.267V303.586Z" fill="#1C1C1C"/>
<path d="M303.562 303.586H303.356V317.57H303.562V303.586Z" fill="#1C1C1C"/>
<path d="M303.455 310.895H294.16V311.101H303.455V310.895Z" fill="#1C1C1C"/>
<path d="M294.267 275.867H294.061V289.85H294.267V275.867Z" fill="#1C1C1C"/>
<path d="M303.562 275.867H303.356V289.85H303.562V275.867Z" fill="#1C1C1C"/>
<path d="M303.455 283.176H294.16V283.382H303.455V283.176Z" fill="#1C1C1C"/>
<path d="M270.766 275.991H270.56V289.339H270.766V275.991Z" fill="#1C1C1C"/>
<path d="M277.713 282.887H263.614V283.093H277.713V282.887Z" fill="#1C1C1C"/>
<path opacity="0.7" d="M301.122 266.696C301.122 267.287 300.947 267.866 300.618 268.358C300.29 268.85 299.823 269.233 299.276 269.459C298.729 269.686 298.128 269.745 297.548 269.629C296.968 269.514 296.435 269.229 296.016 268.811C295.598 268.393 295.313 267.86 295.198 267.279C295.082 266.699 295.142 266.098 295.368 265.551C295.594 265.005 295.978 264.537 296.47 264.209C296.961 263.88 297.54 263.705 298.131 263.705C298.924 263.707 299.684 264.023 300.244 264.583C300.804 265.144 301.12 265.903 301.122 266.696Z" fill="white"/>
<path d="M276.798 263.029L280.572 258.373V247.175H272.67V263.111L276.798 263.029Z" fill="#1C1C1C"/>
<path opacity="0.2" d="M276.798 263.029V247.175H280.572V258.373L276.798 263.029Z" fill="black"/>
<path d="M281.108 245.527H271.788V247.175H281.108V245.527Z" fill="#1C1C1C"/>
<path d="M257.129 296.986H210.598V328.784H257.129V296.986Z" fill="#1C1C1C"/>
<path opacity="0.2" d="M239.29 296.986H210.598V328.784H239.29V296.986Z" fill="black"/>
<path d="M233.25 328.727C233.219 328.592 233.205 328.453 233.208 328.315C233.208 327.993 233.208 327.598 233.208 327.12C233.208 326.016 233.208 324.516 233.142 322.645C233.142 318.773 233.093 313.425 233.06 307.237L233.291 307.467H216.259L216.481 307.237C216.481 313.425 216.424 318.773 216.399 322.645C216.399 324.516 216.349 326.016 216.333 327.12C216.333 327.598 216.333 327.993 216.292 328.315C216.306 328.452 216.306 328.59 216.292 328.727C216.255 328.593 216.241 328.453 216.25 328.315C216.25 327.993 216.25 327.598 216.25 327.12C216.25 326.016 216.25 324.516 216.185 322.645C216.185 318.781 216.135 313.425 216.102 307.237V307.006H233.554V307.237C233.513 313.425 233.489 318.773 233.464 322.645C233.464 324.516 233.414 326.016 233.398 327.12C233.398 327.598 233.398 327.993 233.398 328.315C233.362 328.456 233.312 328.594 233.25 328.727Z" fill="#263238"/>
<path opacity="0.2" d="M254.97 306.421H242.882V309.503H254.97V306.421Z" fill="black"/>
<path d="M226.04 272.027V273.667H286.768V272.011L226.04 272.027Z" fill="#1C1C1C"/>
<path d="M286.768 273.667L298.131 257.722L298.164 255.91L286.81 272.027L286.768 273.667Z" fill="#1C1C1C"/>
<path d="M323.758 272.258H310.154V273.313H323.758V272.258Z" fill="#1C1C1C"/>
<path d="M274.359 300.521H269.341V302.433H274.359V300.521Z" fill="#263238"/>
<path opacity="0.3" d="M226.04 272.027V273.667H286.768V272.011L226.04 272.027Z" fill="black"/>
<path opacity="0.3" d="M286.768 273.667L298.131 257.722L298.164 255.91L286.81 272.027L286.768 273.667Z" fill="black"/>
<path opacity="0.3" d="M323.758 272.258H310.154V273.313H323.758V272.258Z" fill="black"/>
<path d="M278.051 316.638C278.009 316.638 278.05 316.325 277.68 316.086C277.585 316.023 277.477 315.983 277.363 315.97C277.25 315.957 277.135 315.971 277.029 316.012C276.904 316.063 276.797 316.149 276.722 316.261C276.647 316.373 276.607 316.504 276.607 316.638C276.607 316.773 276.647 316.904 276.722 317.016C276.797 317.128 276.904 317.214 277.029 317.265C277.135 317.306 277.25 317.32 277.363 317.307C277.477 317.295 277.585 317.254 277.68 317.191C278.018 316.952 278.009 316.63 278.051 316.638C278.092 316.647 278.191 316.993 277.803 317.355C277.684 317.453 277.542 317.518 277.391 317.546C277.24 317.573 277.084 317.561 276.938 317.512C276.756 317.45 276.598 317.332 276.486 317.175C276.373 317.019 276.313 316.831 276.313 316.638C276.313 316.446 276.373 316.258 276.486 316.102C276.598 315.945 276.756 315.827 276.938 315.765C277.084 315.716 277.24 315.704 277.391 315.731C277.542 315.759 277.684 315.824 277.803 315.922C278.191 316.292 278.075 316.663 278.051 316.638Z" fill="#263238"/>
<path d="M162.534 235.12C162.534 235.12 149.754 283.736 132.573 292.866C121.252 298.881 111.257 291.704 104.557 280.333L80.3318 241.341C79.7143 239.119 79.9671 236.745 81.0388 234.703C82.1104 232.661 83.9203 231.104 86.0998 230.349L106.296 223.304L126.418 259.173L152.168 227.861" fill="#EB996E"/>
<path d="M36.7834 238.507C37.2283 241.671 45.1964 264.932 45.1964 264.932C45.1964 264.932 81.3535 254.707 80.9745 252.91C80.6614 251.452 75.0087 228.281 67.4609 215.221C66.0459 212.703 64.0616 210.551 61.6665 208.937C59.2714 207.323 56.5319 206.292 53.6671 205.926C52.0686 205.745 48.5171 207.228 47.5366 207.714C39.8404 211.562 33.339 214.067 36.7834 238.507Z" fill="#455A64"/>
<path d="M93.4746 204.352C107.359 208.217 107.985 214.528 114.94 225.661L125.891 245.601L107.647 257.228L104.302 264.726L102.497 329.213L28.9883 328.85L42.1723 276.65L36.9152 242.371C36.4291 236.966 34.8717 226.864 36.5362 221.648C41.7521 205.349 61.2067 203.61 73.1712 201.138C75.6432 200.628 78.0246 201.41 80.0351 202.02" fill="#455A64"/>
<path d="M104.121 268.039C104.064 267.492 104.047 266.941 104.071 266.391C104.071 265.237 104.071 263.705 104.129 261.859V261.818C105.048 260.185 105.849 258.489 106.527 256.742C107.372 254.669 107.584 252.393 107.137 250.199C106.543 247.727 105.175 245.651 104.261 243.607C103.43 241.776 102.875 239.833 102.613 237.839C102.44 236.509 102.404 235.164 102.506 233.826C102.506 233.349 102.596 233.002 102.637 232.739C102.646 232.611 102.676 232.485 102.728 232.368C102.757 232.856 102.757 233.346 102.728 233.835C102.694 235.158 102.78 236.482 102.984 237.79C103.283 239.729 103.858 241.616 104.689 243.393C105.596 245.404 106.996 247.513 107.623 250.068C108.094 252.35 107.867 254.722 106.972 256.874C106.278 258.632 105.452 260.334 104.5 261.966V261.884C104.409 263.729 104.343 265.262 104.285 266.416C104.279 266.961 104.224 267.504 104.121 268.039Z" fill="#263238"/>
<path d="M94.0513 202.086C94.1143 202.245 94.1559 202.411 94.1749 202.58C94.2639 203.062 94.3189 203.549 94.3397 204.039C94.4056 205.852 94.1029 207.661 93.4498 209.354C92.4818 211.883 90.8125 214.084 88.6376 215.698C85.9123 217.64 82.5719 218.519 79.244 218.17C77.5338 217.996 75.8637 217.542 74.3 216.827C72.8546 216.148 71.5276 215.241 70.3696 214.141C68.4328 212.266 66.9576 209.967 66.06 207.426C65.4523 205.724 65.105 203.941 65.03 202.135C64.9989 201.647 64.9989 201.157 65.03 200.669C65.0246 200.5 65.0412 200.331 65.0795 200.166C65.1372 200.166 65.0795 200.866 65.1949 202.127C65.3415 203.9 65.7325 205.644 66.3567 207.31C67.2733 209.781 68.7449 212.008 70.658 213.82C71.7844 214.881 73.0757 215.752 74.4813 216.399C75.9932 217.088 77.6076 217.525 79.2605 217.693C82.4624 218.041 85.682 217.218 88.3245 215.377C90.1012 214.075 91.5482 212.375 92.5499 210.413C93.5515 208.452 94.0798 206.283 94.0925 204.08C94.1502 202.786 93.9936 202.094 94.0513 202.086Z" fill="#263238"/>
<path d="M122.562 239.578C121.877 240.09 121.149 240.542 120.386 240.929C119.027 241.753 117.132 242.808 115.072 244.052C113.012 245.297 111.174 246.458 109.839 247.299C109.143 247.795 108.404 248.228 107.631 248.593C108.254 248.004 108.933 247.477 109.658 247.019C110.943 246.104 112.764 244.893 114.833 243.64C116.901 242.388 118.821 241.35 120.23 240.633C120.969 240.202 121.75 239.848 122.562 239.578Z" fill="#263238"/>
<path d="M39.0412 240.435C39.0412 240.435 39.0906 240.583 39.1812 240.872L39.5273 242.157L40.821 247.101C41.9169 251.386 43.4825 257.5 45.386 264.908L45.147 264.776L79.1452 254.155L79.9692 253.85L79.8127 254.122C78.1769 246.507 75.9396 239.035 73.1218 231.775C70.485 225.117 67.4609 219.341 64.0578 215.179C62.541 213.286 60.7232 211.654 58.6771 210.351C57.1408 209.355 55.3896 208.739 53.5683 208.554C53.2195 208.497 52.8669 208.467 52.5136 208.464L51.5742 208.513C51.2858 208.513 51.0221 208.513 50.7502 208.571L50.1075 208.711L49.2176 208.892C49.117 208.915 49.0152 208.931 48.9127 208.942C49.0047 208.898 49.1015 208.865 49.2011 208.843L50.0828 208.62L50.7337 208.455C50.9809 208.406 51.2528 208.406 51.5577 208.373L52.5053 208.307C52.8633 208.303 53.2211 208.322 53.5765 208.365C55.4329 208.525 57.224 209.127 58.8007 210.12C60.8783 211.413 62.7271 213.042 64.272 214.94C67.7905 219.118 70.864 224.911 73.5256 231.585C76.3734 238.863 78.6329 246.358 80.2824 253.998V254.204L80.0846 254.27L79.2606 254.575C66.5133 258.621 54.7054 262.189 45.2047 265.114L45.0152 265.171L44.9657 264.982C43.1282 257.566 41.6203 251.427 40.5573 247.134C40.0464 245.016 39.6509 243.352 39.3708 242.19L39.0741 240.896C39.0437 240.745 39.0327 240.59 39.0412 240.435Z" fill="#263238"/>
<path d="M78.7991 249.491C78.7991 249.623 70.9876 251.889 61.2726 254.567C51.5577 257.245 43.672 259.305 43.672 259.181C43.672 259.057 51.4753 256.783 61.1902 254.105C70.9052 251.427 78.7579 249.367 78.7991 249.491Z" fill="#263238"/>
<path d="M75.808 144.01C73.5585 139.132 67.3703 136.833 62.1544 138.127C56.9384 139.421 52.8184 143.681 50.6184 148.567C48.4183 153.454 47.8332 158.95 47.792 164.322C47.792 167.165 47.9156 170.041 47.3388 172.826C46.762 175.611 45.3942 178.363 43.0046 179.912C41.1259 181.132 38.8187 181.494 36.7999 182.467C34.7811 183.439 32.9271 185.507 33.4297 187.699C34.023 190.311 37.3025 191.094 39.964 191.366C40.0087 192.978 40.5083 194.544 41.4051 195.885C42.3019 197.225 43.5594 198.285 45.0325 198.941C46.5056 199.598 48.1342 199.824 49.7306 199.595C51.3269 199.365 52.8258 198.689 54.0544 197.645C53.2304 200.941 56.1392 204.336 59.4846 204.731C62.83 205.127 66.0766 203.034 67.9388 200.199C69.8011 197.364 70.3284 193.904 70.4685 190.534C70.6086 187.163 70.3696 183.752 70.6992 180.456" fill="#1C1C1C"/>
<path d="M113.77 150.149C113.77 150.149 116.242 133.587 93.4498 133.282C67.9553 132.944 63.3573 154.706 67.7245 166.168L80.3977 153.61L113.77 150.149Z" fill="#1C1C1C"/>
<path d="M93.7712 204.352C94.0267 199.944 94.2162 196.351 94.2162 196.351C94.2162 196.351 107.268 196.656 109.188 185.342C111.108 174.029 113.308 147.677 113.308 147.677C107.607 143.99 100.938 142.081 94.1498 142.193C87.3612 142.304 80.7589 144.431 75.1818 148.304L74.1106 149.045L65.8706 201.361C65.2829 205.029 66.1718 208.78 68.343 211.795C70.5142 214.809 73.7908 216.841 77.456 217.445C79.4034 217.767 81.3965 217.674 83.3057 217.174C85.2148 216.673 86.9971 215.776 88.5364 214.541C90.0757 213.305 91.3374 211.76 92.2393 210.004C93.1413 208.249 93.6633 206.323 93.7712 204.352Z" fill="#FFBE9D"/>
<path d="M108.653 167.758C108.609 168.035 108.485 168.294 108.296 168.501C108.107 168.709 107.861 168.856 107.589 168.925C107.317 168.994 107.031 168.982 106.765 168.89C106.5 168.798 106.268 168.63 106.098 168.407C105.927 168.184 105.826 167.916 105.806 167.636C105.786 167.356 105.849 167.076 105.987 166.831C106.125 166.587 106.332 166.388 106.581 166.26C106.831 166.132 107.113 166.08 107.392 166.11C107.584 166.133 107.769 166.195 107.937 166.291C108.105 166.387 108.252 166.515 108.369 166.669C108.487 166.822 108.572 166.998 108.621 167.185C108.67 167.372 108.68 167.567 108.653 167.758Z" fill="#263238"/>
<path d="M109.707 166.399C109.501 166.572 108.554 165.575 107.029 165.286C105.505 164.998 104.277 165.665 104.145 165.443C104.013 165.22 104.302 165.014 104.846 164.709C105.564 164.332 106.387 164.205 107.186 164.347C107.989 164.483 108.724 164.88 109.279 165.476C109.699 165.945 109.806 166.324 109.707 166.399Z" fill="#263238"/>
<path d="M93.351 166.291C93.345 166.489 93.2983 166.683 93.2138 166.862C93.1293 167.04 93.0088 167.199 92.8599 167.329C92.711 167.459 92.5369 167.556 92.3485 167.616C92.1601 167.675 91.9614 167.695 91.765 167.674C91.5686 167.653 91.3787 167.591 91.2071 167.493C91.0356 167.395 90.8861 167.263 90.7681 167.105C90.6501 166.946 90.5661 166.765 90.5214 166.573C90.4766 166.38 90.4722 166.181 90.5082 165.987C90.5142 165.789 90.5609 165.595 90.6454 165.417C90.7299 165.238 90.8504 165.079 90.9993 164.949C91.1482 164.819 91.3223 164.722 91.5107 164.662C91.6991 164.603 91.8978 164.583 92.0942 164.604C92.2906 164.625 92.4805 164.687 92.6521 164.785C92.8236 164.883 92.9731 165.015 93.0911 165.173C93.2091 165.332 93.2931 165.513 93.3378 165.705C93.3826 165.898 93.387 166.097 93.351 166.291Z" fill="#263238"/>
<path d="M94.1091 165.006C93.9113 165.179 92.9555 164.141 91.4393 163.894C89.9232 163.646 88.6872 164.273 88.5471 164.042C88.4812 163.943 88.7119 163.613 89.2557 163.317C89.9738 162.939 90.7972 162.812 91.5959 162.954C92.399 163.089 93.1348 163.486 93.6889 164.083C94.1009 164.545 94.208 164.932 94.1091 165.006Z" fill="#263238"/>
<path d="M96.0784 176.789C96.9259 176.737 97.7766 176.798 98.608 176.97C99.0036 177.028 99.3826 177.045 99.5144 176.781C99.6316 176.363 99.6316 175.921 99.5144 175.504C99.3908 174.416 99.2672 173.279 99.1354 172.084C98.6492 167.223 98.402 163.276 98.5833 163.251C98.7646 163.226 99.3085 167.148 99.8029 172.01C99.91 173.205 100.017 174.342 100.116 175.43C100.235 175.985 100.168 176.564 99.9264 177.078C99.8403 177.203 99.7264 177.307 99.5935 177.382C99.4605 177.456 99.3122 177.498 99.1601 177.506C98.9354 177.51 98.7111 177.485 98.4927 177.432C97.6623 177.329 96.85 177.113 96.0784 176.789Z" fill="#263238"/>
<path d="M94.2574 196.351C88.988 195.541 84.0688 193.213 80.1011 189.652C80.1011 189.652 82.8697 198.65 94.0514 199.392L94.2574 196.351Z" fill="#EB996E"/>
<path d="M94.587 181.28C94.5543 180.788 94.4012 180.311 94.1411 179.891C93.8811 179.472 93.5221 179.122 93.0956 178.874C92.8007 178.698 92.4714 178.588 92.1301 178.551C91.7889 178.514 91.4436 178.551 91.118 178.66C90.7965 178.779 90.5181 178.992 90.3184 179.271C90.1188 179.55 90.0069 179.882 89.9973 180.225C90.0449 180.605 90.2018 180.963 90.4491 181.256C90.6963 181.548 91.0231 181.763 91.3899 181.873C92.1356 182.078 92.9163 182.123 93.6806 182.005C93.8937 181.999 94.1036 181.951 94.2986 181.865C94.3938 181.818 94.4738 181.745 94.5292 181.655C94.5846 181.565 94.6132 181.46 94.6117 181.354" fill="#EB996E"/>
<path d="M91.2581 177.16C91.151 177.16 90.9037 177.539 90.8625 178.289C90.8329 179.284 91.1645 180.256 91.7962 181.026C92.4279 181.795 93.3168 182.31 94.2986 182.475C95.0485 182.582 95.4934 182.417 95.4852 182.302C95.4852 182.046 93.7218 181.956 92.4941 180.456C91.2663 178.956 91.5053 177.201 91.2581 177.16Z" fill="#263238"/>
<path d="M72.512 163.803C72.339 163.679 66.0189 160.952 64.2144 168.393C62.4098 175.833 71.0453 175.075 71.1113 174.861C71.1772 174.647 72.512 163.803 72.512 163.803Z" fill="#FFBE9D"/>
<path d="M69.3396 171.738C69.3396 171.738 69.183 171.796 68.9193 171.845C68.5607 171.907 68.192 171.836 67.8811 171.647C67.1065 171.178 66.7028 169.785 66.9912 168.434C67.1216 167.786 67.4041 167.179 67.8152 166.662C67.9528 166.441 68.1411 166.255 68.3646 166.12C68.5881 165.985 68.8403 165.906 69.1006 165.888C69.2645 165.88 69.4262 165.927 69.5594 166.023C69.6926 166.119 69.7894 166.257 69.834 166.415C69.8917 166.646 69.834 166.786 69.834 166.811C69.834 166.835 70.0317 166.72 70.0482 166.399C70.044 166.204 69.971 166.017 69.8422 165.871C69.6569 165.666 69.4006 165.54 69.1253 165.517C68.7916 165.503 68.4596 165.571 68.158 165.714C67.8564 165.858 67.5945 166.073 67.3949 166.341C66.9057 166.904 66.5657 167.581 66.4061 168.31C66.093 169.826 66.5709 171.4 67.6504 171.952C67.8531 172.055 68.0749 172.114 68.3018 172.127C68.5287 172.14 68.7558 172.106 68.9688 172.026C69.2819 171.911 69.3643 171.755 69.3396 171.738Z" fill="#EB996E"/>
<path d="M110.721 142.461C112.031 143.409 113.015 144.74 113.537 146.27C114.06 147.801 114.095 149.455 113.638 151.006C112.517 154.566 109.196 158.422 99.9677 158.299L102.069 155.967C99.9924 157.551 97.5657 158.613 94.9931 159.063C92.4205 159.513 89.7774 159.339 87.2863 158.554L89.8737 153.544C89.8737 153.544 78.2058 165.912 71.688 166.448L72.512 153.264C74.0858 140.822 79.4171 137.089 87.4841 136.421C90.4803 136.149 93.4972 136.202 96.4821 136.578C101.649 137.305 106.548 139.329 110.721 142.461Z" fill="#1C1C1C"/>
<path d="M65.096 131.683C65.7103 131.833 66.2933 132.089 66.8182 132.442C69.4682 133.99 71.5727 136.322 72.8416 139.116C73.1366 139.674 73.3318 140.279 73.4184 140.904C73.2783 140.97 72.3555 138.21 69.9906 135.63C67.6257 133.051 65.0136 131.84 65.096 131.683Z" fill="#1C1C1C"/>
<path d="M41.6038 173.864C41.6038 173.864 41.4472 173.699 41.0929 173.477C40.5672 173.159 39.9595 173.005 39.346 173.032C38.871 173.044 38.4042 173.158 37.9775 173.367C37.5509 173.576 37.1744 173.875 36.874 174.243C36.5108 174.758 36.2834 175.357 36.2128 175.983C36.1422 176.61 36.2308 177.244 36.4703 177.827C36.7626 178.528 37.2339 179.14 37.8369 179.601C38.4399 180.062 39.1536 180.357 39.9064 180.456C40.778 180.589 41.6681 180.528 42.5139 180.279C43.3596 180.03 44.1403 179.598 44.8009 179.014C46.3165 177.744 47.3636 176.004 47.7756 174.07C47.994 173.06 47.994 172.015 47.7756 171.005C47.5268 169.957 47.1562 168.942 46.6714 167.981C46.21 166.984 45.7156 166.003 45.3283 164.973C44.9493 163.96 44.7028 162.902 44.5949 161.825C44.4195 159.788 44.6577 157.736 45.2953 155.794C46.3998 152.525 48.3198 149.593 50.8738 147.274C52.5527 145.703 54.3733 144.29 56.3122 143.055C56.9961 142.618 57.54 142.288 57.9108 142.074C58.0943 141.957 58.2873 141.855 58.4876 141.769C58.3259 141.917 58.1492 142.046 57.9602 142.156L56.4193 143.211C54.5259 144.488 52.7426 145.922 51.088 147.496C48.6219 149.812 46.7676 152.702 45.6908 155.909C45.0884 157.797 44.8672 159.785 45.0399 161.759C45.1555 162.795 45.3934 163.813 45.7485 164.792C46.1276 165.789 46.622 166.753 47.0916 167.766C47.5892 168.759 47.9681 169.808 48.2205 170.889C48.4513 171.962 48.4513 173.071 48.2205 174.144C47.7753 176.175 46.661 177.997 45.0564 179.319C44.3473 179.936 43.5108 180.39 42.6065 180.648C41.7021 180.906 40.7521 180.961 39.824 180.81C39.0044 180.694 38.2306 180.362 37.5818 179.848C36.9331 179.334 36.4328 178.656 36.1324 177.885C35.8841 177.251 35.7999 176.564 35.8878 175.888C35.9757 175.213 36.2327 174.57 36.6351 174.021C36.9647 173.628 37.3775 173.315 37.8437 173.102C38.3098 172.89 38.8174 172.784 39.3296 172.793C39.9706 172.781 40.5992 172.971 41.1259 173.337C41.3189 173.479 41.4814 173.658 41.6038 173.864Z" fill="#1C1C1C"/>
<path d="M71.4573 148.996C71.1974 148.55 71.0398 148.052 70.9959 147.537C70.8021 146.312 70.8497 145.061 71.136 143.854C71.4146 142.644 71.9299 141.502 72.6521 140.492C73.2124 139.726 73.6739 139.355 73.7068 139.396C73.7398 139.437 72.2154 141.217 71.5974 143.961C70.9794 146.705 71.6056 148.971 71.4573 148.996Z" fill="#263238"/>
<path d="M64.6511 173.04C64.2137 173.421 63.8746 173.901 63.6623 174.441C63.572 174.725 63.5386 175.024 63.5641 175.321C63.5895 175.618 63.6733 175.907 63.8106 176.171C64.0034 176.481 64.2651 176.741 64.5753 176.933C64.8854 177.124 65.2357 177.242 65.5987 177.275C65.9594 177.332 66.3283 177.309 66.6788 177.206C67.0292 177.104 67.3526 176.925 67.6257 176.682C68.0524 176.256 68.2925 175.678 68.2932 175.075C68.2673 174.489 68.0852 173.92 67.7658 173.427C67.7658 173.427 67.9471 173.493 68.1531 173.749C68.4404 174.118 68.6072 174.567 68.631 175.034C68.6546 175.387 68.6053 175.741 68.4863 176.074C68.3672 176.407 68.1808 176.712 67.9388 176.97C67.6214 177.27 67.2396 177.494 66.8226 177.624C66.4056 177.754 65.9644 177.787 65.5328 177.72C65.1071 177.68 64.6967 177.541 64.3347 177.313C63.9726 177.086 63.669 176.776 63.448 176.41C63.2928 176.091 63.2059 175.743 63.1932 175.388C63.1804 175.033 63.242 174.68 63.3739 174.35C63.5361 173.915 63.8227 173.537 64.1979 173.262C64.4616 173.081 64.6428 173.04 64.6511 173.04Z" fill="#455A64"/>
<path d="M115.665 153.94C115.574 153.94 115.937 152.671 115.945 150.644C115.972 147.955 115.262 145.31 113.892 142.996C112.522 140.682 110.545 138.787 108.175 137.517C106.37 136.537 105.093 136.257 105.118 136.166C105.424 136.171 105.728 136.227 106.016 136.331C106.815 136.551 107.59 136.849 108.331 137.221C110.814 138.45 112.886 140.374 114.298 142.758C115.709 145.142 116.399 147.884 116.283 150.652C116.251 151.484 116.141 152.312 115.953 153.124C115.895 153.408 115.798 153.682 115.665 153.94Z" fill="#1C1C1C"/>
<path d="M94.8424 162.106C94.793 162.163 94.4799 161.867 93.9113 161.52C93.1806 161.07 92.3586 160.789 91.5052 160.696C90.6486 160.61 89.7835 160.72 88.9756 161.018C88.3411 161.24 87.9785 161.463 87.9373 161.397C87.8961 161.331 88.2092 161.026 88.8437 160.705C89.6831 160.289 90.6232 160.121 91.5547 160.219C92.4847 160.32 93.3686 160.677 94.1091 161.249C94.6612 161.694 94.8919 162.073 94.8424 162.106Z" fill="#1C1C1C"/>
<path d="M109.378 163.498C108.401 163.657 107.405 163.657 106.428 163.498C105.44 163.502 104.459 163.349 103.519 163.045C104.493 162.888 105.487 162.888 106.461 163.045C107.451 163.039 108.436 163.192 109.378 163.498Z" fill="#1C1C1C"/>
<path d="M162.534 235.12C162.534 235.12 167.206 224.021 160.886 225.232C151.204 227.078 152.646 236.496 152.646 236.496L162.534 235.12Z" fill="#EB996E"/>
<path d="M171.532 185.334C170.718 185.045 169.865 184.881 169.002 184.848C174.26 188.754 175.685 198.806 172.002 208.958C168.409 218.846 161.141 225.595 154.698 225.545L154.187 225.413C149.07 221.417 147.719 211.488 151.352 201.452C154.986 191.415 162.476 184.56 168.994 184.848C168.332 184.351 167.602 183.951 166.827 183.661C159.856 181.123 150.792 188.342 146.672 199.779C142.643 210.886 144.736 221.862 151.278 224.804H151.146L138.259 257.764C137.984 258.464 137.998 259.245 138.298 259.935C138.599 260.625 139.161 261.167 139.862 261.443C140.562 261.718 141.343 261.704 142.033 261.403C142.723 261.103 143.265 260.541 143.541 259.84L156.56 226.748C163.556 229.278 172.587 222.068 176.732 210.631C180.876 199.194 178.528 187.872 171.532 185.334Z" fill="#263238"/>
<path d="M165.715 215.146C165.807 214.797 165.939 214.46 166.11 214.141L167.313 211.48C168.681 208.575 169.747 205.538 170.494 202.416C171.21 199.303 171.21 196.069 170.494 192.956C170.132 191.682 169.675 190.437 169.126 189.232C169.367 189.503 169.567 189.809 169.719 190.138C170.185 191.004 170.552 191.918 170.815 192.865C171.645 196.023 171.693 199.335 170.955 202.514C170.205 205.657 169.084 208.699 167.618 211.578C167.066 212.683 166.605 213.573 166.275 214.174C166.132 214.522 165.944 214.849 165.715 215.146Z" fill="#263238"/>
<path d="M164.363 217.783C164.454 217.882 164.058 218.434 163.465 219.019C162.872 219.604 162.328 220 162.237 219.909C162.147 219.818 162.542 219.266 163.136 218.681C163.729 218.096 164.273 217.693 164.363 217.783Z" fill="#263238"/>
<path d="M150.306 230.16C149.309 228.273 148.147 225.669 146.392 224.449C144.637 223.23 142.198 221.821 140.138 223.625C142.729 227.324 145.13 231.153 147.331 235.095L150.306 230.16Z" fill="#EB996E"/>
<path d="M164.034 226.822C164.034 226.822 163.646 224.631 160.433 225.595C157.219 226.559 147.15 228.66 149.095 230.802C151.039 232.945 154.475 231.981 154.475 231.981C154.475 231.981 148.88 233.192 149.416 234.362C149.952 235.532 150.883 237.559 153.264 236.29C155.645 235.021 162.254 232.871 162.254 232.871L164.034 226.822Z" fill="#EB996E"/>
<path d="M163.671 231.717C163.671 231.717 163.671 231.503 163.671 231.165C163.663 230.938 163.587 230.719 163.451 230.536C163.316 230.354 163.128 230.217 162.913 230.143C162.197 230.062 161.473 230.17 160.812 230.456L158.134 231.173C156.23 231.676 154.5 232.096 153.239 232.376C152.568 232.575 151.878 232.7 151.179 232.747C151.81 232.442 152.474 232.21 153.157 232.055C154.393 231.684 156.107 231.231 158.01 230.72L160.697 230.036C161.437 229.741 162.247 229.666 163.028 229.822C163.291 229.931 163.513 230.12 163.661 230.363C163.809 230.606 163.876 230.89 163.852 231.173C163.828 231.544 163.688 231.725 163.671 231.717Z" fill="#263238"/>
<path d="M77.7444 255.044L87.4676 273.074L135.738 248.766C135.738 248.766 142.84 235.12 144.019 235.293C145.197 235.466 150.421 237.716 150.421 237.716C150.421 237.716 157.837 233.711 159.436 234.799C161.034 235.886 163.193 249.07 161.792 253.149C160.392 257.228 145.733 265.443 145.733 265.443C145.733 265.443 106.181 291.416 88.9838 300.538C77.662 306.553 67.6751 299.376 60.9678 288.004L49.5306 263.804" fill="#FFBE9D"/>
</svg>
