<svg width="412" height="412" viewBox="0 0 412 412" fill="none" xmlns="http://www.w3.org/2000/svg">
<path d="M357.616 102.868V175.71H182.071V111.215H197.299V129.706H201.221V119.241H220.585V135.82H223.148V96.9106H239.982V107.59H248.609V120.881H251.221V112.517H266.523V137.46H270.997V117.189H284.989V101.789H294.506V93.0214H305.515V131.914H309.214V115.681H327.351V138.918H329.856V119.95H348.239V102.868H357.616Z" fill="#EBEBEB"/>
<path d="M186.521 117.074H183.942V113.539H186.521V117.074ZM190.987 113.539H188.408V117.074H190.987V113.539ZM195.453 113.539H192.874V117.074H195.453V113.539ZM186.521 118.862H183.942V122.397H186.521V118.862ZM190.987 118.862H188.408V122.397H190.987V118.862ZM195.453 118.862H192.874V122.397H195.453V118.862ZM186.521 124.185H183.942V127.72H186.521V124.185ZM190.987 124.185H188.408V127.72H190.987V124.185ZM195.453 124.185H192.874V127.72H195.453V124.185ZM186.521 129.5H183.942V133.035H186.521V129.5ZM190.987 129.5H188.408V133.035H190.987V129.5ZM195.453 129.5H192.874V133.035H195.453V129.5ZM275.727 119.711H273.148V122.661H275.727V119.711ZM280.193 119.711H277.614V122.661H280.16L280.193 119.711ZM284.659 119.711H282.08V122.661H284.659V119.711ZM275.727 124.152H273.148V127.102H275.727V124.152ZM280.193 124.152H277.614V127.102H280.16L280.193 124.152ZM284.659 124.152H282.08V127.102H284.659V124.152ZM275.727 128.593H273.148V131.543H275.727V128.593ZM280.193 128.593H277.614V131.543H280.16L280.193 128.593ZM284.659 128.593H282.08V131.543H284.659V128.593ZM275.727 133.027H273.148V135.96H275.727V133.027ZM280.193 133.027H277.614V135.96H280.16L280.193 133.027ZM284.659 133.027H282.08V135.96H284.659V133.027ZM275.727 137.608H273.148V140.558H275.727V137.608ZM280.193 137.608H277.614V140.558H280.16L280.193 137.608ZM284.659 137.608H282.08V140.558H284.659V137.608ZM275.727 142.156H273.148V145.106H275.727V142.156ZM280.193 142.156H277.614V145.106H280.16L280.193 142.156ZM284.659 142.156H282.08V145.106H284.659V142.156ZM275.727 146.672H273.148V149.622H275.727V146.672ZM280.193 146.672H277.614V149.622H280.16L280.193 146.672ZM284.659 146.672H282.08V149.622H284.659V146.672ZM275.727 151.22H273.148V154.17H275.727V151.22ZM280.193 151.22H277.614V154.17H280.16L280.193 151.22ZM284.659 151.22H282.08V154.17H284.659V151.22ZM218.253 121.507H203.421V123.715H218.253V121.507ZM218.253 125.8H203.421V128.008H218.253V125.8ZM218.253 130.085H203.421V132.301H218.253V130.085ZM218.253 134.378H203.421V136.594H218.253V134.378ZM218.253 138.671H203.421V140.904H218.253V138.671ZM218.253 142.964H203.421V145.172H218.253V142.964ZM218.253 147.249H203.421V149.465H218.253V147.249ZM218.253 151.542H203.421V153.758H218.253V151.542ZM325.043 117.758H311.406V119.974H325.043V117.758ZM325.043 122.051H311.406V124.267H325.043V122.051ZM325.043 126.344H311.406V128.544H325.043V126.344ZM325.043 130.637H311.406V132.845H325.043V130.637ZM325.043 134.922H311.406V137.138H325.043V134.922ZM325.043 139.215H311.406V141.423H325.043V139.215ZM325.043 143.508H311.406V145.716H325.043V143.508ZM325.043 147.801H311.406V149.968H325.043V147.801ZM325.043 151.871H311.406V154.088H325.043V151.871ZM325.043 155.991H311.406V158.208H325.043V155.991ZM325.043 160.07H311.406V162.279H325.043V160.07ZM325.043 164.149H311.406V166.357H325.043V164.149ZM325.043 168.269H311.406V170.477H325.043V168.269ZM347.094 123.023H332.69V125.24H347.094V123.023ZM347.094 127.316H332.69V129.533H347.094V127.316ZM347.094 131.609H332.69V133.818H347.094V131.609ZM347.094 135.902H332.69V138.111H347.094V135.902ZM347.094 140.187H332.69V142.404H347.094V140.187ZM347.094 144.48H332.69V146.688H347.094V144.48ZM347.094 148.773H332.69V150.982H347.094V148.773ZM347.094 153.066H332.69V155.275H347.094V153.066ZM347.094 156.906H332.69V159.032H347.094V156.906ZM347.094 160.746H332.69V162.954H347.094V160.746ZM347.094 164.586H332.69V166.794H347.094V164.586ZM260.277 114.536H255.696V116.678H260.277V114.536ZM260.277 118.656H255.696V120.798H260.277V118.656ZM260.277 122.776H255.696V124.91H260.277V122.776ZM260.277 126.896H255.696V129.03H260.277V126.896ZM260.277 131.016H255.696V133.15H260.277V131.016ZM260.277 135.136H255.696V137.27H260.277V135.136ZM260.277 139.256H255.696V141.39H260.277V139.256ZM260.277 143.376H255.696V145.51H260.277V143.376ZM266.515 114.536H261.933V116.678H266.515V114.536ZM266.515 118.656H261.933V120.798H266.515V118.656ZM266.515 122.776H261.933V124.91H266.515V122.776ZM266.515 126.896H261.933V129.03H266.515V126.896ZM266.515 131.016H261.933V133.15H266.515V131.016ZM266.515 135.136H261.933V137.27H266.515V135.136ZM266.515 139.256H261.933V141.39H266.515V139.256ZM266.515 143.376H261.933V145.51H266.515V143.376ZM230.473 99.1519H225.702V102.522H230.473V99.1519ZM237.592 99.1519H232.821V102.522H237.592V99.1519ZM230.473 104.096H225.702V107.466H230.473V104.096ZM237.592 104.096H232.821V107.466H237.592V104.096ZM230.473 109.04H225.702V112.402H230.473V109.04ZM237.592 109.04H232.821V112.402H237.592V109.04ZM230.473 113.984H225.702V117.354H230.473V113.984ZM237.592 113.984H232.821V117.354H237.592V113.984ZM230.473 118.928H225.702V122.298H230.473V118.928ZM237.592 118.928H232.821V122.298H237.592V118.928ZM230.473 123.872H225.702V127.242H230.473V123.872ZM237.592 123.872H232.821V127.242H237.592V123.872ZM230.473 128.816H225.702V132.186H230.473V128.816ZM237.592 128.816H232.821V132.186H237.592V128.816ZM230.473 133.76H225.702V137.122H230.473V133.76ZM237.592 133.76H232.821V137.122H237.592V133.76ZM246.409 109.04H241.638V112.402H246.376L246.409 109.04ZM246.409 113.984H241.638V117.354H246.376L246.409 113.984ZM246.409 118.928H241.638V122.298H246.376L246.409 118.928ZM246.409 123.872H241.638V127.242H246.376L246.409 123.872ZM246.409 128.816H241.638V132.186H246.376L246.409 128.816ZM246.409 133.76H241.638V137.122H246.376L246.409 133.76ZM230.473 138.646H225.702V142.016H230.473V138.646ZM237.592 138.646H232.821V142.016H237.592V138.646ZM246.409 138.646H241.638V142.016H246.376L246.409 138.646ZM230.473 143.533H225.702V146.903H230.473V143.533ZM237.592 143.533H232.821V146.903H237.592V143.533ZM246.409 143.533H241.638V146.903H246.376L246.409 143.533ZM230.473 148.419H225.702V151.789H230.473V148.419ZM237.592 148.419H232.821V151.789H237.592V148.419ZM246.409 148.419H241.638V151.789H246.376L246.409 148.419ZM230.473 153.313H225.702V156.675H230.473V153.313ZM237.592 153.313H232.821V156.675H237.592V153.313ZM246.409 153.313H241.638V156.675H246.376L246.409 153.313ZM230.473 158.208H225.702V161.578H230.473V158.208ZM237.592 158.208H232.821V161.578H237.592V158.208ZM246.409 158.208H241.638V161.578H246.376L246.409 158.208ZM289.513 103.939H286.933V106.889H289.513V103.939ZM293.979 103.939H291.4V106.889H293.979V103.939ZM289.513 108.381H286.933V111.331H289.513V108.381ZM293.979 108.381H291.4V111.331H293.979V108.381ZM289.513 112.814H286.933V115.772H289.513V112.814ZM293.979 112.814H291.4V115.772H293.979V112.814ZM289.513 117.255H286.933V120.205H289.513V117.255ZM293.979 117.255H291.4V120.205H293.979V117.255ZM289.513 121.804H286.933V124.754H289.513V121.804ZM293.979 121.804H291.4V124.754H293.979V121.804ZM289.513 126.352H286.933V129.302H289.513V126.352ZM293.979 126.352H291.4V129.302H293.979V126.352ZM289.513 130.901H286.933V133.851H289.513V130.901ZM293.979 130.901H291.4V133.851H293.979V130.901ZM289.513 135.449H286.933V138.432H289.513V135.449ZM293.979 135.449H291.4V138.432H293.979V135.449ZM289.513 140.08H286.933V143.03H289.513V140.08ZM293.979 140.08H291.4V143.03H293.979V140.08ZM289.513 144.678H286.933V147.628H289.513V144.678ZM293.979 144.678H291.4V147.628H293.979V144.678ZM289.513 149.276H286.933V152.226H289.513V149.276ZM293.979 149.276H291.4V152.226H293.979V149.276ZM289.513 153.874H286.933V156.824H289.513V153.874ZM293.979 153.874H291.4V156.824H293.979V153.874ZM352.433 104.434H349.854V107.944H352.433V104.434ZM356.899 104.434H354.32V107.944H356.899V104.434ZM352.433 109.666H349.854V113.143H352.433V109.666ZM356.899 109.666H354.32V113.143H356.899V109.666ZM352.433 114.899H349.854V118.368H352.433V114.899ZM356.899 114.899H354.32V118.368H356.899V114.899ZM352.433 120.123H349.854V123.6H352.433V120.123ZM356.899 120.123H354.32V123.6H356.899V120.123ZM352.433 125.487H349.854V128.956H352.433V125.487ZM356.899 125.487H354.32V128.956H356.899V125.487ZM352.433 130.843H349.854V134.312H352.433V130.843ZM356.899 130.843H354.32V134.312H356.899V130.843ZM352.433 136.199H349.854V139.676H352.433V136.199ZM356.899 136.199H354.32V139.676H356.899V136.199ZM352.433 141.555H349.854V145.024H352.433V141.555ZM356.899 141.555H354.32V145.024H356.899V141.555ZM352.433 146.977H349.854V150.446H352.433V146.977ZM356.899 146.977H354.32V150.446H356.899V146.977ZM352.433 152.391H349.854V155.868H352.433V152.391ZM356.899 152.391H354.32V155.868H356.899V152.391ZM352.433 157.804H349.854V161.282H352.433V157.804ZM356.899 157.804H354.32V161.282H356.899V157.804ZM352.433 163.218H349.854V166.695H352.433V163.218ZM356.899 163.218H354.32V166.695H356.899V163.218ZM299.063 103.956H296.484V106.906H299.063V103.956ZM303.529 103.956H300.95V106.906H303.529V103.956ZM299.063 99.4074H296.484V102.357H299.063V99.4074ZM303.529 99.4074H300.95V102.357H303.529V99.4074ZM299.063 94.8589H296.484V97.8088H299.063V94.8589ZM303.529 94.8589H300.95V97.8088H303.529V94.8589ZM299.063 108.397H296.484V111.347H299.063V108.397ZM303.529 108.397H300.95V111.347H303.529V108.397ZM299.063 112.83H296.484V115.788H299.063V112.83ZM303.529 112.83H300.95V115.788H303.529V112.83ZM299.063 117.272H296.484V120.222H299.063V117.272ZM303.529 117.272H300.95V120.222H303.529V117.272ZM299.063 121.82H296.484V124.77H299.063V121.82ZM303.529 121.82H300.95V124.77H303.529V121.82ZM299.063 126.369H296.484V129.319H299.063V126.369ZM303.529 126.369H300.95V129.319H303.529V126.369ZM299.063 130.917H296.484V133.867H299.063V130.917ZM303.529 130.917H300.95V133.867H303.529V130.917ZM299.063 135.466H296.484V138.432H299.063V135.466ZM303.529 135.466H300.95V138.432H303.529V135.466ZM299.063 140.08H296.484V143.03H299.063V140.08ZM303.529 140.08H300.95V143.03H303.529V140.08ZM299.063 144.678H296.484V147.628H299.063V144.678ZM303.529 144.678H300.95V147.628H303.529V144.678ZM299.063 149.276H296.484V152.226H299.063V149.276ZM303.529 149.276H300.95V152.226H303.529V149.276ZM299.063 153.874H296.484V156.824H299.063V153.874ZM303.529 153.874H300.95V156.824H303.529V153.874Z" fill="white"/>
<path d="M182.071 175.71H54.928V111.215H70.1555V129.706H74.0777V119.241H93.4417V135.82H96.0044V96.9106H112.83V107.59H121.466V120.881H124.078V112.517H139.38V137.46H143.846V117.189H157.846V101.789H167.355L178.363 101.838V131.914H182.071V175.71Z" fill="#EBEBEB"/>
<path d="M59.3693 117.074H56.7902V113.539H59.3693V117.074ZM63.8354 113.539H61.2562V117.074H63.8354V113.539ZM68.3014 113.539H65.7223V117.074H68.3014V113.539ZM59.3693 118.862H56.7902V122.397H59.3693V118.862ZM63.8354 118.862H61.2562V122.397H63.8354V118.862ZM68.3014 118.862H65.7223V122.397H68.3014V118.862ZM59.3693 124.185H56.7902V127.72H59.3693V124.185ZM63.8354 124.185H61.2562V127.72H63.8354V124.185ZM68.3014 124.185H65.7223V127.72H68.3014V124.185ZM59.3693 129.5H56.7902V133.035H59.3693V129.5ZM63.8354 129.5H61.2562V133.035H63.8354V129.5ZM68.3014 129.5H65.7223V133.035H68.3014V129.5ZM148.576 119.711H145.996V122.661H148.576V119.711ZM153.042 119.711H150.462V122.661H153.042V119.711ZM157.508 119.711H154.912V122.661H157.491L157.508 119.711ZM148.576 124.152H145.996V127.102H148.576V124.152ZM153.042 124.152H150.462V127.102H153.042V124.152ZM157.508 124.152H154.912V127.102H157.491L157.508 124.152ZM148.576 128.593H145.996V131.543H148.576V128.593ZM153.042 128.593H150.462V131.543H153.042V128.593ZM157.508 128.593H154.912V131.543H157.491L157.508 128.593ZM148.576 133.027H145.996V135.96H148.576V133.027ZM153.042 133.027H150.462V135.96H153.042V133.027ZM157.508 133.027H154.912V135.96H157.491L157.508 133.027ZM148.576 137.608H145.996V140.558H148.576V137.608ZM153.042 137.608H150.462V140.558H153.042V137.608ZM157.508 137.608H154.912V140.558H157.491L157.508 137.608ZM148.576 142.156H145.996V145.106H148.576V142.156ZM153.042 142.156H150.462V145.106H153.042V142.156ZM157.508 142.156H154.912V145.106H157.491L157.508 142.156ZM148.576 146.672H145.996V149.622H148.576V146.672ZM153.042 146.672H150.462V149.622H153.042V146.672ZM157.508 146.672H154.912V149.622H157.491L157.508 146.672ZM148.576 151.22H145.996V154.17H148.576V151.22ZM153.042 151.22H150.462V154.17H153.042V151.22ZM157.508 151.22H154.912V154.17H157.491L157.508 151.22ZM91.1098 121.507H76.2778V123.715H91.1098V121.507ZM91.1098 125.8H76.2778V128.008H91.1098V125.8ZM91.1098 130.085H76.2778V132.301H91.1098V130.085ZM91.1098 134.378H76.2778V136.594H91.1098V134.378ZM91.1098 138.671H76.2778V140.904H91.1098V138.671ZM91.1098 142.964H76.2778V145.172H91.1098V142.964ZM91.1098 147.249H76.2778V149.465H91.1098V147.249ZM91.1098 151.542H76.2778V153.758H91.1098V151.542ZM133.134 114.52H128.544V116.662H133.126L133.134 114.52ZM133.134 118.64H128.544V120.782H133.126L133.134 118.64ZM133.134 122.76H128.544V124.894H133.126L133.134 122.76ZM133.134 126.88H128.544V129.014H133.126L133.134 126.88ZM133.134 131H128.544V133.134H133.126L133.134 131ZM133.134 135.12H128.544V137.254H133.126L133.134 135.12ZM133.134 139.24H128.544V141.374H133.126L133.134 139.24ZM133.134 143.36H128.544V145.494H133.126L133.134 143.36ZM139.363 114.536H134.782V116.678H139.363V114.536ZM139.363 118.656H134.782V120.798H139.363V118.656ZM139.363 122.776H134.782V124.91H139.363V122.776ZM139.363 126.896H134.782V129.03H139.363V126.896ZM139.363 131.016H134.782V133.15H139.363V131.016ZM139.363 135.136H134.782V137.27H139.363V135.136ZM139.363 139.256H134.782V141.39H139.363V139.256ZM139.363 143.376H134.782V145.51H139.363V143.376ZM103.33 99.1519H98.5587V102.522H103.33V99.1519ZM110.441 99.1519H105.67V102.522H110.416L110.441 99.1519ZM103.33 104.096H98.5587V107.466H103.33V104.096ZM110.441 104.096H105.67V107.466H110.416L110.441 104.096ZM103.33 109.04H98.5587V112.402H103.33V109.04ZM110.441 109.04H105.67V112.402H110.416L110.441 109.04ZM103.33 113.984H98.5587V117.354H103.33V113.984ZM110.441 113.984H105.67V117.354H110.416L110.441 113.984ZM103.33 118.928H98.5587V122.298H103.33V118.928ZM110.441 118.928H105.67V122.298H110.416L110.441 118.928ZM103.33 123.872H98.5587V127.242H103.33V123.872ZM110.441 123.872H105.67V127.242H110.416L110.441 123.872ZM103.33 128.816H98.5587V132.186H103.33V128.816ZM110.441 128.816H105.67V132.186H110.416L110.441 128.816ZM103.33 133.76H98.5587V137.122H103.33V133.76ZM110.441 133.76H105.67V137.122H110.416L110.441 133.76ZM119.258 109.04H114.487V112.402H119.258V109.04ZM119.258 113.984H114.487V117.354H119.258V113.984ZM119.258 118.928H114.487V122.298H119.258V118.928ZM119.258 123.872H114.487V127.242H119.258V123.872ZM119.258 128.816H114.487V132.186H119.258V128.816ZM119.258 133.76H114.487V137.122H119.258V133.76ZM103.33 138.646H98.5587V142.016H103.33V138.646ZM110.441 138.646H105.67V142.016H110.416L110.441 138.646ZM119.258 138.646H114.487V142.016H119.258V138.646ZM103.33 143.533H98.5587V146.903H103.33V143.533ZM110.441 143.533H105.67V146.903H110.416L110.441 143.533ZM119.258 143.533H114.487V146.903H119.258V143.533ZM103.33 148.419H98.5587V151.789H103.33V148.419ZM110.441 148.419H105.67V151.789H110.416L110.441 148.419ZM119.258 148.419H114.487V151.789H119.258V148.419ZM103.33 153.313H98.5587V156.675H103.33V153.313ZM110.441 153.313H105.67V156.675H110.416L110.441 153.313ZM119.258 153.313H114.487V156.675H119.258V153.313ZM103.33 158.208H98.5587V161.578H103.33V158.208ZM110.441 158.208H105.67V161.578H110.416L110.441 158.208ZM119.258 158.208H114.487V161.578H119.258V158.208ZM162.328 103.956H159.757V106.906H162.328V103.956ZM166.794 103.956H164.223V106.906H166.794V103.956ZM162.328 108.397H159.757V111.347H162.328V108.397ZM166.794 108.397H164.223V111.347H166.794V108.397ZM162.328 112.83H159.757V115.788H162.328V112.83ZM166.794 112.83H164.223V115.788H166.794V112.83ZM162.328 117.272H159.757V120.222H162.328V117.272ZM166.794 117.272H164.223V120.222H166.794V117.272ZM162.328 121.82H159.757V124.77H162.328V121.82ZM166.794 121.82H164.223V124.77H166.794V121.82ZM162.328 126.369H159.757V129.319H162.328V126.369ZM166.794 126.369H164.223V129.319H166.794V126.369ZM162.328 130.917H159.757V133.867H162.328V130.917ZM166.794 130.917H164.223V133.867H166.794V130.917ZM162.328 135.466H159.757V138.432H162.328V135.466ZM166.794 135.466H164.223V138.432H166.794V135.466ZM162.328 140.08H159.757V143.03H162.328V140.08ZM166.794 140.08H164.223V143.03H166.794V140.08ZM162.328 144.661H159.757V147.611H162.328V144.661ZM166.794 144.661H164.223V147.611H166.794V144.661ZM162.328 149.259H159.757V152.209H162.328V149.259ZM166.794 149.259H164.223V152.209H166.794V149.259ZM162.328 153.857H159.757V156.807H162.328V153.857ZM166.794 153.857H164.223V156.807H166.794V153.857ZM171.878 103.956H169.307V106.906H171.878V103.956ZM176.344 103.956H173.773V106.906H176.344V103.956ZM171.878 108.397H169.307V111.347H171.878V108.397ZM176.344 108.397H173.773V111.347H176.344V108.397ZM171.878 112.83H169.307V115.788H171.878V112.83ZM176.344 112.83H173.773V115.788H176.344V112.83ZM171.878 117.272H169.307V120.222H171.878V117.272ZM176.344 117.272H173.773V120.222H176.344V117.272ZM171.878 121.82H169.307V124.77H171.878V121.82ZM176.344 121.82H173.773V124.77H176.344V121.82ZM171.878 126.369H169.307V129.319H171.878V126.369ZM176.344 126.369H173.773V129.319H176.344V126.369ZM171.878 130.917H169.307V133.867H171.878V130.917ZM176.344 130.917H173.773V133.867H176.344V130.917ZM171.878 135.466H169.307V138.432H171.878V135.466ZM176.344 135.466H173.773V138.432H176.344V135.466ZM171.911 140.08H169.34V143.03H171.911V140.08ZM176.377 140.08H173.806V143.03H176.377V140.08ZM171.911 144.678H169.34V147.628H171.911V144.678ZM176.377 144.678H173.806V147.628H176.377V144.678ZM171.911 149.276H169.34V152.226H171.911V149.276ZM176.377 149.276H173.806V152.226H176.377V149.276ZM171.911 153.874H169.34V156.824H171.911V153.874ZM176.377 153.874H173.806V156.824H176.377V153.874Z" fill="white"/>
<path d="M359.182 177.275H52.8185V77.1511H359.182V177.275ZM55.9497 174.152H356.059V80.2741H55.9414L55.9497 174.152Z" fill="#DBDBDB"/>
<path d="M207.566 80.2741H204.443V174.144H207.566V80.2741Z" fill="#DBDBDB"/>
<path d="M115.533 261.134L113.564 272.958L100.207 345.083H98.056L107.771 272.958L109.205 261.134H115.533Z" fill="#DBDBDB"/>
<path d="M109.205 261.134H115.533L113.564 272.958H107.771L109.205 261.134Z" fill="#C7C7C7"/>
<path d="M157.483 345.083H155.324L141.967 272.958L139.998 261.134H146.334L147.768 272.958L157.483 345.083Z" fill="#DBDBDB"/>
<path d="M146.334 261.134L147.768 272.958H141.967L139.998 261.134H146.334Z" fill="#C7C7C7"/>
<path d="M197.538 345.083H195.387L182.03 272.958L180.061 261.134H186.397L187.831 272.958L197.538 345.083Z" fill="#DBDBDB"/>
<path d="M187.831 272.958H182.03L180.061 261.134H186.397L187.831 272.958Z" fill="#C7C7C7"/>
<path d="M194.126 266.688H96.2598V258.752L132.895 256.379L145.205 185.351H190.394L194.126 266.688Z" fill="#DBDBDB"/>
<path d="M194.126 266.688H188.795L185.318 185.351H190.393L194.126 266.688Z" fill="#C7C7C7"/>
<path d="M136.702 0H135.878V42.7162H136.702V0Z" fill="#C7C7C7"/>
<path d="M139.198 39.4284H133.381V45.7238H139.198V39.4284Z" fill="#DBDBDB"/>
<path d="M148.196 65.8294H124.424C124.902 56.7654 129.22 42.2547 136.331 42.2547C143.442 42.2547 147.719 56.7654 148.196 65.8294Z" fill="#DBDBDB"/>
<path d="M183.175 0H182.351V42.7162H183.175V0Z" fill="#C7C7C7"/>
<path d="M185.672 39.4284H179.855V45.7238H185.672V39.4284Z" fill="#DBDBDB"/>
<path d="M194.67 65.8294H170.856C171.334 56.7654 175.66 42.2547 182.763 42.2547C189.866 42.2547 194.192 56.7654 194.67 65.8294Z" fill="#DBDBDB"/>
<path d="M229.649 0H228.825V42.7162H229.649V0Z" fill="#C7C7C7"/>
<path d="M232.146 39.4284H226.328V45.7238H232.146V39.4284Z" fill="#DBDBDB"/>
<path d="M241.144 65.8294H217.33C217.816 56.7654 222.134 42.2547 229.237 42.2547C236.34 42.2547 240.666 56.7654 241.144 65.8294Z" fill="#DBDBDB"/>
<path d="M276.122 0H275.298V42.7162H276.122V0Z" fill="#C7C7C7"/>
<path d="M278.619 39.4284H272.802V45.7238H278.619V39.4284Z" fill="#DBDBDB"/>
<path d="M287.617 65.8294H263.804C264.29 56.7654 268.608 42.2547 275.711 42.2547C282.813 42.2547 287.139 56.7654 287.617 65.8294Z" fill="#DBDBDB"/>
<path d="M210.54 392.381C269.246 392.381 316.836 385.533 316.836 377.087C316.836 368.641 269.246 361.794 210.54 361.794C151.835 361.794 104.244 368.641 104.244 377.087C104.244 385.533 151.835 392.381 210.54 392.381Z" fill="#EBEBEB"/>
<path d="M76.7063 377.549C102.214 377.549 122.892 373.59 122.892 368.707C122.892 363.824 102.214 359.866 76.7063 359.866C51.1989 359.866 30.5211 363.824 30.5211 368.707C30.5211 373.59 51.1989 377.549 76.7063 377.549Z" fill="#EBEBEB"/>
<path d="M28.4034 345.083L72.8006 344.885L117.198 344.811L206 344.679L294.803 344.811L339.2 344.885L383.597 345.083L339.2 345.289L294.803 345.363L206 345.495L117.198 345.363L72.8006 345.289L28.4034 345.083Z" fill="#263238"/>
<path d="M328.438 219.744H255.729V353.323H328.438V219.744Z" fill="#455A64"/>
<path d="M328.438 219.744H255.729V228.454H328.438V219.744Z" fill="#263238"/>
<path d="M359.651 212.724H52.3406V219.753H359.651V212.724Z" fill="#455A64"/>
<path d="M67.8483 219.744L67.6176 228.454L64.5523 353.323H58.9985V219.744H67.8483Z" fill="#455A64"/>
<path d="M58.9985 219.744H67.8483L67.6176 228.454H58.9985V219.744Z" fill="#263238"/>
<path d="M353.076 219.744H328.438V353.323H353.076V219.744Z" fill="#37474F"/>
<path d="M353.076 219.744H328.438V228.454H353.076V219.744Z" fill="#263238"/>
<path d="M345.231 212.592H311.382L305.465 188.029H339.315L345.231 212.592Z" fill="#A6A6A6"/>
<path d="M299.458 212.592H333.3L339.216 188.029H305.366L299.458 212.592Z" fill="#EBEBEB"/>
<path d="M335.154 191.325L334.33 194.761L334.28 194.967L333.456 198.535L333.407 198.749L332.583 202.308L332.534 202.523L331.71 206.091L331.66 206.305L330.836 209.799H303.644L304.468 206.305L304.518 206.091L305.342 202.523L305.399 202.308L306.223 198.749L306.273 198.535L307.097 194.967L307.154 194.761L307.978 191.325H335.154ZM311.719 191.325L310.895 194.761L310.846 194.967L310.022 198.535L309.972 198.749L309.148 202.308L309.099 202.523L308.275 206.091L308.226 206.305L307.402 209.799H307.624L308.448 206.305L308.498 206.091L309.322 202.523L309.371 202.308L310.195 198.749L310.244 198.535L311.068 194.967L311.118 194.761L311.942 191.325H311.719ZM315.592 191.325L314.768 194.761L314.719 194.967L313.895 198.535L313.845 198.749L313.021 202.308L312.972 202.523L312.148 206.091L312.098 206.305L311.274 209.799H311.497L312.321 206.305L312.379 206.091L313.203 202.523L313.252 202.308L314.076 198.749L314.134 198.535L314.958 194.967L315.007 194.761L315.831 191.325H315.592ZM319.473 191.325L318.649 194.761L318.6 194.967L317.776 198.535L317.726 198.749L316.902 202.308L316.853 202.523L316.029 206.091L315.979 206.305L315.155 209.799H315.37L316.194 206.305L316.243 206.091L317.067 202.523L317.117 202.308L317.941 198.749L317.99 198.535L318.814 194.967L318.863 194.761L319.687 191.325H319.473ZM323.346 191.325L322.522 194.761L322.473 194.967L321.649 198.535L321.599 198.749L320.775 202.308L320.726 202.523L319.902 206.091L319.852 206.305L319.028 209.799H319.251L320.075 206.305L320.124 206.091L320.948 202.523L321.006 202.308L321.83 198.749L321.879 198.535L322.703 194.967L322.753 194.761L323.577 191.325H323.346ZM327.227 191.325L326.403 194.761L326.354 194.967L325.53 198.535L325.472 198.749L324.648 202.308L324.598 202.523L323.774 206.091L323.725 206.305L322.901 209.799H323.008L323.832 206.305L323.882 206.091L324.706 202.523L324.755 202.308L325.579 198.749L325.628 198.535L326.452 194.967L326.502 194.761L327.326 191.325H327.227ZM331.1 191.325L330.276 194.761L330.226 194.967L329.402 198.535L329.353 198.749L328.529 202.308L328.48 202.523L327.656 206.091L327.606 206.305L326.782 209.799H326.996L327.82 206.305L327.87 206.091L328.694 202.523L328.743 202.308L329.567 198.749L329.617 198.535L330.441 194.967L330.49 194.761L331.314 191.325H331.1ZM307.13 194.761L307.072 194.967H334.264L334.313 194.761H307.13ZM306.223 198.535L306.174 198.749H333.366L333.415 198.535H306.223ZM305.317 202.308L305.259 202.523H332.451L332.501 202.308H305.317ZM304.402 206.091L304.353 206.305H331.545L331.594 206.091H304.402Z" fill="white"/>
<path d="M306.429 189.709C306.304 189.704 306.182 189.672 306.07 189.617C305.958 189.562 305.859 189.484 305.778 189.388C305.62 189.174 305.521 188.922 305.491 188.657C305.46 188.393 305.5 188.125 305.605 187.88C305.836 187.114 306.429 186.793 306.833 186.875C307.237 186.957 307.533 187.279 307.468 188.02C307.463 188.076 307.438 188.127 307.396 188.164C307.355 188.201 307.301 188.22 307.245 188.218C307.189 188.212 307.137 188.185 307.101 188.142C307.064 188.099 307.045 188.044 307.047 187.987C307.047 187.6 306.965 187.336 306.751 187.295C306.536 187.254 306.166 187.476 306.009 188.004C305.932 188.181 305.9 188.375 305.915 188.567C305.931 188.76 305.995 188.946 306.1 189.108C306.14 189.164 306.193 189.209 306.255 189.24C306.317 189.27 306.385 189.284 306.454 189.281C306.483 189.273 306.514 189.271 306.545 189.275C306.575 189.28 306.604 189.291 306.63 189.308C306.656 189.324 306.677 189.346 306.694 189.372C306.71 189.398 306.721 189.427 306.725 189.458C306.729 189.488 306.727 189.519 306.718 189.549C306.709 189.578 306.694 189.605 306.674 189.628C306.654 189.651 306.629 189.67 306.601 189.682C306.573 189.695 306.542 189.701 306.512 189.701L306.429 189.709Z" fill="#A6A6A6"/>
<path d="M309 189.709C308.875 189.704 308.753 189.672 308.641 189.617C308.529 189.562 308.43 189.484 308.349 189.388C308.192 189.172 308.093 188.919 308.063 188.653C308.033 188.387 308.072 188.118 308.176 187.872C308.415 187.106 309 186.784 309.404 186.867C309.808 186.949 310.104 187.27 310.047 188.012C310.04 188.068 310.013 188.12 309.97 188.156C309.928 188.193 309.872 188.212 309.816 188.21C309.788 188.208 309.761 188.2 309.736 188.187C309.711 188.174 309.689 188.157 309.672 188.135C309.654 188.114 309.641 188.089 309.633 188.062C309.625 188.035 309.623 188.007 309.626 187.979C309.626 187.592 309.544 187.328 309.33 187.287C309.116 187.246 308.745 187.468 308.588 187.996C308.51 188.172 308.476 188.365 308.491 188.558C308.505 188.751 308.567 188.937 308.671 189.1C308.712 189.156 308.767 189.201 308.83 189.231C308.894 189.262 308.963 189.276 309.033 189.273C309.063 189.264 309.094 189.262 309.124 189.267C309.154 189.272 309.183 189.283 309.209 189.299C309.235 189.316 309.257 189.338 309.273 189.364C309.289 189.39 309.3 189.419 309.304 189.45C309.308 189.48 309.306 189.511 309.297 189.54C309.288 189.57 309.273 189.597 309.253 189.62C309.233 189.643 309.208 189.662 309.18 189.674C309.152 189.687 309.122 189.693 309.091 189.693L309 189.709Z" fill="#A6A6A6"/>
<path d="M311.645 189.709C311.519 189.704 311.396 189.672 311.282 189.617C311.169 189.562 311.068 189.484 310.986 189.388C310.832 189.172 310.735 188.92 310.706 188.656C310.678 188.392 310.717 188.125 310.821 187.88C311.052 187.114 311.645 186.793 312.049 186.875C312.453 186.957 312.749 187.279 312.683 188.02C312.69 188.051 312.689 188.083 312.681 188.114C312.673 188.145 312.659 188.174 312.639 188.198C312.619 188.223 312.594 188.242 312.565 188.256C312.536 188.269 312.505 188.276 312.473 188.276C312.442 188.276 312.41 188.269 312.382 188.256C312.353 188.242 312.328 188.223 312.308 188.198C312.288 188.174 312.273 188.145 312.266 188.114C312.258 188.083 312.257 188.051 312.263 188.02C312.263 187.633 312.181 187.369 311.967 187.328C311.752 187.287 311.382 187.509 311.225 188.037C311.147 188.213 311.113 188.407 311.127 188.599C311.142 188.792 311.204 188.978 311.307 189.141C311.35 189.197 311.405 189.242 311.468 189.272C311.531 189.302 311.6 189.316 311.67 189.314C311.699 189.306 311.73 189.304 311.761 189.308C311.791 189.313 311.82 189.324 311.846 189.341C311.872 189.357 311.893 189.379 311.91 189.405C311.926 189.431 311.937 189.46 311.941 189.491C311.945 189.521 311.943 189.552 311.934 189.582C311.925 189.611 311.91 189.638 311.89 189.661C311.87 189.684 311.845 189.703 311.817 189.715C311.789 189.728 311.758 189.734 311.728 189.734L311.645 189.709Z" fill="#A6A6A6"/>
<path d="M314.249 189.709C314.124 189.704 314.002 189.672 313.89 189.617C313.778 189.562 313.679 189.484 313.598 189.388C313.442 189.173 313.344 188.921 313.314 188.657C313.284 188.393 313.322 188.125 313.425 187.88C313.656 187.114 314.249 186.793 314.653 186.875C315.056 186.957 315.353 187.279 315.295 188.02C315.289 188.076 315.262 188.128 315.219 188.165C315.176 188.201 315.121 188.22 315.065 188.218C315.037 188.216 315.01 188.208 314.985 188.196C314.96 188.183 314.938 188.165 314.92 188.143C314.903 188.122 314.89 188.097 314.882 188.07C314.874 188.043 314.872 188.015 314.875 187.987C314.875 187.6 314.793 187.336 314.579 187.295C314.364 187.254 313.994 187.476 313.829 188.004C313.754 188.182 313.723 188.375 313.738 188.567C313.754 188.759 313.816 188.945 313.919 189.108C313.961 189.164 314.016 189.209 314.079 189.24C314.142 189.27 314.212 189.284 314.282 189.281C314.334 189.281 314.383 189.3 314.422 189.334C314.461 189.368 314.486 189.415 314.493 189.466C314.5 189.517 314.488 189.569 314.46 189.612C314.432 189.656 314.389 189.687 314.34 189.701L314.249 189.709Z" fill="#A6A6A6"/>
<path d="M316.853 189.709C316.728 189.704 316.606 189.672 316.494 189.617C316.382 189.562 316.282 189.484 316.202 189.388C316.046 189.173 315.949 188.92 315.92 188.656C315.891 188.392 315.931 188.124 316.037 187.88C316.268 187.114 316.861 186.793 317.265 186.875C317.669 186.957 317.965 187.279 317.899 188.02C317.905 188.051 317.905 188.083 317.897 188.114C317.889 188.145 317.875 188.174 317.855 188.198C317.835 188.223 317.809 188.242 317.781 188.256C317.752 188.269 317.721 188.276 317.689 188.276C317.658 188.276 317.626 188.269 317.598 188.256C317.569 188.242 317.544 188.223 317.524 188.198C317.503 188.174 317.489 188.145 317.481 188.114C317.474 188.083 317.473 188.051 317.479 188.02C317.479 187.633 317.397 187.369 317.182 187.328C316.968 187.287 316.597 187.509 316.441 188.037C316.362 188.213 316.329 188.407 316.343 188.599C316.358 188.792 316.419 188.978 316.523 189.141C316.565 189.197 316.62 189.242 316.683 189.272C316.747 189.302 316.816 189.316 316.886 189.314C316.915 189.306 316.946 189.304 316.977 189.308C317.007 189.313 317.036 189.324 317.062 189.341C317.087 189.357 317.109 189.379 317.126 189.405C317.142 189.431 317.153 189.46 317.157 189.491C317.161 189.521 317.159 189.552 317.15 189.582C317.141 189.611 317.126 189.638 317.106 189.661C317.085 189.684 317.061 189.703 317.033 189.715C317.005 189.728 316.974 189.734 316.943 189.734L316.853 189.709Z" fill="#A6A6A6"/>
<path d="M319.465 189.709C319.34 189.704 319.218 189.672 319.106 189.617C318.994 189.562 318.894 189.484 318.814 189.388C318.656 189.174 318.557 188.922 318.526 188.657C318.496 188.393 318.536 188.125 318.641 187.88C318.872 187.114 319.465 186.793 319.869 186.875C320.272 186.957 320.569 187.279 320.511 188.02C320.505 188.076 320.478 188.128 320.435 188.165C320.392 188.201 320.337 188.22 320.281 188.218C320.225 188.212 320.173 188.185 320.136 188.142C320.1 188.099 320.081 188.044 320.083 187.987C320.083 187.6 320.009 187.336 319.795 187.295C319.58 187.254 319.209 187.476 319.045 188.004C318.967 188.181 318.935 188.375 318.951 188.567C318.967 188.76 319.03 188.946 319.135 189.108C319.175 189.164 319.229 189.209 319.29 189.24C319.352 189.27 319.421 189.284 319.49 189.281C319.519 189.273 319.55 189.271 319.58 189.275C319.611 189.28 319.64 189.291 319.666 189.308C319.691 189.324 319.713 189.346 319.729 189.372C319.746 189.398 319.757 189.427 319.761 189.458C319.765 189.488 319.762 189.519 319.754 189.549C319.745 189.578 319.73 189.605 319.71 189.628C319.689 189.651 319.664 189.67 319.636 189.682C319.608 189.695 319.578 189.701 319.547 189.701L319.465 189.709Z" fill="#A6A6A6"/>
<path d="M322.069 189.709C321.944 189.704 321.822 189.672 321.71 189.617C321.598 189.562 321.498 189.484 321.418 189.388C321.262 189.173 321.165 188.92 321.136 188.656C321.107 188.392 321.147 188.124 321.253 187.88C321.484 187.114 322.077 186.793 322.481 186.875C322.885 186.957 323.181 187.279 323.115 188.02C323.121 188.051 323.121 188.083 323.113 188.114C323.105 188.145 323.091 188.174 323.071 188.198C323.051 188.223 323.025 188.242 322.997 188.256C322.968 188.269 322.937 188.276 322.905 188.276C322.873 188.276 322.842 188.269 322.814 188.256C322.785 188.242 322.76 188.223 322.74 188.198C322.719 188.174 322.705 188.145 322.697 188.114C322.69 188.083 322.689 188.051 322.695 188.02C322.695 187.633 322.613 187.369 322.398 187.328C322.184 187.287 321.813 187.509 321.657 188.037C321.578 188.213 321.545 188.407 321.559 188.599C321.573 188.792 321.635 188.978 321.739 189.141C321.781 189.197 321.836 189.242 321.899 189.273C321.962 189.303 322.032 189.317 322.102 189.314C322.131 189.306 322.162 189.304 322.193 189.308C322.223 189.313 322.252 189.324 322.278 189.341C322.303 189.357 322.325 189.379 322.342 189.405C322.358 189.431 322.369 189.46 322.373 189.491C322.377 189.521 322.375 189.552 322.366 189.582C322.357 189.611 322.342 189.638 322.322 189.661C322.301 189.684 322.276 189.703 322.248 189.715C322.22 189.728 322.19 189.734 322.159 189.734L322.069 189.709Z" fill="#A6A6A6"/>
<path d="M324.656 189.709C324.531 189.704 324.409 189.672 324.297 189.617C324.185 189.562 324.086 189.484 324.005 189.388C323.846 189.173 323.746 188.919 323.715 188.653C323.685 188.387 323.725 188.118 323.832 187.872C324.063 187.106 324.656 186.784 325.06 186.867C325.464 186.949 325.76 187.27 325.694 188.012C325.69 188.067 325.665 188.119 325.623 188.156C325.582 188.193 325.527 188.212 325.472 188.21C325.416 188.204 325.364 188.176 325.327 188.133C325.291 188.091 325.272 188.035 325.274 187.979C325.274 187.592 325.192 187.328 324.978 187.287C324.763 187.246 324.392 187.468 324.236 187.996C324.159 188.173 324.126 188.366 324.142 188.559C324.158 188.752 324.221 188.938 324.327 189.1C324.366 189.156 324.42 189.201 324.482 189.231C324.544 189.262 324.612 189.276 324.681 189.273C324.71 189.264 324.741 189.262 324.772 189.267C324.802 189.272 324.831 189.283 324.857 189.299C324.882 189.316 324.904 189.338 324.921 189.364C324.937 189.39 324.948 189.419 324.952 189.45C324.956 189.48 324.954 189.511 324.945 189.54C324.936 189.57 324.921 189.597 324.901 189.62C324.881 189.643 324.856 189.662 324.828 189.674C324.8 189.687 324.769 189.693 324.739 189.693L324.656 189.709Z" fill="#A6A6A6"/>
<path d="M327.285 189.709C327.16 189.704 327.038 189.672 326.926 189.617C326.814 189.562 326.714 189.484 326.634 189.388C326.478 189.173 326.38 188.921 326.35 188.657C326.32 188.393 326.358 188.125 326.461 187.88C326.7 187.114 327.285 186.793 327.689 186.875C328.092 186.957 328.389 187.279 328.331 188.02C328.325 188.076 328.298 188.128 328.255 188.165C328.212 188.201 328.157 188.22 328.101 188.218C328.045 188.212 327.994 188.184 327.959 188.141C327.924 188.098 327.906 188.043 327.911 187.987C327.911 187.6 327.829 187.336 327.614 187.295C327.4 187.254 327.029 187.476 326.873 188.004C326.794 188.18 326.761 188.374 326.775 188.566C326.789 188.759 326.851 188.945 326.955 189.108C326.997 189.164 327.052 189.209 327.115 189.24C327.178 189.27 327.248 189.284 327.318 189.281C327.347 189.273 327.378 189.271 327.409 189.275C327.439 189.28 327.468 189.291 327.494 189.308C327.519 189.324 327.541 189.346 327.558 189.372C327.574 189.398 327.585 189.427 327.589 189.458C327.593 189.488 327.591 189.519 327.582 189.549C327.573 189.578 327.558 189.605 327.538 189.628C327.517 189.651 327.492 189.67 327.464 189.682C327.436 189.695 327.406 189.701 327.375 189.701L327.285 189.709Z" fill="#A6A6A6"/>
<path d="M329.897 189.709C329.771 189.704 329.647 189.672 329.534 189.617C329.421 189.562 329.32 189.484 329.238 189.388C329.083 189.172 328.987 188.92 328.958 188.656C328.929 188.392 328.969 188.125 329.073 187.88C329.304 187.114 329.897 186.793 330.301 186.875C330.704 186.957 331.001 187.279 330.935 188.02C330.941 188.051 330.94 188.083 330.933 188.114C330.925 188.145 330.911 188.174 330.891 188.198C330.87 188.223 330.845 188.242 330.817 188.256C330.788 188.269 330.757 188.276 330.725 188.276C330.693 188.276 330.662 188.269 330.633 188.256C330.605 188.242 330.579 188.223 330.559 188.198C330.539 188.174 330.525 188.145 330.517 188.114C330.509 188.083 330.509 188.051 330.515 188.02C330.515 187.633 330.432 187.369 330.218 187.328C330.004 187.287 329.633 187.509 329.477 188.037C329.398 188.213 329.365 188.407 329.379 188.599C329.393 188.792 329.455 188.978 329.559 189.141C329.601 189.197 329.656 189.242 329.719 189.272C329.782 189.302 329.852 189.316 329.922 189.314C329.951 189.306 329.982 189.304 330.012 189.308C330.043 189.313 330.072 189.324 330.097 189.341C330.123 189.357 330.145 189.379 330.161 189.405C330.178 189.431 330.188 189.46 330.193 189.491C330.197 189.521 330.194 189.552 330.186 189.582C330.177 189.611 330.162 189.638 330.141 189.661C330.121 189.684 330.096 189.703 330.068 189.715C330.04 189.728 330.01 189.734 329.979 189.734L329.897 189.709Z" fill="#A6A6A6"/>
<path d="M332.501 189.709C332.376 189.704 332.254 189.672 332.142 189.617C332.029 189.562 331.93 189.484 331.85 189.388C331.694 189.173 331.596 188.921 331.566 188.657C331.535 188.393 331.574 188.125 331.677 187.88C331.907 187.114 332.501 186.793 332.904 186.875C333.308 186.957 333.605 187.279 333.547 188.02C333.541 188.076 333.514 188.128 333.471 188.165C333.428 188.201 333.373 188.22 333.316 188.218C333.288 188.216 333.261 188.208 333.237 188.196C333.212 188.183 333.19 188.165 333.172 188.143C333.154 188.122 333.141 188.097 333.133 188.07C333.126 188.043 333.123 188.015 333.127 187.987C333.127 187.6 333.044 187.336 332.83 187.295C332.616 187.254 332.245 187.476 332.08 188.004C332.005 188.182 331.974 188.375 331.99 188.567C332.006 188.759 332.068 188.945 332.171 189.108C332.213 189.164 332.268 189.209 332.331 189.24C332.394 189.27 332.464 189.284 332.534 189.281C332.589 189.274 332.645 189.289 332.69 189.323C332.735 189.357 332.764 189.407 332.772 189.462C332.778 189.518 332.762 189.573 332.728 189.617C332.695 189.661 332.646 189.691 332.591 189.701L332.501 189.709Z" fill="#A6A6A6"/>
<path d="M335.104 189.709C334.98 189.704 334.857 189.672 334.745 189.617C334.633 189.562 334.534 189.484 334.453 189.388C334.298 189.173 334.2 188.92 334.171 188.656C334.143 188.392 334.183 188.124 334.289 187.88C334.519 187.114 335.113 186.793 335.516 186.875C335.92 186.957 336.217 187.279 336.151 188.02C336.157 188.051 336.156 188.083 336.149 188.114C336.141 188.145 336.126 188.174 336.106 188.198C336.086 188.223 336.061 188.242 336.032 188.256C336.004 188.269 335.972 188.276 335.941 188.276C335.909 188.276 335.878 188.269 335.849 188.256C335.821 188.242 335.795 188.223 335.775 188.198C335.755 188.174 335.741 188.145 335.733 188.114C335.725 188.083 335.724 188.051 335.731 188.02C335.731 187.633 335.648 187.369 335.434 187.328C335.22 187.287 334.849 187.509 334.692 188.037C334.614 188.213 334.58 188.407 334.595 188.599C334.609 188.792 334.671 188.978 334.775 189.141C334.817 189.197 334.872 189.242 334.935 189.272C334.998 189.302 335.068 189.316 335.137 189.314C335.167 189.306 335.198 189.304 335.228 189.308C335.259 189.313 335.288 189.324 335.313 189.341C335.339 189.357 335.361 189.379 335.377 189.405C335.394 189.431 335.404 189.46 335.408 189.491C335.413 189.521 335.41 189.552 335.401 189.582C335.393 189.611 335.378 189.638 335.357 189.661C335.337 189.684 335.312 189.703 335.284 189.715C335.256 189.728 335.226 189.734 335.195 189.734L335.104 189.709Z" fill="#A6A6A6"/>
<path d="M337.717 189.709C337.592 189.704 337.47 189.672 337.358 189.617C337.246 189.562 337.146 189.484 337.066 189.388C336.908 189.174 336.808 188.922 336.778 188.657C336.748 188.393 336.787 188.125 336.893 187.88C337.123 187.114 337.717 186.793 338.12 186.875C338.524 186.957 338.821 187.279 338.763 188.02C338.757 188.076 338.73 188.128 338.687 188.165C338.644 188.201 338.589 188.22 338.532 188.218C338.476 188.212 338.425 188.185 338.388 188.142C338.351 188.099 338.332 188.044 338.335 187.987C338.335 187.6 338.26 187.336 338.046 187.295C337.832 187.254 337.461 187.476 337.296 188.004C337.219 188.181 337.187 188.375 337.203 188.567C337.219 188.76 337.282 188.946 337.387 189.108C337.427 189.164 337.48 189.209 337.542 189.24C337.604 189.27 337.673 189.284 337.741 189.281C337.797 189.274 337.853 189.289 337.898 189.323C337.943 189.357 337.972 189.407 337.98 189.462C337.985 189.49 337.984 189.518 337.977 189.546C337.97 189.573 337.958 189.599 337.941 189.621C337.924 189.643 337.903 189.662 337.878 189.676C337.854 189.69 337.827 189.698 337.799 189.701L337.717 189.709Z" fill="#A6A6A6"/>
<path d="M134.147 210.779H91.7937V212.683H134.147V210.779Z" fill="#37474F"/>
<path d="M113.111 210.779H91.7937V212.683H113.111V210.779Z" fill="#263238"/>
<path d="M110.82 212.683H69.5458L64.1486 184.65H105.423L110.82 212.683Z" fill="#37474F"/>
<path d="M89.9975 198.666C90.0326 198.986 89.9993 199.31 89.8997 199.616C89.8 199.921 89.6364 200.203 89.4197 200.44C89.203 200.678 88.9382 200.867 88.6429 200.994C88.3475 201.122 88.0284 201.185 87.7068 201.18C87.0225 201.167 86.3665 200.905 85.8625 200.442C85.3585 199.979 85.0414 199.347 84.9711 198.666C84.9421 198.35 84.9801 198.031 85.0825 197.73C85.185 197.429 85.3495 197.153 85.5656 196.92C85.7816 196.687 86.0443 196.502 86.3365 196.377C86.6287 196.252 86.944 196.19 87.2618 196.194C87.9402 196.204 88.592 196.46 89.0954 196.915C89.5988 197.37 89.9195 197.992 89.9975 198.666Z" fill="white"/>
<path d="M264.784 379.04C262.889 379.65 209.024 378.958 206.997 377.623C206.173 377.137 205.86 369.276 205.703 359.775C205.703 359.676 205.703 359.577 205.703 359.478C205.703 357.517 205.646 355.498 205.638 353.455C205.638 353.175 205.638 352.894 205.638 352.631L208.233 324.656L244.267 325.019L240.715 352.697L240.674 353.793L240.452 359.561V360.154C240.452 360.154 260.944 369.646 263.029 371.344C265.114 373.041 266.671 378.455 264.784 379.04Z" fill="#AD6359"/>
<path d="M264.784 379.04C262.889 379.65 209.024 378.958 206.997 377.623C206.173 377.137 205.86 369.276 205.703 359.775C205.703 359.676 205.703 359.577 205.703 359.478C205.703 357.517 205.646 355.498 205.638 353.455C205.638 353.175 205.638 352.894 205.638 352.631L240.732 352.73L240.691 353.826L240.468 359.594V360.187C240.468 360.187 260.961 369.679 263.046 371.377C265.13 373.074 266.671 378.455 264.784 379.04Z" fill="#EBEBEB"/>
<path d="M264.784 379.04C263.812 379.353 249.178 379.32 234.873 379.04C231.997 378.982 229.105 378.916 226.411 378.842C216.209 378.562 207.78 378.142 206.997 377.631C206.214 377.12 205.868 369.506 205.712 360.179C205.712 360.047 205.712 359.915 205.712 359.783C205.712 359.651 205.712 359.577 205.712 359.478H205.753L240.468 359.544V360.137C240.468 360.137 260.969 369.622 263.046 371.319C265.122 373.017 266.671 378.455 264.784 379.04Z" fill="#A6A6A6"/>
<path d="M264.199 376.964C255.135 376.626 218.475 376.14 209.477 376.461C209.403 376.461 209.403 376.51 209.477 376.519C218.467 377.046 255.119 377.268 264.199 377.112C264.389 377.112 264.389 376.972 264.199 376.964Z" fill="#263238"/>
<path d="M244.324 359.709C240.756 358.992 236.381 359.486 233.612 361.991C233.505 362.09 233.612 362.239 233.769 362.206C237.197 361.152 240.727 360.464 244.3 360.154C244.359 360.157 244.416 360.137 244.461 360.098C244.505 360.058 244.531 360.003 244.534 359.944C244.538 359.885 244.517 359.827 244.478 359.783C244.439 359.739 244.383 359.712 244.324 359.709Z" fill="#263238"/>
<path d="M246.879 361.291C243.319 360.582 238.935 361.069 236.167 363.582C236.06 363.681 236.167 363.829 236.315 363.796C239.747 362.735 243.283 362.044 246.862 361.736C246.912 361.725 246.956 361.697 246.988 361.658C247.02 361.619 247.039 361.57 247.04 361.52C247.042 361.469 247.028 361.419 246.998 361.378C246.969 361.337 246.927 361.306 246.879 361.291Z" fill="#263238"/>
<path d="M249.441 362.881C245.874 362.164 241.498 362.659 238.729 365.172C238.622 365.271 238.729 365.419 238.878 365.386C242.304 364.324 245.834 363.637 249.408 363.335C249.462 363.329 249.513 363.305 249.55 363.266C249.588 363.227 249.611 363.176 249.615 363.122C249.619 363.068 249.604 363.014 249.572 362.97C249.54 362.926 249.494 362.895 249.441 362.881Z" fill="#263238"/>
<path d="M234.84 379.04C231.964 378.982 229.072 378.916 226.378 378.842C216.176 378.562 207.747 378.142 206.964 377.631C206.181 377.12 205.835 369.506 205.679 360.179C205.679 360.047 205.679 359.915 205.679 359.783C205.679 359.651 205.679 359.577 205.679 359.478H205.72C210.491 362.824 227.251 373.981 234.84 379.04Z" fill="#263238"/>
<path d="M242.816 359.676H204.023C204.023 359.676 211.834 269.036 211.529 267.487C211.142 265.46 208.851 256.289 205.802 244.308C204.847 240.559 203.817 236.537 202.745 232.368C199.853 221.096 196.664 208.777 193.887 198.057C189.718 181.997 186.471 169.522 186.471 169.522H219.349C219.349 169.522 223.181 181.667 228.009 197.472C235.878 223.156 246.393 258.505 247.431 267.1C249.104 280.984 242.816 359.676 242.816 359.676Z" fill="#37474F"/>
<path d="M241.103 353.059C235.178 352.936 236.875 352.886 230.951 352.829C228.05 352.829 208.999 352.631 206.288 353.084C206.231 353.084 206.231 353.191 206.288 353.208C208.999 353.653 228.05 353.488 230.951 353.455C236.875 353.405 235.178 353.356 241.103 353.232C241.21 353.224 241.21 353.059 241.103 353.059Z" fill="#263238"/>
<path d="M218.83 261.95C217.561 256.338 215.657 250.842 214.001 245.338C210.639 234.153 207.258 222.977 203.858 211.809C202.16 206.222 200.455 200.636 198.741 195.049C197.867 192.231 197.002 189.413 196.12 186.603C195.239 183.793 194.275 181.115 193.5 178.363C193.179 177.234 193.006 177.852 193.409 179.286C194.233 182.186 195.057 185.054 195.881 187.963C197.529 193.681 199.21 199.394 200.924 205.102C204.286 216.473 207.678 227.83 211.101 239.174L216.242 256.264C217.116 258.965 217.823 261.717 218.36 264.504C218.817 267.425 218.933 270.389 218.706 273.337C218.335 279.278 217.643 285.203 217.099 291.127C216.556 297.052 215.995 302.993 215.451 308.926C214.353 320.736 213.268 332.547 212.197 344.358C212.065 345.849 211.933 347.349 211.818 348.849C211.818 349.351 212.534 349.31 212.592 348.849C213.869 337.173 214.85 325.455 215.946 313.754C217.042 302.054 218.129 290.485 219.242 278.842C219.514 275.925 219.819 272.999 219.827 270.058C219.8 267.326 219.465 264.606 218.83 261.95Z" fill="#263238"/>
<path d="M215.608 169.522C213.325 187.18 208.975 220.288 205.802 244.308C198.386 215.204 186.463 169.522 186.463 169.522H215.608Z" fill="#263238"/>
<path d="M223.683 379.576C221.796 380.194 167.931 379.691 165.896 378.373C165.072 377.878 164.726 370.025 164.536 360.525C164.536 360.426 164.536 360.327 164.536 360.228C164.536 358.267 164.462 356.256 164.454 354.213C164.454 353.924 164.454 353.644 164.454 353.389C164.33 339.678 165.278 325.447 165.278 325.447L200.488 325.678L199.507 353.364V354.46L199.309 360.187V360.78C199.309 360.78 219.843 370.19 221.928 371.888C224.013 373.585 225.57 378.974 223.683 379.576Z" fill="#AD6359"/>
<path d="M223.683 379.576C221.796 380.194 167.931 379.691 165.896 378.373C165.072 377.878 164.726 370.025 164.536 360.525C164.536 360.426 164.536 360.327 164.536 360.228C164.536 358.267 164.462 356.256 164.454 354.213C164.454 353.924 164.454 353.644 164.454 353.389H199.548V354.485L199.35 360.212V360.805C199.35 360.805 219.884 370.215 221.969 371.912C224.054 373.61 225.57 378.974 223.683 379.576Z" fill="#EBEBEB"/>
<path d="M223.683 379.576C221.796 380.194 167.931 379.691 165.896 378.373C165.072 377.878 164.726 370.025 164.536 360.525C164.536 360.426 164.536 360.327 164.536 360.228L199.293 360.162V360.755C199.293 360.755 219.827 370.165 221.912 371.863C223.996 373.56 225.57 378.974 223.683 379.576Z" fill="#A6A6A6"/>
<path d="M223.098 377.483C214.034 377.178 177.374 376.79 168.376 377.178C168.302 377.178 168.302 377.235 168.376 377.235C177.366 377.738 214.009 377.82 223.098 377.631C223.304 377.631 223.304 377.491 223.098 377.483Z" fill="#263238"/>
<path d="M203.157 360.302C199.589 359.602 195.214 360.104 192.445 362.626C192.338 362.725 192.445 362.873 192.594 362.84C196.016 361.769 199.544 361.067 203.116 360.747C203.175 360.753 203.234 360.734 203.279 360.697C203.325 360.659 203.354 360.604 203.359 360.545C203.365 360.486 203.346 360.428 203.309 360.382C203.271 360.336 203.216 360.308 203.157 360.302Z" fill="#263238"/>
<path d="M205.72 361.876C202.152 361.176 197.777 361.687 195.008 364.208C194.901 364.307 195.008 364.455 195.156 364.414C198.583 363.349 202.113 362.65 205.687 362.329C205.741 362.324 205.791 362.299 205.829 362.26C205.867 362.222 205.89 362.171 205.894 362.117C205.898 362.062 205.882 362.009 205.851 361.965C205.819 361.921 205.773 361.889 205.72 361.876Z" fill="#263238"/>
<path d="M208.283 363.458C204.715 362.758 200.339 363.26 197.571 365.782C197.463 365.881 197.571 366.029 197.719 365.996C201.144 364.924 204.675 364.225 208.25 363.911C208.304 363.906 208.354 363.881 208.392 363.843C208.429 363.804 208.452 363.753 208.456 363.699C208.46 363.644 208.445 363.591 208.413 363.547C208.381 363.503 208.335 363.471 208.283 363.458Z" fill="#263238"/>
<path d="M218.278 169.522C218.278 169.522 217.52 185.252 213.919 197.711C213.63 198.741 213.317 199.754 212.979 200.726C209.679 202.058 206.507 203.688 203.503 205.596C203.503 205.596 203.124 218.253 202.745 232.368C202.325 248.148 201.921 265.748 201.979 269.448C202.309 283.456 200.232 360.245 200.232 360.245L161.446 360.401C161.446 360.401 168.459 274.639 168.409 269.522C168.335 261.282 170.288 224.952 171.796 198.444C172.719 182.112 173.444 169.522 173.444 169.522H218.278Z" fill="#37474F"/>
<path d="M198.905 353.348C192.981 353.249 194.678 353.191 188.754 353.158C185.853 353.158 166.802 353.059 164.091 353.521C164.076 353.521 164.062 353.527 164.051 353.538C164.04 353.548 164.034 353.563 164.034 353.578C164.034 353.594 164.04 353.608 164.051 353.619C164.062 353.63 164.076 353.636 164.091 353.636C166.802 354.081 185.862 353.834 188.762 353.793C194.687 353.71 192.981 353.669 198.905 353.521C199.013 353.496 199.013 353.348 198.905 353.348Z" fill="#263238"/>
<path d="M176.74 175.141C176.023 196.779 175.265 218.426 174.268 240.048C173.271 261.669 171.985 283.448 170.148 305.102C169.134 317.199 168.178 334.214 166.852 346.302C166.852 346.385 166.967 346.418 166.975 346.302C169.802 324.878 171.376 298.296 172.743 276.691C174.111 255.086 175.075 233.456 175.809 211.826C176.221 199.598 176.542 187.353 176.913 175.116C177.012 174.952 176.74 174.968 176.74 175.141Z" fill="#263238"/>
<path d="M214.594 199.787C210.737 201.385 207.026 203.315 203.503 205.555C203.363 205.637 203.503 205.86 203.619 205.786C207.36 203.965 211.183 202.218 214.817 200.191C214.849 200.153 214.869 200.106 214.873 200.056C214.878 200.006 214.868 199.956 214.844 199.913C214.82 199.869 214.783 199.834 214.739 199.811C214.694 199.789 214.644 199.78 214.594 199.787Z" fill="#263238"/>
<path d="M228.001 197.472L213.919 197.711L193.887 198.057L171.796 198.444C172.719 182.112 173.444 169.522 173.444 169.522H219.308C219.308 169.522 223.172 181.667 228.001 197.472Z" fill="#263238"/>
<path d="M249.079 90.3516L243.509 114.726C243.27 115.434 243.64 116.011 244.333 115.994L256.833 115.714C257.213 115.678 257.576 115.533 257.878 115.298C258.18 115.064 258.409 114.748 258.538 114.388L264.109 90.022C264.356 89.3051 263.985 88.7366 263.285 88.7448L250.785 89.025C250.404 89.0637 250.043 89.2086 249.741 89.4432C249.439 89.6778 249.21 89.9927 249.079 90.3516Z" fill="#A6A6A6"/>
<path d="M250.57 90.3022L244.992 114.676C244.753 115.393 245.124 115.962 245.816 115.945L258.316 115.673C258.697 115.636 259.059 115.492 259.361 115.257C259.663 115.022 259.892 114.707 260.022 114.346L265.592 89.9726C265.839 89.2557 265.468 88.6871 264.768 88.7036L252.268 88.9755C251.888 89.0138 251.528 89.1587 251.227 89.3935C250.927 89.6283 250.699 89.9433 250.57 90.3022Z" fill="#DBDBDB"/>
<path d="M252.96 92.4034C253.547 92.4034 254.023 91.9275 254.023 91.3404C254.023 90.7533 253.547 90.2774 252.96 90.2774C252.373 90.2774 251.897 90.7533 251.897 91.3404C251.897 91.9275 252.373 92.4034 252.96 92.4034Z" fill="#455A64"/>
<path d="M209.585 127.942C216.86 142.915 233.011 162.287 239.586 162.279C242.718 162.279 248.313 162.954 252.367 159.304C261.225 151.344 268.509 136.232 269.926 127.638C270.429 124.572 255.481 118.153 253.314 120.667C248.255 126.558 242.437 138.069 241.523 138.012C238.153 137.806 224.853 127.02 215.567 119.422C204.286 110.202 206.684 121.952 209.585 127.942Z" fill="#AD6359"/>
<path d="M270.083 111.842C268.435 105.662 267.058 104.335 268.435 98.3774C269.341 94.4634 267.231 92.2138 264.504 95.378C260.054 100.553 260.516 108.974 261.521 111.858L270.083 111.842Z" fill="#AD6359"/>
<path d="M269.234 130.307C269.234 130.307 271.887 121.631 270.775 114.866C270.008 110.194 267.199 100.207 254.015 95.0896C250.892 93.8783 245.569 94.3645 249.96 98.2043C253.075 100.932 255.877 101.715 257.376 103.626C257.376 103.626 250.686 105.052 249.598 108.232C248.639 111.015 247.882 113.862 247.332 116.753C247.839 116.971 248.359 117.158 248.889 117.313C248.889 117.313 247.958 120.329 250.232 124.548L269.234 130.307Z" fill="#AD6359"/>
<path d="M269.333 110.523C267.413 108.941 263.301 105.653 259 104.145C254.221 102.497 244.572 100.503 243.344 104.046C242.462 106.642 246.088 107.705 246.088 107.705C246.088 107.705 241.926 107.705 241.638 110.259C241.374 112.558 244.225 113.218 244.225 113.218C244.225 113.218 241.704 113.671 241.885 115.929C242.091 118.648 247.34 117.247 249.928 119.818C250.496 120.395 269.333 110.523 269.333 110.523Z" fill="#AD6359"/>
<path d="M258.06 109.485C254.38 107.675 250.235 107.032 246.178 107.639C246.079 107.639 246.038 107.746 246.137 107.746C250.167 107.857 254.168 108.457 258.052 109.534C258.052 109.534 258.085 109.501 258.06 109.485Z" fill="#263238"/>
<path d="M256.264 114.256C254.394 113.432 248.848 112.097 244.291 113.127C244.192 113.127 244.16 113.234 244.25 113.234C248.28 113.136 252.307 113.495 256.256 114.305C256.256 114.305 256.264 114.272 256.264 114.256Z" fill="#263238"/>
<path d="M270.149 133.925C270.149 133.925 258.266 158.126 251.197 161.001C244.127 163.877 239.908 163.309 237.271 162.946C236.252 162.72 235.296 162.273 234.469 161.636C227.268 156.634 214.265 138.778 208.925 128.717C204.937 121.153 205.283 114.256 211.208 116.357C213.212 117.186 215.066 118.338 216.696 119.768C227.655 128.717 240.353 137.212 240.946 136.891C241.539 136.57 247.653 126.616 247.653 126.616L270.149 133.925Z" fill="#37474F"/>
<path d="M234.502 161.636C227.301 156.634 214.298 138.778 208.958 128.717C204.97 121.153 205.316 114.256 211.241 116.357C214.355 122.339 227.844 148.32 234.502 161.636Z" fill="#263238"/>
<path d="M267.19 138.341C266.366 137.905 265.485 137.624 264.636 137.262C263.787 136.899 262.922 136.578 262.057 136.248C260.409 135.633 258.731 135.032 257.022 134.444L251.979 132.664C250.241 132.062 248.494 131.362 246.714 130.901C246.706 130.898 246.698 130.897 246.69 130.897C246.682 130.898 246.674 130.9 246.667 130.903C246.66 130.906 246.653 130.911 246.648 130.917C246.643 130.923 246.638 130.93 246.636 130.938C246.633 130.945 246.632 130.953 246.632 130.961C246.633 130.969 246.635 130.977 246.638 130.985C246.641 130.992 246.646 130.998 246.652 131.004C246.658 131.009 246.665 131.013 246.673 131.016C248.321 131.84 250.117 132.384 251.839 133.035L256.932 134.955C258.629 135.589 260.335 136.215 262.049 136.817C262.873 137.114 263.697 137.402 264.586 137.641C265.432 137.947 266.293 138.208 267.166 138.424C267.24 138.473 267.248 138.374 267.19 138.341Z" fill="#263238"/>
<path d="M224.903 183.216C224.013 184.098 169.349 181.206 169.085 180.852C168.368 179.887 184.601 123.847 197.422 114.643C200.174 112.666 210.293 113.531 211.653 114.149C213.194 114.841 217.248 122.628 218.945 128.882C222.34 141.407 225.677 182.442 224.903 183.216Z" fill="#EBEBEB"/>
<path d="M206.593 126.987L209.37 122.636L212.444 126.385L211.455 129.904L208.2 130.143L206.593 126.987Z" fill="#1C1C1C"/>
<path d="M208.2 130.142L204.682 166.374L210.837 178.758L215.105 165.434L211.455 129.903L208.2 130.142Z" fill="#1C1C1C"/>
<path d="M229.492 195.807C229.492 195.807 222.291 195.445 212.658 194.925C212.024 191.506 210.68 183.159 210.54 183.159C210.433 183.34 207.755 191.399 206.882 194.621C197.529 194.101 186.941 193.508 178.602 192.973C170.263 192.437 164.05 191.951 163.729 191.695C163.408 191.44 168.137 180.283 168.673 178.635C172.793 165.599 180.102 139.717 185.639 130.11C188.094 125.732 190.911 121.567 194.06 117.659C194.382 117.288 194.67 116.942 194.95 116.629L196.936 114.371L211.768 145.362C211.818 144.769 213.795 116.736 213.795 116.736C217.99 123.559 221.051 131.017 222.859 138.819C226.155 153.454 225.9 174.688 226.74 184.84C226.748 184.84 229.492 195.601 229.492 195.807Z" fill="#37474F"/>
<path d="M194.052 117.659L178.602 192.973C170.189 192.42 164.05 191.951 163.729 191.695C163.408 191.44 168.137 180.283 168.673 178.635C172.793 165.599 180.102 139.717 185.639 130.11C188.091 125.732 190.906 121.567 194.052 117.659Z" fill="#263238"/>
<path d="M211.768 145.362C211.842 148.518 211.818 151.665 211.768 154.821C211.719 157.977 211.628 161.125 211.562 164.273C211.496 167.42 211.331 170.568 211.167 173.716L210.903 178.437C210.779 180.011 210.689 181.585 210.549 183.159C210.499 181.577 210.549 180.003 210.499 178.429V173.699C210.499 170.543 210.639 167.396 210.705 164.248C210.771 161.1 210.936 157.953 211.101 154.805C211.265 151.657 211.471 148.51 211.768 145.362Z" fill="#263238"/>
<path d="M208.167 158.035C209.036 158.035 209.741 157.33 209.741 156.461C209.741 155.592 209.036 154.887 208.167 154.887C207.298 154.887 206.593 155.592 206.593 156.461C206.593 157.33 207.298 158.035 208.167 158.035Z" fill="#263238"/>
<path d="M207.623 166.942C208.493 166.942 209.197 166.238 209.197 165.369C209.197 164.499 208.493 163.795 207.623 163.795C206.754 163.795 206.05 164.499 206.05 165.369C206.05 166.238 206.754 166.942 207.623 166.942Z" fill="#263238"/>
<path d="M207.08 175.842C207.949 175.842 208.653 175.137 208.653 174.268C208.653 173.399 207.949 172.694 207.08 172.694C206.21 172.694 205.506 173.399 205.506 174.268C205.506 175.137 206.21 175.842 207.08 175.842Z" fill="#263238"/>
<path d="M195.815 227.482H125.314V270.198H195.815V227.482Z" fill="#1C1C1C"/>
<path opacity="0.1" d="M195.815 227.482H125.314V247.596H195.815V227.482Z" fill="black"/>
<path d="M197.488 221.203H123.65V241.135H197.488V221.203Z" fill="#1C1C1C"/>
<path d="M176.114 209.832V221.203H170.766V214.734H150.372V221.203H145.024V209.832H176.114Z" fill="#263238"/>
<path d="M138.597 236.381H133.785V245.906H138.597V236.381Z" fill="#263238"/>
<path d="M187.353 236.381H182.541V245.906H187.353V236.381Z" fill="#263238"/>
<path d="M190.253 119.241C172.562 131.412 159.765 150.479 158.562 154.508C155.588 164.256 151.146 181.453 150.463 189.174C150.207 192.025 172.208 191.489 172.579 188.449C173.724 178.923 177.819 158.192 177.926 157.837C178.66 155.365 184.897 144.472 191.316 132.664C197.735 120.856 197.694 114.124 190.253 119.241Z" fill="#AD6359"/>
<path d="M170.824 218.533C170.156 218.733 169.443 218.724 168.78 218.508C168.117 218.291 167.536 217.878 167.116 217.322C166.367 218.235 165.324 218.858 164.166 219.085C162.097 219.39 160.721 216.284 160.721 216.284C159.746 217.07 158.558 217.546 157.31 217.651C155.299 217.734 153.47 214.8 153.47 214.8C152.172 215.026 150.837 214.781 149.704 214.108C147.809 212.88 146.87 206.816 146.903 203.396C146.936 199.977 150.199 190.328 150.66 188.424H172.579C172.579 188.424 176.789 203.775 176.18 207.788C175.669 211.191 173.345 217.676 170.824 218.533Z" fill="#AD6359"/>
<path d="M167.47 217.173C168.879 213.713 169.184 210.021 169.695 206.363C169.695 206.28 169.579 206.264 169.571 206.363C169.101 210.005 167.923 213.515 167.297 217.14C167.298 217.161 167.306 217.18 167.319 217.195C167.332 217.211 167.35 217.221 167.37 217.225C167.39 217.229 167.411 217.226 167.429 217.216C167.447 217.207 167.462 217.192 167.47 217.173Z" fill="#263238"/>
<path d="M161.01 216.209C161.255 215.393 161.391 214.548 161.413 213.696C161.485 212.801 161.551 211.903 161.611 211.002C161.71 209.2 161.765 207.393 161.776 205.58C161.776 205.506 161.661 205.481 161.652 205.58C161.545 207.376 161.413 209.172 161.232 210.969C161.142 211.867 161.043 212.757 160.944 213.655C160.789 214.492 160.728 215.343 160.762 216.193C160.77 216.219 160.785 216.242 160.806 216.259C160.828 216.276 160.853 216.286 160.88 216.288C160.907 216.289 160.934 216.283 160.957 216.269C160.98 216.255 160.999 216.234 161.01 216.209Z" fill="#263238"/>
<path d="M153.47 214.726C153.685 213.986 153.769 213.213 153.717 212.444C153.717 211.62 153.75 210.796 153.816 209.972C153.89 208.324 153.973 206.676 154.105 205.028C154.1 205.015 154.091 205.004 154.08 204.997C154.069 204.989 154.056 204.985 154.043 204.985C154.029 204.985 154.016 204.989 154.005 204.997C153.994 205.004 153.986 205.015 153.981 205.028C153.833 206.676 153.668 208.324 153.536 210.029C153.47 210.853 153.412 211.677 153.355 212.501C153.227 213.243 153.227 214.001 153.355 214.743C153.355 214.743 153.462 214.759 153.47 214.726Z" fill="#263238"/>
<path d="M173.625 188.696L149.581 186.76C149.581 186.76 154.879 160.861 157.747 153.866C160.614 146.87 178.858 126.402 189.586 118.911C199.68 111.874 199.367 118.359 194.678 127.58C189.99 136.8 178.956 157.887 178.429 159.551C177.902 161.216 173.625 188.696 173.625 188.696Z" fill="#37474F"/>
<path d="M173.197 183.752C172.299 183.546 171.359 183.513 170.453 183.389C169.546 183.266 168.615 183.175 167.692 183.093C165.921 182.928 164.141 182.796 162.361 182.673L157.03 182.302C155.201 182.178 153.33 181.964 151.493 181.989C151.41 181.989 151.394 182.104 151.493 182.112C153.305 182.434 155.176 182.524 157.013 182.697L162.427 183.208C164.24 183.373 166.044 183.53 167.857 183.653C168.747 183.719 169.637 183.777 170.527 183.801C171.417 183.826 172.323 183.933 173.221 183.876C173.279 183.851 173.263 183.752 173.197 183.752Z" fill="#263238"/>
<path d="M196.771 114.668C196.26 116.316 195.708 118.022 195.181 119.694C194.654 121.367 194.069 123.031 193.533 124.704L193.294 124.309C194.547 124.449 195.766 124.556 197.043 124.712L200.792 125.141L201.427 125.215L201.048 125.742C199.458 127.942 197.884 130.159 196.244 132.334L196.178 131.807C198.798 134.04 201.452 136.24 204.031 138.514C206.61 140.789 209.222 143.038 211.768 145.362C209.021 143.263 206.321 141.126 203.668 138.951C200.965 136.809 198.337 134.592 195.675 132.409L195.395 132.178L195.609 131.873C197.192 129.656 198.823 127.481 200.446 125.281L200.702 125.874L196.936 125.413C195.684 125.264 194.464 125.067 193.195 124.902L192.824 124.844L192.956 124.506C193.582 122.858 194.192 121.21 194.827 119.562C195.461 117.914 196.112 116.291 196.771 114.668Z" fill="#263238"/>
<path d="M213.416 116.003C213.836 116.753 214.24 117.502 214.636 118.26C215.031 119.019 215.46 119.76 215.83 120.526L218.162 125.091L218.434 125.627H217.825L214.133 125.446L214.454 124.787C215.765 126.278 217.075 127.761 218.36 129.261L218.517 129.45L218.426 129.681C217.371 132.318 216.292 134.955 215.171 137.567C214.051 140.179 212.93 142.807 211.743 145.395C212.666 142.698 213.63 140.017 214.636 137.353C215.641 134.688 216.657 132.032 217.684 129.384L217.75 129.796C216.44 128.313 215.155 126.805 213.861 125.306L213.235 124.581L214.182 124.655L217.866 124.927L217.528 125.429L215.435 120.749C215.081 119.974 214.751 119.183 214.413 118.401C214.075 117.618 213.737 116.794 213.416 116.003Z" fill="#263238"/>
<path d="M210.12 121.491C207.154 122.38 201.715 118.087 199.449 114.478C199.301 114.223 199.532 111.512 199.663 108.191C199.729 106.181 199.762 103.939 199.663 101.888C199.663 101.467 201.114 102.16 201.114 102.16L203.8 102.646L212.691 104.294C212.112 106.9 211.852 109.568 211.916 112.237C211.937 112.516 211.984 112.791 212.056 113.061C212.054 113.108 212.054 113.154 212.056 113.201C212.444 114.75 213.021 120.634 210.12 121.491Z" fill="#AD6359"/>
<path d="M212.065 113.028C212.062 113.075 212.062 113.122 212.065 113.168C211.63 113.254 211.189 113.304 210.746 113.316C202.086 113.63 200.356 102.695 200.356 102.695L203.784 102.646L212.675 104.294C212.096 106.9 211.835 109.568 211.9 112.237C211.93 112.505 211.986 112.77 212.065 113.028Z" fill="#263238"/>
<path d="M196.986 86.8331C195.906 91.4805 199.21 104.467 202.646 107.178C207.59 111.108 215.344 110.993 218.566 105.101C221.697 99.3909 217.091 82.5483 213.293 80.1257C207.698 76.5661 198.584 79.9692 196.986 86.8331Z" fill="#AD6359"/>
<path d="M210.12 94.0184C210.12 94.0184 210.062 94.0761 210.071 94.1173C210.318 94.9413 210.45 96.0207 209.733 96.5069C209.733 96.5069 209.733 96.5646 209.733 96.5563C210.672 96.1773 210.483 94.8012 210.12 94.0184Z" fill="#263238"/>
<path d="M209.098 93.3015C207.665 93.5405 208.274 96.3998 209.585 96.1691C210.895 95.9383 210.301 93.112 209.098 93.3015Z" fill="#263238"/>
<path d="M215.064 93.0131C215.064 93.0131 215.138 93.0131 215.146 93.079C215.303 93.969 215.633 94.966 216.49 95.0896V95.139C215.493 95.205 215.064 93.8866 215.064 93.0131Z" fill="#263238"/>
<path d="M215.657 91.9337C217.058 91.5299 217.759 94.3562 216.481 94.727C215.204 95.0978 214.487 92.288 215.657 91.9337Z" fill="#263238"/>
<path d="M207.706 92.2303C208.068 92.0491 208.382 91.8266 208.728 91.6123C209.074 91.3981 209.453 91.2168 209.65 90.7883C209.693 90.6595 209.691 90.5203 209.647 90.3922C209.602 90.2641 209.517 90.1543 209.403 90.0797C209.156 89.9666 208.882 89.9215 208.612 89.949C208.341 89.9765 208.082 90.0757 207.862 90.2363C207.379 90.5066 207.011 90.9428 206.824 91.464C206.796 91.5811 206.801 91.7036 206.838 91.8182C206.875 91.9328 206.942 92.0351 207.033 92.1141C207.124 92.193 207.235 92.2456 207.353 92.2661C207.472 92.2866 207.594 92.2742 207.706 92.2303Z" fill="#263238"/>
<path d="M216.465 90.261C216.066 90.2666 215.667 90.2473 215.27 90.2033C214.846 90.2431 214.42 90.1417 214.059 89.9149C213.96 89.8218 213.894 89.6983 213.873 89.5639C213.853 89.4296 213.877 89.2921 213.943 89.1733C214.108 88.9558 214.328 88.7861 214.58 88.6818C214.832 88.5775 215.107 88.5424 215.377 88.58C215.935 88.5725 216.475 88.7722 216.893 89.1403C216.982 89.2304 217.043 89.3441 217.069 89.4679C217.095 89.5917 217.085 89.7203 217.04 89.8385C216.994 89.9566 216.916 90.0592 216.814 90.1342C216.712 90.2091 216.591 90.2531 216.465 90.261Z" fill="#263238"/>
<path d="M210.722 99.704C211.018 100.007 211.373 100.246 211.766 100.405C212.159 100.564 212.581 100.639 213.004 100.627C213.376 100.623 213.745 100.565 214.1 100.454L214.306 100.388L214.487 100.314C214.532 100.295 214.569 100.262 214.595 100.221C214.62 100.18 214.631 100.131 214.627 100.083C214.631 100.053 214.631 100.023 214.627 99.9924V99.9183C214.504 99.2343 214.224 98.2126 214.224 98.2126C214.496 98.2867 215.872 98.5916 215.789 98.2126C215.072 95.1642 214.048 92.1964 212.732 89.3546C212.725 89.3338 212.709 89.3169 212.689 89.3077C212.669 89.2984 212.646 89.2975 212.625 89.3051C212.604 89.3128 212.587 89.3284 212.578 89.3485C212.569 89.3685 212.568 89.3915 212.576 89.4123C213.218 92.2303 214.355 94.9248 215.048 97.7511C214.552 97.6306 214.041 97.5834 213.531 97.6111C213.441 97.6605 214.116 99.5722 214.141 99.8853C213.599 100.057 213.028 100.117 212.461 100.063C211.895 100.01 211.346 99.8426 210.845 99.5722C210.713 99.5639 210.656 99.6381 210.722 99.704Z" fill="#263238"/>
<path d="M196.153 85.3499C197.653 78.486 208.513 76.9863 211.694 78.7002C213.458 79.6433 214.831 81.1822 215.567 83.0427C215.567 83.0427 214.652 81.4442 213.49 81.609C212.328 81.7738 212.551 83.257 211.068 84.0315C209.584 84.8061 207.318 83.3641 204.715 84.1634C202.111 84.9626 201.114 87.3852 201.04 89.6018C200.965 91.8183 201.864 99.9512 200.108 100.619C198.353 101.286 194.942 90.9037 196.153 85.3499Z" fill="#263238"/>
<path d="M200.529 97.3556C200.529 97.3556 197.183 93.3757 195.346 94.6034C193.508 95.8312 196.293 101.789 198.642 102.431C198.936 102.535 199.248 102.578 199.559 102.558C199.87 102.537 200.173 102.454 200.451 102.313C200.729 102.172 200.976 101.976 201.176 101.738C201.376 101.499 201.526 101.222 201.616 100.924L200.529 97.3556Z" fill="#AD6359"/>
<path d="M196.186 96.2926C196.186 96.2926 196.145 96.3421 196.186 96.3586C197.834 96.853 198.798 98.2538 199.482 99.7287C199.377 99.5775 199.24 99.4511 199.081 99.3583C198.921 99.2655 198.744 99.2085 198.56 99.1912C198.377 99.1739 198.192 99.1969 198.018 99.2584C197.844 99.3199 197.686 99.4185 197.554 99.5474C197.513 99.5474 197.554 99.6463 197.604 99.6298C197.874 99.5175 198.173 99.4912 198.459 99.5546C198.745 99.618 199.004 99.768 199.202 99.9841C199.521 100.35 199.797 100.751 200.026 101.179C200.117 101.311 200.364 101.179 200.298 101.055C200.232 98.9954 198.378 96.3009 196.186 96.2926Z" fill="#263238"/>
<path d="M212.18 113.522L208.967 121.26L199.408 111.314L196.631 114.437C196.631 114.437 205.918 130.192 206 129.475L209.296 122.809L213.869 127.522L213.63 115.813L212.18 113.522Z" fill="#EBEBEB"/>
<path d="M214.042 121.73C213.943 119.793 213.894 117.848 213.696 115.962C213.696 115.896 213.581 115.863 213.564 115.962C213.152 117.824 213.564 125.215 213.564 126.987C213.375 126.781 209.321 122.867 209.28 122.867C208.571 123.921 206.165 128.775 205.984 129.22C204.517 126.748 198.889 117.626 197.15 115.253C197.101 115.187 196.994 115.253 197.035 115.319C198.32 117.956 205.761 130.2 205.885 130.151C207.147 127.862 208.291 125.511 209.313 123.106C209.997 123.93 214.084 128.412 214.1 128.124C214.194 125.993 214.174 123.858 214.042 121.73Z" fill="#263238"/>
<path d="M48.0146 263.614C51.0799 260.615 55.0351 257.022 59.7236 258.283C64.1238 259.502 65.813 264.306 66.604 268.319C67.6175 273.486 68.4086 278.701 69.2326 283.901C70.0566 289.1 70.8806 294.407 71.5975 299.672C72.0177 302.639 72.4215 305.613 72.8582 308.58L73.4762 313.038C73.6822 314.496 73.9211 315.955 74.0035 317.421C74.0035 317.891 73.2949 317.957 73.1795 317.512C72.611 315.04 72.3555 312.461 72.0177 309.939C71.6799 307.418 71.2843 304.88 70.9135 302.359C70.1829 297.332 69.4331 292.308 68.664 287.288C67.895 282.267 67.1176 277.248 66.3321 272.233C65.6482 267.981 65.3268 262.691 61.5611 259.873C60.539 259.171 59.3545 258.742 58.1201 258.627C56.8856 258.512 55.6422 258.714 54.5077 259.214C52.0357 260.161 50.0416 261.933 48.1052 263.696C48.0934 263.702 48.08 263.704 48.067 263.702C48.0539 263.701 48.0417 263.695 48.032 263.686C48.0222 263.677 48.0153 263.665 48.0122 263.653C48.0091 263.64 48.0099 263.626 48.0146 263.614Z" fill="#263238"/>
<path d="M52.2088 260.549C52.2088 260.549 58.5042 258.291 61.5612 262.856C64.6182 267.421 60.9762 279.064 32.441 285.623C33.2797 276.708 35.5966 267.995 39.2967 259.84C45.4108 246.508 56.3041 251.559 52.2088 260.549Z" fill="#1C1C1C"/>
<path d="M34.0808 283.72C34.5096 282.919 34.9885 282.145 35.5146 281.404C35.9925 280.671 36.4704 279.938 36.9566 279.212C37.3274 278.66 37.6982 278.116 38.0772 277.564C38.0493 277.428 38.0301 277.291 38.0195 277.152L37.9207 276.411C37.8547 275.875 37.7723 275.348 37.6982 274.812C37.624 274.277 37.5334 273.749 37.4262 273.222C37.3601 272.661 37.2358 272.109 37.0555 271.574C37.0555 271.492 37.1708 271.45 37.179 271.574C37.24 271.893 37.3254 272.207 37.4345 272.513C37.5004 272.752 37.5663 272.999 37.624 273.238C37.7641 273.774 37.8959 274.318 38.0195 274.886C38.1431 275.455 38.2255 275.9 38.3079 276.403C38.3079 276.65 38.3903 276.889 38.4233 277.136C38.9342 276.411 39.4451 275.694 39.9807 274.985C41.4968 272.991 43.0954 271.071 44.7599 269.217V269.168C44.6115 266.168 44.6857 263.202 44.0265 260.252C44.0265 260.178 44.1254 260.129 44.1419 260.211C44.8744 262.954 45.2238 265.785 45.1801 268.624C45.7734 267.957 46.3749 267.297 46.9764 266.646C48.3717 265.147 49.789 263.677 51.2282 262.238C51.2409 262.23 51.2557 262.227 51.2704 262.229C51.2851 262.231 51.2988 262.237 51.3093 262.248C51.3197 262.258 51.3264 262.272 51.3281 262.286C51.3299 262.301 51.3266 262.316 51.3189 262.329C48.9211 264.916 46.6386 267.61 44.4138 270.354C46.1545 270.327 47.8955 270.39 49.6297 270.544C51.5578 270.692 53.486 270.939 55.3977 271.203C55.4719 271.203 55.4471 271.343 55.3977 271.327C53.4852 271.055 51.56 270.882 49.6297 270.808C47.7675 270.733 45.9135 270.808 44.0595 270.808C42.8564 272.291 41.6699 273.79 40.4998 275.307H40.7635C41.2002 275.307 41.6369 275.307 42.0736 275.307C42.9388 275.307 43.8123 275.389 44.6692 275.463C46.4401 275.604 48.1993 275.865 49.9346 276.246C49.9445 276.242 49.9553 276.241 49.9658 276.242C49.9763 276.244 49.9864 276.248 49.9951 276.254C50.0039 276.26 50.011 276.268 50.0159 276.277C50.0209 276.287 50.0234 276.297 50.0234 276.308C50.0234 276.318 50.0209 276.329 50.0159 276.338C50.011 276.348 50.0039 276.356 49.9951 276.362C49.9864 276.368 49.9763 276.372 49.9658 276.373C49.9553 276.375 49.9445 276.373 49.9346 276.37C48.1877 276.172 46.4326 276.015 44.6692 275.949C43.8452 275.949 43.0212 275.949 42.1478 275.949H40.7964C40.5528 275.979 40.3057 275.956 40.0713 275.883C39.305 276.88 38.5386 277.869 37.7806 278.875C37.1708 279.699 36.5775 280.473 35.9925 281.281C35.4075 282.088 34.8471 283.019 34.1797 283.794C34.1303 283.852 34.0479 283.786 34.0808 283.72Z" fill="#263238"/>
<path d="M49.4814 267.025C50.4919 266.893 51.5115 266.844 52.5302 266.877C53.5437 266.877 54.5654 266.877 55.579 266.943C55.5889 266.939 55.5996 266.938 55.6102 266.939C55.6207 266.941 55.6308 266.945 55.6395 266.951C55.6483 266.957 55.6554 266.965 55.6603 266.974C55.6652 266.984 55.6678 266.994 55.6678 267.005C55.6678 267.015 55.6652 267.026 55.6603 267.035C55.6554 267.045 55.6483 267.053 55.6395 267.059C55.6308 267.065 55.6207 267.069 55.6102 267.07C55.5996 267.072 55.5889 267.07 55.579 267.067C54.549 266.992 53.519 266.976 52.489 266.992C51.459 267.009 50.4866 267.1 49.4896 267.075C49.4402 267.075 49.4402 267.034 49.4814 267.025Z" fill="#263238"/>
<path d="M40.5244 269.324C40.4091 268.352 40.2855 267.371 40.0795 266.416C40.0795 266.325 40.1948 266.292 40.2031 266.416C40.3514 267.38 40.5409 268.327 40.681 269.291C40.7551 269.769 40.8211 270.247 40.8787 270.733C40.9624 271.182 41.0011 271.637 40.9941 272.093C40.9941 272.115 40.9854 272.136 40.97 272.151C40.9545 272.167 40.9336 272.175 40.9117 272.175C40.8899 272.175 40.8689 272.167 40.8534 272.151C40.838 272.136 40.8293 272.115 40.8293 272.093C40.7386 271.648 40.6889 271.196 40.681 270.742C40.6315 270.272 40.5821 269.786 40.5244 269.324Z" fill="#263238"/>
<path d="M42.4032 258.53C42.6504 259.478 42.8976 260.442 43.0789 261.406C43.1613 261.892 43.2354 262.386 43.3096 262.881C43.3974 263.356 43.4278 263.84 43.4002 264.323C43.4002 264.323 43.3343 264.364 43.3261 264.323C43.2106 263.874 43.1361 263.417 43.1036 262.955C43.0377 262.477 42.9635 262.007 42.8811 261.538C42.7081 260.541 42.535 259.552 42.2796 258.579C42.2631 258.497 42.3867 258.456 42.4032 258.53Z" fill="#263238"/>
<path d="M79.5327 316.367C79.6975 314.57 79.8705 312.782 80.06 310.986C80.4308 307.434 80.884 303.891 81.3455 300.348C81.8069 296.805 82.2683 293.286 82.8369 289.768C83.0496 288.136 83.4137 286.528 83.9246 284.964C84.1107 284.293 84.4471 283.674 84.9082 283.153C85.3694 282.632 85.9432 282.223 86.5861 281.956C89.9398 280.803 92.2058 284.28 93.5571 286.744C93.5571 286.818 93.4912 286.867 93.45 286.801C92.626 285.64 90.393 282.36 87.8468 282.517C86.1411 282.615 84.7651 283.835 83.9493 288.103C81.8975 298.741 80.0518 320.33 79.8293 321.747C79.7139 322.497 79.1866 322.464 79.1783 321.657C79.1783 319.893 79.3843 318.13 79.5327 316.367Z" fill="#263238"/>
<path d="M92.6589 285.417C92.6589 285.417 89.7255 275.059 96.2021 280.242C106.997 288.861 107.384 307.607 107.384 307.607C107.384 307.607 88.1681 296.467 85.8115 289.117C82.26 278.166 92.6589 285.417 92.6589 285.417Z" fill="#1C1C1C"/>
<path d="M88.9921 290.501C90.5 290.806 92.0244 291.004 93.5406 291.226L95.6995 291.531C96.1856 291.597 96.68 291.638 97.1744 291.704C95.7407 289.735 94.2987 287.774 92.9308 285.763C92.8814 285.689 92.9968 285.607 93.0627 285.673C94.2002 286.844 95.2704 288.079 96.268 289.372C96.5482 288.548 96.8366 287.766 97.092 286.966C97.4134 286.035 97.7677 285.112 98.0067 284.156C98.0067 284.082 98.1468 284.115 98.122 284.156C97.8666 285.104 97.6771 286.076 97.4216 287.024C97.193 287.944 96.918 288.851 96.5976 289.743C97.3063 290.658 97.9737 291.589 98.6329 292.536C98.9625 291.597 99.3745 290.691 99.6629 289.743C99.6701 289.729 99.6821 289.718 99.6967 289.712C99.7112 289.706 99.7274 289.706 99.7424 289.711C99.7573 289.716 99.7699 289.726 99.778 289.739C99.7861 289.753 99.7891 289.769 99.7865 289.784C99.4404 290.831 99.2509 291.927 98.9625 292.981C99.4075 293.624 99.8442 294.267 100.264 294.918C101.039 296.113 101.772 297.332 102.481 298.56C102.537 298.583 102.584 298.623 102.616 298.675C102.647 298.727 102.66 298.788 102.654 298.848C103.865 300.95 105.019 303.075 106.156 305.218C106.165 305.233 106.167 305.251 106.162 305.268C106.158 305.285 106.147 305.3 106.131 305.308C106.116 305.317 106.098 305.32 106.081 305.315C106.064 305.31 106.049 305.299 106.041 305.284C104.904 303.166 103.635 301.098 102.316 299.071C102.111 299.011 101.902 298.97 101.69 298.947L101.023 298.807C100.528 298.7 100.034 298.568 99.5476 298.445C98.567 298.206 97.6112 297.975 96.6224 297.802C96.54 297.802 96.5729 297.67 96.6224 297.686C97.7842 297.901 98.9543 298.033 100.124 298.173C100.676 298.239 101.229 298.304 101.772 298.395H101.855C101.163 297.351 100.462 296.313 99.7536 295.28C99.0614 294.267 98.3445 293.27 97.6194 292.273C96.9602 292.182 96.301 292.009 95.6418 291.877L93.4088 291.449C91.9256 291.152 90.4506 290.823 88.9509 290.575C88.9097 290.608 88.9427 290.485 88.9921 290.501Z" fill="#263238"/>
<path d="M100.528 291.523C100.619 291.251 100.701 290.971 100.792 290.699C100.973 290.122 101.105 289.545 101.229 288.96C101.229 288.878 101.369 288.919 101.352 289.002C101.229 289.587 101.088 290.163 100.957 290.748C100.834 291.335 100.666 291.911 100.454 292.471C100.396 292.602 100.19 292.553 100.231 292.405C100.339 292.108 100.454 291.811 100.528 291.523Z" fill="#263238"/>
<path d="M87.064 288.103C87.9374 288.235 88.8191 288.293 89.7008 288.375C90.5825 288.458 91.4559 288.573 92.3376 288.705C92.387 288.705 92.387 288.787 92.3376 288.779C91.4477 288.721 90.5742 288.655 89.6926 288.54C88.8109 288.425 87.9457 288.293 87.0558 288.235C86.9734 288.227 86.9816 288.087 87.064 288.103Z" fill="#263238"/>
<path d="M65.4175 303.232C65.7636 295.61 66.2415 287.996 67.0078 280.407C67.3951 276.625 67.8318 272.843 68.3509 269.085C68.8267 265.384 69.5563 261.719 70.5345 258.118C71.2028 255.331 72.4368 252.712 74.1601 250.422C75.0184 249.296 76.1505 248.409 77.4487 247.845C78.7468 247.281 80.1678 247.059 81.5761 247.2C84.8721 247.612 87.5913 249.713 89.9232 251.996C92.5271 254.558 94.9167 257.36 97.3392 260.104C97.949 260.796 98.5505 261.488 99.152 262.197C99.1575 262.203 99.1616 262.21 99.1644 262.217C99.1671 262.225 99.1683 262.233 99.1679 262.241C99.1675 262.249 99.1656 262.257 99.1621 262.264C99.1587 262.271 99.1539 262.278 99.1479 262.283C99.142 262.289 99.135 262.293 99.1274 262.296C99.1199 262.298 99.1118 262.3 99.1038 262.299C99.0958 262.299 99.0879 262.297 99.0806 262.293C99.0733 262.29 99.0668 262.285 99.0614 262.279C96.6965 259.568 94.2492 256.931 91.6454 254.418C89.2723 252.086 86.8332 249.54 83.5455 248.576C82.0202 248.088 80.3864 248.051 78.8404 248.469C77.6126 248.861 76.506 249.562 75.6268 250.504C73.872 252.532 72.6287 254.951 72.0012 257.558C69.9495 264.562 69.2161 271.912 68.4498 279.146C67.6835 286.381 67.1561 293.871 66.8018 301.254C66.4475 308.637 66.1426 316.086 65.4257 323.502C65.3433 324.417 65.2197 325.323 65.1044 326.238C65.0302 326.848 64.0744 326.848 64.1238 326.238C64.7253 318.575 65.0961 310.92 65.4175 303.232Z" fill="#263238"/>
<path d="M90.3188 252.828C90.3188 252.828 85.9681 244.769 91.1428 242.182C96.3176 239.594 113.506 258.818 118.541 286.917C118.541 286.917 90.7308 274.614 81.2878 262.353C71.8448 250.092 82.5156 247.398 90.3188 252.828Z" fill="#1C1C1C"/>
<path d="M86.2317 259.379C89.3629 259.379 92.4776 259.14 95.6006 259.164C95.0156 258.489 94.4305 257.821 93.8372 257.154C92.9537 256.26 92.128 255.31 91.3652 254.311C91.3652 254.245 91.4147 254.155 91.4806 254.204C92.3236 254.939 93.1139 255.732 93.8455 256.577C94.6283 257.401 95.4028 258.225 96.1774 259.049C97.3722 260.343 98.5423 261.653 99.7124 262.971C99.7124 262.848 99.7124 262.716 99.7124 262.592C99.7124 262.048 99.7124 261.496 99.7124 260.944C99.7124 259.881 99.7124 258.827 99.7124 257.764C99.7124 255.613 99.7124 253.454 99.5476 251.312C99.5476 251.229 99.6712 251.229 99.6794 251.312C99.8277 253.471 100.05 255.613 100.157 257.772C100.207 258.835 100.231 259.898 100.248 260.953C100.248 261.505 100.248 262.048 100.248 262.601C100.248 262.897 100.248 263.21 100.248 263.515L100.8 264.133C103.272 266.984 105.662 269.901 107.969 272.925C107.969 272.76 107.969 272.596 108.01 272.431C108.01 272.101 108.084 271.772 108.125 271.442C108.2 270.725 108.298 270.008 108.406 269.291C108.513 268.575 108.612 267.957 108.727 267.289C108.842 266.622 109.04 265.773 109.098 265.015C109.098 264.924 109.238 264.941 109.221 265.015C109.092 265.773 109.004 266.538 108.958 267.306C108.892 267.998 108.834 268.682 108.768 269.366C108.702 270.05 108.645 270.75 108.57 271.434C108.57 271.763 108.513 272.093 108.471 272.423C108.471 272.587 108.471 272.76 108.414 272.925C108.395 273.062 108.351 273.193 108.282 273.313L109.469 274.87C111.042 276.955 112.591 279.064 114.141 281.174C114.19 281.239 114.099 281.33 114.05 281.264C112.583 279.352 111.081 277.468 109.543 275.612C108.397 275.661 107.235 275.612 106.09 275.554C104.945 275.496 103.676 275.554 102.473 275.554C102.455 275.554 102.439 275.547 102.426 275.535C102.414 275.522 102.407 275.505 102.407 275.488C102.407 275.47 102.414 275.454 102.426 275.441C102.439 275.429 102.455 275.422 102.473 275.422C103.684 275.422 104.887 275.422 106.09 275.422C107.293 275.422 108.315 275.373 109.386 275.422C108.043 273.774 106.683 272.126 105.324 270.544L103.824 268.863C103.36 268.925 102.891 268.941 102.423 268.912H100.775C99.7453 268.912 98.7153 268.912 97.6936 268.912C95.5676 268.912 93.4417 268.814 91.324 268.805C91.3066 268.805 91.2898 268.798 91.2774 268.786C91.2651 268.774 91.2581 268.757 91.2581 268.739C91.2581 268.722 91.2651 268.705 91.2774 268.693C91.2898 268.68 91.3066 268.673 91.324 268.673C93.45 268.673 95.5759 268.558 97.7018 268.5C98.7318 268.5 99.7536 268.443 100.784 268.434H102.432C102.745 268.434 103.066 268.434 103.379 268.434C102.217 267.05 101.047 265.658 99.8772 264.314C99.8492 264.296 99.8265 264.27 99.8112 264.24C98.6741 262.889 97.5315 261.546 96.3834 260.211C96.2268 260.03 96.062 259.857 95.9055 259.667C92.6672 259.774 89.4288 259.56 86.1905 259.618C86.1493 259.511 86.1493 259.379 86.2317 259.379Z" fill="#263238"/>
<path d="M87.8303 264.9H88.5884C88.6037 264.9 88.6183 264.906 88.6291 264.916C88.64 264.927 88.646 264.942 88.646 264.957C88.646 264.972 88.64 264.987 88.6291 264.998C88.6183 265.009 88.6037 265.015 88.5884 265.015H87.8303C87.82 265.009 87.8114 265.001 87.8054 264.991C87.7994 264.981 87.7963 264.969 87.7963 264.957C87.7963 264.945 87.7994 264.934 87.8054 264.924C87.8114 264.914 87.82 264.905 87.8303 264.9Z" fill="#263238"/>
<path d="M89.5196 264.916L92.5189 264.85L94.0186 264.801C94.4837 264.743 94.9543 264.743 95.4194 264.801C95.4688 264.801 95.4194 264.883 95.4194 264.891C94.9589 264.986 94.4879 265.019 94.0186 264.99H92.5107C91.5136 264.99 90.5166 264.99 89.5113 264.99C89.5021 265.001 89.4898 265.008 89.476 265.011C89.4623 265.014 89.448 265.013 89.4351 265.008C89.4222 265.002 89.4114 264.992 89.4044 264.98C89.3973 264.968 89.3944 264.954 89.3959 264.94C89.3975 264.926 89.4035 264.913 89.413 264.902C89.4226 264.892 89.4352 264.885 89.449 264.882C89.4628 264.88 89.4771 264.882 89.4898 264.888C89.5025 264.894 89.5129 264.904 89.5196 264.916Z" fill="#263238"/>
<path d="M98.2539 274.293C100.29 273.961 102.347 273.777 104.409 273.741C104.409 273.741 104.409 273.782 104.409 273.79C102.366 273.98 100.289 274.095 98.2869 274.425C98.2045 274.433 98.1797 274.31 98.2539 274.293Z" fill="#263238"/>
<path d="M106.618 265.328C106.618 265.147 106.659 264.965 106.683 264.792C106.733 264.389 106.799 263.968 106.856 263.589C106.98 262.823 107.112 262.057 107.26 261.299C107.26 261.233 107.392 261.249 107.384 261.299C107.285 262.081 107.203 262.872 107.128 263.655L107.03 264.817C107.04 265.191 106.987 265.565 106.873 265.921C106.861 265.948 106.842 265.97 106.818 265.986C106.794 266.002 106.766 266.01 106.737 266.01C106.708 266.01 106.68 266.002 106.656 265.986C106.632 265.97 106.613 265.948 106.601 265.921C106.567 265.724 106.573 265.523 106.618 265.328Z" fill="#263238"/>
<path d="M65.6977 242.478C66.6865 240.624 67.9554 238.177 70.4439 238.358C72.4874 238.482 73.4186 240.575 73.8553 242.305C75.2066 247.661 75.3055 253.306 75.5692 258.785C76.1295 270.379 76.6239 281.981 76.6981 293.591C76.6981 296.805 76.6981 300.018 76.6981 303.24C76.6981 306.462 76.6981 309.832 76.4674 313.128C76.4569 313.185 76.4268 313.236 76.3824 313.273C76.338 313.31 76.282 313.33 76.2243 313.33C76.1665 313.33 76.1106 313.31 76.0662 313.273C76.0218 313.236 75.9917 313.185 75.9812 313.128C75.9812 310.327 76.0636 307.517 76.0718 304.707C76.0801 301.897 76.0718 299.236 76.0224 296.467C75.929 290.919 75.7807 285.373 75.5774 279.83C75.3714 274.326 75.1325 268.813 74.9018 263.309C74.7782 260.557 74.6628 257.805 74.5392 255.069C74.4156 252.333 74.3085 249.738 74.0036 247.085C73.8306 245.601 73.6081 244.11 73.3032 242.652C73.1462 241.563 72.7025 240.537 72.0178 239.677C71.5435 239.209 70.918 238.925 70.2535 238.877C69.5891 238.829 68.9291 239.019 68.3922 239.413C67.2594 240.228 66.3705 241.336 65.8213 242.619C65.7636 242.619 65.6565 242.553 65.6977 242.478Z" fill="#263238"/>
<path d="M66.3651 241.589C66.3651 241.589 68.4086 234.379 63.8931 237.988C56.3782 243.986 56.1063 257.088 56.1063 257.088C56.1063 257.088 69.4716 249.326 71.1361 244.209C73.6081 236.546 66.3651 241.589 66.3651 241.589Z" fill="#1C1C1C"/>
<path d="M58.9244 251.699C59.0398 251.493 59.1716 251.303 59.3035 251.106C59.287 250.9 59.287 250.693 59.3035 250.488C59.3035 250.175 59.3035 249.87 59.3035 249.557C59.3035 248.947 59.3035 248.337 59.2376 247.727C59.2376 247.645 59.3612 247.653 59.3694 247.727C59.3694 248.321 59.4271 248.922 59.4436 249.515V250.414C59.4436 250.529 59.4436 250.669 59.4436 250.801C59.9627 249.977 60.5065 249.153 61.0916 248.387L61.5859 247.703C61.6519 246.921 61.6519 246.136 61.5859 245.354C61.5859 244.53 61.586 243.706 61.5365 242.833C61.5365 242.75 61.6601 242.759 61.6683 242.833C61.6683 243.706 61.7343 244.571 61.7755 245.445C61.8291 246.067 61.8456 246.691 61.8249 247.315C63.1763 245.552 64.5441 243.904 65.9202 242.198C65.9696 242.141 66.0685 242.198 66.0191 242.281C65.1621 243.379 64.3381 244.478 63.5471 245.577C65.1127 245.206 66.7112 245 68.3098 244.753C68.3922 244.753 68.4252 244.86 68.3098 244.876C66.6618 245.132 64.9561 245.552 63.2916 245.923C62.6489 246.829 62.0144 247.736 61.3882 248.642L60.6301 249.754H60.7043L61.2234 249.688C61.5942 249.639 61.965 249.614 62.3358 249.581C63.1021 249.524 63.8767 249.482 64.643 249.441C64.7254 249.441 64.7254 249.565 64.643 249.565C63.8849 249.565 63.1268 249.639 62.3688 249.721L61.1739 249.87L60.6548 249.927H60.5065C60.078 250.562 59.6413 251.188 59.2211 251.823C58.463 252.935 57.7873 254.13 56.988 255.209C56.9774 255.218 56.9642 255.224 56.9502 255.225C56.9362 255.226 56.9222 255.223 56.9103 255.216C56.8983 255.208 56.889 255.197 56.8838 255.184C56.8785 255.171 56.8775 255.157 56.8809 255.143C57.492 253.955 58.1745 252.805 58.9244 251.699Z" fill="#263238"/>
<path d="M62.2451 243.55V242.726C62.2617 242.134 62.2369 241.542 62.1709 240.954C62.1709 240.937 62.1778 240.92 62.1902 240.907C62.2026 240.895 62.2193 240.888 62.2368 240.888C62.2543 240.888 62.2711 240.895 62.2834 240.907C62.2958 240.92 62.3027 240.937 62.3027 240.954C62.3027 241.539 62.3604 242.124 62.3934 242.709C62.3934 242.998 62.3934 243.294 62.3934 243.583C62.3934 243.723 62.3934 243.855 62.3934 243.986C62.4184 244.125 62.4184 244.268 62.3934 244.407C62.3934 244.422 62.3873 244.437 62.3765 244.447C62.3657 244.458 62.351 244.464 62.3357 244.464C62.3204 244.464 62.3057 244.458 62.2949 244.447C62.2841 244.437 62.278 244.422 62.278 244.407C62.2575 244.278 62.2575 244.148 62.278 244.019L62.2451 243.55Z" fill="#263238"/>
<path d="M63.9013 246.533C64.3957 246.45 64.9066 246.425 65.4092 246.384C65.9119 246.343 66.5051 246.285 67.0572 246.219C67.0672 246.216 67.0779 246.214 67.0885 246.216C67.099 246.217 67.1091 246.221 67.1178 246.227C67.1265 246.233 67.1337 246.241 67.1386 246.251C67.1435 246.26 67.1461 246.271 67.1461 246.281C67.1461 246.292 67.1435 246.302 67.1386 246.312C67.1337 246.321 67.1265 246.329 67.1178 246.335C67.1091 246.341 67.099 246.345 67.0885 246.347C67.0779 246.348 67.0672 246.347 67.0572 246.343C66.0025 246.409 64.9478 246.598 63.8931 246.64C63.8519 246.64 63.8436 246.549 63.9013 246.533Z" fill="#263238"/>
<path d="M65.3845 280.984C68.1943 278.875 70.7158 275.842 74.4979 275.694C77.6209 275.57 79.8045 277.919 81.0899 280.531C81.7164 281.923 82.2262 283.364 82.6143 284.84C83.1829 286.818 83.7103 288.795 84.2047 290.79C85.1825 294.712 86.0065 298.664 86.6767 302.647C87.0557 304.863 87.41 307.097 87.6902 309.33C88.0496 311.594 88.2698 313.878 88.3494 316.169C88.3489 316.256 88.3164 316.34 88.2579 316.405C88.1994 316.469 88.1191 316.51 88.0324 316.519C87.9457 316.529 87.8586 316.505 87.7879 316.454C87.7171 316.403 87.6677 316.328 87.649 316.243C87.2699 314.372 87.1134 312.444 86.825 310.557C86.5366 308.67 86.2647 306.759 85.9433 304.872C85.3006 301.081 84.5535 297.313 83.702 293.566C82.878 290.031 82.1035 286.447 80.9663 283.003C80.1423 280.531 78.8322 277.647 76.1707 276.765C72.1166 275.414 68.4333 278.85 65.4587 281.075C65.4092 281.108 65.3186 280.984 65.3845 280.984Z" fill="#263238"/>
<path d="M68.2932 278.949C68.2932 278.949 70.8806 271.533 67.1314 270.099C61.52 267.924 46.8198 284.478 49.7038 309.84C49.7038 309.84 61.0585 303.586 69.4386 296.549C77.8187 289.512 79.9693 280.317 76.2778 277.943C72.5863 275.57 68.2932 278.949 68.2932 278.949Z" fill="#1C1C1C"/>
<path d="M51.3931 304.402C51.7852 303.518 52.2424 302.664 52.7609 301.848C53.2388 300.982 53.725 300.117 54.2276 299.26C55.2082 297.612 56.1723 295.915 57.1776 294.259L57.6637 293.435C57.6637 293.336 57.6637 293.237 57.606 293.138L57.4412 292.405C57.3094 291.853 57.2188 291.3 57.1116 290.757C56.9139 289.677 56.7244 288.573 56.4277 287.51C56.4277 287.428 56.5348 287.403 56.5596 287.51C56.7903 288.598 57.1281 289.661 57.4495 290.724C57.606 291.251 57.7791 291.77 57.9109 292.298L58.0592 292.841C59.2623 290.864 60.5312 288.894 61.8167 286.991C61.7287 286.725 61.6842 286.447 61.6848 286.167C61.6848 285.796 61.6024 285.425 61.553 285.055C61.4541 284.231 61.3635 283.407 61.2399 282.583C61.0268 280.948 60.7298 279.325 60.35 277.721C60.35 277.639 60.4571 277.622 60.4736 277.721C60.8773 279.32 61.2976 280.918 61.6272 282.533C61.7755 283.357 61.9156 284.132 62.0227 284.931C62.0721 285.326 62.1133 285.755 62.1545 286.134L62.204 286.497C62.6077 285.92 63.028 285.343 63.44 284.783C64.7419 283.077 66.085 281.412 67.4446 279.756C67.494 279.69 67.6012 279.756 67.5435 279.83C65.2198 282.802 63.0869 285.917 61.1575 289.158L60.0533 290.872H60.4241C60.8938 290.806 61.38 290.781 61.8496 290.732C62.8055 290.639 63.7613 290.556 64.7172 290.485C66.6371 290.336 68.5488 290.213 70.4852 290.015C70.5676 290.015 70.5923 290.13 70.4852 290.139C68.5488 290.361 66.6288 290.666 64.7172 290.963L61.8744 291.342C61.1528 291.487 60.4187 291.562 59.6825 291.564C58.9327 292.792 58.1746 294.036 57.4248 295.231C57.5896 295.231 57.7626 295.231 57.9356 295.231H60.6466C61.8826 295.231 63.1186 295.231 64.3464 295.231C64.4288 295.231 64.4123 295.355 64.3464 295.355C63.1021 295.355 61.8744 295.437 60.6136 295.503L58.8338 295.61L57.9521 295.676C57.6807 295.736 57.3996 295.736 57.1281 295.676C56.4964 296.714 55.8564 297.752 55.2082 298.791C54.6232 299.746 54.0299 300.702 53.4201 301.65C52.8565 302.663 52.2145 303.63 51.5002 304.542C51.4672 304.526 51.3684 304.484 51.3931 304.402Z" fill="#263238"/>
<path d="M56.8067 283.909C56.9199 284.722 57.0906 285.526 57.3176 286.315C57.5236 287.139 57.7625 287.963 58.0262 288.787C58.034 288.798 58.0393 288.81 58.0415 288.823C58.0437 288.836 58.0428 288.849 58.0389 288.861C58.0351 288.874 58.0283 288.885 58.0191 288.894C58.01 288.904 57.9987 288.911 57.9864 288.915C57.974 288.919 57.9608 288.92 57.9479 288.918C57.935 288.916 57.9227 288.911 57.9121 288.904C57.9015 288.896 57.8929 288.886 57.8869 288.874C57.881 288.863 57.8779 288.85 57.8779 288.837C57.6225 288.013 57.4 287.23 57.2022 286.422C57.0045 285.615 56.8809 284.774 56.6831 283.95C56.6584 283.843 56.7985 283.819 56.8067 283.909Z" fill="#263238"/>
<path d="M65.1538 288.861C65.3235 288.71 65.5441 288.627 65.7718 288.631L66.843 288.482C67.5022 288.392 68.1697 288.318 68.8371 288.243C70.2214 288.079 71.6057 287.947 72.9571 287.766C73.0395 287.766 73.0642 287.889 72.9571 287.897C71.6469 288.054 70.3533 288.252 69.0513 288.425C68.4086 288.507 67.7741 288.598 67.1314 288.672L66.2085 288.779C65.8499 288.779 65.4936 288.837 65.1538 288.952C65.1538 288.985 65.0961 288.903 65.1538 288.861Z" fill="#263238"/>
<path d="M56.8561 300.01C57.5071 299.961 58.1663 299.936 58.8172 299.919H59.806H60.284C60.4894 299.94 60.6965 299.94 60.902 299.919C60.9926 299.919 61.0091 300.06 60.902 300.043C60.71 300.027 60.5171 300.027 60.3252 300.043H59.806L58.8172 300.101C58.1663 300.101 57.5071 300.183 56.8479 300.183C56.7572 300.15 56.749 300.018 56.8561 300.01Z" fill="#263238"/>
<path d="M52.8267 297.176C52.7526 296.805 52.6784 296.434 52.6125 296.063C52.4724 295.33 52.3406 294.596 52.2087 293.863C52.2087 293.789 52.3159 293.764 52.3323 293.863C52.4971 294.572 52.6537 295.289 52.8185 295.997C52.8927 296.352 52.9751 296.706 53.0492 297.068C53.0492 297.233 53.1151 297.398 53.1563 297.563C53.2079 297.731 53.2275 297.907 53.214 298.082C53.214 298.148 53.1151 298.197 53.0739 298.131C52.9311 297.832 52.8472 297.507 52.8267 297.176Z" fill="#263238"/>
<path d="M55.991 319.036L56.3371 329.435L58.4877 368.699H93.4582L95.6006 329.435L95.955 319.036H55.991Z" fill="#37474F"/>
<path d="M55.991 319.036L56.3371 329.435H95.6006L95.955 319.036H55.991Z" fill="#263238"/>
<path d="M51.4013 322.102H100.52V311.612H51.4013V322.102Z" fill="#37474F"/>
</svg>
