<svg width="412" height="412" viewBox="0 0 412 412" fill="none" xmlns="http://www.w3.org/2000/svg">
<path d="M361.431 60.1932H292.248V105.365H361.431V60.1932Z" fill="#DBDBDB"/>
<path d="M361.431 108.018H292.248V153.19H361.431V108.018Z" fill="#EBEBEB"/>
<path d="M305.811 116.703H299.087V123.427H305.811V116.703Z" fill="white"/>
<path d="M313.944 116.703H307.22V123.427H313.944V116.703Z" fill="#C7C7C7"/>
<path d="M322.069 116.703H315.345V123.427H322.069V116.703Z" fill="white"/>
<path d="M330.202 116.703H323.478V123.427H330.202V116.703Z" fill="white"/>
<path d="M338.326 116.703H331.602V123.427H338.326V116.703Z" fill="white"/>
<path d="M346.451 116.703H339.727V123.427H346.451V116.703Z" fill="white"/>
<path d="M354.584 116.703H347.86V123.427H354.584V116.703Z" fill="white"/>
<path d="M305.811 124.885H299.087V131.609H305.811V124.885Z" fill="white"/>
<path d="M313.944 124.885H307.22V131.609H313.944V124.885Z" fill="white"/>
<path d="M322.069 124.885H315.345V131.609H322.069V124.885Z" fill="white"/>
<path d="M330.202 124.885H323.478V131.609H330.202V124.885Z" fill="white"/>
<path d="M338.326 124.885H331.602V131.609H338.326V124.885Z" fill="#C7C7C7"/>
<path d="M346.451 124.885H339.727V131.609H346.451V124.885Z" fill="white"/>
<path d="M354.584 124.885H347.86V131.609H354.584V124.885Z" fill="white"/>
<path d="M305.811 133.068H299.087V139.792H305.811V133.068Z" fill="white"/>
<path d="M313.944 133.068H307.22V139.792H313.944V133.068Z" fill="white"/>
<path d="M322.069 133.068H315.345V139.792H322.069V133.068Z" fill="white"/>
<path d="M330.202 133.068H323.478V139.792H330.202V133.068Z" fill="white"/>
<path d="M338.326 133.068H331.602V139.792H338.326V133.068Z" fill="white"/>
<path d="M346.451 133.068H339.727V139.792H346.451V133.068Z" fill="white"/>
<path d="M354.584 133.068H347.86V139.792H354.584V133.068Z" fill="white"/>
<path d="M305.811 141.258H299.087V147.982H305.811V141.258Z" fill="white"/>
<path d="M313.944 141.258H307.22V147.982H313.944V141.258Z" fill="white"/>
<path d="M322.069 141.258H315.345V147.982H322.069V141.258Z" fill="#C7C7C7"/>
<path d="M330.202 141.258H323.478V147.982H330.202V141.258Z" fill="white"/>
<path d="M338.326 141.258H331.602V147.982H338.326V141.258Z" fill="white"/>
<path d="M346.451 141.258H339.727V147.982H346.451V141.258Z" fill="white"/>
<path d="M354.584 141.258H347.86V147.982H354.584V141.258Z" fill="white"/>
<path d="M297.588 103.222H294.959V110.169H297.588V103.222Z" fill="#C7C7C7"/>
<path d="M303.702 103.222H301.073V110.169H303.702V103.222Z" fill="#C7C7C7"/>
<path d="M309.816 103.222H307.187V110.169H309.816V103.222Z" fill="#C7C7C7"/>
<path d="M315.93 103.222H313.301V110.169H315.93V103.222Z" fill="#C7C7C7"/>
<path d="M322.036 103.222H319.407V110.169H322.036V103.222Z" fill="#C7C7C7"/>
<path d="M328.15 103.222H325.521V110.169H328.15V103.222Z" fill="#C7C7C7"/>
<path d="M334.264 103.222H331.635V110.169H334.264V103.222Z" fill="#C7C7C7"/>
<path d="M340.378 103.222H337.749V110.169H340.378V103.222Z" fill="#C7C7C7"/>
<path d="M346.492 103.222H343.863V110.169H346.492V103.222Z" fill="#C7C7C7"/>
<path d="M352.606 103.222H349.978V110.169H352.606V103.222Z" fill="#C7C7C7"/>
<path d="M358.72 103.222H356.092V110.169H358.72V103.222Z" fill="#C7C7C7"/>
<path d="M327.952 64.8158C327.952 65.0342 327.887 65.2477 327.766 65.4293C327.645 65.6108 327.472 65.7524 327.27 65.8359C327.069 65.9195 326.847 65.9414 326.632 65.8988C326.418 65.8562 326.221 65.751 326.067 65.5966C325.913 65.4422 325.807 65.2454 325.765 65.0312C325.722 64.8171 325.744 64.595 325.828 64.3933C325.911 64.1915 326.053 64.0191 326.234 63.8978C326.416 63.7764 326.629 63.7117 326.848 63.7117C327.141 63.7117 327.422 63.828 327.629 64.0351C327.836 64.2421 327.952 64.523 327.952 64.8158Z" fill="#263238"/>
<path d="M49.9344 111.817L174.68 111.817V106.345L49.9344 106.345V111.817Z" fill="#EBEBEB"/>
<path d="M167.684 111.817H162.213V129.912H167.684V111.817Z" fill="#EBEBEB"/>
<path d="M167.684 111.817H162.213V117.412H167.684V111.817Z" fill="#DBDBDB"/>
<path d="M62.3933 111.817H56.9219V129.912H62.3933V111.817Z" fill="#EBEBEB"/>
<path d="M62.3933 111.817H56.9219V117.412H62.3933V111.817Z" fill="#DBDBDB"/>
<path d="M151.385 106.345V71.4819H142.601V106.345H151.385Z" fill="#C7C7C7"/>
<path d="M151.394 73.443V69.6115H142.61V73.443H151.394Z" fill="#DBDBDB"/>
<path d="M151.394 79.788V78.3624H142.61V79.788H151.394Z" fill="#DBDBDB"/>
<path d="M151.394 101.772V97.9407H141.522V101.772H151.394Z" fill="#DBDBDB"/>
<path d="M142.61 106.345V65.6727H136.471V106.345H142.61Z" fill="#DBDBDB"/>
<path d="M141.415 85.1439V69.5044H137.732V85.1439H141.415Z" fill="#EBEBEB"/>
<path d="M97.1312 106.366L126.056 77.7719L121.741 73.4061L92.8155 102L97.1312 106.366Z" fill="#C7C7C7"/>
<path d="M103.052 98.7589L114.174 87.7639L111.585 85.1445L100.463 96.1394L103.052 98.7589Z" fill="#DBDBDB"/>
<path d="M136.479 106.354V75.4619H126.056V106.354H136.479Z" fill="#A6A6A6"/>
<path d="M136.479 103.074V100.198H126.056V103.074H136.479Z" fill="#C7C7C7"/>
<path d="M136.479 98.3032V97.1908H126.056V98.3032H136.479Z" fill="#C7C7C7"/>
<path d="M158.587 106.354V77.3241H151.385V106.354H158.587Z" fill="#A6A6A6"/>
<path d="M158.595 103.272V100.569H151.393V103.272H158.595Z" fill="#C7C7C7"/>
<path d="M158.595 86.0091V83.3064H151.393V86.0091H158.595Z" fill="#C7C7C7"/>
<path d="M158.587 88.9096V87.8632H151.385V88.9096H158.587Z" fill="#C7C7C7"/>
<path d="M75.157 69.1583C81.2958 75.1652 82.3258 84.4682 81.0322 92.6176C81.0322 92.7988 80.7108 92.7494 80.7108 92.5764C80.7108 90.7224 80.7685 88.8848 80.7603 87.0556L80.6696 86.8084C79.0134 85.72 77.6451 84.2471 76.6814 82.5153C75.6514 80.5048 75.2477 78.2305 74.4649 76.1211C74.3907 75.9151 74.605 75.981 74.745 76.1211C78.486 78.8815 79.689 81.8396 80.7438 85.8031C80.7224 83.7299 80.5044 81.6634 80.0928 79.6313C79.386 75.7831 77.6163 72.2095 74.984 69.3148C74.8934 69.216 75.0499 69.0512 75.157 69.1583Z" fill="#A6A6A6"/>
<path d="M74.0034 69.8587C72.9405 69.8587 72.2813 71.5809 71.4573 72.0753C71.3694 72.1407 71.2695 72.1879 71.1632 72.2141C71.0569 72.2404 70.9465 72.2453 70.8383 72.2284C70.7301 72.2115 70.6264 72.1733 70.5332 72.1159C70.44 72.0584 70.3592 71.983 70.2954 71.894C69.4714 70.7487 70.6003 69.3479 71.6468 68.598C70.9539 69.0045 70.2225 69.3412 69.4632 69.6033C69.3593 69.6382 69.249 69.6501 69.1401 69.6382C69.0311 69.6264 68.926 69.5911 68.832 69.5347C68.738 69.4783 68.6573 69.4022 68.5956 69.3116C68.5339 69.221 68.4925 69.1181 68.4744 69.01C68.1118 67.4279 70.04 66.744 71.3996 66.744C70.7486 66.2908 68.9276 65.096 69.8834 64.4698C70.8393 63.8435 73.0558 65.6151 73.7645 66.1919C74.8109 67.0159 76.0552 68.3014 76.1046 69.628C76.1623 71.1359 74.8109 70.1801 74.0034 69.8587Z" fill="#DBDBDB"/>
<path d="M74.3083 70.1141C72.9569 69.5043 70.3613 70.386 70.1388 69.8751C69.6939 68.8369 71.7868 68.12 72.8827 67.9799C71.8527 67.708 69.8834 67.2631 69.9411 66.266C70.0152 65.0547 72.9734 66.093 74.4648 67.2383C76.3518 68.6886 76.3353 70.0811 76.0222 70.3613C75.7091 70.6415 74.5307 70.2212 74.3083 70.1141Z" fill="#EBEBEB"/>
<path d="M89.1403 68.5568C82.7708 74.3248 81.3947 83.5866 82.3752 91.7771C82.3752 91.9667 82.6884 91.9255 82.6966 91.7771C82.7625 89.9231 82.779 88.0856 82.8532 86.2563C82.8532 86.1739 82.9191 86.0915 82.9603 86.0091C84.6447 84.9868 86.0579 83.5736 87.0803 81.8891C88.1844 79.9115 88.6788 77.6538 89.5523 75.5773C89.6347 75.3795 89.4204 75.429 89.2721 75.5279C85.4405 78.1399 84.1304 81.0569 82.9108 84.9791C83.0126 82.9099 83.3078 80.8546 83.7925 78.8403C84.6582 75.0379 86.5606 71.5496 89.2886 68.7628C89.404 68.6227 89.2474 68.4579 89.1403 68.5568Z" fill="#A6A6A6"/>
<path d="M90.2692 69.3066C91.3239 69.3808 91.9172 71.0947 92.7412 71.6138C92.8262 71.6831 92.9242 71.7347 93.0294 71.7656C93.1346 71.7965 93.245 71.8061 93.3539 71.7938C93.4629 71.7816 93.5684 71.7477 93.6641 71.6941C93.7598 71.6406 93.8438 71.5684 93.9113 71.482C94.7353 70.3696 93.7053 68.9276 92.6835 68.1036C93.3557 68.5451 94.0707 68.9178 94.8177 69.216C94.9197 69.2539 95.0286 69.2694 95.1371 69.2614C95.2457 69.2534 95.3512 69.2222 95.4466 69.1698C95.5419 69.1174 95.6249 69.0452 95.6899 68.9579C95.7548 68.8706 95.8002 68.7703 95.823 68.6639C96.2432 67.123 94.3233 66.3567 92.9884 66.2743C93.6558 65.8541 95.551 64.7005 94.587 64.0577C93.6229 63.415 91.3734 65.096 90.64 65.6069C89.5606 66.4309 88.2751 67.6339 88.168 68.9523C88.0526 70.5014 89.4452 69.595 90.2692 69.3066Z" fill="#DBDBDB"/>
<path d="M89.9479 69.5539C91.324 68.9935 93.8866 69.9741 94.1256 69.4715C94.6117 68.4497 92.5682 67.6587 91.4476 67.4774C92.494 67.2384 94.4799 66.8676 94.4634 65.8294C94.4634 64.6099 91.4393 65.541 89.8984 66.6534C87.962 68.0212 87.9208 69.4138 88.2504 69.7104C88.58 70.0071 89.7254 69.6445 89.9479 69.5539Z" fill="#EBEBEB"/>
<path d="M82.6307 83.809C82.1991 86.8972 81.5381 89.949 80.6531 92.939C80.6331 92.9892 80.5961 93.0308 80.5485 93.0565C80.5009 93.0822 80.4458 93.0904 80.3928 93.0796C80.3398 93.0688 80.2923 93.0397 80.2585 92.9974C80.2248 92.9552 80.207 92.9024 80.2082 92.8483C80.6284 90.0385 81.3865 87.2781 81.8067 84.46C82.265 81.6142 82.4279 78.7286 82.2929 75.8492C82.0292 71.1112 80.752 66.0683 77.6455 62.3603C77.5796 62.2697 77.7279 62.1461 77.7939 62.2285C83.9903 69.4467 83.0015 78.3047 82.9933 79.0958C83.875 76.1046 84.7731 72.6768 88.0939 69.6363C88.2339 69.5044 88.3493 69.5621 88.3246 69.7846C87.7313 75.3301 86.1904 78.2306 82.9768 81.197C82.8862 82.0704 82.7708 82.9438 82.6307 83.809Z" fill="#A6A6A6"/>
<path d="M77.5879 63.1843C76.4755 62.6899 74.9428 64.1072 73.8387 64.2061C73.7149 64.2361 73.5862 64.2399 73.4608 64.2173C73.3355 64.1946 73.2163 64.1461 73.1108 64.0747C73.0053 64.0034 72.9158 63.9108 72.8482 63.8028C72.7806 63.6949 72.7362 63.574 72.718 63.448C72.4461 61.8577 74.3166 60.976 75.808 60.6793C74.8801 60.7551 73.9469 60.7357 73.0229 60.6217C72.8984 60.604 72.779 60.56 72.6729 60.4925C72.5668 60.4249 72.4764 60.3355 72.4077 60.2301C72.339 60.1248 72.2937 60.0059 72.2747 59.8816C72.2558 59.7573 72.2636 59.6303 72.2978 59.5093C72.7098 57.7129 75.0747 57.9766 76.4755 58.6193C76.0305 57.7953 74.7203 55.62 76.047 55.4964C77.3736 55.3728 78.7744 58.2815 79.2194 59.2373C79.8786 60.6464 80.5295 62.5828 79.9115 63.9836C79.1947 65.5986 78.28 63.9341 77.5879 63.1843Z" fill="#DBDBDB"/>
<path d="M77.7774 63.6128C76.6897 62.2944 73.5503 61.9071 73.575 61.2644C73.6327 59.9625 76.1459 60.2591 77.3819 60.6794C76.4507 59.8554 74.6215 58.4216 75.19 57.3834C75.8739 56.1639 78.4119 58.7347 79.3924 60.6794C80.6202 63.1514 79.9033 64.5604 79.4419 64.6923C78.8074 64.9147 77.9587 63.8271 77.7774 63.6128Z" fill="#EBEBEB"/>
<path d="M86.7095 85.4818L89.437 106.345H72.8169C73.1547 104.5 76.253 85.457 76.253 85.457L86.7095 85.4818Z" fill="#DBDBDB"/>
<path d="M88.9919 182.203V386.266H184.461V182.203H88.9919ZM97.6604 240.707H175.784V281.808H97.6687L97.6604 240.707ZM97.6604 189.808H175.784V230.918H97.6687L97.6604 189.808Z" fill="#DBDBDB"/>
<path d="M45.8308 386.258H88.9919L88.9919 182.203H45.8308L45.8308 386.258Z" fill="#EBEBEB"/>
<path d="M157.219 230.942H175.784V189.833H157.219V230.942Z" fill="#EBEBEB"/>
<path d="M175.512 376.568H97.4545V336.95H175.512V376.568ZM97.8665 376.156H175.1V337.362H97.8665V376.156Z" fill="#EBEBEB"/>
<path d="M128.766 353.826H144.192V348.189H128.766V353.826Z" fill="#EBEBEB"/>
<path d="M175.512 329.699H97.4545V290.089H175.512V329.699ZM97.8665 329.287H175.1V290.501H97.8665V329.287Z" fill="#EBEBEB"/>
<path d="M128.766 306.956H144.192V301.32H128.766V306.956Z" fill="#EBEBEB"/>
<path d="M157.219 281.841H175.784V240.731H157.219V281.841Z" fill="#EBEBEB"/>
<path d="M121.408 281.841V243.945H108.348V281.841H121.408Z" fill="#A6A6A6"/>
<path d="M121.408 275.76V267.586H108.348V275.76H121.408Z" fill="#DBDBDB"/>
<path d="M121.408 261.002V256.149H108.348V261.002H121.408Z" fill="#DBDBDB"/>
<path d="M119.999 230.942H153.009V199.227H119.999V230.942Z" fill="#EBEBEB"/>
<path d="M107.458 230.942H119.999V199.227H107.458V230.942Z" fill="#C7C7C7"/>
<path d="M153.009 215.089H119.999L145.782 215.904L153.009 215.089Z" fill="#C7C7C7"/>
<path d="M119.999 227.111H153.009L127.234 227.927L119.999 227.111Z" fill="#C7C7C7"/>
<path d="M153.009 206.222H132.104L150.685 206.89L153.009 206.222Z" fill="#C7C7C7"/>
<path d="M119.999 222.447H140.912L122.323 223.106L119.999 222.447Z" fill="#C7C7C7"/>
<path d="M145.09 202.688H121.507L125.438 203.091L145.09 202.688Z" fill="#C7C7C7"/>
<path d="M149.803 218.484H126.22L130.151 218.887L149.803 218.484Z" fill="#C7C7C7"/>
<path d="M135.301 209.238H119.999L117.272 210.309L135.301 209.238Z" fill="#EBEBEB"/>
<path d="M157.227 209.238H141.926L139.19 210.309L157.227 209.238Z" fill="#EBEBEB"/>
<path d="M137.592 223.494H152.893L155.629 224.565L137.592 223.494Z" fill="#EBEBEB"/>
<path d="M119.999 219.876H107.713L104.986 220.939L119.999 219.876Z" fill="#C7C7C7"/>
<path d="M115.714 215.089H106.189L107.458 214.215L115.714 215.089Z" fill="#C7C7C7"/>
<path d="M108.348 241.416H97.6605V281.849H108.348V241.416Z" fill="#EBEBEB"/>
<path d="M103 249.384C103.44 249.384 103.87 249.253 104.236 249.009C104.602 248.764 104.887 248.417 105.055 248.01C105.224 247.604 105.268 247.156 105.182 246.725C105.096 246.293 104.884 245.897 104.573 245.586C104.262 245.274 103.866 245.063 103.434 244.977C103.002 244.891 102.555 244.935 102.149 245.103C101.742 245.272 101.395 245.557 101.15 245.923C100.906 246.289 100.775 246.719 100.775 247.159C100.775 247.749 101.01 248.315 101.427 248.732C101.844 249.149 102.41 249.384 103 249.384Z" fill="white"/>
<path d="M103 248.436C103.253 248.436 103.5 248.361 103.71 248.221C103.92 248.08 104.083 247.881 104.18 247.648C104.277 247.414 104.302 247.157 104.253 246.91C104.203 246.662 104.082 246.434 103.903 246.256C103.725 246.077 103.497 245.955 103.249 245.906C103.001 245.857 102.745 245.882 102.511 245.979C102.278 246.075 102.078 246.239 101.938 246.449C101.798 246.659 101.723 246.906 101.723 247.159C101.722 247.327 101.754 247.493 101.818 247.649C101.882 247.804 101.976 247.946 102.094 248.064C102.213 248.183 102.355 248.277 102.51 248.341C102.665 248.405 102.832 248.437 103 248.436Z" fill="#A6A6A6"/>
<path d="M108.348 275.48V265.641H97.6605V275.48H108.348Z" fill="white"/>
<path d="M161.842 273.494H121.408V281.899H161.842V273.494Z" fill="#C7C7C7"/>
<path d="M129.368 277.688C129.368 277.248 129.238 276.818 128.993 276.452C128.749 276.086 128.401 275.801 127.995 275.632C127.588 275.464 127.141 275.42 126.709 275.506C126.278 275.592 125.881 275.804 125.57 276.115C125.259 276.426 125.047 276.822 124.961 277.254C124.875 277.685 124.919 278.133 125.088 278.539C125.256 278.946 125.541 279.293 125.907 279.538C126.273 279.782 126.703 279.913 127.143 279.913C127.733 279.913 128.299 279.678 128.716 279.261C129.134 278.844 129.368 278.278 129.368 277.688Z" fill="white"/>
<path d="M128.437 277.688C128.437 277.435 128.362 277.188 128.222 276.978C128.081 276.768 127.882 276.605 127.648 276.508C127.415 276.411 127.158 276.386 126.91 276.435C126.663 276.485 126.435 276.606 126.257 276.785C126.078 276.963 125.956 277.191 125.907 277.439C125.858 277.687 125.883 277.943 125.98 278.177C126.076 278.41 126.24 278.61 126.45 278.75C126.66 278.89 126.907 278.965 127.16 278.965C127.328 278.966 127.494 278.934 127.65 278.87C127.805 278.806 127.946 278.712 128.065 278.594C128.184 278.475 128.278 278.333 128.342 278.178C128.406 278.023 128.438 277.856 128.437 277.688Z" fill="#A6A6A6"/>
<path d="M155.472 273.494H145.634V281.899H155.472V273.494Z" fill="white"/>
<path d="M45.8309 386.267C148.444 385.764 263.556 385.756 366.169 386.267C263.556 386.777 148.444 386.769 45.8309 386.267Z" fill="#263238"/>
<path d="M328.125 210.334C328.125 210.334 348.676 207.459 343.872 182.648C343.872 182.648 320.907 187.806 328.125 210.334Z" fill="#1C1C1C"/>
<path opacity="0.1" d="M328.125 210.334C328.125 210.334 348.676 207.459 343.872 182.648C343.872 182.648 320.907 187.806 328.125 210.334Z" fill="#1C1C1C"/>
<path d="M329.163 205.176C329.564 203.919 330.032 202.684 330.564 201.476C330.564 201.32 330.564 201.155 330.614 201.007C330.614 200.669 330.671 200.323 330.696 199.985C330.751 199.243 330.8 198.502 330.844 197.76C330.935 196.277 331.034 194.794 331.05 193.31C331.05 193.228 331.174 193.236 331.174 193.31C331.174 194.802 331.174 196.285 331.174 197.768C331.141 198.51 331.1 199.252 331.05 199.993C331.05 200.158 331.05 200.323 331.05 200.479C332.202 198.008 333.581 195.65 335.17 193.434C335.879 192.454 336.62 191.498 337.42 190.591C338.219 189.685 339.068 188.754 339.933 187.831C339.982 187.773 340.073 187.831 340.015 187.922C338.54 189.555 337.214 191.317 336.052 193.187C335.434 194.134 334.841 195.099 334.28 196.087L334.47 196.013C334.717 195.914 334.956 195.807 335.203 195.717L336.851 195.082L340.147 193.854C340.213 193.854 340.254 193.937 340.147 193.97C339.059 194.406 337.98 194.86 336.901 195.329L335.302 196.013L334.478 196.343C334.304 196.428 334.122 196.494 333.934 196.541C333.522 197.282 333.11 198.032 332.731 198.79C331.774 200.712 330.934 202.69 330.218 204.715L330.07 205.135C330.61 204.815 331.175 204.54 331.759 204.311C332.459 203.981 333.176 203.668 333.885 203.339C335.319 202.679 336.752 202.004 338.137 201.221C338.151 201.217 338.167 201.218 338.18 201.225C338.194 201.231 338.205 201.242 338.212 201.255C338.219 201.269 338.221 201.284 338.218 201.299C338.214 201.314 338.206 201.327 338.194 201.336C336.785 202.103 335.401 202.927 333.984 203.693C333.283 204.08 332.566 204.451 331.841 204.805C331.242 205.16 330.591 205.421 329.913 205.58C329.228 207.459 328.776 209.416 328.57 211.406C328.339 214.207 328.364 217.042 328.298 219.852C328.298 219.901 328.224 219.893 328.224 219.852C328.018 217.297 327.903 214.726 327.894 212.164C327.937 209.781 328.366 207.421 329.163 205.176Z" fill="#263238"/>
<path d="M332.327 190.567C332.524 192.016 332.593 193.48 332.533 194.942H332.468C332.385 193.492 332.369 192.041 332.204 190.599C332.196 190.517 332.319 190.484 332.327 190.567Z" fill="#263238"/>
<path d="M338.203 191.811C339.122 191.459 340.008 191.023 340.848 190.509C340.914 190.509 340.971 190.575 340.905 190.624C340.083 191.176 339.183 191.604 338.236 191.893C338.186 191.91 338.153 191.827 338.203 191.811Z" fill="#263238"/>
<path d="M327.466 249.721C327.466 247.455 327.524 245.181 327.557 242.907C327.598 235.367 327.655 227.828 327.795 220.28C327.9 214.298 328.037 208.313 328.207 202.325C328.211 202.309 328.218 202.294 328.228 202.281C328.238 202.268 328.251 202.258 328.265 202.251V197.307C328.265 197.266 328.315 197.249 328.364 197.249C328.413 197.249 328.463 197.249 328.463 197.315V202.259C328.477 202.266 328.489 202.277 328.497 202.29C328.506 202.303 328.511 202.318 328.512 202.333C328.817 212.988 329.089 223.642 329.147 234.304C329.147 236.472 329.147 238.639 329.147 240.806C329.218 247.749 329.243 254.698 329.221 261.653C329.221 262.757 329.221 263.861 329.221 264.949C329.221 271.31 329.155 277.672 329.155 284.025C329.155 284.371 328.776 284.535 328.372 284.552C327.969 284.568 327.416 284.387 327.416 284C327.416 276.988 327.375 269.992 327.375 262.963C327.449 258.563 327.433 254.146 327.466 249.721Z" fill="#263238"/>
<path d="M336.052 242.825C336.052 242.825 345.94 235.499 355.317 240.451C364.694 245.404 366.169 264.504 366.169 264.504C366.169 264.504 352.392 266.473 343.715 258.217C335.368 250.232 336.052 242.825 336.052 242.825Z" fill="#1C1C1C"/>
<path d="M333.357 243.278C335.176 242.56 337.143 242.302 339.084 242.528C339.484 242.456 339.889 242.418 340.296 242.413L341.688 242.305L344.572 242.099C346.517 241.959 348.478 241.836 350.423 241.638C350.488 241.638 350.505 241.753 350.423 241.762C348.503 242.009 346.583 242.289 344.655 242.479C343.666 242.577 342.669 242.685 341.672 242.75L340.955 242.825L341.828 243.039C343.38 243.493 344.882 244.103 346.311 244.86C347.085 245 347.86 245.222 348.626 245.404C349.846 245.692 351.098 246.005 352.285 246.327C354.683 246.953 357.056 247.661 359.437 248.354C359.452 248.354 359.467 248.36 359.478 248.371C359.489 248.381 359.495 248.396 359.495 248.411C359.495 248.427 359.489 248.441 359.478 248.452C359.467 248.463 359.452 248.469 359.437 248.469C357.056 247.884 354.666 247.357 352.277 246.821L348.799 245.997L347.893 245.783C350.551 247.427 352.925 249.492 354.922 251.897C356.852 254.256 358.489 256.841 359.8 259.593C359.841 259.667 359.734 259.733 359.701 259.659C358.074 256.828 356.085 254.221 353.784 251.905C353.834 252.037 353.875 252.169 353.916 252.301C354.098 252.886 354.279 253.462 354.468 254.047C354.831 255.209 355.202 256.371 355.548 257.541C355.548 257.557 355.542 257.571 355.531 257.582C355.52 257.593 355.505 257.599 355.49 257.599C355.475 257.599 355.46 257.593 355.449 257.582C355.439 257.571 355.432 257.557 355.432 257.541C355.012 256.412 354.608 255.275 354.221 254.146L353.628 252.498L353.331 251.633C353.331 251.543 353.274 251.452 353.241 251.361C352.137 250.292 350.964 249.295 349.73 248.378C348.104 247.179 346.346 246.17 344.49 245.371C344.49 245.544 344.547 245.709 344.589 245.873C344.687 246.327 344.786 246.78 344.877 247.225C345.067 248.164 345.256 249.104 345.437 250.043C345.808 251.955 346.039 253.891 346.393 255.811C346.393 255.818 346.392 255.826 346.389 255.833C346.386 255.84 346.382 255.846 346.376 255.852C346.371 255.857 346.365 255.861 346.358 255.864C346.351 255.867 346.343 255.869 346.335 255.869C346.328 255.869 346.32 255.867 346.313 255.864C346.306 255.861 346.3 255.857 346.295 255.852C346.289 255.846 346.285 255.84 346.282 255.833C346.279 255.826 346.278 255.818 346.278 255.811C345.833 253.883 345.264 251.996 344.828 250.043C344.613 249.079 344.399 248.115 344.201 247.151C344.102 246.697 344.02 246.244 343.921 245.799C343.872 245.544 343.814 245.288 343.789 245.041L343.245 244.819C340.658 243.855 337.791 243.171 335.005 243.69C333.698 243.934 332.471 244.497 331.433 245.33C330.395 246.162 329.579 247.237 329.056 248.461C328.966 248.675 328.628 248.543 328.677 248.321C329.196 245.956 331.182 244.192 333.357 243.278Z" fill="#263238"/>
<path d="M348.486 251.419C348.766 252.671 349.046 253.891 349.31 255.176C349.626 256.378 349.857 257.601 350.002 258.835C350.002 258.884 349.936 258.884 349.928 258.835C349.571 257.627 349.296 256.397 349.104 255.152C348.857 253.916 348.618 252.68 348.371 251.444C348.354 251.378 348.47 251.32 348.486 251.419Z" fill="#263238"/>
<path d="M358.053 254.616C359.305 255.251 360.525 255.976 361.843 256.503C361.853 256.504 361.863 256.507 361.872 256.513C361.881 256.519 361.888 256.526 361.894 256.535C361.899 256.544 361.902 256.554 361.903 256.564C361.903 256.575 361.902 256.585 361.898 256.595C361.893 256.604 361.887 256.613 361.879 256.619C361.871 256.626 361.862 256.631 361.852 256.633C361.842 256.635 361.831 256.635 361.821 256.633C361.811 256.63 361.802 256.625 361.794 256.618C360.503 256.032 359.244 255.38 358.02 254.666L358.053 254.616Z" fill="#263238"/>
<path d="M333.827 229.377C333.827 229.377 345.907 230.143 351.527 222.175C357.146 214.207 355.886 202.836 355.886 202.836C355.886 202.836 343.196 204.352 338.153 210.12C333.11 215.888 333.827 229.377 333.827 229.377Z" fill="#1C1C1C"/>
<path d="M328.158 241.292C328.578 239.998 329.097 238.729 329.583 237.452C330.07 236.175 330.556 235.03 331.083 233.835C332.164 231.399 333.375 229.022 334.709 226.715C335.533 225.249 336.472 223.823 337.411 222.422C337.411 222.208 337.477 221.994 337.51 221.78C337.56 221.401 337.617 221.03 337.675 220.651C337.799 219.893 337.931 219.126 338.054 218.36C338.334 216.712 338.68 215.064 338.944 213.367C338.944 213.292 339.084 213.292 339.068 213.367C338.829 215.015 338.664 216.663 338.433 218.311C338.318 219.135 338.211 219.959 338.087 220.783C338.046 221.079 337.997 221.368 337.947 221.664C339.79 218.967 341.788 216.378 343.929 213.91C344.218 213.573 344.514 213.251 344.811 212.922C344.811 212.831 344.885 212.74 344.918 212.641C345.009 212.411 345.099 212.188 345.182 211.949C345.363 211.471 345.536 210.993 345.709 210.516C346.047 209.568 346.352 208.612 346.607 207.64C346.607 207.557 346.747 207.599 346.723 207.64C346.484 208.637 346.228 209.626 345.899 210.606C345.759 211.076 345.61 211.546 345.437 212.007C345.437 212.089 345.38 212.164 345.355 212.238C346.896 210.59 348.511 208.942 350.134 207.335C350.147 207.327 350.162 207.324 350.176 207.326C350.191 207.327 350.205 207.334 350.215 207.345C350.226 207.355 350.232 207.369 350.234 207.383C350.236 207.398 350.232 207.413 350.225 207.426C347.101 210.69 344.239 214.195 341.663 217.907C341.956 217.817 342.253 217.743 342.553 217.684C343.484 217.503 344.424 217.371 345.363 217.248C347.332 217 349.294 216.753 351.255 216.424C351.337 216.424 351.37 216.531 351.255 216.547C349.384 216.918 347.53 217.371 345.668 217.767C344.786 217.964 343.905 218.138 343.023 218.311C342.304 218.467 341.597 218.671 340.905 218.92L340.312 219.744C339.433 221.041 338.576 222.354 337.741 223.683L338.977 223.436C339.908 223.255 340.848 223.09 341.787 222.933C343.624 222.628 345.47 222.307 347.291 221.895C347.374 221.895 347.398 222.002 347.291 222.019C345.445 222.455 343.608 222.958 341.779 223.444C340.897 223.683 339.999 223.897 339.109 224.095L337.766 224.383C337.588 224.432 337.406 224.462 337.222 224.474C335.459 227.342 333.811 230.27 332.278 233.258C331.602 234.576 330.951 235.903 330.325 237.238C329.674 238.606 329.122 240.006 328.529 241.399C328.496 241.712 328.059 241.597 328.158 241.292Z" fill="#263238"/>
<path d="M340.526 213.531C340.757 212.378 340.996 211.224 341.251 210.079C341.251 209.996 341.391 210.079 341.375 210.079C341.144 211.216 340.922 212.345 340.716 213.482C340.55 214.622 340.321 215.753 340.032 216.869C340.115 215.746 340.281 214.63 340.526 213.531Z" fill="#263238"/>
<path d="M347.571 213.194C348.132 212.913 348.725 212.683 349.31 212.46L350.225 212.106L350.686 211.916C350.865 211.864 351.037 211.79 351.197 211.694C351.288 211.62 351.345 211.785 351.255 211.801C351.076 211.847 350.904 211.916 350.744 212.007L350.282 212.213L349.376 212.592C348.799 212.847 348.198 213.103 347.596 213.301C347.586 213.297 347.577 213.291 347.57 213.282C347.563 213.274 347.557 213.264 347.555 213.254C347.553 213.243 347.553 213.232 347.556 213.222C347.559 213.211 347.564 213.201 347.571 213.194Z" fill="#263238"/>
<path d="M321.459 219.876C321.459 219.876 314.15 206.214 303.026 204.097C291.902 201.979 285.104 213.416 285.104 213.416C285.104 213.416 293.212 223.774 303.422 225.587C313.631 227.399 321.459 219.876 321.459 219.876Z" fill="#1C1C1C"/>
<path d="M295.569 210.219C298.467 209.83 301.407 209.866 304.295 210.326L303.801 210.062C302.977 209.642 302.153 209.238 301.329 208.785C299.623 207.903 297.893 206.956 296.104 206.239C296.094 206.238 296.084 206.235 296.075 206.229C296.067 206.223 296.059 206.216 296.054 206.207C296.049 206.198 296.045 206.188 296.045 206.178C296.044 206.167 296.046 206.157 296.05 206.147C296.054 206.138 296.06 206.129 296.068 206.123C296.076 206.116 296.086 206.111 296.096 206.109C296.106 206.107 296.117 206.107 296.127 206.109C296.137 206.112 296.146 206.117 296.154 206.124C297.901 206.948 299.697 207.615 301.444 208.414C302.317 208.818 303.174 209.238 304.031 209.683C304.575 209.98 305.185 210.252 305.679 210.598C308.123 211.09 310.497 211.878 312.749 212.946L311.365 211.43C310.327 210.301 309.305 209.106 308.168 208.076C308.11 208.019 308.168 207.936 308.258 207.986C309.42 209.041 310.648 210.021 311.777 211.125C312.329 211.653 312.848 212.205 313.359 212.773C313.614 213.062 313.87 213.35 314.117 213.655C317.938 215.699 321.257 218.565 323.835 222.048C326.413 225.531 328.185 229.543 329.023 233.794C329.023 233.868 328.933 233.917 328.908 233.794C327.349 228.609 324.559 223.879 320.775 220.008C316.68 215.834 311.528 212.852 305.869 211.381C302.512 210.528 299.041 210.214 295.585 210.45C295.555 210.452 295.525 210.442 295.501 210.422C295.478 210.402 295.464 210.373 295.462 210.342C295.46 210.312 295.47 210.282 295.49 210.259C295.51 210.235 295.538 210.221 295.569 210.219Z" fill="#263238"/>
<path opacity="0.1" d="M285.104 213.416C285.104 213.416 293.22 223.782 303.43 225.586C311.217 226.963 317.627 222.9 320.223 220.906L320.783 219.983C320.783 219.983 315.518 215.542 305.556 212.979C295.594 210.417 285.104 213.416 285.104 213.416Z" fill="#1C1C1C"/>
<path d="M302.029 205.349C302.88 205.856 303.705 206.406 304.501 206.997C305.274 207.583 305.992 208.239 306.643 208.958C306.651 208.971 306.654 208.986 306.653 209C306.651 209.015 306.644 209.029 306.634 209.039C306.623 209.05 306.61 209.056 306.595 209.058C306.58 209.06 306.565 209.057 306.553 209.049C305.811 208.414 305.069 207.772 304.303 207.162C303.557 206.566 302.775 206.016 301.963 205.514C301.897 205.415 301.963 205.308 302.029 205.349Z" fill="#263238"/>
<path d="M295.923 207.648C296.335 207.821 296.747 207.969 297.167 208.142L298.412 208.653C298.494 208.653 298.453 208.835 298.362 208.793L297.126 208.291C296.706 208.126 296.302 207.936 295.89 207.772C295.816 207.755 295.816 207.648 295.923 207.648Z" fill="#263238"/>
<path d="M322.917 237.065C322.917 237.065 320.965 250.611 310.78 255.349C300.595 260.087 288.169 255.349 288.169 255.349C288.169 255.349 293.056 226.04 322.917 237.065Z" fill="#1C1C1C"/>
<path d="M295.19 246.541C296.129 246.434 297.06 246.269 297.991 246.104L299.359 245.84L300.076 245.7C300.348 245.445 300.62 245.181 300.9 244.934C302.832 243.239 304.917 241.727 307.13 240.419C308.338 239.705 309.587 239.064 310.87 238.499H310.648L307.294 238.647C305.061 238.746 302.828 238.795 300.587 238.944C300.513 238.944 300.513 238.82 300.587 238.82C302.828 238.663 305.061 238.416 307.303 238.227L310.557 237.938L312.205 237.79L312.634 237.741C313.211 237.526 313.804 237.32 314.389 237.139C317.168 236.184 320.157 236.018 323.024 236.661C325.587 237.32 328.142 239.001 328.792 241.704C328.792 241.795 328.669 241.861 328.628 241.762C327.672 239.504 325.167 238.367 322.901 237.897C321.379 237.607 319.819 237.577 318.286 237.806C318.185 238.506 318.014 239.193 317.776 239.858C317.495 240.814 317.215 241.77 316.952 242.717C316.375 244.621 315.74 246.508 315.172 248.411C315.172 248.485 315.032 248.411 315.056 248.411C315.526 246.508 315.93 244.588 316.383 242.685L317.075 239.883C317.205 239.23 317.376 238.586 317.586 237.955C316.696 238.113 315.815 238.322 314.949 238.581C313.373 239.043 311.829 239.608 310.327 240.27C310.178 241.234 309.964 242.19 309.742 243.146C309.461 244.341 309.157 245.527 308.778 246.697C308.778 246.772 308.646 246.697 308.662 246.656C308.679 246.615 308.662 246.516 308.662 246.442C308.885 245.338 309.132 244.234 309.363 243.146C309.552 242.256 309.725 241.358 309.923 240.468C308.654 241.037 307.41 241.663 306.207 242.347C306.207 242.627 306.116 242.907 306.075 243.171C306.001 243.632 305.918 244.094 305.836 244.555C305.638 245.601 305.432 246.648 305.185 247.678C304.72 249.676 304.134 251.643 303.43 253.57C303.439 253.581 303.444 253.596 303.444 253.611C303.444 253.626 303.439 253.64 303.43 253.652L303.372 253.718C303.331 253.767 303.257 253.718 303.265 253.652C303.743 251.65 304.278 249.656 304.715 247.637C304.938 246.631 305.16 245.626 305.366 244.621C305.465 244.11 305.556 243.607 305.655 243.105C305.655 242.956 305.696 242.8 305.72 242.652C304.348 243.455 303.025 244.338 301.757 245.297C299.559 246.942 297.525 248.796 295.684 250.834C295.61 250.916 295.462 250.834 295.536 250.719C296.31 249.697 297.085 248.7 297.958 247.752C298.478 247.208 299.005 246.673 299.549 246.154H299.376L297.942 246.368C297.003 246.491 296.055 246.582 295.116 246.689C295.14 246.664 295.107 246.549 295.19 246.541Z" fill="#263238"/>
<path d="M302.35 251.13C302.35 251.015 302.35 250.9 302.408 250.776C302.466 250.653 302.507 250.488 302.532 250.339C302.746 249.433 302.919 248.527 303.084 247.604C303.084 247.546 303.199 247.563 303.191 247.604C303.132 248.82 302.87 250.017 302.416 251.147C302.416 251.147 302.342 251.147 302.35 251.147V251.13Z" fill="#263238"/>
<path d="M310.879 250.916C310.877 250.908 310.878 250.9 310.88 250.893C310.882 250.885 310.887 250.878 310.892 250.872C310.898 250.867 310.905 250.862 310.913 250.86C310.92 250.858 310.928 250.857 310.936 250.859C311.225 249.656 311.497 248.453 311.76 247.25C311.892 246.615 312.024 245.981 312.148 245.346C312.214 245 312.271 244.654 312.337 244.316C312.362 244.013 312.434 243.715 312.551 243.434C312.557 243.424 312.565 243.415 312.576 243.41C312.586 243.404 312.597 243.4 312.609 243.4C312.621 243.4 312.632 243.404 312.643 243.41C312.653 243.415 312.661 243.424 312.667 243.434C312.68 244.048 312.594 244.661 312.411 245.247C312.288 245.915 312.156 246.574 312.016 247.233C311.719 248.568 311.384 249.895 311.011 251.213C311.011 251.287 310.862 251.271 310.87 251.213L310.879 250.916Z" fill="#263238"/>
<path d="M296.121 242.635C297.975 242.38 299.837 242.108 301.699 241.885C301.782 241.885 301.815 241.992 301.699 242.009C299.845 242.281 297.975 242.511 296.113 242.759C296.071 242.767 296.038 242.643 296.121 242.635Z" fill="#263238"/>
<path d="M328.142 205.283C328.142 205.283 334.371 177.935 304.987 166.868C304.987 166.868 296.846 202.869 328.142 205.283Z" fill="#1C1C1C"/>
<path d="M321.797 189.775L321.484 189.586C320.923 189.281 320.371 188.968 319.836 188.655L316.416 186.751C314.175 185.491 311.958 184.189 309.7 182.961C309.634 182.961 309.7 182.813 309.766 182.854C312.032 184.082 314.331 185.235 316.614 186.438L319.976 188.218L321.352 188.943C320.371 187.089 319.325 185.268 318.179 183.513C316.638 181.165 314.958 178.94 313.235 176.756C313.226 176.747 313.219 176.735 313.214 176.723C313.209 176.71 313.207 176.697 313.208 176.683C313.208 176.67 313.211 176.657 313.216 176.645C313.222 176.632 313.23 176.621 313.239 176.612C313.249 176.603 313.261 176.596 313.273 176.591C313.286 176.586 313.299 176.584 313.312 176.584C313.326 176.585 313.339 176.588 313.351 176.593C313.363 176.599 313.374 176.606 313.384 176.616C315.964 179.121 318.245 181.917 320.182 184.947C320.182 184.848 320.182 184.749 320.182 184.658C320.182 183.983 320.132 183.299 320.124 182.615C320.124 181.28 320.165 179.945 320.124 178.61C320.124 178.528 320.239 178.536 320.248 178.61C320.297 179.92 320.462 181.231 320.536 182.541C320.536 183.2 320.602 183.851 320.618 184.51C320.618 184.864 320.618 185.268 320.618 185.655C321.22 186.62 321.805 187.6 322.349 188.589C323.337 190.368 324.215 192.206 324.977 194.093C324.977 193.418 325.052 192.734 325.093 192.05C325.175 190.558 325.365 189.067 325.422 187.567C325.422 187.485 325.554 187.485 325.546 187.567C325.546 189.067 325.587 190.567 325.546 192.066C325.546 192.816 325.505 193.558 325.455 194.307L325.406 195.131C326.342 197.574 327.083 200.087 327.622 202.646C328.127 205.373 328.493 208.123 328.718 210.886C328.398 208.393 327.866 205.931 327.128 203.528C326.765 202.243 326.378 200.96 325.966 199.68C324.738 199.103 323.568 198.386 322.39 197.735C321.212 197.084 319.918 196.384 318.698 195.717C316.226 194.373 313.804 192.997 311.282 191.811C311.208 191.811 311.282 191.671 311.348 191.704C313.911 192.865 316.49 193.97 319.012 195.23C320.264 195.865 321.484 196.532 322.711 197.224C323.733 197.801 324.78 198.37 325.76 199.037C325.472 198.213 325.175 197.34 324.846 196.499C323.944 194.208 322.926 191.964 321.797 189.775Z" fill="#263238"/>
<path d="M324.269 183.521C324.269 183.504 324.276 183.487 324.288 183.475C324.3 183.462 324.317 183.455 324.335 183.455C324.352 183.455 324.369 183.462 324.381 183.475C324.394 183.487 324.401 183.504 324.401 183.521C324.293 185.087 324.236 186.644 324.071 188.202C324.071 188.292 323.931 188.284 323.939 188.202C323.989 186.636 324.162 185.079 324.269 183.521Z" fill="#263238"/>
<path d="M310.187 188.745C312.024 189.487 313.878 190.187 315.707 190.954C315.757 190.954 315.707 191.061 315.707 191.036C313.853 190.344 312.016 189.586 310.17 188.869C310.071 188.836 310.112 188.696 310.187 188.745Z" fill="#263238"/>
<path d="M307.393 176.13C309.19 176.956 310.935 177.891 312.617 178.932C312.7 178.989 312.617 179.121 312.535 179.072C310.829 178.075 309.091 177.119 307.327 176.237C307.253 176.204 307.352 176.097 307.393 176.13Z" fill="#263238"/>
<path d="M307.838 309.099H350.217V264.43H307.838V309.099Z" fill="#455A64"/>
<path d="M353.125 280.234H350.958V386.258H353.125V280.234Z" fill="#263238"/>
<path d="M307.311 280.234H305.144V386.258H307.311V280.234Z" fill="#263238"/>
<path d="M329.064 280.234H326.897V386.258H329.064V280.234Z" fill="#263238"/>
<path d="M306.231 312.42H352.046V306.231H306.231V312.42Z" fill="#263238"/>
<path d="M228.718 281.24L197.645 306.347C191.687 311.118 186.545 315.411 184.09 317.883C184.087 317.896 184.087 317.91 184.09 317.924C183.167 318.855 182.631 319.514 182.598 319.836C182.598 319.836 182.598 319.885 182.598 319.902C182.821 322.637 219.522 371.402 221.376 372.638C223.23 373.874 226.995 368.724 227.078 365.699C227.16 362.675 221.458 337.683 221.458 337.683L252.251 312.304L228.718 281.24Z" fill="#AD6359"/>
<path d="M204.022 301.197L197.645 306.347C191.687 311.118 186.545 315.411 184.09 317.883C184.087 317.896 184.087 317.91 184.09 317.924C183.521 318.502 183.021 319.143 182.598 319.836C182.598 319.836 182.598 319.885 182.598 319.902C182.821 322.637 219.522 371.402 221.376 372.638C223.23 373.874 226.995 368.724 227.078 365.699C227.16 362.675 221.458 337.683 221.458 337.683L227.993 332.542L204.022 301.197Z" fill="#EBEBEB"/>
<path d="M221.326 372.654C219.472 371.385 182.763 322.629 182.549 319.918C182.45 318.872 189.24 313.112 197.653 306.388L197.917 306.174L221.944 337.37L221.409 337.758C221.409 337.758 227.111 362.708 227.028 365.774C226.946 368.839 223.18 373.931 221.326 372.654Z" fill="#455A64"/>
<path d="M222.801 370.676C216.819 362.305 191.885 329.114 185.334 321.286C185.276 321.228 185.235 321.286 185.285 321.286C191.053 329.715 216.234 362.708 222.67 370.726C222.801 370.948 222.933 370.858 222.801 370.676Z" fill="#263238"/>
<path d="M223.304 340.436C221.466 336.752 217.997 333.168 213.828 332.435C213.671 332.435 213.63 332.632 213.746 332.715C217.068 335.055 220.132 337.742 222.884 340.732C222.928 340.772 222.985 340.796 223.045 340.8C223.104 340.803 223.163 340.786 223.212 340.752C223.261 340.717 223.297 340.667 223.314 340.61C223.33 340.552 223.327 340.491 223.304 340.436Z" fill="#263238"/>
<path d="M223.65 343.83C221.821 340.147 218.344 336.563 214.182 335.829C214.018 335.829 213.985 336.027 214.092 336.109C217.416 338.447 220.48 341.135 223.23 344.127C223.274 344.167 223.331 344.191 223.391 344.194C223.45 344.198 223.51 344.181 223.559 344.147C223.607 344.112 223.643 344.062 223.66 344.004C223.676 343.947 223.673 343.886 223.65 343.83Z" fill="#263238"/>
<path d="M224.004 347.225C222.167 343.542 218.698 339.958 214.528 339.216C214.372 339.216 214.331 339.422 214.446 339.504C217.769 341.844 220.832 344.532 223.584 347.522C223.629 347.562 223.685 347.586 223.745 347.589C223.805 347.593 223.864 347.576 223.913 347.542C223.962 347.507 223.997 347.457 224.014 347.4C224.031 347.342 224.027 347.281 224.004 347.225Z" fill="#263238"/>
<path d="M245.552 251.32C243.352 262.189 198.279 305.531 198.279 305.531L229.706 341.787C229.706 341.787 293.698 277.911 290.353 253.907C287.411 233.06 256.149 149.144 256.149 149.144H220.09C220.09 149.144 247.67 240.657 245.552 251.32Z" fill="#37474F"/>
<path d="M233.241 333.193C229.064 328.001 230.333 329.427 226.097 324.277C224.029 321.764 210.441 305.21 208.06 303.199C208.047 303.191 208.031 303.188 208.016 303.189C208 303.19 207.986 303.196 207.974 303.206C207.962 303.216 207.954 303.23 207.95 303.245C207.946 303.26 207.947 303.275 207.953 303.29C209.527 305.943 223.436 322.242 225.562 324.714C229.888 329.781 228.701 328.273 233.085 333.292C233.101 333.304 233.12 333.311 233.14 333.312C233.16 333.312 233.18 333.307 233.197 333.296C233.214 333.286 233.228 333.27 233.236 333.251C233.243 333.233 233.245 333.212 233.241 333.193Z" fill="#263238"/>
<path d="M249.985 246.046C249.474 243.327 248.889 240.633 248.337 237.93C247.167 232.437 245.926 226.943 244.613 221.45C242.02 210.568 239.196 199.749 236.142 188.993C233.068 178.207 229.822 167.429 226.081 156.857C225.619 155.555 225.142 154.245 224.664 152.943C224.656 152.924 224.641 152.908 224.622 152.9C224.604 152.891 224.582 152.889 224.563 152.896C224.543 152.902 224.526 152.915 224.516 152.933C224.506 152.951 224.503 152.972 224.507 152.992C227.745 163.597 231.099 174.161 234.123 184.823C237.147 195.486 239.949 206.115 242.594 216.836C243.92 222.216 245.148 227.622 246.36 233.027C246.953 235.692 247.53 238.353 248.09 241.012C248.796 243.718 249.303 246.472 249.606 249.252C249.696 251.886 248.952 254.481 247.48 256.668C246.129 258.876 244.538 260.961 243.006 263.046C239.924 267.223 210.573 299.928 209.626 300.818C209.551 300.892 209.626 300.991 209.741 300.925C213.68 297.39 238.581 270.437 241.745 266.267C243.311 264.202 244.841 262.112 246.335 259.997C247.831 258.078 249.037 255.948 249.911 253.677C250.718 251.147 250.496 248.576 249.985 246.046Z" fill="#263238"/>
<path d="M234.453 326.007C234.453 326.007 242.239 363.911 242.231 363.911C242.338 371.55 242.569 378.241 243.006 381.685C243.002 381.704 243.002 381.724 243.006 381.743C243.022 382.561 243.225 383.364 243.599 384.091L243.648 384.141C245.939 385.649 306.965 386.613 309.107 385.912C311.249 385.212 309.47 379.081 307.129 377.153C304.789 375.225 281.585 364.414 281.585 364.414L273.42 326.51L234.453 326.007Z" fill="#AD6359"/>
<path d="M309.124 385.937C306.981 386.621 245.947 385.673 243.657 384.165L243.607 384.116C243.235 383.388 243.032 382.585 243.014 381.767C243.01 381.748 243.01 381.729 243.014 381.71C242.569 378.265 242.347 371.575 242.239 363.944L240.896 357.352H280.061L281.585 364.439C281.585 364.439 304.789 375.258 307.129 377.186C309.47 379.114 311.266 385.261 309.124 385.937Z" fill="#EBEBEB"/>
<path d="M309.115 385.937C306.973 386.621 245.948 385.673 243.657 384.165C242.767 383.605 242.388 374.706 242.24 363.936V363.598L281.61 363.771V364.439C281.61 364.439 304.806 375.25 307.154 377.178C309.503 379.106 311.258 385.261 309.115 385.937Z" fill="#455A64"/>
<path d="M308.464 383.564C298.181 383.152 256.668 382.46 246.475 382.831C246.392 382.831 246.384 382.888 246.475 382.896C256.651 383.531 298.173 383.885 308.464 383.72C308.679 383.729 308.679 383.572 308.464 383.564Z" fill="#263238"/>
<path d="M284.89 364.612C280.86 363.788 275.9 364.34 272.76 367.174C272.637 367.282 272.76 367.455 272.925 367.413C276.812 366.227 280.815 365.459 284.865 365.123C284.933 365.126 284.999 365.102 285.049 365.057C285.099 365.011 285.13 364.947 285.133 364.88C285.136 364.812 285.112 364.746 285.067 364.695C285.021 364.645 284.957 364.615 284.89 364.612Z" fill="#263238"/>
<path d="M287.79 366.416C283.753 365.592 278.792 366.144 275.653 368.979C275.529 369.086 275.653 369.259 275.817 369.218C279.707 368.032 283.713 367.264 287.765 366.927C287.833 366.931 287.899 366.907 287.95 366.861C288 366.816 288.03 366.752 288.033 366.684C288.036 366.616 288.013 366.55 287.967 366.5C287.922 366.45 287.858 366.42 287.79 366.416Z" fill="#263238"/>
<path d="M290.682 368.221C286.645 367.397 281.684 367.949 278.545 370.784C278.43 370.891 278.545 371.064 278.718 371.023C282.605 369.836 286.608 369.068 290.658 368.732C290.726 368.735 290.792 368.711 290.842 368.666C290.892 368.62 290.922 368.556 290.926 368.489C290.929 368.421 290.905 368.355 290.859 368.305C290.814 368.254 290.75 368.224 290.682 368.221Z" fill="#263238"/>
<path d="M252.671 149.144C251.27 155.073 250.238 161.083 249.581 167.14C248.823 174.688 247.884 181.362 246.879 182.195C245.733 183.134 240.039 186.793 238.119 187.963C238.119 187.963 255.893 241.828 260.475 259.783C267.116 285.813 283.044 363.895 283.044 363.895H240.608C240.608 363.895 227.704 289.554 222.068 264.768C217.231 243.525 198.716 179.797 198.716 179.797C196.761 174.876 195.885 169.594 196.146 164.306C196.408 159.018 197.801 153.848 200.232 149.144C200.232 149.144 252.68 149.078 252.671 149.144Z" fill="#37474F"/>
<path d="M281.511 355.605C274.845 355.564 276.757 355.482 270.091 355.523C266.795 355.523 245.371 355.688 242.347 356.24C242.329 356.24 242.312 356.247 242.3 356.259C242.288 356.272 242.281 356.288 242.281 356.306C242.281 356.323 242.288 356.34 242.3 356.353C242.312 356.365 242.329 356.372 242.347 356.372C245.404 356.833 266.836 356.314 270.099 356.232C276.765 356.067 274.845 356.042 281.511 355.795C281.532 355.789 281.55 355.776 281.562 355.759C281.575 355.742 281.582 355.722 281.582 355.7C281.582 355.679 281.575 355.658 281.562 355.641C281.55 355.624 281.532 355.612 281.511 355.605Z" fill="#263238"/>
<path d="M249.878 180.028C245.76 182.296 241.845 184.915 238.177 187.856C238.037 187.971 238.177 188.202 238.334 188.103C242.305 185.631 246.368 183.2 250.191 180.497C250.222 180.477 250.248 180.45 250.269 180.419C250.29 180.389 250.304 180.354 250.311 180.318C250.319 180.281 250.319 180.244 250.311 180.208C250.304 180.171 250.29 180.137 250.269 180.106C250.249 180.075 250.222 180.048 250.192 180.028C250.161 180.007 250.126 179.993 250.09 179.986C250.053 179.978 250.016 179.978 249.98 179.985C249.943 179.993 249.909 180.007 249.878 180.028Z" fill="#263238"/>
<path d="M246.64 150.726C246.64 150.578 246.343 150.586 246.368 150.726C247.108 155.469 247.606 160.246 247.859 165.039C248.007 167.256 248.123 179.624 244.192 179.335C243.533 179.286 243.113 178.709 242.857 177.762C242.679 176.508 242.657 175.238 242.792 173.979C242.792 171.376 242.792 168.788 242.586 166.193C242.285 161.363 241.487 156.578 240.204 151.913C240.194 151.885 240.174 151.862 240.148 151.848C240.122 151.834 240.092 151.83 240.064 151.836C240.035 151.842 240.009 151.858 239.991 151.881C239.973 151.904 239.964 151.933 239.965 151.962C241.1 158.549 241.739 165.212 241.877 171.895C241.877 175.116 241.053 180.135 244.407 180.069C247.76 180.003 248.766 171.771 248.84 169.538C248.927 163.198 248.188 156.874 246.64 150.726Z" fill="#263238"/>
<path d="M244.341 179.632C244.129 180.503 243.975 181.386 243.879 182.277C243.734 182.971 243.72 183.687 243.838 184.386C243.85 184.413 243.869 184.435 243.893 184.451C243.917 184.467 243.945 184.476 243.974 184.476C244.003 184.476 244.031 184.467 244.055 184.451C244.079 184.435 244.098 184.413 244.11 184.386C244.41 183.706 244.605 182.983 244.687 182.244C244.852 181.42 245.041 180.596 245.181 179.772C245.187 179.667 245.154 179.562 245.088 179.48C245.022 179.397 244.928 179.342 244.824 179.324C244.72 179.307 244.612 179.329 244.523 179.386C244.434 179.442 244.369 179.53 244.341 179.632Z" fill="#263238"/>
<path d="M235.664 332.229C235.549 331.248 235.417 330.267 235.285 329.295C235.013 327.408 234.7 325.538 234.411 323.659C233.826 319.893 233.184 316.136 232.516 312.378C231.181 304.888 229.649 297.423 228.025 289.99C227.111 285.788 226.048 281.635 224.919 277.482C224.845 277.194 224.433 277.334 224.491 277.614C225.166 281.413 225.825 285.211 226.608 288.993C227.391 292.775 228.149 296.533 228.899 300.315C230.382 307.772 231.766 315.254 233.241 322.72C233.653 324.829 234.065 326.938 234.444 329.048C234.65 330.103 234.865 331.149 235.087 332.196C235.31 333.242 235.639 334.272 235.812 335.327C235.812 335.426 235.977 335.376 235.961 335.277C235.82 334.272 235.804 333.242 235.664 332.229Z" fill="#263238"/>
<path d="M264.941 275.867C263.523 268.83 261.645 261.859 259.708 254.97C255.852 241.053 251.312 227.333 246.788 213.622C245.481 209.667 244.176 205.714 242.874 201.765C242.223 199.795 239.018 189.141 238.622 188.127C238.619 188.117 238.614 188.107 238.606 188.098C238.599 188.089 238.59 188.082 238.581 188.076C238.571 188.071 238.56 188.068 238.548 188.067C238.537 188.065 238.526 188.067 238.515 188.07C238.504 188.073 238.494 188.078 238.485 188.086C238.477 188.093 238.469 188.101 238.464 188.111C238.459 188.121 238.455 188.132 238.454 188.143C238.453 188.155 238.454 188.166 238.457 188.177C239.372 191.811 240.633 197.101 241.696 200.693C242.759 204.286 243.879 207.763 244.992 211.298C247.159 218.245 249.359 225.175 251.468 232.137C255.588 245.906 259.758 259.659 263.128 273.642C264.076 277.564 265.015 281.47 265.88 285.409C266.745 289.348 267.479 293.286 268.303 297.225C268.303 297.332 268.509 297.307 268.492 297.225C267.8 290.048 266.358 282.929 264.941 275.867Z" fill="#263238"/>
<path d="M238.564 312.692C236.233 299.26 233.439 285.903 230.324 272.637C227.21 259.371 223.732 246.046 219.917 232.895C216.102 219.744 211.867 206.709 207.318 193.797C205.031 187.714 203.105 181.501 201.55 175.191C200.15 168.92 199.441 162.139 200.899 155.81C201.263 154.205 201.747 152.629 202.35 151.097C202.391 150.99 202.243 150.899 202.193 151.006C197.093 162.897 200.405 175.899 204.286 187.617C206.412 194.036 208.686 200.413 210.787 206.841C212.935 213.433 214.998 220.063 216.976 226.732C220.89 239.916 224.523 253.191 227.787 266.564C231.05 279.938 233.942 293.385 236.488 306.899C239.034 320.412 241.201 334.091 243.385 347.728C243.673 349.5 243.896 351.279 244.126 353.059C244.126 353.158 244.299 353.158 244.283 353.059C242.676 339.554 240.896 326.098 238.564 312.692Z" fill="#263238"/>
<path d="M196.31 165.393C196.483 165.542 260.005 156.717 260.491 155.983C261.167 154.945 234.898 91.2333 227.177 83.6608C225.529 82.0128 220.848 82.1858 217.009 83.2323C216.006 83.4953 215.027 83.8426 214.083 84.2705L213.993 84.32C213.23 84.6606 212.533 85.1319 211.933 85.7125C202.292 95.9384 199.614 124.556 198.749 133.966C197.356 149.49 195.708 164.874 196.31 165.393Z" fill="#EBEBEB"/>
<path d="M217.009 83.224C217.009 83.224 236.842 103.255 238.787 110.416C240.732 117.577 241.053 164.149 241.053 164.149L191.992 171.128C191.992 171.128 196.936 144.299 196.837 142.651C196.837 142.651 199.63 111.982 204.772 98.3115C210.59 82.7708 217.009 83.224 217.009 83.224Z" fill="#263238"/>
<path d="M227.539 83.2734C227.539 83.2734 239.331 107.087 240.122 109.386C240.913 111.685 257.212 161.504 257.212 161.504L262.609 157.269L254.369 136.735C254.369 136.735 233.192 88.6706 227.539 83.2734Z" fill="#263238"/>
<path d="M218.187 90.9037C233.621 99.2014 259.222 120.502 260.211 126.624C260.911 131.057 261.117 135.441 259.461 137.822C256.099 142.667 248.461 142.536 245.692 141.003C233.588 134.304 220.074 118.854 211.01 102.481C203.042 88.1186 213.152 88.168 218.187 90.9037Z" fill="#263238"/>
<path d="M252.91 117.14C246.318 111.372 238.383 105.085 231.486 99.6381L228.363 97.1661C237.393 102.69 245.645 109.393 252.902 117.099L252.91 117.14Z" fill="#37474F"/>
<path d="M213.638 107.029C218.899 115.482 225.209 123.234 232.417 130.101C234.208 131.832 236.048 133.499 237.938 135.103C241.63 138.193 245.75 141.53 250.817 141.324C253.283 141.243 255.696 140.594 257.871 139.429C255.827 140.949 253.391 141.852 250.85 142.033C245.568 142.453 241.259 138.828 237.477 135.647C235.573 133.999 233.728 132.351 231.972 130.563C224.814 123.588 218.645 115.664 213.638 107.013V107.029Z" fill="#37474F"/>
<path d="M216.663 111.891C215.284 111.161 214.141 110.056 213.367 108.702C214.555 109.668 215.658 110.735 216.663 111.891Z" fill="#37474F"/>
<path d="M224.301 94.5376C220.923 92.6094 213.457 87.8632 209.873 90.6895C206.758 93.9855 210.96 101.855 212.617 105.332C211.075 103.101 209.82 100.684 208.884 98.1384C208.217 96.2103 207.656 94.0184 208.184 91.9832C210.656 85.1604 220.791 91.7277 224.301 94.5376Z" fill="#37474F"/>
<path d="M248.922 108.768C240.682 105.554 237.938 106.461 235.639 107.507C230.835 109.674 223.757 115.212 225.71 118.557C227.49 121.581 237.386 112.295 237.386 112.295C237.386 112.295 225.735 120.098 228.536 123.353C231.338 126.608 242.215 115.171 242.215 115.171C242.215 115.171 230.432 123.452 233.851 126.344C236.438 128.536 246.87 118.738 246.87 118.738C246.87 118.738 236.785 125.924 239.355 128.289C242.19 130.901 252.383 122.463 252.383 122.463C254.311 122.858 256.684 123.04 257.277 122.793C258.184 122.381 254.468 110.894 248.922 108.768Z" fill="#AD6359"/>
<path d="M241.234 109.312C239.833 110.177 238.416 111.042 237.114 112.031C235.812 113.02 234.51 114.058 233.291 115.162C231.662 116.574 230.204 118.173 228.948 119.925C231.42 116.983 236.084 113.374 237.403 112.385C238.721 111.397 239.982 110.342 241.3 109.361C241.308 109.337 241.275 109.287 241.234 109.312Z" fill="#263238"/>
<path d="M244.893 114.009C243.154 115.195 241.383 116.308 239.693 117.568C238.004 118.829 236.521 120.164 234.931 121.532C234.807 121.631 234.931 121.664 235.03 121.532C236.678 120.23 238.326 119.15 239.974 117.865C241.622 116.579 243.27 115.236 244.918 114.017C244.95 114.033 244.918 113.992 244.893 114.009Z" fill="#263238"/>
<path d="M248.757 117.478C246.043 119.23 243.517 121.257 241.218 123.526C241.094 123.641 241.218 123.666 241.35 123.526C243.822 121.466 245.742 119.834 248.815 117.544C248.848 117.535 248.848 117.445 248.757 117.478Z" fill="#263238"/>
<path d="M228.248 91.53C225.331 92.5188 217.668 88.8685 215.13 84.8061C214.957 84.526 215.064 74.5885 214.932 72.2813C214.932 71.8034 229.583 74.9676 229.583 74.9676C228.922 77.8974 228.623 80.8972 228.693 83.8997C228.715 84.2166 228.765 84.5309 228.841 84.8391C228.841 84.8803 228.841 84.9297 228.841 84.9957C229.303 86.7755 231.404 90.467 228.248 91.53Z" fill="#AD6359"/>
<path d="M228.882 84.872C228.88 84.9242 228.88 84.9764 228.882 85.0286C228.395 85.1176 227.902 85.17 227.408 85.1851C218.887 85.4818 216.036 74.9593 215.451 72.2896C218.063 72.512 229.616 74.984 229.616 74.984C228.956 77.9141 228.654 80.9134 228.718 83.9162C228.743 84.2392 228.798 84.5591 228.882 84.872Z" fill="#263238"/>
<path d="M208.34 56.3452C207.912 61.6929 213.762 75.5856 218.039 78.0246C224.243 81.5678 232.805 80.1423 235.409 73.0806C237.93 66.2085 229.987 48.2288 225.364 46.177C218.541 43.1282 208.958 48.4348 208.34 56.3452Z" fill="#AD6359"/>
<path d="M222.818 62.2285C222.818 62.2285 222.76 62.3027 222.777 62.3439C223.197 63.2668 223.518 64.3956 222.777 65.0631C222.777 65.0631 222.777 65.129 222.777 65.1125C223.807 64.5357 223.362 63.036 222.818 62.2285Z" fill="#263238"/>
<path d="M221.574 61.5941C220.016 62.1049 221.153 65.1785 222.595 64.7088C224.037 64.2391 222.875 61.1656 221.574 61.5941Z" fill="#263238"/>
<path d="M228.388 60.3416C228.388 60.3416 228.479 60.3416 228.487 60.3992C228.808 61.3633 229.311 62.4098 230.324 62.4098C230.324 62.4098 230.366 62.4592 230.324 62.4675C229.229 62.7064 228.536 61.3056 228.388 60.3416Z" fill="#263238"/>
<path d="M228.866 59.0314C230.357 58.3557 231.61 61.3798 230.234 62.0143C228.858 62.6488 227.622 59.6082 228.866 59.0314Z" fill="#263238"/>
<path d="M219.835 60.6382C220.197 60.3838 220.543 60.1086 220.873 59.8142C221.28 59.5612 221.592 59.1821 221.763 58.7347C221.788 58.5837 221.763 58.4286 221.692 58.2932C221.62 58.1578 221.506 58.0495 221.368 57.9849C221.079 57.9076 220.774 57.9072 220.485 57.9838C220.196 58.0604 219.932 58.2114 219.72 58.4216C219.216 58.7912 218.866 59.3342 218.739 59.946C218.729 60.0789 218.755 60.2121 218.815 60.3312C218.875 60.4503 218.966 60.5508 219.079 60.622C219.191 60.6932 219.321 60.7323 219.454 60.7351C219.588 60.738 219.719 60.7045 219.835 60.6382Z" fill="#263238"/>
<path d="M229.484 57.0455C229.039 57.1171 228.591 57.1638 228.141 57.1856C227.678 57.2945 227.193 57.2511 226.757 57.062C226.627 56.974 226.53 56.845 226.482 56.6956C226.434 56.5462 226.438 56.385 226.493 56.238C226.641 55.9692 226.858 55.7445 227.122 55.5867C227.385 55.429 227.686 55.3438 227.993 55.3398C228.611 55.2329 229.248 55.3654 229.772 55.7106C229.892 55.7945 229.983 55.9116 230.036 56.0473C230.089 56.1829 230.101 56.3312 230.07 56.4736C230.04 56.616 229.968 56.7461 229.863 56.8478C229.759 56.9495 229.627 57.0183 229.484 57.0455Z" fill="#263238"/>
<path d="M225.207 71.3914C225.501 71.5944 225.857 71.6877 226.213 71.6551C226.564 71.5192 226.882 71.3083 227.144 71.0371C227.144 71.0371 227.218 71.0371 227.21 71.0371C227.142 71.2752 227.012 71.4906 226.832 71.6603C226.652 71.8301 226.429 71.9479 226.188 72.0012C225.974 72.0229 225.759 71.9804 225.57 71.8791C225.38 71.7778 225.225 71.6224 225.125 71.4326C225.092 71.4162 225.158 71.3749 225.207 71.3914Z" fill="#263238"/>
<path d="M225.15 68.1695C225.53 68.4578 225.965 68.6638 226.429 68.7744C226.893 68.8851 227.375 68.898 227.844 68.8122C228.256 68.745 228.656 68.6172 229.031 68.4332C229.108 68.4093 229.18 68.3732 229.245 68.3261L229.443 68.219C229.49 68.1893 229.527 68.1454 229.547 68.0936C229.568 68.0417 229.572 67.9847 229.558 67.9306C229.55 67.8957 229.536 67.8624 229.517 67.8317V67.7493C229.262 67.0077 228.784 65.92 228.784 65.92C229.097 65.92 230.687 66.0683 230.53 65.6893C229.218 62.4176 227.578 59.287 225.636 56.3451C225.578 56.2462 225.43 56.3451 225.471 56.4358C226.666 59.4681 228.38 62.2697 229.591 65.2938C229.023 65.2451 228.452 65.2784 227.894 65.3926C227.803 65.4668 228.866 67.4856 228.948 67.8646C228.37 68.1469 227.741 68.3099 227.098 68.3439C226.455 68.3779 225.812 68.2822 225.207 68.0624C225.117 68.0212 225.067 68.1201 225.15 68.1695Z" fill="#263238"/>
<path opacity="0.3" d="M235.409 73.0558C232.805 80.1422 224.243 81.5678 218.039 77.9998C216.308 77.011 214.314 74.1353 212.584 70.7157L214.413 64.272C214.413 64.272 217.05 68.2684 219.283 68.9358C222.348 69.8587 227.523 68.9358 228.413 65.6398L230.061 65.0713C230.061 65.0713 234.181 66.2661 234.865 63.1349C235.911 67.0654 236.274 70.7074 235.409 73.0558Z" fill="#263238"/>
<path d="M211.941 68.6722C214.182 68.5651 214.751 66.4227 214.85 64.9642C214.949 63.5057 211.883 55.826 212.246 53.5683C212.608 51.3105 214.388 49.5307 216.251 49.4483C218.113 49.3659 221.038 50.882 222.249 50.3464C223.461 49.8108 222.859 47.0504 223.732 46.7208C225.644 46.0781 229.245 50.1322 230.324 52.1098C230.324 52.1098 227.375 43.1035 217.964 45.3448C208.752 47.5284 207.92 54.6395 208.035 57.5894C208.2 63.275 211.941 68.6722 211.941 68.6722Z" fill="#263238"/>
<path d="M214.792 66.9583C214.792 66.9583 210.408 63.0855 208.571 64.7582C206.733 66.4309 210.829 72.5945 213.515 72.9158C213.859 72.9806 214.213 72.9753 214.555 72.9001C214.897 72.825 215.221 72.6816 215.506 72.4784C215.792 72.2753 216.033 72.0167 216.216 71.7181C216.399 71.4195 216.52 71.087 216.572 70.7405L214.792 66.9583Z" fill="#AD6359"/>
<path d="M209.79 66.4968C209.79 66.4968 209.79 66.5545 209.79 66.5627C211.702 66.8511 213.012 68.2107 214.059 69.7598C213.915 69.6102 213.74 69.4935 213.547 69.4177C213.353 69.3418 213.146 69.3086 212.939 69.3204C212.731 69.3321 212.529 69.3885 212.345 69.4857C212.162 69.5829 212.001 69.7185 211.875 69.8834C211.875 69.8834 211.875 69.9823 211.949 69.9658C212.231 69.7932 212.559 69.7124 212.888 69.7346C213.217 69.7567 213.531 69.8807 213.787 70.0894C214.212 70.4432 214.599 70.8409 214.94 71.276C215.064 71.4161 215.319 71.276 215.221 71.0947C214.701 68.8287 212.221 66.1425 209.79 66.4968Z" fill="#263238"/>
<path d="M228.882 84.2705L228.594 90.5576L214.965 80.9086L214.594 84.4847L228.347 95.9713L228.915 91.2333L232.244 93.5075L230.753 86.726L228.882 84.2705Z" fill="#EBEBEB"/>
<path d="M214.594 84.4847C219.283 88.1845 223.889 91.9831 228.47 95.8147L228.141 95.9466L228.742 91.2168V90.9202L228.981 91.085L232.277 93.3922L232.063 93.5323C231.585 91.2663 231.148 88.992 230.703 86.726C231.28 89.0827 231.865 91.4393 232.409 93.8042C232.459 93.8042 228.849 91.4475 228.767 91.3816L229.047 91.258L228.495 95.996L228.454 96.3586C223.765 92.4611 219.11 88.5223 214.545 84.4847H214.594Z" fill="#263238"/>
<path d="M214.701 84.8721L214.092 80.9993C214.092 80.9993 221.153 85.6878 221.821 86.6025L229.616 97.2321C229.616 97.2321 216.663 89.1074 214.701 84.8721Z" fill="#263238"/>
<path d="M103.379 387.165C105.497 387.824 167.379 386.489 169.637 384.981C170.51 384.421 165.204 325.801 165.204 325.801L125.957 326.559L130.423 365.765C130.423 365.765 107.59 376.568 105.274 378.504C102.959 380.441 101.253 386.505 103.379 387.165Z" fill="#EB9481"/>
<path d="M103.371 387.165C105.488 387.824 167.379 386.489 169.637 384.981C169.909 384.808 169.991 378.859 169.011 371.105C157.788 372.984 117.733 379.139 114.627 377.301C112.451 376.024 114.379 374.005 116.159 372.679C111.05 375.225 106.271 377.681 105.291 378.505C103 380.416 101.261 386.514 103.371 387.165Z" fill="#263238"/>
<path d="M129.319 356.364L167.849 355.82C167.849 355.82 160.21 263.532 160.532 261.768C160.935 259.494 188.276 152.308 188.276 152.308H151.501C151.501 152.308 122.504 252.21 121.458 261.834C119.777 277.375 129.319 356.364 129.319 356.364Z" fill="#1C1C1C"/>
<path opacity="0.5" d="M129.319 356.364L167.849 355.82C167.849 355.82 160.21 263.532 160.532 261.768C160.935 259.494 188.276 152.308 188.276 152.308H151.501C151.501 152.308 122.504 252.21 121.458 261.834C119.777 277.375 129.319 356.364 129.319 356.364Z" fill="#1C1C1C"/>
<path d="M164.38 347.126C162.106 346.962 159.807 346.986 157.524 346.953C155.242 346.92 152.951 346.953 150.668 346.953C146.098 346.992 141.527 347.071 136.957 347.192C135.713 347.234 134.485 347.266 133.216 347.324C131.947 347.382 130.546 347.613 129.211 347.662C129.19 347.662 129.169 347.671 129.153 347.686C129.138 347.702 129.129 347.723 129.129 347.744C129.129 347.766 129.138 347.787 129.153 347.803C129.169 347.818 129.19 347.827 129.211 347.827C130.332 347.827 131.453 348.008 132.573 348.033C133.694 348.058 134.905 348.074 136.067 348.074C138.358 348.074 140.643 348.074 142.923 348.074C147.488 348.074 152.061 347.975 156.626 347.786C159.205 347.678 161.809 347.646 164.38 347.39C164.397 347.39 164.414 347.387 164.43 347.38C164.446 347.373 164.461 347.364 164.473 347.351C164.485 347.339 164.495 347.325 164.502 347.309C164.508 347.293 164.512 347.276 164.512 347.258C164.512 347.241 164.508 347.224 164.502 347.208C164.495 347.192 164.485 347.177 164.473 347.165C164.461 347.153 164.446 347.143 164.43 347.136C164.414 347.13 164.397 347.126 164.38 347.126Z" fill="#263238"/>
<path d="M180.184 160.96C176.888 172.612 173.889 184.37 170.939 196.112C167.989 207.854 165.055 219.613 162.13 231.371C160.664 237.243 159.2 243.121 157.738 249.005C156.321 254.723 154.665 260.475 154.311 266.391C153.956 272.307 154.714 278.463 155.225 284.445C155.736 290.427 156.239 296.484 156.766 302.499C157.821 314.529 158.826 326.576 160.136 338.582C160.301 340.09 160.466 341.589 160.614 343.097C160.614 343.221 160.828 343.221 160.82 343.097C159.996 331.059 159.172 319.02 158.233 306.99C157.744 300.974 157.252 294.956 156.758 288.936C156.263 282.937 155.563 276.914 155.373 270.89C155.184 264.867 156.296 258.983 157.763 253.116C159.23 247.25 160.647 241.58 162.081 235.862C165.025 224.112 167.961 212.359 170.889 200.603C174.185 187.419 177.415 174.235 180.291 160.993C180.308 160.919 180.201 160.894 180.184 160.96Z" fill="#263238"/>
<path d="M188.276 152.308C188.276 152.308 176.542 198.287 168.335 230.662L152.679 152.308H188.276Z" fill="#263238"/>
<path d="M149.589 387.28C151.707 387.948 213.589 386.604 215.855 385.096C216.72 384.544 213.49 325.892 213.49 325.892L174.762 326.642L176.633 365.881C176.633 365.881 153.8 376.7 151.492 378.62C149.185 380.54 147.496 386.654 149.589 387.28Z" fill="#EB9481"/>
<path d="M149.589 387.28C151.707 387.939 213.597 386.604 215.847 385.096C216.127 384.923 216.061 379.13 215.847 371.212C204.624 373.099 163.935 379.254 160.828 377.417C158.653 376.139 160.573 374.121 162.361 372.802C157.244 375.348 152.473 377.804 151.484 378.628C149.193 380.556 147.496 386.654 149.589 387.28Z" fill="#263238"/>
<path d="M152.687 152.292C152.687 152.292 153.758 169.876 157.961 183.76C158.299 184.906 158.661 186.035 159.049 187.114C162.767 188.558 166.347 190.337 169.744 192.429C169.744 192.429 172.397 259.684 172.348 263.861C172.175 279.517 176.163 355.589 176.163 355.589L215.015 355.226C215.015 355.226 210.944 269.16 210.944 263.433C210.944 257.904 208.299 222.974 205.951 192.701C205.951 192.701 209.411 183.027 209.024 178.141C208.101 166.3 202.786 152.308 202.786 152.308L152.687 152.292Z" fill="#1C1C1C"/>
<path opacity="0.5" d="M152.687 152.292C152.687 152.292 153.758 169.876 157.961 183.76C158.299 184.906 158.661 186.035 159.049 187.114C162.767 188.558 166.347 190.337 169.744 192.429C169.744 192.429 172.397 259.684 172.348 263.861C172.175 279.517 176.163 355.589 176.163 355.589L215.015 355.226C215.015 355.226 210.944 269.16 210.944 263.433C210.944 257.904 208.299 222.974 205.951 192.701C205.951 192.701 209.411 183.027 209.024 178.141C208.101 166.3 202.786 152.308 202.786 152.308L152.687 152.292Z" fill="#1C1C1C"/>
<path d="M161.174 175.908C161.026 174.935 160.886 173.963 160.729 172.991C160.458 171.203 160.095 169.431 159.782 167.659C159.073 163.63 158.34 159.584 157.442 155.596C157.436 155.578 157.424 155.561 157.409 155.55C157.393 155.539 157.375 155.532 157.355 155.532C157.336 155.532 157.317 155.539 157.302 155.55C157.286 155.561 157.274 155.578 157.269 155.596C157.423 157.211 157.612 158.821 157.837 160.425C158.068 162.031 158.225 163.646 158.455 165.245C158.9 168.434 159.345 171.623 159.889 174.787C160.095 176.006 160.861 178.198 159.065 178.577C157.672 178.874 156.659 177.506 156.247 176.361C155.814 174.925 155.5 173.456 155.308 171.969C155.027 170.365 154.772 168.753 154.541 167.132C154.047 163.611 153.498 160.101 152.893 156.601C152.893 156.494 152.72 156.527 152.72 156.601C152.813 160.205 153.088 163.803 153.544 167.379C153.767 169.093 154.022 170.807 154.311 172.504C154.486 174.143 154.882 175.751 155.489 177.284C155.738 177.886 156.136 178.415 156.644 178.823C157.153 179.23 157.756 179.503 158.398 179.616H158.48C158.465 179.629 158.453 179.646 158.444 179.664C158.436 179.682 158.431 179.702 158.431 179.723C158.431 180.291 158.431 180.868 158.496 181.437C158.562 182.005 158.67 182.557 158.777 183.085C158.882 183.644 159.028 184.195 159.213 184.733C159.301 184.993 159.403 185.249 159.518 185.499C159.658 185.744 159.812 185.981 159.98 186.208C159.992 186.226 160.009 186.239 160.029 186.246C160.05 186.253 160.072 186.254 160.092 186.247C160.113 186.241 160.13 186.228 160.143 186.21C160.155 186.193 160.162 186.171 160.161 186.15C160.161 186.059 160.161 185.969 160.161 185.87V185.82C160.161 185.655 160.161 185.491 160.161 185.326C160.161 185.161 160.054 184.774 159.996 184.502C159.881 183.966 159.732 183.422 159.584 182.854C159.436 182.285 159.32 181.774 159.189 181.206C159.057 180.637 158.859 180.11 158.735 179.558C158.735 179.558 158.735 179.558 158.735 179.508C159.255 179.534 159.771 179.4 160.213 179.125C160.654 178.85 161.001 178.446 161.207 177.968C161.362 177.288 161.351 176.582 161.174 175.908Z" fill="#263238"/>
<path d="M172.859 193.764C171.699 192.879 170.479 192.075 169.208 191.358C167.867 190.549 166.474 189.828 165.039 189.199C162.229 187.979 159.329 187.147 156.428 186.191C156.346 186.191 156.288 186.306 156.37 186.339C159.18 187.452 161.875 188.935 164.61 190.262C165.954 190.921 167.305 191.539 168.665 192.14C170.024 192.742 171.384 193.45 172.785 193.961C172.807 193.96 172.828 193.952 172.846 193.939C172.864 193.926 172.878 193.908 172.886 193.887C172.894 193.866 172.896 193.843 172.891 193.821C172.886 193.799 172.875 193.779 172.859 193.764Z" fill="#263238"/>
<path d="M194.794 169.274C192.814 169.243 190.846 168.967 188.935 168.45C188.053 168.228 187.188 167.939 186.323 167.626C185.464 167.39 184.661 166.986 183.958 166.44C182.623 165.294 182.005 163.482 181.428 161.883C180.796 160.07 180.284 158.218 179.896 156.338C179.896 156.247 179.739 156.28 179.731 156.338C179.695 158.465 179.973 160.586 180.555 162.633C181.033 164.363 181.675 166.3 183.076 167.519C184.635 168.688 186.504 169.37 188.449 169.48C190.57 169.726 192.713 169.696 194.827 169.39C194.833 169.369 194.834 169.348 194.828 169.327C194.822 169.306 194.81 169.288 194.794 169.274Z" fill="#263238"/>
<path d="M213.276 347.728C211.002 347.563 208.694 347.588 206.412 347.563C204.129 347.538 201.847 347.522 199.556 347.563C194.991 347.607 190.424 347.687 185.853 347.802C184.609 347.843 183.381 347.876 182.104 347.934C180.827 347.992 179.442 348.231 178.108 348.28C178.091 348.286 178.077 348.296 178.067 348.31C178.056 348.324 178.051 348.341 178.051 348.358C178.051 348.376 178.056 348.393 178.067 348.407C178.077 348.421 178.091 348.431 178.108 348.437C179.228 348.437 180.357 348.618 181.478 348.651C182.598 348.684 183.81 348.692 184.971 348.692C187.254 348.692 189.545 348.692 191.827 348.692C196.392 348.692 200.965 348.593 205.53 348.404C208.109 348.305 210.713 348.272 213.284 348.008C213.321 348.007 213.356 347.991 213.382 347.964C213.407 347.937 213.421 347.901 213.42 347.864C213.419 347.827 213.403 347.792 213.376 347.766C213.349 347.741 213.313 347.727 213.276 347.728Z" fill="#263238"/>
<path d="M208.538 342.636C208.663 342.629 208.781 342.574 208.866 342.481C208.951 342.389 208.996 342.267 208.991 342.141L200.232 191.539C200.339 190.88 202.811 182.475 203.034 178.165C203.264 173.625 198.568 155.917 198.37 155.167C198.335 155.048 198.256 154.948 198.148 154.886C198.04 154.825 197.913 154.807 197.793 154.838C197.733 154.853 197.676 154.88 197.626 154.918C197.577 154.955 197.535 155.002 197.503 155.056C197.472 155.109 197.452 155.169 197.443 155.23C197.435 155.292 197.439 155.355 197.455 155.415C197.505 155.596 202.317 173.724 202.086 178.116C201.855 182.508 199.301 191.358 199.284 191.432C199.268 191.506 208.052 342.224 208.052 342.224C208.068 342.34 208.126 342.447 208.216 342.523C208.306 342.599 208.42 342.639 208.538 342.636Z" fill="#263238"/>
<path d="M204.665 93.0296C204.566 96.0867 206.124 97.1496 206.157 98.7976C206.157 98.7976 199.078 101.838 187.279 101.443C175.479 101.047 168.632 97.5122 168.632 97.5122C168.78 95.8642 170.403 94.9001 170.51 91.8513C170.626 88.3246 168.277 87.9785 169.019 82.6555C169.571 78.6838 172.579 78.3048 173.32 70.4932C174.086 62.4263 177.259 59.2786 179.698 57.5235C182.316 55.5204 185.583 54.5576 188.869 54.8208C188.869 54.8208 193.121 54.1204 197.612 57.8448C199.927 59.7565 203.108 63.4151 203.322 71.5232C203.528 79.3595 206.503 79.9445 206.783 83.9409C207.154 89.3216 204.789 89.5029 204.665 93.0296Z" fill="#263238"/>
<path d="M173.04 74.8686C174.136 72.6685 174.185 69.9988 174.078 67.568C174.078 67.4444 173.913 67.4361 173.905 67.568C173.798 69.8917 173.823 72.306 172.818 74.4401C171.952 76.2859 170.403 77.5713 169.192 79.1287C168.041 80.5635 167.388 82.3332 167.33 84.1716C167.306 85.1255 167.448 86.0762 167.75 86.9814C168.13 87.8721 168.579 88.7316 169.093 89.5523C170.444 92.1809 168.607 94.8836 167.115 96.8777C168.343 95.378 169.653 93.7217 169.843 91.6288C169.914 90.6401 169.672 89.6541 169.151 88.8107C168.559 87.8889 168.133 86.8712 167.89 85.8031C167.689 84.7182 167.718 83.6032 167.975 82.5301C168.232 81.4571 168.711 80.4499 169.381 79.5737C170.568 77.9998 172.101 76.7061 173.04 74.8686Z" fill="#263238"/>
<path d="M207.961 83.7597C207.623 81.4854 206.486 79.7385 205.333 77.8845C204.744 76.9767 204.262 76.0033 203.899 74.9841C203.541 73.8084 203.307 72.5989 203.198 71.3749C203.05 70.0318 202.918 68.6969 202.638 67.3785C202.34 66.0729 201.935 64.794 201.427 63.5552C201.427 63.4975 201.328 63.5552 201.344 63.5552C202.2 65.9424 202.711 68.4396 202.861 70.9712C202.954 73.187 203.54 75.3543 204.574 77.316C205.654 79.1865 206.997 80.8757 207.467 83.084C207.969 85.4324 208.052 88.3493 206.791 90.4505C205.761 92.1645 203.8 94.1338 204.739 96.3916C204.739 96.4657 204.879 96.3916 204.855 96.3421C204.105 93.7795 206.363 92.0409 207.327 90.055C208.291 88.0692 208.258 85.8114 207.961 83.7597Z" fill="#263238"/>
<path d="M144.348 136.718C143.953 140.014 147.026 144.134 151.616 146.202L172.579 128.239C168.805 127.481 164.866 126.591 162.691 126.204C153.132 124.671 144.604 134.633 144.348 136.718Z" fill="#1C1C1C"/>
<path opacity="0.1" d="M144.348 136.718C143.953 140.014 147.026 144.134 151.616 146.202L172.579 128.239C168.805 127.481 164.866 126.591 162.691 126.204C153.132 124.671 144.604 134.633 144.348 136.718Z" fill="#1C1C1C"/>
<path d="M150.512 154.088L158.208 133.488C158.208 133.488 153.668 126.665 157.887 119.727C160.021 116.209 174.054 99.4321 180.893 95.5593C187.312 91.9255 193.393 95.6417 195.725 99.6793C202.449 111.347 201.155 124.548 205.786 157.244L150.512 154.088Z" fill="#1C1C1C"/>
<path d="M189.438 95.584C189.017 96.5481 177.902 104.763 174.408 102.481C173.633 101.97 178.314 95.5099 178.314 95.5099L177.935 86.0668L190.624 80.9086C190.624 80.9086 189.611 95.1802 189.438 95.584Z" fill="#EB9481"/>
<path d="M190.188 86.932C188.864 89.0194 187.124 90.8115 185.077 92.1967C183.03 93.5818 180.719 94.5301 178.289 94.9825L177.926 86.075L190.624 80.9086L190.188 86.932Z" fill="#263238"/>
<path d="M169.068 69.7187C163.927 84.3117 172.084 89.0415 175.232 90.1456C178.091 91.1509 187.946 94.2079 194.571 80.2164C201.196 66.2249 196.038 59.2291 189.627 56.5923C183.216 53.9555 174.21 55.1256 169.068 69.7187Z" fill="#EB9481"/>
<path d="M174.342 66.95C174.69 67.0223 175.042 67.0746 175.397 67.1066C175.763 67.2144 176.154 67.197 176.509 67.0572C176.612 66.9932 176.69 66.897 176.732 66.7836C176.774 66.6702 176.776 66.5461 176.74 66.4309C176.634 66.2115 176.471 66.0247 176.268 65.8899C176.065 65.755 175.83 65.6773 175.586 65.6646C175.099 65.5574 174.589 65.6399 174.161 65.8953C174.066 65.9581 173.992 66.0469 173.947 66.151C173.902 66.2551 173.889 66.37 173.908 66.4817C173.927 66.5934 173.978 66.6972 174.055 66.7803C174.132 66.8635 174.232 66.9224 174.342 66.95Z" fill="#263238"/>
<path d="M184.139 70.724C183.826 70.552 183.524 70.3622 183.233 70.1554C182.884 69.9979 182.595 69.7321 182.409 69.3973C182.372 69.2801 182.376 69.154 182.419 69.0391C182.463 68.9242 182.543 68.827 182.648 68.7629C182.87 68.6663 183.115 68.6314 183.355 68.6618C183.596 68.6923 183.824 68.7869 184.016 68.9359C184.46 69.1708 184.798 69.5654 184.963 70.0401C184.991 70.1487 184.987 70.2628 184.952 70.3693C184.917 70.4759 184.853 70.5703 184.767 70.6419C184.681 70.7134 184.576 70.7591 184.465 70.7737C184.354 70.7882 184.241 70.771 184.139 70.724Z" fill="#263238"/>
<path d="M180.703 73.6244C180.703 73.6244 180.761 73.6985 180.703 73.7397C180.283 74.7038 179.97 75.8822 180.703 76.5578C180.703 76.5578 180.703 76.632 180.703 76.6155C179.714 76.0305 180.151 74.4731 180.703 73.6244Z" fill="#263238"/>
<path d="M181.989 72.9488C183.637 73.4514 182.475 76.6568 180.975 76.1953C179.476 75.7339 180.629 72.5121 181.989 72.9488Z" fill="#263238"/>
<path d="M182.557 73.336C182.771 73.6162 182.936 74.0364 183.258 74.16C183.579 74.2836 184.082 74.1106 184.419 73.8716C184.461 73.8716 184.477 73.8716 184.461 73.9293C184.255 74.5473 183.793 75.0912 183.101 74.9511C182.409 74.811 182.236 74.1271 182.277 73.4596C182.31 73.336 182.467 73.2207 182.557 73.336Z" fill="#263238"/>
<path d="M174.919 71.276C174.919 71.276 174.828 71.276 174.812 71.3419C174.499 72.3472 173.988 73.4514 172.958 73.4678C172.958 73.4678 172.916 73.5173 172.958 73.5255C174.103 73.748 174.787 72.2813 174.919 71.276Z" fill="#263238"/>
<path d="M174.383 69.9329C172.826 69.2572 171.598 72.4049 173.04 73.0558C174.482 73.7068 175.693 70.4932 174.383 69.9329Z" fill="#263238"/>
<path d="M173.642 69.8835C173.328 69.9577 172.958 70.1637 172.653 70.0648C172.348 69.9659 172.175 69.5127 172.084 69.1007C172.084 69.0513 172.035 69.1007 172.018 69.1007C171.763 69.7022 171.722 70.4109 172.257 70.7487C172.793 71.0865 173.345 70.691 173.724 70.139C173.79 70.0401 173.773 69.8505 173.642 69.8835Z" fill="#263238"/>
<path d="M177.556 81.8397C177.275 82.0812 176.92 82.2181 176.55 82.227C176.172 82.1191 175.819 81.937 175.512 81.6914C175.512 81.6914 175.446 81.6914 175.454 81.6914C175.551 81.9294 175.709 82.1369 175.914 82.2921C176.118 82.4473 176.361 82.5444 176.616 82.5731C176.838 82.5703 177.053 82.5023 177.237 82.3778C177.42 82.2533 177.562 82.0776 177.646 81.8727C177.679 81.8562 177.605 81.815 177.556 81.8397Z" fill="#263238"/>
<path d="M174.54 76.6815C174.54 76.6815 173.864 78.1235 173.642 78.8239C173.642 78.8981 173.782 78.9805 174.012 79.0711C174.586 79.3724 175.231 79.5103 175.878 79.4696C176.525 79.4289 177.148 79.2112 177.679 78.8404C177.69 78.8271 177.696 78.8108 177.697 78.7937C177.698 78.7767 177.694 78.7598 177.685 78.7453C177.676 78.7308 177.662 78.7195 177.647 78.7129C177.631 78.7064 177.613 78.7048 177.597 78.7086C176.502 79.0403 175.329 79.0114 174.251 78.6262C174.251 78.4119 175.496 76.2036 175.38 76.1542C174.814 76.0355 174.235 75.9912 173.658 76.0223C174.985 72.9818 176.789 70.1884 178.066 67.1478C178.072 67.1259 178.07 67.1029 178.061 67.082C178.053 67.0612 178.038 67.0435 178.019 67.0317C178 67.0198 177.977 67.0143 177.955 67.0159C177.932 67.0175 177.911 67.0262 177.893 67.0407C175.872 69.9802 174.147 73.113 172.743 76.3931C172.595 76.7886 174.218 76.7145 174.54 76.6815Z" fill="#263238"/>
<path d="M174.317 78.7744C174.501 79.4608 174.858 80.0881 175.355 80.5955C175.636 80.8647 175.993 81.0403 176.377 81.0981C177.201 81.2135 177.523 80.5213 177.63 79.8703C177.684 79.5243 177.698 79.1731 177.671 78.8239C176.576 79.1663 175.401 79.1489 174.317 78.7744Z" fill="#263238"/>
<path d="M175.355 80.5954C175.636 80.8646 175.993 81.0403 176.377 81.0981C177.201 81.2134 177.523 80.5213 177.63 79.8703C177.224 79.7212 176.78 79.7116 176.368 79.8429C175.956 79.9742 175.6 80.239 175.355 80.5954Z" fill="#FF9ABB"/>
<path d="M182.755 57.7789C182.066 58.9721 181.745 60.3424 181.832 61.7176C182.475 65.5245 186.776 65.7799 187.748 67.4856C188.721 69.1913 187.501 71.5479 188.309 73.1218C189.438 75.2971 191.827 75.2559 191.761 76.4919C191.695 77.7279 191.415 81.6337 192.75 82.5154C194.085 83.3971 207.821 60.7783 188.383 56.0979C188.383 56.0979 186.051 54.2687 181.371 55.1751C176.204 56.1803 172.117 63.0855 172.117 63.0855C172.117 63.0855 172.216 63.0195 173.04 62.624C174.202 62.0637 174.779 61.4045 175.611 61.0667C176.913 60.5311 177.407 61.0172 178.75 60.5146C180.243 59.8582 181.601 58.9306 182.755 57.7789Z" fill="#263238"/>
<path d="M183.357 56.7902C182.781 57.6627 182.311 58.6003 181.956 59.5835C181.549 60.5245 181.406 61.5587 181.544 62.5746C181.815 63.5377 182.423 64.3712 183.258 64.923C184.082 65.5163 185.062 65.9036 185.927 66.571C186.381 66.9147 186.732 67.3765 186.941 67.9059C187.096 68.4406 187.146 69.0002 187.089 69.5539C186.916 70.5574 187.021 71.5892 187.394 72.5368C187.616 72.9863 187.934 73.3816 188.326 73.6948C188.717 74.008 189.173 74.2316 189.66 74.3496C190.624 74.6298 191.77 74.6545 192.594 75.3549C191.72 74.7286 190.632 74.7946 189.602 74.5886C189.065 74.481 188.558 74.2571 188.117 73.9325C187.676 73.608 187.311 73.1906 187.048 72.7098C186.605 71.7151 186.459 70.6133 186.628 69.5374C186.679 69.0441 186.631 68.5455 186.488 68.0707C186.303 67.6297 186.001 67.2477 185.614 66.9666C184.84 66.3403 183.851 65.9283 182.986 65.3186C182.548 64.9976 182.159 64.6145 181.832 64.1814C181.485 63.7435 181.256 63.2246 181.165 62.6735C181.058 61.5936 181.249 60.5051 181.717 59.5258C182.154 58.5529 182.705 57.6348 183.357 56.7902Z" fill="#263238"/>
<path d="M182.739 57.5647C182.287 58.4372 181.719 59.244 181.049 59.9625C180.382 60.7336 179.497 61.2851 178.511 61.5446C178.027 61.6466 177.532 61.6936 177.036 61.6847C176.596 61.7066 176.169 61.846 175.8 62.0885C175.445 62.4292 175.056 62.7329 174.639 62.9949C174.199 63.2211 173.715 63.3477 173.221 63.3657C173.686 63.2589 174.125 63.063 174.515 62.7889C174.893 62.4942 175.241 62.163 175.553 61.8001C175.962 61.4618 176.466 61.2601 176.995 61.2233C177.466 61.216 177.935 61.1636 178.396 61.0667C179.292 60.8156 180.109 60.339 180.769 59.6824C181.474 59.0227 182.132 58.3151 182.739 57.5647Z" fill="#263238"/>
<path d="M191.415 80.2164C191.415 80.2164 196.112 76.632 197.818 78.4201C199.523 80.2082 195.024 86.1492 192.28 86.2893C191.931 86.3315 191.576 86.3025 191.238 86.2041C190.9 86.1057 190.585 85.9399 190.312 85.7166C190.04 85.4934 189.815 85.2174 189.652 84.9051C189.489 84.5929 189.391 84.2509 189.364 83.8997L191.415 80.2164Z" fill="#EB9481"/>
<path d="M196.475 80.0846C196.516 80.0846 196.475 80.1587 196.475 80.1587C194.53 80.3153 193.121 81.6254 191.967 83.0839C192.121 82.9421 192.305 82.8355 192.504 82.7716C192.703 82.7077 192.914 82.688 193.122 82.7139C193.33 82.7398 193.53 82.8106 193.707 82.9215C193.885 83.0323 194.036 83.1806 194.151 83.3558C194.151 83.3558 194.151 83.4547 194.077 83.43C193.803 83.2422 193.478 83.1418 193.146 83.1418C192.813 83.1418 192.489 83.2422 192.215 83.43C191.763 83.7539 191.348 84.127 190.979 84.5424C190.847 84.666 190.6 84.5424 190.707 84.3364C191.382 82.1034 194.052 79.5654 196.475 80.0846Z" fill="#263238"/>
<path d="M161.817 126.945C161.817 126.945 170.329 127.638 174.688 129.417C179.181 131.349 183.139 134.34 186.224 138.135C189.52 142.255 194.785 154.401 191.539 156.519C188.605 158.439 183.884 145.716 183.884 145.716C183.884 145.716 190.838 157.895 186.875 159.551C182.911 161.207 178.272 146.136 178.272 146.136C178.272 146.136 185.136 158.801 180.744 159.872C177.448 160.696 172.504 147.257 172.504 147.257C172.504 147.257 178.322 158.183 174.976 159.156C171.277 160.235 165.912 148.139 165.912 148.139C156.98 149.177 152.283 145.832 149.226 143.195C148.477 142.552 161.817 126.945 161.817 126.945Z" fill="#EB9481"/>
<path d="M181.725 141.324C182.59 142.725 183.48 144.134 184.197 145.609C184.914 147.084 185.631 148.575 186.232 150.116C187.056 152.107 187.647 154.187 187.996 156.313C187.097 152.58 184.527 147.249 183.785 145.799C183.043 144.348 182.384 142.816 181.643 141.349C181.651 141.308 181.7 141.291 181.725 141.324Z" fill="#263238"/>
<path d="M176.336 143.903C177.366 145.733 178.454 147.521 179.41 149.399C180.365 151.278 181.058 153.14 181.882 155.069C181.947 155.217 181.882 155.2 181.774 155.069C180.885 153.165 179.912 151.476 179.006 149.589C178.099 147.702 177.251 145.774 176.27 143.928C176.336 143.895 176.336 143.87 176.336 143.903Z" fill="#263238"/>
<path d="M171.392 145.288C173.031 148.074 174.376 151.023 175.405 154.088C175.463 154.236 175.339 154.203 175.273 154.047C173.979 151.105 172.982 148.79 171.26 145.37C171.227 145.288 171.318 145.23 171.392 145.288Z" fill="#263238"/>
<path d="M156.066 125.545C155.53 126.327 146.136 135.433 145.535 139.421C144.933 143.409 157.005 136.685 157.005 136.685L156.066 125.545Z" fill="#1C1C1C"/>
<path d="M185.622 103.148C170.568 112.064 145.889 134.477 145.189 140.632C144.678 145.082 144.653 149.474 146.408 151.781C149.976 156.478 157.606 156.024 160.309 154.376C172.109 147.166 184.947 131.156 193.269 114.404C200.636 99.704 190.533 100.231 185.622 103.148Z" fill="#1C1C1C"/>
<path d="M152.045 130.843C158.966 122.831 166.928 115.781 175.718 109.88L172.702 112.443C166.044 118.211 158.398 124.803 152.045 130.843Z" fill="#263238"/>
<path d="M190.855 119.068C186.222 127.922 180.4 136.1 173.551 143.376C171.87 145.222 170.109 146.993 168.269 148.691C164.627 152.028 160.474 155.835 155.184 155.645C152.634 155.574 150.158 154.773 148.048 153.338C150.269 154.414 152.708 154.961 155.176 154.937C160.252 154.937 164.24 151.41 167.783 148.163C169.601 146.483 171.367 144.741 173.081 142.939C179.993 135.756 185.968 127.727 190.863 119.043L190.855 119.068Z" fill="#263238"/>
<path d="M188.037 124.045C188.987 122.859 190.038 121.756 191.176 120.749C190.46 122.121 189.372 123.263 188.037 124.045Z" fill="#263238"/>
<path opacity="0.1" d="M179.673 107.038C183.085 104.079 192.857 97.0837 195.659 103.799C196.277 105.843 195.807 108.018 195.222 109.979C194.394 112.564 193.243 115.034 191.794 117.329C193.302 113.803 197.175 105.711 193.912 102.58C190.212 99.91 182.977 104.961 179.673 107.038Z" fill="#1C1C1C"/>
</svg>
