<svg width="412" height="412" viewBox="0 0 412 412" fill="none" xmlns="http://www.w3.org/2000/svg">
<path d="M87.3432 114.595L80.9086 161.752L155.269 171.898L161.704 124.741L87.3432 114.595Z" fill="#EBEBEB"/>
<path d="M87.344 114.585C89.9561 117.881 92.6423 121.037 95.2791 124.276C97.9159 127.514 100.635 130.645 103.338 133.793C106.148 137.089 108.982 140.385 111.809 143.607C111.899 143.706 111.973 143.813 112.064 143.92C114.574 146.787 117.093 149.652 119.62 152.514L119.991 152.926L120.452 152.63C123.649 150.548 126.841 148.455 130.027 146.351C130.141 146.285 130.251 146.214 130.357 146.136C133.977 143.763 137.581 141.365 141.168 138.943C144.596 136.636 148.04 134.287 151.459 131.939C154.879 129.59 158.307 127.193 161.702 124.729C158.175 126.756 154.681 128.907 151.179 131C147.677 133.092 144.184 135.276 140.698 137.468C136.82 139.88 132.941 142.332 129.063 144.826C126.157 146.672 123.251 148.529 120.345 150.396C118.063 147.826 115.764 145.238 113.457 142.692C110.391 139.275 107.312 135.875 104.22 132.491C101.44 129.459 98.652 126.437 95.8559 123.427C92.9802 120.494 90.195 117.486 87.344 114.585Z" fill="white"/>
<path d="M128.791 145.889C128.821 145.917 128.848 145.948 128.874 145.98L129.912 147.133C131.56 148.963 133.266 150.726 135.004 152.456C137.13 154.582 139.314 156.651 141.514 158.702C143.714 160.754 145.955 162.732 148.254 164.676C150.553 166.621 152.869 168.549 155.291 170.345C153.305 168.063 151.171 165.904 149.086 163.753C147.002 161.603 144.769 159.559 142.585 157.516C140.401 155.472 138.127 153.47 135.836 151.517C134.015 149.96 132.153 148.427 130.233 146.96C129.794 146.614 129.349 146.276 128.898 145.947L128.791 145.889Z" fill="white"/>
<path d="M81.2876 160.26C84.1139 159.172 86.8743 157.944 89.5935 156.684C92.3127 155.423 95.0072 154.071 97.6934 152.72C100.38 151.369 103.025 149.935 105.637 148.452C107.771 147.249 109.88 145.98 111.949 144.694C112.402 144.414 112.839 144.134 113.275 143.87L113.374 143.804C113.334 143.815 113.291 143.815 113.251 143.804L111.685 144.439C109.452 145.337 107.26 146.326 105.093 147.331C102.366 148.6 99.6793 149.935 97.0013 151.303C94.3233 152.671 91.6782 154.088 89.0579 155.579C86.4376 157.071 83.8173 158.587 81.2876 160.26Z" fill="white"/>
<path d="M106.294 46.3525L44.795 61.9597L54.6924 100.959L116.191 85.3521L106.294 46.3525Z" fill="#EBEBEB"/>
<path d="M44.7927 61.9565C47.8827 63.7034 50.9892 65.3349 54.0874 67.0324C57.1857 68.7298 60.3004 70.3284 63.4151 71.9764C66.6617 73.6738 69.9165 75.3301 73.1713 76.9863L73.4679 77.1511L82.1117 81.4936L82.5319 81.6996L82.8038 81.3205C84.6496 78.6755 86.4789 76.0222 88.3164 73.3689C88.3843 73.2789 88.4476 73.1853 88.5059 73.0888C90.5934 70.0894 92.6589 67.0681 94.7024 64.0248C96.6635 61.1325 98.6164 58.1991 100.553 55.2739C102.489 52.3487 104.417 49.3823 106.321 46.3829C104.195 49.0857 102.143 51.879 100.058 54.6229C97.9737 57.3669 95.9384 60.1932 93.8949 63.0113C91.6206 66.137 89.3546 69.2901 87.0969 72.4708C85.4104 74.8384 83.7212 77.2143 82.0293 79.5984C79.3925 78.28 76.7722 77.0028 74.1601 75.7338C70.6663 74.0199 67.1726 72.3279 63.6788 70.658C60.5476 69.1665 57.4082 67.6833 54.2687 66.2331C51.1293 64.7829 47.9569 63.3244 44.7927 61.9565Z" fill="white"/>
<path d="M87.2122 73.3359C87.2406 73.3555 87.2709 73.3721 87.3028 73.3854L88.4811 73.9622C90.3543 74.8686 92.2468 75.72 94.1585 76.5166C96.4986 77.5219 98.8635 78.4447 101.237 79.3511C103.61 80.2575 105.999 81.1063 108.414 81.9055C110.828 82.7048 113.259 83.4794 115.731 84.1221C113.448 82.9603 111.125 81.9303 108.793 80.9332C106.461 79.9362 104.071 79.0133 101.706 78.1069C99.3414 77.2005 96.9354 76.3435 94.521 75.5443C92.6011 74.9015 90.6565 74.2835 88.6871 73.7397C88.2339 73.6079 87.7807 73.4925 87.3193 73.3689L87.2122 73.3359Z" fill="white"/>
<path d="M54.5242 99.704C56.3946 97.9653 58.1663 96.1278 59.8967 94.2656C61.6271 92.4033 63.3245 90.5081 64.9972 88.6047C66.6699 86.7012 68.2932 84.7236 69.8671 82.7378C71.1607 81.0898 72.4297 79.4418 73.6327 77.7938L74.3991 76.7144C74.3991 76.7144 74.3991 76.6567 74.4567 76.632L74.3743 76.7061C74.0283 77.0357 73.6822 77.3571 73.3443 77.6949C71.8776 79.104 70.4686 80.5707 69.076 82.0621C67.3374 83.9161 65.6564 85.8196 63.9919 87.7312C62.3275 89.6429 60.6959 91.604 59.1221 93.5981C57.5483 95.5922 55.9744 97.5616 54.5242 99.704Z" fill="white"/>
<path d="M361.155 215.483L298.139 222.875L302.827 262.837L365.843 255.445L361.155 215.483Z" fill="#EBEBEB"/>
<path d="M298.131 222.892C300.966 225.026 303.834 227.053 306.676 229.154C309.519 231.256 312.403 233.233 315.279 235.244C318.155 237.254 321.286 239.421 324.293 241.49L324.565 241.687C327.219 243.506 329.883 245.321 332.558 247.134L332.954 247.39L333.267 247.052C335.464 244.673 337.634 242.286 339.776 239.891C339.86 239.815 339.937 239.732 340.007 239.644C342.463 236.941 344.907 234.217 347.341 231.47C349.664 228.866 351.98 226.213 354.287 223.568C356.594 220.923 358.893 218.236 361.151 215.501C358.679 217.907 356.289 220.445 353.859 222.859C351.428 225.273 349.038 227.803 346.64 230.366C343.976 233.156 341.32 235.983 338.672 238.845C336.686 240.971 334.709 243.113 332.723 245.247C330.3 243.599 327.878 241.992 325.455 240.394C322.225 238.235 318.984 236.098 315.732 233.983C312.832 232.088 309.917 230.215 306.989 228.363C303.998 226.542 301.081 224.664 298.131 222.892Z" fill="white"/>
<path d="M338.664 239.784L338.746 239.842C339.109 240.089 339.48 240.336 339.842 240.567C341.581 241.72 343.344 242.808 345.141 243.863C347.324 245.156 349.549 246.384 351.782 247.604C354.015 248.823 356.273 249.96 358.564 251.073C360.854 252.185 363.153 253.273 365.518 254.229C363.417 252.778 361.242 251.452 359.058 250.166C356.874 248.881 354.633 247.637 352.408 246.425C350.184 245.214 347.909 244.052 345.627 242.94C343.806 242.05 341.952 241.185 340.073 240.385C339.645 240.199 339.208 240.017 338.763 239.842L338.664 239.784Z" fill="white"/>
<path d="M302.82 261.562C304.905 260.079 306.94 258.489 308.86 256.882C310.78 255.275 312.749 253.586 314.628 251.938C316.507 250.29 318.402 248.535 320.231 246.763C321.723 245.329 323.189 243.871 324.607 242.355L325.513 241.383C325.537 241.36 325.559 241.335 325.579 241.308C325.553 241.333 325.522 241.353 325.488 241.366L324.343 242.19C322.695 243.401 321.113 244.662 319.531 245.956C317.561 247.604 315.65 249.252 313.763 250.9C311.876 252.548 309.989 254.303 308.16 256.074C306.33 257.846 304.534 259.659 302.82 261.562Z" fill="white"/>
<path d="M311.579 131.527C305.243 131.642 296.014 131.898 289.76 131.898H289.397V131.527L289.348 122.306V121.894H289.76C296.294 121.894 305.366 121.96 311.81 122.084C311.81 124.877 311.629 128.676 311.579 131.527ZM311.579 131.527C311.497 128.832 311.414 124.935 311.357 122.306L311.579 122.529C305.267 122.644 296.162 122.702 289.76 122.718L290.172 122.306V131.527L289.801 131.156C295.973 131.156 305.366 131.395 311.62 131.527H311.579Z" fill="#EBEBEB"/>
<path d="M299.409 143.154C293.072 143.269 283.843 143.524 277.589 143.524H277.227V143.154L277.185 133.933V133.488H277.597C284.132 133.488 293.204 133.554 299.648 133.678C299.648 136.471 299.466 140.27 299.417 143.121L299.409 143.154ZM299.409 143.154C299.326 140.459 299.244 136.562 299.186 133.933L299.409 134.155C293.097 134.271 283.992 134.329 277.589 134.345L278.001 133.933L277.952 143.154L277.589 142.783C283.761 142.783 293.155 143.022 299.409 143.154Z" fill="#EBEBEB"/>
<path d="M323.75 143.154C317.413 143.269 308.184 143.524 301.93 143.524H301.584V143.154L301.535 133.933V133.488H301.947C308.481 133.488 317.553 133.554 323.997 133.678C323.997 136.471 323.816 140.27 323.766 143.121L323.75 143.154ZM323.75 143.154C323.667 140.459 323.585 136.562 323.527 133.933L323.75 134.155C317.446 134.271 308.333 134.329 301.93 134.345L302.342 133.933L302.301 143.154L301.93 142.783C308.102 142.783 317.496 143.022 323.75 143.154Z" fill="#EBEBEB"/>
<path d="M365.32 48.0309C358.984 48.1545 349.755 48.4017 343.501 48.4017H343.13V48.0309L343.089 38.8104V38.3984H343.509C350.035 38.3984 359.116 38.4643 365.551 38.5879C365.551 41.3813 365.378 45.1799 365.329 48.0309H365.32ZM365.32 48.0309C365.238 45.3365 365.147 41.4389 365.09 38.8104L365.32 39.0329C359.009 39.1482 349.903 39.2059 343.501 39.2224L343.905 38.8104L343.863 48.0309L343.501 47.6601C349.664 47.6601 359.066 47.8991 365.32 48.0309Z" fill="#EBEBEB"/>
<path d="M377.491 59.6576C371.154 59.7729 361.926 60.0284 355.671 60.0284H355.301V59.6576L355.259 50.437V50.025H355.671C362.197 50.025 371.278 50.0909 377.713 50.2145C377.713 53.0079 377.54 56.8065 377.491 59.6576ZM377.491 59.6576C377.409 56.9631 377.318 53.0656 377.26 50.437L377.491 50.6595C371.179 50.7749 362.074 50.8325 355.671 50.849L356.083 50.437L356.034 59.6576L355.671 59.2868C361.835 59.2868 371.237 59.5257 377.491 59.6576Z" fill="#EBEBEB"/>
<path d="M56.3287 48.0392C49.9921 48.1628 40.7633 48.41 34.5092 48.41H34.1466V48.0392L34.0972 38.8186V38.4066H34.5092C41.0435 38.4066 50.1157 38.4725 56.5594 38.5961C56.5594 41.3977 56.3781 45.1881 56.3287 48.0392ZM56.3287 48.0392C56.2463 45.3447 56.1639 41.4472 56.1062 38.8186L56.3287 39.0493C50.0251 39.1565 40.9116 39.2141 34.5092 39.2306L34.9212 38.8186L34.88 48.0392L34.5092 47.6766C40.6809 47.6766 50.0745 47.9156 56.3287 48.0392Z" fill="#EBEBEB"/>
<path d="M355.671 262.452C362.008 262.329 371.237 262.081 377.491 262.081H377.853V262.452L377.903 271.673V272.085H377.491C370.957 272.085 361.884 272.019 355.441 271.895C355.441 269.094 355.622 265.303 355.671 262.452ZM355.671 262.452C355.754 265.147 355.836 269.044 355.894 271.673L355.671 271.442C361.975 271.335 371.088 271.277 377.491 271.261L377.079 271.673L377.12 262.452L377.491 262.815C371.319 262.815 361.926 262.576 355.671 262.452Z" fill="#EBEBEB"/>
<path d="M34.5092 262.452C40.8457 262.329 50.0745 262.081 56.3287 262.081H56.6995V262.452V271.673V272.085H56.2875C49.7614 272.085 40.6809 272.019 34.2455 271.895C34.2455 269.094 34.4185 265.303 34.468 262.452H34.5092ZM34.5092 262.452C34.5916 265.147 34.6822 269.044 34.7399 271.673L34.5092 271.442C40.821 271.335 49.9262 271.277 56.3287 271.261L55.9167 271.673L55.9661 262.452L56.3287 262.815C50.1652 262.815 40.7633 262.576 34.5092 262.452Z" fill="#EBEBEB"/>
<path d="M46.6796 250.826C53.0162 250.702 62.245 250.455 68.4992 250.455H68.87V250.826V260.046V260.458H68.4497C61.9236 260.458 52.8432 260.392 46.4077 260.269C46.4077 257.467 46.5808 253.677 46.6302 250.826H46.6796ZM46.6796 250.826C46.762 253.52 46.8527 257.418 46.9104 260.046L46.6796 259.815C52.9915 259.708 62.0967 259.651 68.4992 259.634L68.0954 260.046V250.826L68.458 251.188C62.2944 251.188 52.8926 250.949 46.6384 250.826H46.6796Z" fill="#EBEBEB"/>
<path d="M32.96 369.589C143.837 369.086 268.212 369.086 379.089 369.589C268.212 370.1 143.837 370.091 32.96 369.589Z" fill="#263238"/>
<path d="M349.5 320.833C349.5 320.833 356.734 294.852 362.51 286.035C368.287 277.218 379.04 267.52 379.04 267.52C379.04 267.52 378.809 307.566 349.5 320.833Z" fill="#1C1C1C"/>
<path d="M347.25 323.173C347.25 323.173 360.261 299.219 356.479 275.999C352.697 252.778 348.659 244.505 348.659 244.505C348.659 244.505 328.216 280.621 347.25 323.173Z" fill="#1C1C1C"/>
<path d="M341.91 285.516C342.999 292.106 344.67 298.586 346.904 304.88C346.904 296.36 347.102 287.84 347.332 279.336C345.865 274.166 345.034 268.837 344.86 263.466C344.86 263.301 345.091 263.317 345.099 263.466C345.51 268.069 346.273 272.633 347.382 277.119C347.58 270.093 347.808 263.067 348.066 256.041C348.066 256.017 348.075 255.994 348.092 255.977C348.109 255.96 348.132 255.951 348.156 255.951C348.18 255.951 348.203 255.96 348.22 255.977C348.237 255.994 348.247 256.017 348.247 256.041C348.247 267.017 348.247 278.001 348.173 289.001C349.76 284.757 351.013 280.396 351.922 275.958C351.922 275.916 352.004 275.958 351.996 275.958C351.473 281.066 350.181 286.066 348.165 290.79C348.107 297.81 348.033 304.798 347.876 311.843C350.076 304.386 352.425 297.159 353.067 289.273C353.067 289.252 353.076 289.231 353.092 289.215C353.107 289.2 353.128 289.191 353.15 289.191C353.172 289.191 353.193 289.2 353.208 289.215C353.224 289.231 353.232 289.252 353.232 289.273C353.059 297.967 350.818 306.8 347.95 314.974C347.92 315.054 347.869 315.125 347.802 315.18C347.736 317.743 347.662 320.313 347.58 322.876C347.568 322.943 347.533 323.004 347.481 323.048C347.429 323.092 347.363 323.116 347.295 323.116C347.227 323.116 347.161 323.092 347.109 323.048C347.057 323.004 347.022 322.943 347.011 322.876C346.904 317.627 346.871 312.378 346.879 307.129C344.045 300.259 342.315 292.984 341.754 285.574C341.795 285.466 341.902 285.45 341.91 285.516Z" fill="#263238"/>
<path d="M342.784 281.808C343.238 283.89 343.541 286.002 343.69 288.128C343.686 288.141 343.677 288.152 343.666 288.159C343.655 288.167 343.642 288.171 343.628 288.171C343.615 288.171 343.602 288.167 343.591 288.159C343.58 288.152 343.571 288.141 343.567 288.128C343.061 286.055 342.703 283.948 342.495 281.824C342.504 281.684 342.784 281.651 342.784 281.808Z" fill="#263238"/>
<path d="M350.414 264.306C350.414 264.232 350.538 264.257 350.538 264.306C350.521 265.785 350.299 267.255 349.879 268.673C349.879 268.789 349.681 268.731 349.706 268.624C349.994 267.198 350.2 265.748 350.414 264.306Z" fill="#263238"/>
<path d="M342.512 325.002C342.512 325.002 343.039 300.002 335.871 287.576C328.702 275.15 316.803 268.813 316.803 268.813C316.803 268.813 321.599 312.889 342.512 325.002Z" fill="#1C1C1C"/>
<path d="M329.443 303.619C332.324 307.986 335.568 312.101 339.142 315.922C337.719 310.813 336.071 305.786 334.198 300.842C330.177 297.324 326.189 293.665 323.725 288.845C323.72 288.837 323.717 288.829 323.715 288.82C323.713 288.811 323.714 288.802 323.715 288.793C323.717 288.784 323.721 288.776 323.726 288.769C323.731 288.761 323.738 288.755 323.745 288.75C323.753 288.745 323.761 288.742 323.77 288.74C323.779 288.739 323.788 288.739 323.797 288.741C323.806 288.743 323.814 288.746 323.822 288.752C323.829 288.757 323.835 288.763 323.84 288.771C326.493 293.047 330.037 296.467 333.769 299.755C330.895 292.307 327.562 285.045 323.791 278.009C323.78 277.991 323.774 277.972 323.771 277.951C323.768 277.931 323.77 277.91 323.775 277.89C323.781 277.87 323.79 277.852 323.802 277.835C323.815 277.819 323.831 277.805 323.848 277.795C323.866 277.785 323.886 277.778 323.906 277.775C323.927 277.773 323.948 277.774 323.967 277.78C323.987 277.785 324.006 277.794 324.022 277.807C324.039 277.819 324.052 277.835 324.063 277.853C326.356 281.541 328.446 285.35 330.325 289.265C329.649 286.587 329.114 283.86 328.422 281.206C328.422 281.191 328.428 281.176 328.438 281.166C328.449 281.155 328.464 281.149 328.479 281.149C328.495 281.149 328.509 281.155 328.52 281.166C328.531 281.176 328.537 281.191 328.537 281.206C329.945 284.609 330.933 288.17 331.479 291.811C333.991 297.355 336.103 303.072 337.799 308.918C337.609 305.168 337.378 301.436 336.975 297.703C336.979 297.69 336.988 297.679 336.999 297.672C337.01 297.664 337.023 297.66 337.036 297.66C337.05 297.66 337.063 297.664 337.074 297.672C337.085 297.679 337.094 297.69 337.098 297.703C337.896 301.851 338.26 306.07 338.186 310.294C339.216 314.018 340.089 317.792 340.79 321.591C340.79 321.613 340.781 321.634 340.766 321.649C340.75 321.664 340.729 321.673 340.707 321.673C340.686 321.673 340.665 321.664 340.649 321.649C340.634 321.634 340.625 321.613 340.625 321.591C340.238 320 339.801 318.418 339.381 316.844C339.356 316.851 339.331 316.851 339.307 316.844C335.459 312.988 331.8 308.604 329.419 303.66C329.386 303.619 329.427 303.595 329.443 303.619Z" fill="#263238"/>
<path d="M363.821 321.953L362.914 333.794L360.187 369.589H336.431L333.72 333.794L332.822 321.953H363.837H363.821Z" fill="#455A64"/>
<path d="M363.821 321.953L362.914 333.794H333.72L332.822 321.953H363.837H363.821Z" fill="#37474F"/>
<path d="M330.696 325.224H365.93V316.144H330.696V325.224Z" fill="#455A64"/>
<path d="M313.268 48.0392H171.277C169.372 48.0564 167.49 48.4487 165.738 49.1936C163.985 49.9384 162.397 51.0213 161.063 52.3804C159.729 53.7394 158.676 55.348 157.965 57.1141C157.253 58.8802 156.896 60.7693 156.914 62.6734V354.954C156.881 358.799 158.375 362.499 161.068 365.243C163.761 367.986 167.432 369.55 171.277 369.589H313.268C317.115 369.552 320.789 367.99 323.485 365.246C326.181 362.502 327.678 358.801 327.647 354.954V62.6734C327.68 58.8263 326.184 55.1236 323.487 52.3794C320.791 49.6351 317.115 48.074 313.268 48.0392ZM318.657 345.915C318.657 353.611 312.889 359.833 305.795 359.833H178.808C171.68 359.833 165.921 353.611 165.921 345.915V73.748C165.921 58.092 171.689 57.268 178.808 57.268H204.253C205.728 57.268 206.939 58.916 206.939 61.0337V61.9318C206.939 66.8099 209.609 66.8264 212.889 66.8264H271.73C275.026 66.8264 277.688 66.8264 277.688 61.9318V61.0749C277.688 58.9901 278.883 57.3092 280.391 57.3092H305.828C312.93 57.3092 318.69 59.3939 318.69 73.7892L318.657 345.915Z" fill="#263238"/>
<path d="M318.665 73.748V345.915C318.665 353.611 312.897 359.833 305.803 359.833H178.808C171.68 359.833 165.921 353.611 165.921 345.915V73.748C165.921 58.092 171.689 57.268 178.808 57.268H204.253C205.728 57.268 206.939 58.916 206.939 61.0337V61.9318C206.939 66.8099 209.609 66.8264 212.889 66.8264H271.73C275.026 66.8264 277.688 66.8264 277.688 61.9318V61.0749C277.688 58.9902 278.883 57.3092 280.391 57.3092H305.827C312.906 57.3092 318.665 59.3939 318.665 73.748Z" fill="white"/>
<path d="M318.665 73.7562V98.4762H165.896V73.7562C165.896 58.1002 171.664 57.2762 178.783 57.2762H204.228C205.703 57.2762 206.915 58.9242 206.915 61.0419V61.9401C206.915 66.8182 209.584 66.8346 212.864 66.8346H271.706C275.002 66.8346 277.663 66.8346 277.663 61.9401V61.0831C277.663 58.9984 278.858 57.3174 280.366 57.3174H305.803C312.906 57.3174 318.665 59.4022 318.665 73.7562Z" fill="#1C1C1C"/>
<path d="M250.306 60.5393H234.255C234.124 60.5393 233.995 60.5135 233.875 60.4633C233.754 60.4131 233.645 60.3395 233.553 60.2468C233.461 60.1541 233.388 60.0441 233.339 59.9232C233.29 59.8023 233.265 59.6728 233.266 59.5423C233.266 59.4124 233.292 59.2838 233.341 59.1639C233.391 59.0439 233.464 58.9349 233.556 58.8431C233.648 58.7513 233.757 58.6784 233.877 58.6287C233.997 58.579 234.125 58.5535 234.255 58.5535H250.306C250.436 58.5535 250.565 58.579 250.685 58.6287C250.805 58.6784 250.914 58.7513 251.006 58.8431C251.097 58.9349 251.17 59.0439 251.22 59.1639C251.27 59.2838 251.295 59.4124 251.295 59.5423C251.295 59.8053 251.191 60.0576 251.006 60.2444C250.821 60.4311 250.569 60.5371 250.306 60.5393Z" fill="white"/>
<path d="M189.108 80.5872H175.85V88.992H189.108V80.5872Z" fill="white"/>
<path d="M189.108 80.5872C188.572 81.098 188.028 81.5924 187.46 82.0951C186.891 82.5977 186.372 83.0839 185.812 83.57L184.098 85.0862L184.04 85.1356L182.516 86.4623L182.442 86.52L182.368 86.4623L180.843 85.1274H180.785L179.063 83.6112L177.415 82.1363C176.88 81.6336 176.328 81.1392 175.767 80.6284L177.465 81.9797C178.025 82.4412 178.585 82.8944 179.113 83.364C179.64 83.8337 180.349 84.4023 180.975 84.9296L182.368 86.1162C182.829 85.7207 183.29 85.2922 183.76 84.9296L185.622 83.364L187.27 81.988C187.979 81.4853 188.539 81.0321 189.108 80.5872Z" fill="#1C1C1C"/>
<path d="M181.107 85.078L180.901 85.251C180.563 85.5312 180.225 85.8031 179.879 86.075C179.533 86.347 179.055 86.7013 178.594 87.0062C178.132 87.311 177.72 87.6077 177.267 87.8961C176.814 88.1845 176.369 88.4646 175.899 88.7201C176.303 88.3658 176.723 88.0362 177.143 87.7148C177.564 87.3934 177.967 87.0886 178.429 86.7837C178.89 86.4788 179.311 86.1822 179.755 85.8938C180.2 85.6054 180.472 85.4406 180.843 85.2263L181.107 85.0862V85.078Z" fill="#1C1C1C"/>
<path d="M189.083 88.7283C188.613 88.4728 188.16 88.1927 187.715 87.9043C187.27 87.6159 186.825 87.3192 186.389 87.0143C185.952 86.7095 185.565 86.4046 185.095 86.0832C184.625 85.7619 184.411 85.5559 184.081 85.2592L183.875 85.0862L184.139 85.2345C184.502 85.4487 184.864 85.6712 185.227 85.9019C185.672 86.1903 186.109 86.487 186.545 86.7919C186.982 87.0967 187.41 87.4016 187.831 87.723C188.251 88.0443 188.696 88.3739 189.083 88.7283Z" fill="#1C1C1C"/>
<path d="M191.992 80.5872C191.994 81.1514 191.828 81.7034 191.516 82.1734C191.203 82.6433 190.759 83.01 190.238 83.2271C189.717 83.4441 189.143 83.5018 188.59 83.3927C188.036 83.2836 187.527 83.0127 187.128 82.6143C186.728 82.2159 186.456 81.7079 186.345 81.1547C186.235 80.6014 186.291 80.0277 186.506 79.5063C186.722 78.9849 187.087 78.5391 187.556 78.2254C188.025 77.9118 188.577 77.7444 189.141 77.7444C189.896 77.7444 190.62 78.0436 191.154 78.5765C191.688 79.1094 191.99 79.8325 191.992 80.5872Z" fill="#455A64"/>
<path d="M190.047 81.1558C190.047 81.1857 190.041 81.2153 190.03 81.2429C190.018 81.2704 190.001 81.2953 189.979 81.3161C189.958 81.3368 189.932 81.3531 189.904 81.3637C189.876 81.3744 189.846 81.3794 189.817 81.3782H189.775V81.6914C189.776 81.7209 189.772 81.7503 189.761 81.7779C189.75 81.8054 189.734 81.8304 189.713 81.8513C189.692 81.8722 189.667 81.8885 189.639 81.8993C189.612 81.91 189.582 81.915 189.553 81.9138C189.494 81.9138 189.437 81.8904 189.396 81.8487C189.354 81.807 189.33 81.7504 189.33 81.6914V81.3782H188.045C188.019 81.3804 187.994 81.3771 187.97 81.3685C187.945 81.36 187.923 81.3465 187.905 81.3288C187.864 81.2871 187.84 81.2309 187.84 81.1722C187.84 81.1136 187.864 81.0573 187.905 81.0157L189.38 79.104H189.553V80.752H189.594C189.648 80.6919 189.723 80.6555 189.803 80.6509C189.884 80.6463 189.962 80.6737 190.023 80.7273C190.083 80.7808 190.119 80.856 190.124 80.9364C190.128 81.0168 190.101 81.0957 190.047 81.1558ZM189.33 79.9198L188.506 80.9333H189.33V79.9198Z" fill="white"/>
<path d="M199.828 63.1843L199.581 63.4315L199.441 63.5716C198.812 62.9441 197.96 62.5917 197.072 62.5917C196.184 62.5917 195.332 62.9441 194.703 63.5716C194.655 63.529 194.611 63.4821 194.571 63.4315L194.324 63.1925L194.637 62.9124C195.117 62.5274 195.682 62.262 196.285 62.1378C196.442 62.1378 196.606 62.1378 196.763 62.0719H197.175H197.504C197.804 62.1062 198.097 62.1782 198.378 62.2861C198.583 62.3599 198.781 62.4509 198.971 62.5581C199.169 62.6728 199.357 62.8052 199.532 62.9536L199.795 63.1925L199.828 63.1843Z" fill="white"/>
<path d="M195.477 64.3461C195.354 64.2143 195.222 64.0907 195.09 63.9589C195.51 63.5141 196.067 63.2238 196.672 63.1349C197.106 63.0747 197.548 63.118 197.962 63.2612C198.376 63.4044 198.75 63.6435 199.054 63.9589L198.658 64.3461C198.235 63.9265 197.664 63.691 197.068 63.691C196.472 63.691 195.9 63.9265 195.477 64.3461Z" fill="white"/>
<path d="M198.271 64.7334L197.884 65.1207C197.777 65.0101 197.649 64.9221 197.507 64.862C197.366 64.8019 197.213 64.7709 197.06 64.7709C196.906 64.7709 196.754 64.8019 196.612 64.862C196.47 64.9221 196.342 65.0101 196.236 65.1207L195.848 64.7334C196.003 64.5661 196.19 64.4326 196.398 64.3413C196.607 64.25 196.832 64.2029 197.06 64.2029C197.287 64.2029 197.512 64.25 197.721 64.3413C197.929 64.4326 198.117 64.5661 198.271 64.7334Z" fill="white"/>
<path d="M197.422 65.4668C197.43 65.5173 197.427 65.5689 197.413 65.618C197.399 65.6671 197.374 65.7126 197.341 65.7514C197.307 65.7902 197.266 65.8213 197.22 65.8426C197.173 65.864 197.123 65.875 197.072 65.875C197.021 65.875 196.97 65.864 196.924 65.8426C196.877 65.8213 196.836 65.7902 196.803 65.7514C196.77 65.7126 196.745 65.6671 196.731 65.618C196.717 65.5689 196.714 65.5173 196.722 65.4668C196.735 65.3832 196.777 65.3069 196.841 65.2518C196.905 65.1967 196.987 65.1664 197.072 65.1664C197.156 65.1664 197.238 65.1967 197.303 65.2518C197.367 65.3069 197.409 65.3832 197.422 65.4668Z" fill="white"/>
<path d="M175.85 63.9259C175.85 63.7254 175.909 63.5295 176.021 63.3628C176.132 63.1961 176.29 63.0662 176.475 62.9895C176.661 62.9128 176.864 62.8927 177.061 62.9318C177.258 62.9709 177.438 63.0675 177.58 63.2092C177.722 63.351 177.818 63.5315 177.857 63.7281C177.896 63.9248 177.876 64.1285 177.8 64.3137C177.723 64.4989 177.593 64.6572 177.426 64.7686C177.26 64.88 177.064 64.9394 176.863 64.9394C176.73 64.9394 176.598 64.9132 176.475 64.8622C176.352 64.8113 176.241 64.7367 176.147 64.6425C176.052 64.5484 175.978 64.4367 175.927 64.3137C175.876 64.1908 175.85 64.059 175.85 63.9259Z" fill="white"/>
<path d="M179.039 63.9259C179.039 63.7254 179.098 63.5295 179.21 63.3628C179.321 63.1961 179.479 63.0662 179.664 62.9895C179.85 62.9128 180.053 62.8927 180.25 62.9318C180.447 62.9709 180.627 63.0675 180.769 63.2092C180.911 63.351 181.007 63.5315 181.046 63.7281C181.085 63.9248 181.065 64.1285 180.989 64.3137C180.912 64.4989 180.782 64.6572 180.615 64.7686C180.449 64.88 180.253 64.9394 180.052 64.9394C179.919 64.9394 179.787 64.9132 179.664 64.8622C179.541 64.8113 179.43 64.7367 179.336 64.6425C179.241 64.5484 179.167 64.4367 179.116 64.3137C179.065 64.1908 179.039 64.059 179.039 63.9259Z" fill="white"/>
<path d="M182.228 63.9259C182.228 63.7254 182.287 63.5295 182.398 63.3628C182.51 63.1961 182.668 63.0662 182.853 62.9895C183.038 62.9128 183.242 62.8927 183.439 62.9318C183.635 62.9709 183.816 63.0675 183.958 63.2092C184.099 63.351 184.196 63.5315 184.235 63.7281C184.274 63.9248 184.254 64.1285 184.177 64.3137C184.101 64.4989 183.971 64.6572 183.804 64.7686C183.637 64.88 183.442 64.9394 183.241 64.9394C182.972 64.9394 182.714 64.8326 182.524 64.6425C182.334 64.4525 182.228 64.1947 182.228 63.9259Z" fill="white"/>
<path d="M185.4 63.9259C185.4 63.7254 185.459 63.5295 185.571 63.3628C185.682 63.1961 185.84 63.0662 186.026 62.9895C186.211 62.9128 186.415 62.8927 186.611 62.9318C186.808 62.9709 186.988 63.0675 187.13 63.2092C187.272 63.351 187.368 63.5315 187.407 63.7281C187.447 63.9248 187.427 64.1285 187.35 64.3137C187.273 64.4989 187.143 64.6572 186.976 64.7686C186.81 64.88 186.614 64.9394 186.413 64.9394C186.145 64.9394 185.887 64.8326 185.697 64.6425C185.507 64.4525 185.4 64.1947 185.4 63.9259Z" fill="white"/>
<path d="M188.605 63.9259C188.605 63.7254 188.665 63.5295 188.776 63.3628C188.888 63.1961 189.046 63.0662 189.231 62.9895C189.416 62.9128 189.62 62.8927 189.817 62.9318C190.013 62.9709 190.194 63.0675 190.336 63.2092C190.477 63.351 190.574 63.5315 190.613 63.7281C190.652 63.9248 190.632 64.1285 190.555 64.3137C190.479 64.4989 190.349 64.6572 190.182 64.7686C190.015 64.88 189.819 64.9394 189.619 64.9394C189.486 64.9394 189.354 64.9132 189.231 64.8622C189.108 64.8113 188.996 64.7367 188.902 64.6425C188.808 64.5484 188.733 64.4367 188.682 64.3137C188.632 64.1908 188.605 64.059 188.605 63.9259Z" fill="white"/>
<path d="M307.204 66.1425H298.964V62.3191H307.204V66.1425ZM299.384 65.7222H306.8V62.7393H299.384V65.7222Z" fill="white"/>
<path d="M304.962 62.9701H299.648V65.4915H304.962V62.9701Z" fill="white"/>
<path d="M307.945 63.209H307.212V65.2525H307.945V63.209Z" fill="white"/>
<path d="M229.138 82.2187C229.137 82.1535 229.149 82.0887 229.173 82.0282C229.198 81.9677 229.234 81.9128 229.28 81.8666C229.326 81.8205 229.381 81.7841 229.442 81.7597C229.502 81.7352 229.567 81.7232 229.632 81.7243C229.764 81.7243 229.891 81.7761 229.985 81.8686C230.079 81.9611 230.133 82.0868 230.135 82.2187V87.5006C230.133 87.6324 230.079 87.7582 229.985 87.8507C229.891 87.9431 229.764 87.995 229.632 87.995C229.567 87.9961 229.502 87.984 229.442 87.9596C229.381 87.9351 229.326 87.8988 229.28 87.8526C229.234 87.8065 229.198 87.7516 229.173 87.6911C229.149 87.6306 229.137 87.5658 229.138 87.5006V82.2187Z" fill="white"/>
<path d="M232.796 87.5006C232.794 87.6297 232.743 87.753 232.652 87.8451C232.562 87.9371 232.439 87.9908 232.31 87.995C232.245 87.995 232.181 87.9822 232.121 87.9574C232.061 87.9325 232.007 87.8961 231.961 87.8502C231.915 87.8043 231.878 87.7498 231.853 87.6898C231.829 87.6298 231.816 87.5655 231.816 87.5006V82.2929C231.811 82.188 231.84 82.0843 231.899 81.9973C231.958 81.9104 232.043 81.8448 232.143 81.8105C232.242 81.7762 232.35 81.7749 232.45 81.8069C232.55 81.8389 232.637 81.9025 232.698 81.988L235.59 85.9927V82.2929C235.592 82.1668 235.643 82.0465 235.732 81.9573C235.821 81.8682 235.942 81.8171 236.068 81.815C236.196 81.8149 236.319 81.8648 236.412 81.9539C236.504 82.0431 236.558 82.1647 236.562 82.2929V87.5006C236.562 87.6317 236.51 87.7575 236.417 87.8502C236.325 87.9429 236.199 87.995 236.068 87.995C235.998 87.9927 235.929 87.9752 235.867 87.9439C235.804 87.9127 235.749 87.8682 235.705 87.8137L235.656 87.7643L232.796 83.7844V87.5006Z" fill="white"/>
<path d="M238.721 87.5006V82.2188C238.72 82.1542 238.732 82.0901 238.756 82.0302C238.78 81.9703 238.815 81.9157 238.86 81.8697C238.906 81.8236 238.96 81.7871 239.019 81.7621C239.079 81.7372 239.143 81.7244 239.207 81.7244H240.484C240.935 81.7244 241.366 81.9032 241.685 82.2215C242.003 82.5399 242.182 82.9716 242.182 83.4218C242.187 83.7906 242.068 84.1504 241.844 84.4436C242.199 84.6637 242.472 84.9935 242.623 85.383C242.773 85.7725 242.793 86.2004 242.678 86.602C242.564 87.0035 242.321 87.3567 241.988 87.6081C241.654 87.8595 241.248 87.9953 240.83 87.995H239.248C239.181 87.9995 239.113 87.9901 239.049 87.9673C238.985 87.9445 238.927 87.9088 238.877 87.8624C238.828 87.816 238.788 87.76 238.762 87.6977C238.735 87.6355 238.721 87.5684 238.721 87.5006ZM239.71 84.1552H240.484C240.675 84.1508 240.857 84.0714 240.989 83.9341C241.122 83.7968 241.195 83.6127 241.193 83.4218C241.193 83.3291 241.175 83.2374 241.139 83.1519C241.103 83.0663 241.051 82.9888 240.985 82.9236C240.919 82.8585 240.841 82.807 240.755 82.7723C240.669 82.7376 240.577 82.7203 240.484 82.7214H239.71V84.1552ZM239.71 86.998H240.83C241.061 86.9762 241.276 86.8691 241.432 86.6977C241.588 86.5262 241.674 86.3028 241.674 86.071C241.674 85.8392 241.588 85.6157 241.432 85.4443C241.276 85.2728 241.061 85.1657 240.83 85.144H239.71V86.998Z" fill="white"/>
<path d="M248.988 82.4989C249.57 83.1115 249.894 83.9241 249.894 84.769C249.894 85.6139 249.57 86.4266 248.988 87.0391C248.715 87.3365 248.384 87.5748 248.016 87.7392C247.647 87.9036 247.249 87.9907 246.846 87.995C246.435 87.9921 246.029 87.9059 245.652 87.7416C245.275 87.5773 244.936 87.3383 244.654 87.0391C244.081 86.4219 243.763 85.611 243.763 84.769C243.763 83.927 244.081 83.1161 244.654 82.4989C244.937 82.2042 245.278 81.9703 245.655 81.8116C246.031 81.6529 246.437 81.5728 246.846 81.576C247.247 81.5747 247.644 81.6559 248.013 81.8147C248.381 81.9734 248.713 82.2063 248.988 82.4989ZM248.873 84.7649C248.869 84.1858 248.652 83.6285 248.263 83.1993C248.081 82.9994 247.86 82.8396 247.613 82.7302C247.366 82.6209 247.099 82.5644 246.829 82.5644C246.559 82.5644 246.292 82.6209 246.045 82.7302C245.798 82.8396 245.577 82.9994 245.395 83.1993C245 83.6242 244.782 84.1843 244.786 84.7649C244.779 85.3459 244.998 85.907 245.395 86.3305C245.575 86.5327 245.796 86.6946 246.043 86.8054C246.291 86.9162 246.558 86.9735 246.829 86.9735C247.1 86.9735 247.368 86.9162 247.615 86.8054C247.862 86.6946 248.083 86.5327 248.263 86.3305C248.645 85.8993 248.854 85.3413 248.848 84.7649H248.873Z" fill="white"/>
<path d="M255.704 82.573L253.998 84.872L255.704 87.1957C255.742 87.248 255.769 87.3073 255.783 87.3701C255.798 87.433 255.8 87.4982 255.789 87.5618C255.779 87.6255 255.755 87.6864 255.721 87.7409C255.686 87.7955 255.641 87.8426 255.588 87.8796C255.509 87.9437 255.41 87.9786 255.308 87.9785C255.23 87.9769 255.152 87.9576 255.083 87.9219C255.013 87.8862 254.952 87.8351 254.904 87.7725L253.396 85.696L251.88 87.7642C251.835 87.8252 251.777 87.8753 251.71 87.9109C251.643 87.9465 251.569 87.9668 251.493 87.9702C251.388 87.9716 251.286 87.9366 251.205 87.8714C251.152 87.8344 251.107 87.7873 251.072 87.7327C251.038 87.6781 251.014 87.6172 251.003 87.5536C250.993 87.4899 250.995 87.4247 251.01 87.3619C251.024 87.299 251.051 87.2397 251.089 87.1874L252.787 84.8637L251.089 82.5483C251.052 82.4967 251.025 82.438 251.01 82.3758C250.995 82.3136 250.993 82.2491 251.004 82.1861C251.015 82.1231 251.038 82.0629 251.073 82.0091C251.107 81.9552 251.152 81.9088 251.205 81.8726C251.254 81.831 251.312 81.8004 251.375 81.7831C251.437 81.7658 251.503 81.7621 251.567 81.7722C251.631 81.7824 251.692 81.8061 251.746 81.842C251.8 81.8778 251.846 81.9247 251.88 81.9797L253.396 84.0397L254.904 81.9797C254.94 81.9245 254.986 81.8774 255.041 81.8416C255.096 81.8057 255.157 81.7819 255.222 81.7718C255.287 81.7617 255.353 81.7654 255.416 81.7828C255.479 81.8002 255.538 81.8308 255.588 81.8726C255.645 81.9088 255.693 81.9563 255.729 82.0122C255.766 82.0681 255.791 82.1312 255.802 82.1972C255.813 82.2632 255.809 82.3308 255.793 82.3955C255.776 82.4603 255.745 82.5207 255.704 82.573Z" fill="white"/>
<path d="M297.629 87.9455L296.59 88.7695L294.671 86.2316L293.962 85.3005C294.106 85.2456 294.242 85.1707 294.366 85.078C294.601 84.897 294.785 84.6587 294.901 84.3859L295.651 85.3664L297.629 87.9455Z" fill="white"/>
<path d="M295.585 81.9633C295.244 81.5065 294.775 81.1618 294.237 80.9731C293.699 80.7845 293.117 80.7604 292.565 80.904C292.013 81.0477 291.517 81.3525 291.14 81.7795C290.762 82.2066 290.52 82.7365 290.445 83.3016C290.37 83.8667 290.465 84.4414 290.718 84.9522C290.971 85.4629 291.371 85.8867 291.866 86.1693C292.361 86.452 292.929 86.5806 293.498 86.5389C294.066 86.4971 294.609 86.2869 295.058 85.9349C295.286 85.7634 295.486 85.5577 295.651 85.3252C296 84.8311 296.182 84.2383 296.171 83.6334C296.159 83.0285 295.954 82.4432 295.585 81.9633ZM294.366 85.0368C294.242 85.1295 294.106 85.2044 293.962 85.2593C293.608 85.3938 293.218 85.4022 292.858 85.2829C292.498 85.1636 292.191 84.924 291.987 84.6045C291.783 84.285 291.696 83.905 291.74 83.5285C291.784 83.1521 291.956 82.8023 292.227 82.5379C292.499 82.2735 292.853 82.1108 293.23 82.0771C293.608 82.0435 293.985 82.1409 294.299 82.3531C294.613 82.5652 294.845 82.8791 294.954 83.2419C295.064 83.6046 295.045 83.9941 294.901 84.3446C294.785 84.6174 294.601 84.8558 294.366 85.0368Z" fill="white"/>
<path d="M283.53 81.0239H275.999V88.5553H283.53V81.0239Z" fill="white"/>
<path d="M280.176 82.4247H279.352V87.1627H280.176V82.4247Z" fill="#1C1C1C"/>
<path d="M277.4 84.3858V85.2098H282.138V84.3858H277.4Z" fill="#1C1C1C"/>
<path d="M307.195 81.5101C307.195 81.6388 307.157 81.7647 307.086 81.8717C307.014 81.9788 306.912 82.0622 306.794 82.1115C306.675 82.1608 306.544 82.1737 306.417 82.1485C306.291 82.1234 306.175 82.0614 306.084 81.9704C305.993 81.8794 305.931 81.7634 305.906 81.6371C305.881 81.5108 305.894 81.3799 305.943 81.261C305.992 81.142 306.076 81.0404 306.183 80.9688C306.29 80.8973 306.416 80.8591 306.544 80.8591C306.63 80.8591 306.715 80.876 306.794 80.9087C306.872 80.9414 306.944 80.9894 307.005 81.0498C307.065 81.1102 307.113 81.182 307.146 81.261C307.179 81.34 307.195 81.4246 307.195 81.5101Z" fill="white"/>
<path d="M307.195 84.872C307.195 85.0008 307.157 85.1266 307.086 85.2337C307.014 85.3407 306.912 85.4242 306.794 85.4734C306.675 85.5227 306.544 85.5356 306.417 85.5105C306.291 85.4854 306.175 85.4234 306.084 85.3323C305.993 85.2413 305.931 85.1253 305.906 84.999C305.881 84.8728 305.894 84.7419 305.943 84.6229C305.992 84.504 306.076 84.4023 306.183 84.3308C306.29 84.2592 306.416 84.2211 306.544 84.2211C306.717 84.2211 306.883 84.2897 307.005 84.4117C307.127 84.5338 307.195 84.6994 307.195 84.872Z" fill="white"/>
<path d="M307.195 88.2669C307.195 88.3957 307.157 88.5215 307.086 88.6286C307.014 88.7356 306.912 88.8191 306.794 88.8683C306.675 88.9176 306.544 88.9305 306.417 88.9054C306.291 88.8803 306.175 88.8183 306.084 88.7272C305.993 88.6362 305.931 88.5202 305.906 88.3939C305.881 88.2676 305.894 88.1368 305.943 88.0178C305.992 87.8989 306.076 87.7972 306.183 87.7257C306.29 87.6541 306.416 87.616 306.544 87.616C306.717 87.616 306.883 87.6845 307.005 87.8066C307.127 87.9287 307.195 88.0943 307.195 88.2669Z" fill="white"/>
<path d="M318.665 263.589H165.896V287.18H318.665V263.589Z" fill="#1C1C1C"/>
<path opacity="0.7" d="M318.665 263.589H165.896V287.18H318.665V263.589Z" fill="white"/>
<path d="M318.665 216.407H165.896V239.998H318.665V216.407Z" fill="#1C1C1C"/>
<path opacity="0.7" d="M318.665 216.407H165.896V239.998H318.665V216.407Z" fill="white"/>
<path d="M318.665 98.4432H165.896V122.034H318.665V98.4432Z" fill="#EBEBEB"/>
<path d="M190.723 114.8C190.248 115.097 189.727 115.314 189.182 115.442C187.874 115.76 186.495 115.573 185.319 114.919C184.143 114.265 183.257 113.191 182.837 111.912C182.418 110.633 182.496 109.243 183.057 108.019C183.617 106.796 184.618 105.828 185.86 105.31C187.102 104.792 188.494 104.762 189.758 105.224C191.022 105.687 192.065 106.609 192.678 107.807C193.292 109.005 193.432 110.39 193.069 111.686C192.707 112.982 191.869 114.094 190.723 114.8Z" fill="#1C1C1C"/>
<path d="M189.52 109.592C189.52 109.918 189.423 110.237 189.242 110.508C189.061 110.779 188.804 110.99 188.503 111.115C188.202 111.239 187.87 111.272 187.55 111.208C187.231 111.145 186.937 110.988 186.707 110.757C186.476 110.527 186.319 110.233 186.256 109.913C186.192 109.594 186.225 109.262 186.349 108.961C186.474 108.66 186.685 108.403 186.956 108.222C187.227 108.041 187.546 107.944 187.872 107.944C188.309 107.944 188.728 108.118 189.037 108.427C189.346 108.736 189.52 109.155 189.52 109.592Z" fill="white"/>
<path d="M190.723 114.124V114.8C190.248 115.097 189.727 115.314 189.182 115.442C188.487 115.616 187.765 115.648 187.057 115.538C186.35 115.427 185.671 115.176 185.062 114.8V114.124C185.062 113.377 185.359 112.66 185.888 112.131C186.416 111.603 187.133 111.306 187.88 111.306C188.628 111.306 189.344 111.603 189.873 112.131C190.401 112.66 190.698 113.377 190.698 114.124H190.723Z" fill="white"/>
<path d="M221.557 113.786H214.471L217.355 110.243L214.471 106.7H221.557L224.441 110.243L221.557 113.786Z" fill="white"/>
<path d="M203.347 106.7L204.492 109.032L207.071 109.402L205.209 111.223L205.646 113.786L203.347 112.575L201.039 113.786L201.484 111.223L199.614 109.402L202.193 109.032L203.347 106.7Z" fill="#1C1C1C"/>
<path d="M271.335 108.801H229.525V111.685H271.335V108.801Z" fill="#263238"/>
<path d="M304.962 108.801H288.573V111.685H304.962V108.801Z" fill="#455A64"/>
<path d="M190.723 138.432C190.248 138.729 189.727 138.946 189.182 139.075C187.874 139.393 186.495 139.206 185.319 138.551C184.143 137.897 183.257 136.823 182.837 135.544C182.418 134.265 182.496 132.875 183.057 131.652C183.617 130.428 184.618 129.461 185.86 128.943C187.102 128.425 188.494 128.394 189.758 128.857C191.022 129.319 192.065 130.242 192.678 131.439C193.292 132.637 193.432 134.022 193.069 135.318C192.707 136.615 191.869 137.726 190.723 138.432Z" fill="#455A64"/>
<path d="M189.52 133.224C189.52 133.55 189.423 133.869 189.242 134.14C189.061 134.411 188.804 134.622 188.503 134.747C188.202 134.872 187.87 134.904 187.55 134.841C187.231 134.777 186.937 134.62 186.707 134.39C186.476 134.159 186.319 133.865 186.256 133.546C186.192 133.226 186.225 132.895 186.349 132.594C186.474 132.293 186.685 132.035 186.956 131.854C187.227 131.673 187.546 131.576 187.872 131.576C188.309 131.576 188.728 131.75 189.037 132.059C189.346 132.368 189.52 132.787 189.52 133.224Z" fill="white"/>
<path d="M190.723 137.715V138.432C190.248 138.729 189.727 138.946 189.182 139.075C188.487 139.25 187.765 139.283 187.057 139.173C186.349 139.062 185.67 138.81 185.062 138.432V137.756C185.062 137.009 185.359 136.292 185.888 135.764C186.416 135.235 187.133 134.938 187.88 134.938C188.628 134.938 189.344 135.235 189.873 135.764C190.401 136.292 190.698 137.009 190.698 137.756L190.723 137.715Z" fill="white"/>
<path d="M221.557 137.377H214.471L217.355 133.834L214.471 130.291H221.557L224.441 133.834L221.557 137.377Z" fill="white"/>
<path d="M221.656 137.608H214.034L217.091 133.859L214.034 130.11H221.656L224.713 133.859L221.656 137.608ZM214.899 137.196H221.491L224.21 133.859L221.491 130.563H214.899L217.627 133.859L214.899 137.196Z" fill="#EBEBEB"/>
<path d="M203.347 130.291L204.492 132.623L207.071 132.994L205.209 134.815L205.646 137.377L203.347 136.166L201.039 137.377L201.484 134.815L199.614 132.994L202.193 132.623L203.347 130.291Z" fill="#1C1C1C"/>
<path d="M271.335 132.392H229.525V135.276H271.335V132.392Z" fill="#263238"/>
<path d="M304.962 132.392H288.573V135.276H304.962V132.392Z" fill="#455A64"/>
<path d="M294.151 145.625H165.888V169.225H294.151V145.625Z" fill="#1C1C1C"/>
<path opacity="0.7" d="M294.151 145.625H165.888V169.225H294.151V145.625Z" fill="white"/>
<path d="M197.768 155.983H165.888V158.867H197.768V155.983Z" fill="#1C1C1C"/>
<path d="M231.396 155.983H215.006V158.867H231.396V155.983Z" fill="#1C1C1C"/>
<path d="M190.723 185.573C189.761 186.167 188.635 186.442 187.507 186.357C186.379 186.272 185.307 185.832 184.444 185.1C183.582 184.369 182.973 183.383 182.705 182.284C182.437 181.185 182.524 180.03 182.954 178.983C183.383 177.937 184.132 177.053 185.095 176.459C186.057 175.864 187.183 175.59 188.311 175.675C189.439 175.76 190.511 176.199 191.373 176.931C192.236 177.663 192.845 178.648 193.113 179.747C193.381 180.846 193.294 182.002 192.864 183.048C192.435 184.095 191.685 184.979 190.723 185.573Z" fill="#A6A6A6"/>
<path d="M189.52 180.407C189.52 180.732 189.423 181.051 189.242 181.322C189.061 181.593 188.804 181.804 188.503 181.929C188.202 182.054 187.87 182.086 187.55 182.023C187.231 181.959 186.937 181.802 186.707 181.572C186.476 181.341 186.319 181.048 186.256 180.728C186.192 180.408 186.225 180.077 186.349 179.776C186.474 179.475 186.685 179.217 186.956 179.036C187.227 178.855 187.546 178.759 187.872 178.759C188.309 178.759 188.728 178.932 189.037 179.241C189.346 179.55 189.52 179.969 189.52 180.407Z" fill="white"/>
<path d="M190.723 184.906V185.573C189.877 186.1 188.901 186.379 187.905 186.379C186.909 186.379 185.932 186.1 185.087 185.573V184.906C185.087 184.158 185.384 183.441 185.912 182.913C186.441 182.384 187.157 182.088 187.905 182.088C188.652 182.088 189.369 182.384 189.898 182.913C190.426 183.441 190.723 184.158 190.723 184.906Z" fill="white"/>
<path d="M221.557 184.56H214.471L217.355 181.016L214.471 177.473H221.557L224.441 181.016L221.557 184.56Z" fill="white"/>
<path d="M221.656 184.765H214.034L217.091 181.016L214.034 177.267H221.656L224.713 181.016L221.656 184.765ZM214.899 184.353H221.491L224.21 181.057L221.491 177.72H214.899L217.627 181.057L214.899 184.353Z" fill="#EBEBEB"/>
<path d="M203.347 177.473L204.492 179.805L207.071 180.184L205.209 181.997L205.646 184.56L203.347 183.348L201.039 184.56L201.484 181.997L199.614 180.184L202.193 179.805L203.347 177.473Z" fill="#1C1C1C"/>
<path d="M271.335 179.574H229.525V182.458H271.335V179.574Z" fill="#DBDBDB"/>
<path d="M304.962 179.574H288.573V182.458H304.962V179.574Z" fill="#C7C7C7"/>
<path d="M318.665 192.816H165.896V216.407H318.665V192.816Z" fill="#EBEBEB"/>
<path d="M190.723 209.164C189.761 209.758 188.635 210.033 187.507 209.948C186.379 209.863 185.307 209.423 184.444 208.692C183.582 207.96 182.973 206.974 182.705 205.875C182.437 204.776 182.524 203.621 182.954 202.574C183.383 201.528 184.132 200.644 185.095 200.05C186.057 199.456 187.183 199.181 188.311 199.266C189.439 199.351 190.511 199.791 191.373 200.522C192.236 201.254 192.845 202.24 193.113 203.339C193.381 204.437 193.294 205.593 192.864 206.64C192.435 207.686 191.685 208.57 190.723 209.164Z" fill="#37474F"/>
<path d="M189.52 203.998C189.52 204.324 189.423 204.642 189.242 204.913C189.061 205.184 188.804 205.395 188.503 205.52C188.202 205.645 187.87 205.678 187.55 205.614C187.231 205.55 186.937 205.393 186.707 205.163C186.476 204.932 186.319 204.639 186.256 204.319C186.192 203.999 186.225 203.668 186.349 203.367C186.474 203.066 186.685 202.808 186.956 202.627C187.227 202.446 187.546 202.35 187.872 202.35C188.309 202.35 188.728 202.523 189.037 202.832C189.346 203.141 189.52 203.561 189.52 203.998Z" fill="white"/>
<path d="M190.723 208.472V209.139C189.877 209.666 188.901 209.945 187.905 209.945C186.909 209.945 185.932 209.666 185.087 209.139V208.472C185.087 207.725 185.384 207.008 185.912 206.479C186.441 205.951 187.157 205.654 187.905 205.654C188.652 205.654 189.369 205.951 189.898 206.479C190.426 207.008 190.723 207.725 190.723 208.472Z" fill="white"/>
<path d="M221.557 208.151H214.471L217.355 204.607L214.471 201.064H221.557L224.441 204.607L221.557 208.151Z" fill="white"/>
<path d="M203.347 201.064L204.492 203.396L207.071 203.775L205.209 205.588L205.646 208.151L203.347 206.939L201.039 208.151L201.484 205.588L199.614 203.775L202.193 203.396L203.347 201.064Z" fill="#1C1C1C"/>
<path d="M271.335 203.165H229.525V206.049H271.335V203.165Z" fill="#DBDBDB"/>
<path d="M304.962 203.165H288.573V206.049H304.962V203.165Z" fill="#C7C7C7"/>
<path d="M318.665 287.18H165.896V310.772H318.665V287.18Z" fill="#EBEBEB"/>
<path d="M190.723 303.537C190.248 303.834 189.727 304.051 189.182 304.18C187.874 304.497 186.495 304.311 185.319 303.656C184.143 303.002 183.257 301.928 182.837 300.649C182.418 299.37 182.496 297.98 183.057 296.757C183.617 295.533 184.618 294.566 185.86 294.048C187.102 293.529 188.494 293.499 189.758 293.962C191.022 294.424 192.065 295.347 192.678 296.544C193.292 297.742 193.432 299.127 193.069 300.423C192.707 301.719 191.869 302.831 190.723 303.537Z" fill="#37474F"/>
<path d="M189.52 298.362C189.52 298.688 189.423 299.007 189.242 299.278C189.061 299.549 188.804 299.76 188.503 299.885C188.202 300.009 187.87 300.042 187.55 299.978C187.231 299.915 186.937 299.758 186.707 299.527C186.476 299.297 186.319 299.003 186.256 298.684C186.192 298.364 186.225 298.033 186.349 297.731C186.474 297.43 186.685 297.173 186.956 296.992C187.227 296.811 187.546 296.714 187.872 296.714C188.309 296.714 188.728 296.888 189.037 297.197C189.346 297.506 189.52 297.925 189.52 298.362Z" fill="white"/>
<path d="M190.723 302.861V303.537C190.248 303.834 189.727 304.051 189.182 304.18C188.487 304.354 187.764 304.386 187.056 304.274C186.348 304.162 185.67 303.908 185.062 303.529V302.861C185.062 302.114 185.359 301.397 185.888 300.868C186.416 300.34 187.133 300.043 187.88 300.043C188.628 300.043 189.344 300.34 189.873 300.868C190.401 301.397 190.698 302.114 190.698 302.861H190.723Z" fill="white"/>
<path d="M221.557 302.523H214.471L217.355 298.98L214.471 295.437H221.557L224.441 298.98L221.557 302.523Z" fill="white"/>
<path d="M203.347 295.437L204.492 297.769L207.071 298.14L205.209 299.953L205.646 302.523L203.347 301.312L201.039 302.523L201.484 299.953L199.614 298.14L202.193 297.769L203.347 295.437Z" fill="#1C1C1C"/>
<path d="M271.335 297.538H229.525V300.422H271.335V297.538Z" fill="#DBDBDB"/>
<path d="M304.962 297.538H288.573V300.422H304.962V297.538Z" fill="#C7C7C7"/>
<path d="M318.666 334.363V345.899C318.707 348.282 318.144 350.637 317.031 352.745C315.917 354.853 314.288 356.645 312.296 357.954H172.307C170.309 356.652 168.673 354.865 167.552 352.76C166.431 350.655 165.861 348.3 165.896 345.915V334.379L318.666 334.363Z" fill="#EBEBEB"/>
<path d="M190.723 350.719C189.761 351.313 188.635 351.588 187.507 351.503C186.379 351.418 185.307 350.978 184.444 350.247C183.582 349.515 182.973 348.529 182.705 347.43C182.437 346.331 182.524 345.176 182.954 344.129C183.383 343.083 184.132 342.199 185.095 341.605C186.057 341.011 187.183 340.736 188.311 340.821C189.439 340.906 190.511 341.346 191.373 342.077C192.236 342.809 192.845 343.795 193.113 344.893C193.381 345.992 193.294 347.148 192.864 348.195C192.435 349.241 191.685 350.125 190.723 350.719Z" fill="#1C1C1C"/>
<path d="M189.52 345.553C189.52 345.879 189.423 346.197 189.242 346.468C189.061 346.739 188.804 346.95 188.503 347.075C188.202 347.2 187.87 347.233 187.55 347.169C187.231 347.105 186.937 346.948 186.707 346.718C186.476 346.487 186.319 346.194 186.256 345.874C186.192 345.555 186.225 345.223 186.349 344.922C186.474 344.621 186.685 344.363 186.956 344.182C187.227 344.001 187.546 343.905 187.872 343.905C188.309 343.905 188.728 344.078 189.037 344.387C189.346 344.696 189.52 345.116 189.52 345.553Z" fill="white"/>
<path d="M190.723 350.043V350.719C189.877 351.246 188.901 351.525 187.905 351.525C186.909 351.525 185.932 351.246 185.087 350.719V350.043C185.087 349.296 185.384 348.579 185.912 348.051C186.441 347.522 187.157 347.225 187.905 347.225C188.652 347.225 189.369 347.522 189.898 348.051C190.426 348.579 190.723 349.296 190.723 350.043Z" fill="white"/>
<path d="M221.557 349.706H214.471L217.355 346.162L214.471 342.619H221.557L224.441 346.162L221.557 349.706Z" fill="white"/>
<path d="M203.347 342.619L204.492 344.951L207.071 345.322L205.209 347.143L205.646 349.706L203.347 348.494L201.039 349.706L201.484 347.143L199.614 345.322L202.193 344.951L203.347 342.619Z" fill="#1C1C1C"/>
<path d="M271.335 344.72H229.525V347.604H271.335V344.72Z" fill="#DBDBDB"/>
<path d="M304.962 344.72H288.573V347.604H304.962V344.72Z" fill="#C7C7C7"/>
<path d="M197.768 226.757H165.888V229.641H197.768V226.757Z" fill="#1C1C1C"/>
<path d="M231.396 226.757H215.006V229.641H231.396V226.757Z" fill="#1C1C1C"/>
<path d="M318.665 239.998H165.896V263.589H318.665V239.998Z" fill="#EBEBEB"/>
<path d="M190.723 256.355C189.761 256.948 188.635 257.222 187.508 257.137C186.38 257.052 185.309 256.612 184.446 255.881C183.584 255.15 182.975 254.164 182.707 253.066C182.439 251.968 182.526 250.812 182.954 249.766C183.383 248.72 184.132 247.836 185.093 247.241C186.055 246.646 187.18 246.371 188.307 246.455C189.435 246.539 190.507 246.977 191.37 247.707C192.233 248.438 192.843 249.423 193.113 250.521C193.385 251.621 193.3 252.779 192.871 253.828C192.441 254.877 191.689 255.762 190.723 256.355Z" fill="#1C1C1C"/>
<path d="M189.52 251.18C189.52 251.506 189.423 251.824 189.242 252.095C189.061 252.366 188.804 252.578 188.503 252.702C188.202 252.827 187.87 252.86 187.55 252.796C187.231 252.733 186.937 252.576 186.707 252.345C186.476 252.115 186.319 251.821 186.256 251.501C186.192 251.182 186.225 250.85 186.349 250.549C186.474 250.248 186.685 249.991 186.956 249.81C187.227 249.629 187.546 249.532 187.872 249.532C188.309 249.532 188.728 249.705 189.037 250.015C189.346 250.324 189.52 250.743 189.52 251.18Z" fill="white"/>
<path d="M190.723 255.679V256.355C189.876 256.878 188.9 257.155 187.905 257.155C186.909 257.155 185.934 256.878 185.087 256.355V255.687C185.087 254.94 185.384 254.223 185.912 253.695C186.441 253.166 187.157 252.869 187.905 252.869C188.652 252.869 189.369 253.166 189.898 253.695C190.426 254.223 190.723 254.94 190.723 255.687V255.679Z" fill="white"/>
<path d="M221.557 255.341H214.471L217.355 251.79L214.471 248.246H221.557L224.441 251.79L221.557 255.341Z" fill="white"/>
<path d="M203.347 248.246L204.492 250.587L207.071 250.957L205.209 252.77L205.646 255.341L203.347 254.13L201.039 255.341L201.484 252.77L199.614 250.957L202.193 250.587L203.347 248.246Z" fill="#1C1C1C"/>
<path d="M271.335 250.356H229.525V253.24H271.335V250.356Z" fill="#263238"/>
<path d="M304.962 250.356H288.573V253.24H304.962V250.356Z" fill="#455A64"/>
<path d="M197.768 273.947H165.888V276.831H197.768V273.947Z" fill="#1C1C1C"/>
<path d="M231.396 273.947H215.006V276.831H231.396V273.947Z" fill="#1C1C1C"/>
<path d="M190.723 327.128C190.248 327.425 189.727 327.642 189.182 327.771C187.874 328.089 186.495 327.902 185.319 327.247C184.143 326.593 183.257 325.519 182.837 324.24C182.418 322.961 182.496 321.572 183.057 320.348C183.617 319.124 184.618 318.157 185.86 317.639C187.102 317.121 188.494 317.09 189.758 317.553C191.022 318.015 192.065 318.938 192.678 320.136C193.292 321.333 193.432 322.718 193.069 324.015C192.707 325.311 191.869 326.422 190.723 327.128Z" fill="#A6A6A6"/>
<path d="M189.52 321.961C189.52 322.287 189.423 322.606 189.242 322.877C189.061 323.148 188.804 323.359 188.503 323.484C188.202 323.609 187.87 323.641 187.55 323.578C187.231 323.514 186.937 323.357 186.707 323.127C186.476 322.896 186.319 322.603 186.256 322.283C186.192 321.963 186.225 321.632 186.349 321.331C186.474 321.03 186.685 320.772 186.956 320.591C187.227 320.41 187.546 320.313 187.872 320.313C188.309 320.313 188.728 320.487 189.037 320.796C189.346 321.105 189.52 321.524 189.52 321.961Z" fill="white"/>
<path d="M190.723 326.452V327.128C190.248 327.425 189.727 327.642 189.182 327.771C188.487 327.946 187.765 327.979 187.057 327.869C186.349 327.758 185.67 327.506 185.062 327.128V326.452C185.062 325.705 185.359 324.988 185.888 324.46C186.416 323.931 187.133 323.634 187.88 323.634C188.628 323.634 189.344 323.931 189.873 324.46C190.401 324.988 190.698 325.705 190.698 326.452H190.723Z" fill="white"/>
<path d="M221.557 326.114H214.471L217.355 322.571L214.471 319.028H221.557L224.441 322.571L221.557 326.114Z" fill="white"/>
<path d="M221.656 326.304H214.034L217.091 322.555L214.034 318.806H221.656L224.713 322.555L221.656 326.304ZM214.899 325.892H221.491L224.21 322.596L221.491 319.259H214.899L217.627 322.596L214.899 325.892Z" fill="#EBEBEB"/>
<path d="M203.347 319.028L204.492 321.36L207.071 321.731L205.209 323.552L205.646 326.114L203.347 324.903L201.039 326.114L201.484 323.552L199.614 321.731L202.193 321.36L203.347 319.028Z" fill="white"/>
<path d="M205.918 326.493L203.347 325.134L200.768 326.493L201.262 323.618L199.177 321.591L202.053 321.17L203.347 318.558L204.632 321.17L207.516 321.591L205.431 323.618L205.918 326.493ZM200.059 321.879L201.707 323.478L201.32 325.735L203.355 324.672L205.382 325.735L204.995 323.478L206.643 321.879L204.377 321.549L203.363 319.489L202.35 321.549L200.059 321.879Z" fill="#EBEBEB"/>
<path d="M271.335 321.129H229.525V324.013H271.335V321.129Z" fill="#DBDBDB"/>
<path d="M304.962 321.129H288.573V324.013H304.962V321.129Z" fill="#C7C7C7"/>
<path opacity="0.3" d="M269.621 145.625H245.099V169.217H269.621V145.625Z" fill="#1C1C1C"/>
<path d="M257.36 153.14C256.511 153.14 255.681 153.392 254.975 153.864C254.269 154.336 253.719 155.006 253.394 155.791C253.069 156.575 252.984 157.438 253.149 158.271C253.315 159.104 253.724 159.869 254.324 160.469C254.925 161.069 255.69 161.478 256.522 161.644C257.355 161.81 258.218 161.725 259.003 161.4C259.787 161.075 260.458 160.524 260.929 159.819C261.401 159.113 261.653 158.283 261.653 157.433C261.654 156.869 261.544 156.311 261.328 155.789C261.113 155.268 260.797 154.794 260.398 154.395C259.999 153.996 259.525 153.68 259.004 153.465C258.483 153.25 257.924 153.139 257.36 153.14ZM255.358 157.862C255.244 157.862 255.135 157.817 255.055 157.736C254.974 157.656 254.929 157.547 254.929 157.433C254.911 157.37 254.908 157.303 254.92 157.237C254.932 157.172 254.959 157.111 254.999 157.058C255.039 157.005 255.091 156.962 255.15 156.932C255.209 156.903 255.275 156.887 255.341 156.887C255.407 156.887 255.473 156.903 255.532 156.932C255.592 156.962 255.643 157.005 255.683 157.058C255.723 157.111 255.75 157.172 255.762 157.237C255.775 157.303 255.771 157.37 255.753 157.433C255.753 157.542 255.713 157.646 255.639 157.725C255.566 157.805 255.465 157.854 255.358 157.862ZM257.36 157.862C257.247 157.86 257.139 157.814 257.059 157.734C256.979 157.654 256.934 157.546 256.931 157.433C256.931 157.32 256.977 157.211 257.057 157.13C257.137 157.05 257.246 157.005 257.36 157.005C257.474 157.005 257.583 157.05 257.663 157.13C257.743 157.211 257.788 157.32 257.788 157.433C257.788 157.49 257.777 157.545 257.756 157.597C257.734 157.649 257.703 157.697 257.663 157.736C257.623 157.776 257.576 157.808 257.524 157.829C257.472 157.851 257.416 157.862 257.36 157.862ZM259.37 157.862C259.257 157.862 259.148 157.817 259.068 157.736C258.987 157.656 258.942 157.547 258.942 157.433C258.924 157.37 258.921 157.303 258.933 157.237C258.945 157.172 258.972 157.111 259.012 157.058C259.052 157.005 259.104 156.962 259.163 156.932C259.222 156.903 259.288 156.887 259.354 156.887C259.42 156.887 259.486 156.903 259.545 156.932C259.604 156.962 259.656 157.005 259.696 157.058C259.736 157.111 259.763 157.172 259.775 157.237C259.787 157.303 259.784 157.37 259.766 157.433C259.766 157.542 259.726 157.646 259.652 157.725C259.579 157.805 259.478 157.854 259.37 157.862Z" fill="white"/>
<path opacity="0.1" d="M294.143 145.625H269.621V169.217H294.143V145.625Z" fill="#1C1C1C"/>
<path d="M278.545 153.132H278.042V161.71H278.545V153.132Z" fill="white"/>
<path d="M278.298 153.528C280.935 152.827 283.58 154.228 286.225 153.528V159.37C283.58 160.07 280.935 158.669 278.298 159.37V153.528Z" fill="white"/>
<path d="M318.665 145.625H294.143V169.217H318.665V145.625Z" fill="#1C1C1C"/>
<path d="M309.165 161.817H303.718L303.389 154.582H309.42L309.165 161.817Z" fill="white"/>
<path d="M310.203 154.063H302.622V154.591H310.203V154.063Z" fill="white"/>
<path d="M307.764 154.319H307.368V153.429H305.449V154.319H305.053V153.033H307.764V154.319Z" fill="white"/>
<path d="M306.602 155.283H306.207V160.944H306.602V155.283Z" fill="#1C1C1C"/>
<path d="M305.125 155.25L304.729 155.267L304.969 160.931L305.364 160.914L305.125 155.25Z" fill="#1C1C1C"/>
<path d="M307.684 155.261L307.441 160.925L307.836 160.942L308.079 155.278L307.684 155.261Z" fill="#1C1C1C"/>
<path opacity="0.3" d="M269.621 216.407H245.099V239.998H269.621V216.407Z" fill="#1C1C1C"/>
<path d="M257.36 223.914C256.511 223.914 255.681 224.165 254.975 224.637C254.269 225.109 253.719 225.779 253.394 226.564C253.069 227.348 252.984 228.212 253.149 229.044C253.315 229.877 253.724 230.642 254.324 231.242C254.925 231.843 255.69 232.252 256.522 232.417C257.355 232.583 258.218 232.498 259.003 232.173C259.787 231.848 260.458 231.298 260.929 230.592C261.401 229.886 261.653 229.056 261.653 228.207C261.654 227.643 261.544 227.084 261.328 226.563C261.113 226.041 260.797 225.568 260.398 225.169C259.999 224.77 259.525 224.454 259.004 224.238C258.483 224.023 257.924 223.913 257.36 223.914ZM255.358 228.635C255.244 228.635 255.135 228.59 255.055 228.51C254.974 228.429 254.929 228.32 254.929 228.207C254.911 228.143 254.908 228.076 254.92 228.011C254.932 227.945 254.959 227.884 254.999 227.831C255.039 227.778 255.091 227.735 255.15 227.706C255.209 227.676 255.275 227.661 255.341 227.661C255.407 227.661 255.473 227.676 255.532 227.706C255.592 227.735 255.643 227.778 255.683 227.831C255.723 227.884 255.75 227.945 255.762 228.011C255.775 228.076 255.771 228.143 255.753 228.207C255.753 228.315 255.713 228.419 255.639 228.499C255.566 228.578 255.465 228.627 255.358 228.635ZM257.36 228.635C257.247 228.633 257.139 228.587 257.059 228.507C256.979 228.427 256.934 228.32 256.931 228.207C256.931 228.093 256.977 227.984 257.057 227.904C257.137 227.823 257.246 227.778 257.36 227.778C257.474 227.778 257.583 227.823 257.663 227.904C257.743 227.984 257.788 228.093 257.788 228.207C257.788 228.32 257.743 228.429 257.663 228.51C257.583 228.59 257.474 228.635 257.36 228.635ZM259.37 228.635C259.257 228.635 259.148 228.59 259.068 228.51C258.987 228.429 258.942 228.32 258.942 228.207C258.924 228.143 258.921 228.076 258.933 228.011C258.945 227.945 258.972 227.884 259.012 227.831C259.052 227.778 259.104 227.735 259.163 227.706C259.222 227.676 259.288 227.661 259.354 227.661C259.42 227.661 259.486 227.676 259.545 227.706C259.604 227.735 259.656 227.778 259.696 227.831C259.736 227.884 259.763 227.945 259.775 228.011C259.787 228.076 259.784 228.143 259.766 228.207C259.766 228.315 259.726 228.419 259.652 228.499C259.579 228.578 259.478 228.627 259.37 228.635Z" fill="white"/>
<path opacity="0.1" d="M294.143 216.407H269.621V239.998H294.143V216.407Z" fill="#1C1C1C"/>
<path d="M278.545 223.914H278.042V232.492H278.545V223.914Z" fill="white"/>
<path d="M278.298 224.309C280.935 223.601 283.58 225.01 286.225 224.309V230.143C283.58 230.844 280.935 229.443 278.298 230.143V224.309Z" fill="white"/>
<path d="M318.665 216.407H294.143V239.998H318.665V216.407Z" fill="#1C1C1C"/>
<path d="M309.165 232.599H303.718L303.389 225.364H309.42L309.165 232.599Z" fill="white"/>
<path d="M310.203 224.837H302.622V225.364H310.203V224.837Z" fill="white"/>
<path d="M307.764 225.1H307.368V224.202H305.449V225.1H305.053V223.807H307.764V225.1Z" fill="white"/>
<path d="M306.602 226.056H306.207V231.717H306.602V226.056Z" fill="#1C1C1C"/>
<path d="M305.13 226.027L304.735 226.043L304.974 231.707L305.369 231.691L305.13 226.027Z" fill="#1C1C1C"/>
<path d="M307.69 226.039L307.448 231.703L307.843 231.719L308.085 226.055L307.69 226.039Z" fill="#1C1C1C"/>
<path opacity="0.3" d="M269.621 263.589H245.099V287.18H269.621V263.589Z" fill="#1C1C1C"/>
<path d="M257.36 271.096C256.511 271.096 255.681 271.348 254.975 271.819C254.269 272.291 253.719 272.962 253.394 273.746C253.069 274.531 252.984 275.394 253.149 276.227C253.315 277.059 253.724 277.824 254.324 278.425C254.925 279.025 255.69 279.434 256.522 279.6C257.355 279.765 258.218 279.68 259.003 279.355C259.787 279.03 260.458 278.48 260.929 277.774C261.401 277.068 261.653 276.238 261.653 275.389C261.654 274.825 261.544 274.266 261.328 273.745C261.113 273.223 260.797 272.75 260.398 272.351C259.999 271.952 259.525 271.636 259.004 271.421C258.483 271.205 257.924 271.095 257.36 271.096ZM255.358 275.817C255.244 275.817 255.135 275.772 255.055 275.692C254.974 275.612 254.929 275.503 254.929 275.389C254.911 275.325 254.908 275.258 254.92 275.193C254.932 275.128 254.959 275.066 254.999 275.013C255.039 274.96 255.091 274.917 255.15 274.888C255.209 274.858 255.275 274.843 255.341 274.843C255.407 274.843 255.473 274.858 255.532 274.888C255.592 274.917 255.643 274.96 255.683 275.013C255.723 275.066 255.75 275.128 255.762 275.193C255.775 275.258 255.771 275.325 255.753 275.389C255.753 275.497 255.713 275.601 255.639 275.681C255.566 275.76 255.465 275.809 255.358 275.817ZM257.36 275.817C257.247 275.815 257.139 275.77 257.059 275.69C256.979 275.61 256.934 275.502 256.931 275.389C256.931 275.275 256.977 275.166 257.057 275.086C257.137 275.006 257.246 274.961 257.36 274.961C257.474 274.961 257.583 275.006 257.663 275.086C257.743 275.166 257.788 275.275 257.788 275.389C257.788 275.503 257.743 275.612 257.663 275.692C257.583 275.772 257.474 275.817 257.36 275.817ZM259.37 275.817C259.257 275.817 259.148 275.772 259.068 275.692C258.987 275.612 258.942 275.503 258.942 275.389C258.924 275.325 258.921 275.258 258.933 275.193C258.945 275.128 258.972 275.066 259.012 275.013C259.052 274.96 259.104 274.917 259.163 274.888C259.222 274.858 259.288 274.843 259.354 274.843C259.42 274.843 259.486 274.858 259.545 274.888C259.604 274.917 259.656 274.96 259.696 275.013C259.736 275.066 259.763 275.128 259.775 275.193C259.787 275.258 259.784 275.325 259.766 275.389C259.766 275.497 259.726 275.601 259.652 275.681C259.579 275.76 259.478 275.809 259.37 275.817Z" fill="white"/>
<path opacity="0.1" d="M294.143 263.589H269.621V287.18H294.143V263.589Z" fill="#1C1C1C"/>
<path d="M278.545 271.096H278.042V279.674H278.545V271.096Z" fill="white"/>
<path d="M278.298 271.491C280.935 270.791 283.58 272.192 286.225 271.491V277.325C283.58 278.026 280.935 276.625 278.298 277.325V271.491Z" fill="white"/>
<path d="M318.665 263.589H294.143V287.18H318.665V263.589Z" fill="#1C1C1C"/>
<path d="M309.165 279.781H303.718L303.389 272.546H309.42L309.165 279.781Z" fill="white"/>
<path d="M310.203 272.019H302.622V272.546H310.203V272.019Z" fill="white"/>
<path d="M307.764 272.283H307.368V271.384H305.449V272.283H305.053V270.989H307.764V272.283Z" fill="white"/>
<path d="M306.602 273.247H306.207V278.907H306.602V273.247Z" fill="#1C1C1C"/>
<path d="M305.136 273.208L304.741 273.225L304.981 278.889L305.376 278.872L305.136 273.208Z" fill="#1C1C1C"/>
<path d="M307.674 273.212L307.431 278.876L307.826 278.893L308.07 273.229L307.674 273.212Z" fill="#1C1C1C"/>
<path d="M72.9899 215.822C75.908 219.392 79.2257 222.616 82.8779 225.43C78.9804 213.614 85.1192 190.212 85.1357 193.747C85.2098 210.639 91.4557 230.506 95.1143 232.22C95.1143 232.22 95.1143 232.22 95.1802 232.22C105.225 235.845 115.228 235.12 124.02 232.467C124.02 232.467 124.02 232.467 124.02 232.409C118.639 218.83 124.251 194.901 124.465 196.483C126.879 213.424 136.982 225.24 139.083 225.677C148.493 219.95 154.245 213.441 153.297 212.444C146.441 205.193 142.684 189.553 139.783 173.254C136.899 157.186 136.891 142.503 131.181 127.465C125.94 113.704 110.704 107.961 100.446 112.146C73.4925 123.155 68.8617 210.82 72.9899 215.822Z" fill="#263238"/>
<path d="M102.234 111.553C99.9946 112.138 97.9087 113.2 96.1196 114.668C94.2982 116.094 92.6102 117.682 91.0767 119.414C88.0961 122.947 85.4996 126.786 83.3311 130.868C78.8568 138.968 75.9151 147.826 73.7645 156.774C71.7482 165.768 70.5022 174.917 70.04 184.123C69.8917 186.422 69.8752 188.721 69.7928 191.02L69.7516 197.917L69.9823 204.797L70.4108 211.669V204.789L70.5344 197.917L70.7898 191.053C70.9464 188.77 71.0288 186.479 71.243 184.205C71.8889 175.086 73.2388 166.031 75.2806 157.12C77.2213 148.202 80.2661 139.56 84.3446 131.395C86.3781 127.312 88.8215 123.447 91.637 119.859C93.0627 118.07 94.6486 116.415 96.375 114.915C97.2485 114.184 98.1738 113.518 99.1437 112.921C100.1 112.314 101.141 111.853 102.234 111.553Z" fill="#263238"/>
<path d="M154.764 210.252C152.982 206.701 151.382 203.063 149.968 199.35C148.501 195.659 147.175 191.934 146.029 188.127C144.884 184.321 143.854 180.514 143.063 176.649C142.272 172.785 141.613 168.838 140.888 164.932C139.347 157.12 137.814 149.276 135.82 141.571C134.798 137.715 133.711 133.875 132.367 130.11C131.69 128.227 130.909 126.384 130.027 124.589C129.217 122.754 128.036 121.107 126.558 119.752C127.901 121.209 128.953 122.909 129.656 124.762C130.423 126.587 131.091 128.452 131.659 130.349C132.845 134.131 133.801 137.987 134.675 141.885C136.422 149.63 137.971 157.425 139.38 165.245C140.154 169.151 140.855 173.048 141.703 176.971C142.548 180.875 143.618 184.726 144.909 188.507C147.426 196.079 150.729 203.367 154.764 210.252Z" fill="#263238"/>
<path d="M172.916 369.589H108.447C107.897 367.441 107.348 365.288 106.799 363.129C106.442 361.711 106.082 360.297 105.719 358.885C105.719 358.794 105.678 358.712 105.653 358.621L104.244 353.084C104.195 352.903 104.145 352.721 104.104 352.54C103.75 351.131 103.387 349.722 103.041 348.33C102.14 344.83 101.256 341.367 100.388 337.939C100.058 336.637 99.7287 335.327 99.3909 334.041C99.382 333.98 99.3682 333.919 99.3497 333.86C99.1437 333.036 98.9294 332.212 98.7234 331.388C97.3803 326.131 96.0866 321.03 94.8506 316.152C94.7023 315.576 94.554 315.024 94.4057 314.463C93.318 310.17 92.2798 306.083 91.2992 302.243L90.8872 300.595C90.6482 299.648 90.4175 298.725 90.1786 297.818C89.9643 296.994 89.7583 296.187 89.5606 295.396C88.9673 293.064 88.3987 290.872 87.9126 288.804C87.8302 288.466 87.7395 288.145 87.6654 287.823C86.9238 284.947 86.2728 282.368 85.7042 280.144C85.5971 279.748 85.5065 279.369 85.4076 278.998C85.2016 278.174 85.0038 277.416 84.8308 276.716C84.7401 276.361 84.6577 276.024 84.5671 275.702L83.3558 270.948H144.777C144.777 270.948 159.436 321.475 172.916 369.589Z" fill="#37474F"/>
<path d="M118.656 369.589H116.843C115.745 365.266 114.668 360.942 113.613 356.619L112.377 351.675C111.454 347.945 110.526 344.204 109.592 340.452C109.592 340.287 109.518 340.114 109.477 339.949C105.06 322.06 100.726 304.13 96.8035 286.126C96.7541 285.912 96.7047 285.697 96.6635 285.483C96.6635 285.459 96.673 285.436 96.69 285.419C96.707 285.402 96.7301 285.392 96.7541 285.392C96.7781 285.392 96.8012 285.402 96.8182 285.419C96.8352 285.436 96.8447 285.459 96.8447 285.483L96.9024 285.697C101.846 303.339 106.469 321.129 110.91 338.911C111.001 339.216 111.075 339.529 111.149 339.834C111.52 341.301 111.883 342.751 112.254 344.21C112.764 346.278 113.292 348.33 113.811 350.414C115.448 356.792 117.063 363.184 118.656 369.589Z" fill="#263238"/>
<path d="M142.783 270.981L134.057 314.653L133.661 316.606L133.043 319.712L132.054 324.656L131.14 329.262V329.468L130.967 330.292L123.147 369.482H108.447C107.897 367.334 107.348 365.18 106.799 363.021C106.442 361.604 106.082 360.19 105.719 358.778C105.719 358.687 105.678 358.605 105.653 358.514C105.175 356.668 104.714 354.823 104.244 352.977C104.195 352.796 104.145 352.614 104.104 352.433C103.75 351.024 103.387 349.615 103.041 348.222C102.14 344.723 101.256 341.26 100.388 337.832C100.058 336.53 99.7287 335.22 99.3909 333.934C99.382 333.873 99.3682 333.812 99.3497 333.753C99.1437 332.929 98.9294 332.105 98.7234 331.281C97.3803 326.024 96.0866 320.923 94.8506 316.045L94.4057 314.356C93.318 310.063 92.2798 305.976 91.2992 302.136C91.1591 301.584 91.0273 301.04 90.8872 300.488C90.6482 299.541 90.4175 298.618 90.1786 297.711C89.9643 296.887 89.7583 296.08 89.5606 295.289C88.9673 292.957 88.3987 290.765 87.9126 288.697C87.8302 288.359 87.7395 288.037 87.6654 287.716C86.9238 284.84 86.2728 282.261 85.7042 280.036C85.5971 279.641 85.5065 279.262 85.4076 278.891C85.2016 278.067 85.0038 277.309 84.8308 276.609C84.7401 276.254 84.6577 275.916 84.5671 275.595L83.3558 270.841L142.783 270.981Z" fill="#263238"/>
<path d="M142.791 270.956C142.791 271.302 142.535 274.944 141.967 280.506C140.794 292.206 138.867 303.819 136.199 315.271C135.523 318.064 134.782 320.824 133.974 323.511C133.43 325.373 132.837 327.219 132.203 328.966L132.153 329.122L131.082 329.526C125.288 331.918 119.688 334.753 114.33 338.005C114.33 338.005 114.33 338.128 114.33 338.351C114.289 339.57 114.116 343.946 113.869 350.357C113.786 352.268 113.712 354.361 113.621 356.602C113.473 360.516 113.3 364.9 113.127 369.572H51.3928C52.2168 359.198 52.9914 348.667 53.7824 338.458C53.7824 338.458 48.0144 322.299 48.6407 314.134C50.198 294.358 59.0643 270.964 59.0643 270.964L142.791 270.956Z" fill="#37474F"/>
<path d="M121.729 314.372L121.804 309.428C121.853 306.413 122.059 303.397 122.174 300.364C122.438 293.533 122.743 286.678 123.32 279.863C123.32 279.699 123.608 279.699 123.616 279.863C123.715 282.574 123.773 285.277 123.765 287.988C123.757 290.699 123.847 293.41 123.839 296.113C123.839 301.485 123.839 306.825 123.616 312.23C123.542 314.298 122.792 318.097 125.775 318.328C128.148 318.509 129.525 316.012 129.945 314.026C130.334 311.549 130.521 309.044 130.505 306.536C130.609 303.79 130.667 301.062 130.678 298.354C130.678 292.413 130.818 286.488 130.975 280.556C130.975 280.382 131.247 280.399 131.271 280.556C131.954 286.54 132.336 292.554 132.417 298.576C132.417 301.46 132.417 304.344 132.293 307.237C132.203 309.931 132.252 312.807 131.42 315.402C130.769 317.438 129.294 319.391 127.135 319.926C127.091 319.922 127.047 319.922 127.003 319.926C127.032 319.942 127.057 319.964 127.076 319.991C127.094 320.019 127.106 320.05 127.11 320.083C127.201 321.03 127.357 321.978 127.382 322.934C127.407 323.89 127.382 324.837 127.3 325.777C127.259 326.743 127.143 327.704 126.954 328.652C126.87 329.107 126.757 329.556 126.616 329.996C126.467 330.457 126.22 330.819 126.031 331.273C126.015 331.307 125.988 331.336 125.954 331.354C125.92 331.371 125.881 331.377 125.844 331.371C125.806 331.364 125.772 331.345 125.746 331.317C125.72 331.289 125.704 331.253 125.701 331.215C125.701 331.058 125.701 330.902 125.652 330.754C125.656 330.726 125.656 330.698 125.652 330.671C125.616 330.398 125.597 330.123 125.594 329.847C125.594 329.386 125.643 328.924 125.676 328.463C125.751 327.54 125.874 326.609 125.998 325.694C126.121 324.78 126.187 323.848 126.294 322.926C126.402 322.003 126.583 321.039 126.665 320.083C126.674 320.047 126.695 320.015 126.723 319.992C125.872 320.151 124.994 320.045 124.205 319.688C123.417 319.332 122.757 318.742 122.315 317.998C121.813 316.859 121.612 315.611 121.729 314.372Z" fill="#263238"/>
<path d="M109.081 340.254C111.019 338.772 113.059 337.428 115.187 336.233C117.426 334.878 119.752 333.672 122.15 332.624C126.847 330.589 131.692 329.196 136.537 327.59C136.677 327.54 136.776 327.787 136.636 327.837C131.939 329.707 127.44 332.187 122.908 334.429C120.675 335.525 118.417 336.563 116.143 337.568C113.869 338.573 111.594 339.744 109.262 340.6C109.081 340.642 108.941 340.37 109.081 340.254Z" fill="#263238"/>
<path d="M72.4378 299.326C75.7338 299.326 85.4982 299.45 90.5658 294.704C92.7082 292.693 93.8618 289.76 94.7929 287.082C95.855 284.058 96.7139 280.966 97.3638 277.828C97.3638 277.672 97.6192 277.729 97.6275 277.869C97.7013 281.428 97.2431 284.977 96.2679 288.4C95.4439 291.292 94.3974 294.531 92.0572 296.566C89.7171 298.601 86.2398 299.458 83.0839 299.862C79.541 300.274 75.9596 300.224 72.4296 299.714C72.3782 299.713 72.3294 299.691 72.2938 299.654C72.2583 299.617 72.2389 299.567 72.24 299.516C72.2411 299.464 72.2626 299.416 72.2997 299.38C72.3367 299.345 72.3864 299.325 72.4378 299.326Z" fill="#263238"/>
<path d="M151.55 298.873C150.067 298.972 145.675 299.433 143.046 294.885C141.934 292.948 141.201 290.064 140.574 287.428C139.858 284.445 139.264 281.396 138.72 278.281C138.72 278.133 138.597 278.191 138.605 278.331C138.836 281.838 139.301 285.326 139.998 288.771C140.574 291.63 141.308 294.819 142.511 296.772C142.961 297.553 143.58 298.225 144.323 298.737C145.066 299.248 145.913 299.588 146.804 299.73C148.415 300.026 150.077 299.852 151.591 299.227C151.682 299.186 151.657 298.865 151.55 298.873Z" fill="#263238"/>
<path d="M67.98 276.172C67.8976 276.477 59.8636 306.759 60.2344 314.076C60.6052 321.393 64.8982 336.2 64.9147 336.324C64.9312 336.447 64.1484 349.417 62.9865 369.564H61.4209L63.3408 336.505C63.1596 335.409 59.0231 321.344 58.6605 314.175C58.265 306.577 66.0765 276.996 66.4473 275.743C66.5387 275.589 66.6778 275.469 66.8436 275.401C67.0094 275.333 67.1928 275.321 67.366 275.367C67.5393 275.412 67.693 275.513 67.8037 275.654C67.9145 275.795 67.9764 275.968 67.98 276.147V276.172Z" fill="#263238"/>
<path d="M122.718 183.249C154.385 211.158 183.801 241.753 186.249 257.55C189.644 279.386 176.262 285.607 170.238 285.73C153.824 286.076 123.27 219.901 112.608 194.621C102.267 170.082 115.764 177.16 122.718 183.249Z" fill="#1C1C1C"/>
<path d="M144.406 270.956L139.989 243.204C139.989 243.204 150.982 231.832 145.296 219.917C142.428 213.878 122.908 184.485 112.484 177.069C102.703 170.131 91.1097 175.891 86.7672 183.398C75.808 202.342 65.4009 224.128 59.0643 270.981L144.406 270.956Z" fill="#1C1C1C"/>
<path d="M126.97 239.619C122.521 240.101 118.114 240.913 113.786 242.05C111.644 242.643 109.551 243.335 107.458 244.069C106.42 244.431 105.365 244.761 104.31 245.091C103.217 245.462 102.082 245.7 100.932 245.799C100.915 245.805 100.901 245.815 100.891 245.829C100.881 245.843 100.875 245.86 100.875 245.877C100.875 245.895 100.881 245.912 100.891 245.926C100.901 245.94 100.915 245.95 100.932 245.956C102.032 245.99 103.133 245.949 104.228 245.832C105.277 245.686 106.315 245.468 107.334 245.181C109.51 244.596 111.652 243.92 113.827 243.319C118.195 242.099 122.57 240.847 127.011 239.982C127.242 239.941 127.176 239.594 126.97 239.619Z" fill="#263238"/>
<path d="M138.028 243.335C134.362 243.025 130.681 242.921 127.003 243.022C125.157 243.08 123.336 243.245 121.507 243.459C120.634 243.566 119.76 243.682 118.887 243.813C118.013 243.945 116.992 244.225 116.036 244.349C115.937 244.349 115.937 244.522 116.036 244.506C116.942 244.415 117.865 244.506 118.78 244.431L121.524 244.308C123.361 244.225 125.199 244.159 127.028 244.061C130.703 243.863 134.353 243.706 138.028 243.64C138.063 243.632 138.093 243.613 138.115 243.585C138.137 243.558 138.149 243.523 138.149 243.488C138.149 243.453 138.137 243.418 138.115 243.391C138.093 243.363 138.063 243.344 138.028 243.335Z" fill="#263238"/>
<path d="M85.696 180.53C56.1803 203.685 27.192 243.706 26.9943 266.086C26.78 288.178 34.4762 286.035 36.6598 285.862C50.0086 284.989 81.4442 223.494 91.0438 198.427C100.528 173.576 92.9472 174.803 85.696 180.53Z" fill="#1C1C1C"/>
<path d="M54.384 268.624C55.9332 265.839 57.5235 263.087 59.0232 260.285L63.6211 251.922C66.6534 246.335 69.7352 240.773 72.6851 235.137C75.635 229.501 78.6756 223.93 81.576 218.278C83.0428 215.46 84.471 212.622 85.8608 209.766C87.3028 206.931 88.613 204.039 89.9808 201.147C87.8772 207.164 85.4399 213.059 82.6802 218.805C79.9775 224.573 77.0358 230.234 74.0859 235.878C71.136 241.523 67.9471 247.044 64.6923 252.515C61.4375 257.986 58.0591 263.416 54.384 268.624Z" fill="#263238"/>
<path d="M86.8414 208.554C87.3864 207.553 87.9947 206.587 88.6625 205.662C88.9921 205.209 89.3052 204.748 89.6595 204.311C90.0138 203.874 90.3434 203.404 90.739 202.968C90.4746 204.102 89.981 205.171 89.2887 206.107C88.6302 207.066 87.8006 207.896 86.8414 208.554Z" fill="#263238"/>
<path d="M177.012 225.207C175.463 214.833 172.364 200.372 168.623 197.381C164.685 194.241 150.421 183.744 146.318 182.376C142.214 181.008 123.921 174.276 120.592 176.245C117.931 177.827 121.186 184.84 129.895 188.119C137.542 191.003 141.497 193.722 143.689 194.645C145.881 195.568 151.344 202.712 149.919 205.918C149.095 207.805 143.648 210.038 140.237 208.563C136.825 207.088 135.911 200.323 131.997 197.224C128.083 194.126 121.243 194.563 120.864 196.4C120.485 198.238 122.76 199.087 126.327 205.333C128.626 209.345 128.882 219.036 134.065 225.933C136.669 229.393 141.25 238.639 141.25 238.639L177.012 225.207Z" fill="#C95F50"/>
<path d="M128.338 194.406C127.086 194.233 125.907 193.714 124.935 192.907C124.627 192.628 124.39 192.278 124.247 191.888C124.103 191.497 124.057 191.078 124.111 190.665C124.117 190.361 124.231 190.069 124.432 189.841C124.498 189.792 124.432 189.71 124.366 189.776C124.272 189.923 124.167 190.063 124.053 190.196C123.977 190.318 123.914 190.448 123.864 190.583C123.77 190.847 123.726 191.127 123.732 191.407C123.758 192.043 124.003 192.652 124.424 193.129C124.926 193.644 125.541 194.035 126.221 194.271C126.9 194.507 127.625 194.582 128.338 194.489C128.396 194.505 128.396 194.415 128.338 194.406Z" fill="#263238"/>
<path d="M168.623 197.381C165.262 192.231 156.717 182.977 148.312 179.854C142.634 177.737 123.262 187.427 123.872 191.143C124.482 194.86 127.802 194.835 132.722 194.192C134.51 193.961 143.961 190.459 145.601 192.429C147.958 195.263 151.015 205.011 151.015 205.011L168.623 197.381Z" fill="#C95F50"/>
<path d="M124.342 189.685C126.706 185.672 131.964 183.488 137.212 181.758C137.225 181.763 137.236 181.771 137.244 181.782C137.251 181.793 137.255 181.806 137.255 181.82C137.255 181.833 137.251 181.846 137.244 181.857C137.236 181.868 137.225 181.877 137.212 181.882C135.878 182.326 127.324 186.356 124.358 189.742C124.366 189.784 124.317 189.718 124.342 189.685Z" fill="#263238"/>
<path d="M168.623 197.381C165.261 192.231 156.717 182.977 148.312 179.854C142.634 177.737 127.357 190.031 127.967 193.747C128.577 197.463 133.356 197.711 138.613 195.815C140.311 195.206 146.029 191.119 147.628 193.088C149.984 195.922 155.728 202.976 155.728 202.976L168.623 197.381Z" fill="#C95F50"/>
<path d="M152.44 198.584C151.896 197.76 151.715 197.488 151.163 196.689C150.611 195.89 150.042 195.09 149.441 194.34C148.961 193.632 148.362 193.013 147.669 192.511C146.956 192.119 146.135 191.968 145.329 192.083C143.5 192.272 141.86 193.451 140.319 194.357C138.597 195.37 135.012 197.018 132.26 196.755C131.501 196.724 130.757 196.533 130.077 196.194C129.562 195.964 129.112 195.61 128.767 195.164C127.547 193.154 129.014 190.822 130.522 189.166C133.34 186.084 137.114 183.834 140.83 181.972C141.736 181.519 142.651 181.082 143.574 180.654C144.589 180.093 145.713 179.755 146.87 179.665C148.782 179.624 151.937 181.535 152.918 182.137C152.992 182.178 153.05 182.055 152.976 182.013C151.789 181.288 148.856 178.932 145.766 179.121C144.639 179.302 143.554 179.682 142.56 180.242C141.489 180.711 140.434 181.222 139.388 181.758C137.351 182.789 135.395 183.973 133.538 185.301C131.684 186.535 130.07 188.096 128.775 189.907C128.234 190.715 127.922 191.654 127.873 192.625C127.823 193.596 128.038 194.562 128.495 195.42C129.319 196.812 131.156 197.134 131.988 197.224C132.795 197.332 133.612 197.332 134.419 197.224C136.216 196.798 137.981 196.248 139.701 195.576C141.349 194.893 142.865 193.747 144.579 193.212C145.389 192.933 146.276 192.98 147.051 193.343C147.758 193.81 148.391 194.379 148.93 195.033C150.097 196.153 151.157 197.381 152.094 198.699C152.382 199.062 152.638 198.947 152.44 198.584Z" fill="#263238"/>
<path d="M171.12 201.88C169.876 199.408 167.725 189.281 165.731 186.183C163.737 183.085 154.665 172.397 150.487 172.908C145.238 173.551 150.817 182.969 153.61 186.842C156.403 190.715 156.008 197.348 156.008 197.348L171.12 201.88Z" fill="#C95F50"/>
<path d="M149.704 180.456C150.693 181.676 151.575 183.035 152.44 184.354C153.328 185.577 154.126 186.863 154.83 188.202C155.419 189.573 155.781 191.031 155.901 192.519C155.975 193.253 156.008 193.978 156.024 194.711C156.041 195.445 155.967 196.359 156.024 197.126C156.024 197.208 155.893 197.224 155.893 197.126C155.777 195.664 155.57 194.211 155.275 192.775C155.001 191.282 154.544 189.829 153.915 188.449C152.654 185.705 150.833 183.274 149.548 180.547C149.474 180.398 149.63 180.324 149.704 180.456Z" fill="#263238"/>
<path d="M155.95 198.46C156.313 200.982 155.588 203.536 154.681 205.876C154.217 207.058 153.667 208.204 153.033 209.304C152.389 210.392 151.673 211.435 150.891 212.427C149.385 214.319 148.122 216.392 147.133 218.599C146.199 220.868 145.546 223.242 145.189 225.669C144.978 223.148 145.258 220.61 146.013 218.195C146.833 215.78 148.056 213.52 149.63 211.513C151.128 209.601 152.426 207.542 153.503 205.366C154.582 203.165 155.67 200.941 155.95 198.46Z" fill="#263238"/>
<path d="M168.714 284.972C158.463 283.588 151.764 266.449 140.064 236.356C138.004 231.066 164.784 198.543 168.426 203.396C173.015 209.51 185.375 243.55 186.669 252.836C189.232 271.096 180.678 286.587 168.714 284.972Z" fill="#C95F50"/>
<path d="M146.235 253.133L179.27 221.038C179.27 221.038 188.655 248.659 187.773 260.236C186.892 271.813 182.829 285.005 168.92 285.73C158.488 286.274 146.235 253.133 146.235 253.133Z" fill="#1C1C1C"/>
<path d="M156.923 275.348C155.728 273.659 154.665 271.887 153.627 270.107C152.588 268.327 151.633 266.506 150.701 264.669C149.77 262.831 148.913 260.944 148.155 259.024C147.343 257.121 146.701 255.149 146.235 253.133C147.109 255.003 148.032 256.833 148.963 258.662L151.74 264.15C152.638 265.995 153.552 267.833 154.409 269.695C155.266 271.557 156.148 273.428 156.923 275.348Z" fill="#263238"/>
<path d="M153.355 258.736C154.953 256.973 156.717 255.341 158.414 253.685C160.111 252.029 161.842 250.389 163.589 248.741C167.066 245.494 170.573 242.275 174.111 239.084C175.083 238.21 176.059 237.345 177.036 236.488C178.091 235.573 179.261 234.791 180.332 233.868C180.35 233.859 180.371 233.856 180.39 233.86C180.41 233.864 180.428 233.874 180.441 233.889C180.454 233.904 180.462 233.923 180.463 233.943C180.464 233.963 180.459 233.983 180.448 234C179.624 234.824 178.874 235.738 178.05 236.571C177.226 237.403 176.319 238.276 175.438 239.117C173.718 240.765 171.988 242.399 170.247 244.019C166.761 247.266 163.267 250.504 159.683 253.644C157.656 255.415 155.67 257.261 153.544 258.909C153.521 258.934 153.489 258.949 153.455 258.951C153.421 258.952 153.388 258.94 153.363 258.917C153.338 258.894 153.323 258.862 153.321 258.828C153.32 258.794 153.332 258.761 153.355 258.736Z" fill="#263238"/>
<path d="M94.4222 177.984C94.6612 179.632 101.624 191.25 110.853 190.69C116.184 190.344 112.558 179.632 112.558 179.632L117.198 164.998L99.5063 151.476C99.5063 151.476 94.3316 177.267 94.4222 177.984Z" fill="#C95F50"/>
<path d="M97.6111 161.142C98.7964 164.979 100.759 168.531 103.375 171.577C105.992 174.623 109.208 177.099 112.822 178.849L117.206 165.039L99.5063 151.517C99.5063 151.517 98.6493 155.86 97.6111 161.142Z" fill="#263238"/>
<path d="M138.053 144.488C138.58 169.62 123.583 172.776 118.162 172.883C113.218 172.982 96.4739 172.686 93.3509 147.735C90.228 122.784 101.756 114.594 112.995 113.778C124.234 112.962 137.534 119.348 138.053 144.488Z" fill="#C95F50"/>
<path d="M132.161 142.47C131.604 142.338 131.054 142.179 130.513 141.992C129.887 141.909 129.307 141.619 128.865 141.168C128.757 141.003 128.706 140.807 128.72 140.61C128.735 140.413 128.815 140.226 128.948 140.08C129.253 139.83 129.619 139.665 130.008 139.603C130.398 139.541 130.797 139.583 131.164 139.726C131.956 139.904 132.654 140.367 133.125 141.028C133.22 141.183 133.269 141.363 133.265 141.545C133.261 141.728 133.205 141.905 133.104 142.057C133.003 142.208 132.86 142.328 132.693 142.401C132.526 142.474 132.342 142.498 132.161 142.47Z" fill="#263238"/>
<path d="M114.932 141.728C115.51 141.681 116.085 141.602 116.654 141.489C117.272 141.496 117.876 141.296 118.368 140.921C118.5 140.774 118.58 140.588 118.595 140.391C118.61 140.194 118.559 139.998 118.45 139.833C118.187 139.538 117.849 139.32 117.472 139.201C117.095 139.082 116.692 139.067 116.308 139.157C115.498 139.207 114.738 139.564 114.182 140.154C114.063 140.295 113.987 140.467 113.963 140.649C113.939 140.832 113.969 141.017 114.048 141.184C114.127 141.35 114.253 141.49 114.409 141.586C114.566 141.683 114.747 141.732 114.932 141.728Z" fill="#263238"/>
<path d="M118.046 148.32C118.046 148.254 117.914 148.394 117.906 148.468C117.906 150.174 117.552 152.135 115.978 152.588C115.929 152.588 115.929 152.687 115.978 152.687C117.89 152.531 118.293 149.968 118.046 148.32Z" fill="#263238"/>
<path d="M116.613 146.441C113.877 146.087 113.374 151.6 115.912 151.921C118.45 152.242 118.911 146.73 116.613 146.441Z" fill="#263238"/>
<path d="M115.508 146.672C114.998 146.944 114.478 147.447 113.86 147.496C113.242 147.545 112.723 146.878 112.336 146.285C112.295 146.227 112.245 146.285 112.237 146.342C112.13 147.397 112.435 148.51 113.556 148.773C114.676 149.037 115.393 148.139 115.756 147.125C115.854 146.829 115.714 146.524 115.508 146.672Z" fill="#263238"/>
<path d="M128.387 148.477C128.387 148.411 128.511 148.575 128.503 148.641C128.28 150.339 128.313 152.325 129.805 153.042C129.846 153.042 129.805 153.149 129.805 153.132C127.918 152.687 127.901 150.05 128.387 148.477Z" fill="#263238"/>
<path d="M130.085 146.845C132.845 146.911 132.557 152.424 129.961 152.374C127.366 152.325 127.769 146.796 130.085 146.845Z" fill="#263238"/>
<path d="M131.214 147.282C131.634 147.595 132.038 148.155 132.549 148.221C133.06 148.287 133.636 147.719 134.057 147.175C134.098 147.117 134.139 147.175 134.139 147.241C134.139 148.295 133.686 149.375 132.664 149.515C131.642 149.655 131.098 148.691 130.909 147.636C130.876 147.438 131.016 147.15 131.214 147.282Z" fill="#263238"/>
<path d="M118.022 161.455C118.376 161.908 118.705 162.509 119.315 162.641C119.947 162.716 120.587 162.657 121.194 162.468C121.252 162.468 121.301 162.518 121.26 162.559C120.972 162.86 120.608 163.078 120.206 163.19C119.804 163.302 119.38 163.303 118.977 163.193C118.64 163.057 118.351 162.824 118.147 162.523C117.943 162.222 117.834 161.868 117.832 161.504C117.832 161.405 117.972 161.389 118.022 161.455Z" fill="#263238"/>
<path d="M125.643 155.843C125.643 155.843 125.8 158.414 125.701 159.617C125.701 159.732 125.396 159.765 124.993 159.757H124.943C123.896 159.861 122.84 159.676 121.89 159.223C120.94 158.77 120.132 158.066 119.554 157.186C119.48 157.063 119.645 156.947 119.744 157.03C121.197 158.198 122.989 158.866 124.852 158.933C124.96 158.612 124.44 154.533 124.638 154.533C125.564 154.685 126.465 154.962 127.316 155.357C127.16 149.976 126.13 144.645 126.055 139.314C126.048 139.272 126.057 139.229 126.081 139.195C126.105 139.16 126.142 139.136 126.183 139.128C126.225 139.121 126.268 139.13 126.302 139.154C126.337 139.178 126.361 139.215 126.369 139.256C127.835 144.744 128.157 150.932 128.47 156.478C128.544 157.178 126.113 156.082 125.643 155.843Z" fill="#263238"/>
<path d="M93.936 147.158C100.124 147.982 105.109 129.376 105.694 127.086C105.406 128.552 103.873 136.298 104.409 136.71C105.069 136.823 105.743 136.823 106.403 136.71C106.565 135.779 106.796 134.862 107.095 133.966C107.219 133.546 107.095 134.93 107.095 136.652C107.458 136.652 107.853 136.562 108.282 136.529C108.552 134.528 109.087 132.571 109.872 130.711C110.177 130.011 109.814 133.348 110.029 136.356C114.462 135.927 120.848 135.466 126.608 136.24C128.157 136.446 129.475 136.685 130.637 136.941C131.032 134.65 131.181 132.153 131.263 132.713C131.487 134.177 131.567 135.659 131.502 137.138C132.128 137.287 132.705 137.427 133.224 137.567C133.933 134.353 133.265 128.907 133.653 129.788C134.781 132.493 135.385 135.387 135.433 138.317C137.575 139.141 138.111 139.652 138.275 139.091C138.556 138.069 138.827 128.775 132.878 120.914C126.418 112.377 111.388 107.96 100.858 117.618C100.858 117.618 92.9472 121.062 90.5576 128.33C88.168 135.597 90.3516 146.672 93.936 147.158Z" fill="#263238"/>
<path d="M97.6193 147.867C97.6193 147.867 92.6753 139.676 88.9755 141.398C85.2758 143.121 88.6624 154.739 92.733 156.568C93.239 156.838 93.7945 157.003 94.3658 157.053C94.9372 157.102 95.5127 157.036 96.0578 156.857C96.6028 156.679 97.106 156.391 97.5372 156.013C97.9684 155.635 98.3187 155.174 98.5669 154.657L97.6193 147.867Z" fill="#C95F50"/>
<path d="M90.022 144.703C90.0113 144.707 90.0021 144.714 89.9956 144.724C89.9892 144.733 89.9857 144.745 89.9857 144.756C89.9857 144.768 89.9892 144.779 89.9956 144.789C90.0021 144.798 90.0113 144.805 90.022 144.81C92.873 146.194 94.2326 149.004 95.1308 151.888C94.3068 150.751 93.1862 150.075 91.67 151.014C91.5876 151.064 91.67 151.188 91.7359 151.179C92.2601 151.049 92.8118 151.084 93.315 151.281C93.8182 151.477 94.2482 151.824 94.5457 152.275C95.0377 153.035 95.4492 153.844 95.7735 154.69C95.8889 154.961 96.375 154.854 96.2926 154.549C96.2888 154.525 96.2888 154.5 96.2926 154.475C96.5563 150.792 94.0019 145.345 90.022 144.703Z" fill="#263238"/>
<path d="M119.414 189.792L105.472 232.904C104.92 234.156 105.472 235.244 106.766 235.326L129.384 236.809C130.079 236.802 130.756 236.599 131.34 236.223C131.923 235.847 132.388 235.313 132.68 234.683L146.598 191.572C147.15 190.311 146.598 189.223 145.312 189.1L122.694 187.617C121.997 187.63 121.318 187.842 120.737 188.227C120.156 188.612 119.697 189.155 119.414 189.792Z" fill="#37474F"/>
<path d="M122.1 189.94L108.183 233.052C107.631 234.313 108.183 235.4 109.477 235.483L132.095 236.966C132.789 236.959 133.467 236.756 134.051 236.379C134.634 236.003 135.099 235.469 135.391 234.84L149.309 191.72C149.861 190.468 149.309 189.38 148.023 189.298L125.405 187.814C124.709 187.818 124.028 188.02 123.443 188.396C122.858 188.773 122.392 189.308 122.1 189.94Z" fill="#455A64"/>
<path d="M128.173 192.346C128.141 192.726 127.996 193.088 127.758 193.386C127.52 193.684 127.199 193.905 126.835 194.02C126.472 194.136 126.082 194.141 125.716 194.035C125.349 193.929 125.023 193.716 124.777 193.424C124.531 193.133 124.378 192.774 124.336 192.395C124.294 192.016 124.365 191.633 124.541 191.295C124.716 190.956 124.988 190.677 125.323 190.493C125.657 190.309 126.038 190.229 126.418 190.262C126.927 190.306 127.398 190.55 127.727 190.941C128.056 191.332 128.217 191.837 128.173 192.346Z" fill="#263238"/>
<path d="M33.5945 285.846C43.4825 287.205 55.7848 279.534 87.7148 256.223C92.1314 253.001 77.7526 215.698 72.8828 218.896C66.7193 222.933 43.6638 239.916 42.1394 241.374C29.219 253.644 26.8954 284.923 33.5945 285.846Z" fill="#C95F50"/>
<path d="M61.454 230.176C61.454 230.176 70.518 217.421 77.3984 212.197C86.5777 205.201 97.3804 202.935 101.962 202.259C111.528 200.85 135.639 204.064 135.927 211.167C136.191 217.602 111.71 213.078 111.71 213.078C111.71 213.078 137.427 213.573 136.323 221.376C135.218 229.179 107.12 222.307 107.12 222.307C107.12 222.307 133.537 223.403 131.123 231.272C129.294 237.213 103.478 232.426 103.478 232.426C103.478 232.426 126.171 233.53 124.556 239.726C122.768 246.566 98.6658 243.64 98.6658 243.64C91.909 258.695 82.1858 262.93 75.1736 265.27C73.4349 265.839 61.454 230.176 61.454 230.176Z" fill="#C95F50"/>
<path d="M102.827 212.337C105.851 212.279 108.908 212.213 111.891 212.427C114.874 212.641 117.923 212.971 120.906 213.465C124.818 214.041 128.653 215.061 132.334 216.506C125.611 214.421 114.824 213.474 111.809 213.251C108.793 213.029 105.793 212.666 102.745 212.427C102.736 212.444 102.753 212.337 102.827 212.337Z" fill="#263238"/>
<path d="M101.838 223.213C105.703 223.32 109.543 223.279 113.374 223.551C117.206 223.823 120.831 224.416 124.646 224.952C124.935 224.993 124.82 225.133 124.523 225.1C120.691 224.721 117.107 224.664 113.284 224.326C109.46 223.988 105.629 223.502 101.797 223.304C101.772 223.304 101.78 223.213 101.838 223.213Z" fill="#263238"/>
<path d="M99.3167 232.368C105.233 232.22 111.158 233.192 116.959 234.23C117.247 234.288 117.074 234.453 116.777 234.42C110.919 233.686 106.337 233.077 99.3249 232.574C99.2096 232.599 99.1931 232.368 99.3167 232.368Z" fill="#263238"/>
<path d="M61.4539 225.109L74.0364 270.956C74.0364 270.956 40.2524 290.823 32.8364 285.574C25.4204 280.325 30.249 253.842 38.728 243.748C42.2053 239.537 61.4539 225.109 61.4539 225.109Z" fill="#1C1C1C"/>
<path d="M61.8742 226.6L61.3798 225.092L61.5034 225.142C58.3145 227.745 55.1174 230.325 51.9615 232.953C48.8055 235.582 45.6414 238.202 42.642 240.979C41.1221 242.324 39.6909 243.766 38.3572 245.297C37.0812 246.872 35.9426 248.553 34.9541 250.323C32.9939 253.928 31.6199 257.822 30.8835 261.859C31.2087 257.713 32.3277 253.668 34.1795 249.944C35.11 248.072 36.237 246.304 37.5415 244.67C38.8833 243.075 40.3284 241.569 41.8675 240.163C44.9245 237.386 48.1299 234.782 51.3764 232.253C54.623 229.723 57.9684 227.309 61.4127 225.043L61.5116 224.977V225.084L61.8742 226.6Z" fill="#263238"/>
<path d="M54.0627 236.488C54.829 238.738 55.414 241.061 56.0485 243.352C56.683 245.643 57.301 247.95 57.886 250.265C59.0561 254.88 60.2015 259.502 61.2809 264.142C61.5775 265.41 61.8742 266.679 62.1049 267.957C62.3356 269.234 62.5251 270.717 62.83 272.077C62.8327 272.087 62.8333 272.099 62.8316 272.11C62.83 272.121 62.8262 272.131 62.8205 272.141C62.8089 272.16 62.7901 272.174 62.7682 272.18C62.7464 272.185 62.7232 272.182 62.7039 272.17C62.6846 272.158 62.6707 272.14 62.6652 272.118C62.3603 270.989 61.8907 269.901 61.5611 268.772C61.2315 267.644 60.8936 266.44 60.5887 265.262C59.979 262.96 59.3802 260.656 58.7924 258.349C57.6141 253.734 56.4605 249.112 55.4387 244.456C54.8619 241.836 54.2027 239.199 53.7907 236.546C53.787 236.528 53.7867 236.509 53.7901 236.492C53.7934 236.474 53.8002 236.456 53.8102 236.441C53.8201 236.426 53.833 236.413 53.848 236.402C53.8631 236.392 53.88 236.385 53.8979 236.381C53.9157 236.377 53.9341 236.377 53.9521 236.38C53.97 236.384 53.9871 236.39 54.0025 236.4C54.0178 236.41 54.0309 236.423 54.0413 236.438C54.0516 236.453 54.0589 236.47 54.0627 236.488Z" fill="#263238"/>
<path d="M74.0365 270.956C74.2589 271.384 74.2425 271.022 74.193 270.758C74.1436 270.494 73.6245 268.286 73.1383 266.885C73.0889 266.745 72.8746 266.498 72.957 267.001C73.2464 268.337 73.6067 269.658 74.0365 270.956Z" fill="#263238"/>
</svg>
